<svg xmlns="http://www.w3.org/2000/svg" width="20" height="20" fill="none" viewBox="0 0 20 20"><path fill="#212121" d="M8.314 13.186c.584-.584.876-.876 1.211-.988a1.5 1.5 0 0 1 .95 0c.335.112.627.404 1.211.988l1.242 1.242c1.264 1.264 1.896 1.895 1.945 2.436a1.5 1.5 0 0 1-.534 1.288c-.417.348-1.31.348-3.097.348H8.758c-1.787 0-2.68 0-3.097-.348a1.5 1.5 0 0 1-.534-1.288c.05-.54.681-1.172 1.944-2.436l1.243-1.242Z"/><path fill="#D6D6D6" d="M12.534 1.5H7.466c-1.139 0-2.04 0-2.766.062-.743.063-1.37.195-1.94.499A4.75 4.75 0 0 0 .81 4.01C.508 4.58.376 5.207.313 5.95.25 6.675.25 7.577.25 8.716v.068c0 1.139 0 2.04.062 2.766.063.743.195 1.37.499 1.94a4.75 4.75 0 0 0 1.95 1.95c.352.187.726.31 1.136.39a4.47 4.47 0 0 1 .598-.877c.365-.434.877-.947 1.468-1.537l1.323-1.324c.263-.263.52-.52.754-.719.258-.219.584-.455 1.01-.598a3 3 0 0 1 1.9 0c.426.143.752.379 1.01.598.234.2.49.456.754.72l1.323 1.322c.59.591 1.103 1.104 1.468 1.538.194.232.423.526.598.877.41-.08.784-.203 1.136-.39a4.749 4.749 0 0 0 1.95-1.95c.304-.57.436-1.197.5-1.94.061-.726.061-1.627.061-2.765v-.07c0-1.138 0-2.04-.062-2.765-.063-.743-.195-1.37-.499-1.94a4.75 4.75 0 0 0-1.95-1.95c-.569-.303-1.196-.435-1.939-.498-.726-.062-1.628-.062-2.766-.062Z"/></svg>