<svg xmlns="http://www.w3.org/2000/svg" width="20" height="20" fill="none" viewBox="0 0 20 20"><path fill="#D6D6D6" d="M15.125 17.436a8.959 8.959 0 0 1-5.25 1.689 8.959 8.959 0 0 1-5.25-1.69l-2.22 2.22a.75.75 0 1 1-1.06-1.06l2.136-2.136a9 9 0 1 1 12.788 0l2.137 2.136a.75.75 0 0 1-1.061 1.06l-2.22-2.22Z"/><path fill="#212121" fill-rule="evenodd" d="M9.375 4.875a.75.75 0 0 1 .75.75v4.25h4.25a.75.75 0 0 1 0 1.5h-5.75v-5.75a.75.75 0 0 1 .75-.75ZM3.405.655a.75.75 0 0 1 0 1.06l-1.939 1.94a.75.75 0 0 1-1.06-1.06L2.344.655a.75.75 0 0 1 1.06 0Zm15.94 3a.75.75 0 0 1-1.06 0l-1.94-1.94a.75.75 0 1 1 1.06-1.06l1.94 1.94a.75.75 0 0 1 0 1.06Z" clip-rule="evenodd"/></svg>