<svg xmlns="http://www.w3.org/2000/svg" width="20" height="20" fill="none" viewBox="0 0 20 20"><path fill="#212121" d="M18.5 2.56a.75.75 0 0 0-1.06-1.06L13 5.94V2.75a.75.75 0 0 0-1.5 0v3.045c0 .432 0 .83.043 1.152.048.355.16.731.47 1.04.309.31.684.422 1.04.47.323.043.72.043 1.152.043h3.045a.75.75 0 0 0 0-1.5h-3.189l4.44-4.44ZM1.5 17.44a.75.75 0 1 0 1.06 1.06L7 14.06v3.19a.75.75 0 0 0 1.5 0v-3.045c0-.433 0-.83-.043-1.152-.048-.356-.16-.732-.47-1.04-.308-.31-.684-.422-1.04-.47-.322-.043-.72-.043-1.152-.043H2.75a.75.75 0 0 0 0 1.5h3.19L1.5 17.44Z"/><path fill="#D6D6D6" d="M1.5 2.56A.75.75 0 0 1 2.56 1.5L7 5.94V2.75a.75.75 0 1 1 1.5 0v3.045c0 .432 0 .83-.043 1.152-.048.355-.16.731-.47 1.04-.308.31-.684.422-1.04.47-.322.043-.72.043-1.152.043H2.75a.75.75 0 1 1 0-1.5h3.19L1.5 2.56ZM18.5 17.44a.75.75 0 1 1-1.06 1.06L13 14.06v3.19a.75.75 0 0 1-1.5 0v-3.045c0-.433 0-.83.043-1.152.048-.356.16-.732.47-1.04.309-.31.684-.422 1.04-.47.323-.043.72-.043 1.152-.043h3.045a.75.75 0 0 1 0 1.5h-3.189l4.44 4.44Z"/></svg>