<svg xmlns="http://www.w3.org/2000/svg" width="20" height="20" fill="none" viewBox="0 0 20 20"><path fill="#D6D6D6" fill-rule="evenodd" d="M0 10.806v-.056a.75.75 0 0 1 1.5 0c0 1.907.001 3.261.14 4.289.135 1.006.389 1.586.812 2.009.423.423 1.003.677 2.009.812 1.027.138 2.382.14 4.289.14h2c1.907 0 3.261-.002 4.289-.14 1.006-.135 1.586-.389 2.009-.812.423-.423.677-1.003.812-2.009.138-1.028.14-2.382.14-4.29a.75.75 0 0 1 1.5 0v.057c0 1.838 0 3.294-.153 4.433-.158 1.172-.49 2.121-1.238 2.87-.749.748-1.698 1.08-2.87 1.238-1.14.153-2.595.153-4.433.153H8.693c-1.837 0-3.293 0-4.432-.153-1.173-.158-2.122-.49-2.87-1.238-.748-.749-1.08-1.698-1.238-2.87C0 14.099 0 12.644 0 10.806Z" clip-rule="evenodd"/><path fill="#212121" fill-rule="evenodd" d="M9.25 11.81a.75.75 0 0 0 1 0l4-3.572a.75.75 0 1 0-1-1.119L10.5 9.575V1.25a.75.75 0 0 0-1.5 0v8.325L6.25 7.119a.75.75 0 0 0-1 1.12l4 3.57Z" clip-rule="evenodd"/></svg>