<svg xmlns="http://www.w3.org/2000/svg" width="20" height="20" fill="none" viewBox="0 0 20 20"><path fill="#D6D6D6" d="M.879 4.879C0 5.757 0 7.172 0 10c0 2.828 0 4.243.879 5.121C1.757 16 3.172 16 6 16h6c2.828 0 4.243 0 5.121-.879.3-.3.498-.662.628-1.121H18a2 2 0 0 0 2-2V8a2 2 0 0 0-2-2h-.251c-.13-.46-.328-.822-.628-1.121C16.243 4 14.828 4 12 4H6c-2.828 0-4.243 0-5.121.879Z"/><path fill="#212121" fill-rule="evenodd" d="M4.75 7a.75.75 0 0 1 .75.75v4.5a.75.75 0 0 1-1.5 0v-4.5A.75.75 0 0 1 4.75 7ZM7.75 7a.75.75 0 0 1 .75.75v4.5a.75.75 0 0 1-1.5 0v-4.5A.75.75 0 0 1 7.75 7ZM10.75 7a.75.75 0 0 1 .75.75v4.5a.75.75 0 0 1-1.5 0v-4.5a.75.75 0 0 1 .75-.75ZM13.75 7a.75.75 0 0 1 .75.75v4.5a.75.75 0 0 1-1.5 0v-4.5a.75.75 0 0 1 .75-.75Z" clip-rule="evenodd"/></svg>