<svg xmlns="http://www.w3.org/2000/svg" width="20" height="20" fill="none" viewBox="0 0 20 20"><path fill="#D6D6D6" fill-rule="evenodd" d="M2.955.25h10.09c.433 0 .83 0 1.152.043.356.048.731.16 1.04.47.31.309.422.684.47 1.04.043.323.043.72.043 1.152v11.14c0 .838 0 1.372-.091 1.832a4.75 4.75 0 0 1-3.732 3.732c-.46.091-.994.091-1.832.091H7.958c-1.369 0-2.454 0-3.32-.088-.888-.09-1.629-.28-2.277-.712a4.751 4.751 0 0 1-1.31-1.311c-.434-.648-.623-1.39-.713-2.277-.088-.866-.088-1.951-.088-3.32V2.955c0-.433 0-.83.043-1.152.048-.356.16-.731.47-1.04.309-.31.684-.422 1.04-.47C2.126.25 2.523.25 2.955.25ZM1.823 1.823l.003-.001a.706.706 0 0 1 .177-.042c.21-.028.504-.03.997-.03h10c.493 0 .787.002.997.03a.704.704 0 0 1 .177.042l.003.001.001.003a.703.703 0 0 1 .042.177c.028.21.03.504.03.997v2.25H1.75V3c0-.493.002-.787.03-.997a.706.706 0 0 1 .042-.177l.001-.003Z" clip-rule="evenodd"/><path fill="#212121" d="M15.75 3.251c.596.005 1.111.02 1.544.079.628.084 1.195.27 1.65.725.456.456.642 1.023.726 1.65.08.595.08 1.344.08 2.243v2.104c0 .898 0 1.648-.08 2.242-.084.628-.27 1.195-.726 1.65-.455.456-1.022.642-1.65.726-.434.058-.95.074-1.546.078l.002-1.5c.57-.004 1-.018 1.345-.065.461-.062.659-.169.789-.3.13-.13.237-.327.3-.788.064-.484.066-1.131.066-2.095V8c0-.964-.002-1.612-.067-2.095-.062-.461-.169-.659-.3-.789-.13-.13-.327-.238-.788-.3-.346-.046-.776-.06-1.345-.064v-1.5Z"/><path fill="#212121" fill-rule="evenodd" d="M10 9a.75.75 0 0 1 .75.75v4.5a.75.75 0 0 1-1.5 0v-4.5A.75.75 0 0 1 10 9ZM6 9a.75.75 0 0 1 .75.75v4.5a.75.75 0 0 1-1.5 0v-4.5A.75.75 0 0 1 6 9Z" clip-rule="evenodd"/></svg>