<svg xmlns="http://www.w3.org/2000/svg" width="20" height="20" fill="none" viewBox="0 0 20 20"><path fill="#212121" fill-rule="evenodd" d="M9.973 2.25h.054c.91 0 1.63 0 2.213.04.596.04 1.104.125 1.578.322a4.75 4.75 0 0 1 2.57 2.57c.197.474.281.982.322 1.578.04.584.04 1.304.04 2.213V9h-1.5c0-.942 0-1.611-.036-2.138-.036-.52-.103-.845-.211-1.106a3.25 3.25 0 0 0-1.76-1.759c-.26-.108-.586-.175-1.105-.21C11.61 3.75 10.942 3.75 10 3.75s-1.611 0-2.138.036c-.52.036-.845.103-1.106.211a3.25 3.25 0 0 0-1.759 1.76c-.108.26-.175.586-.21 1.105C4.75 7.39 4.75 8.058 4.75 9h-1.5v-.027c0-.91 0-1.63.04-2.213.04-.596.125-1.104.322-1.578a4.75 4.75 0 0 1 2.57-2.57c.474-.197.982-.282 1.578-.322.584-.04 1.304-.04 2.213-.04Z" clip-rule="evenodd"/><path fill="#212121" fill-rule="evenodd" d="M12.75 0a.75.75 0 0 1 .75.75v1.5a.75.75 0 0 1-1.5 0V.75a.75.75 0 0 1 .75-.75Z" clip-rule="evenodd"/><path fill="#D6D6D6" d="M3.25 8.719c-.49.28-.896.634-1.14 1.165-.275.598-.245 1.207-.094 1.837.143.597.42 1.314.754 2.175l.777 2.005-2.963 1.975a.75.75 0 1 0 .832 1.248L4 17.401l3 2 3-2 3 2 3-2 2.584 1.723a.75.75 0 1 0 .832-1.248l-2.963-1.975.777-2.005c.334-.86.611-1.578.754-2.175.15-.63.18-1.239-.094-1.837-.243-.53-.65-.885-1.14-1.165l-1.502-.653c-.26-.095-.537-.193-.83-.297l-2.93-1.037c-.565-.201-1.012-.36-1.488-.36-.475 0-.923.159-1.488.36l-2.93 1.037c-.293.104-.57.202-.83.298l-1.502.652Z"/><path fill="#212121" d="M8 14a1 1 0 1 1-2 0 1 1 0 0 1 2 0Z"/><path fill="#212121" fill-rule="evenodd" d="m4 15.599 3 2 3-2 3 2 3-2 3.416 2.277a.75.75 0 1 1-.832 1.248L16 17.401l-3 2-3-2-3 2-3-2-2.584 1.723a.75.75 0 0 1-.832-1.248L4 15.599Z" clip-rule="evenodd"/></svg>