<svg xmlns="http://www.w3.org/2000/svg" width="20" height="20" fill="none" viewBox="0 0 20 20"><path fill="#D6D6D6" d="M5.288 10.25a7.355 7.355 0 0 0-.038.75v7c0 .966.784 1.75 1.75 1.75h6A1.75 1.75 0 0 0 14.75 18v-7c0-.251-.013-.502-.038-.75H5.288Z"/><path fill="#212121" fill-rule="evenodd" d="M7.25 2c0-.966.784-1.75 1.75-1.75h2c.966 0 1.75.784 1.75 1.75v3.394c0 .247.073.488.21.694l.555.832A7.355 7.355 0 0 1 14.75 11v7A1.75 1.75 0 0 1 13 19.75H7A1.75 1.75 0 0 1 5.25 18v-7c0-1.452.43-2.872 1.235-4.08l.555-.832a1.25 1.25 0 0 0 .21-.694V2ZM9 1.75a.25.25 0 0 0-.25.25v3.394a2.75 2.75 0 0 1-.462 1.526l-.555.832A5.856 5.856 0 0 0 6.75 11v7c0 .138.112.25.25.25h6a.25.25 0 0 0 .25-.25v-7a5.856 5.856 0 0 0-.983-3.248l-.555-.832a2.75 2.75 0 0 1-.462-1.526V2a.25.25 0 0 0-.25-.25H9Z" clip-rule="evenodd"/></svg>