<svg xmlns="http://www.w3.org/2000/svg" width="20" height="20" fill="none" viewBox="0 0 20 20"><path fill="#212121" fill-rule="evenodd" d="M15.25 6.92A3.501 3.501 0 0 0 14.5 0a3.5 3.5 0 0 0-.75 6.92v3.58c0 .942 0 1.611-.036 2.138-.036.52-.103.845-.211 1.106a3.25 3.25 0 0 1-1.76 1.759c-.26.108-.586.175-1.105.21-.527.037-1.196.037-2.138.037v1.5h.027c.91 0 1.63 0 2.213-.04.596-.04 1.104-.125 1.578-.322a4.75 4.75 0 0 0 2.57-2.57c.197-.474.281-.982.322-1.578.04-.584.04-1.304.04-2.213V6.92Z" clip-rule="evenodd"/><path fill="#D6D6D6" fill-rule="evenodd" d="M6.25 6.92A3.501 3.501 0 0 0 5.5 0a3.5 3.5 0 0 0-.75 6.92v6.16A3.501 3.501 0 0 0 5.5 20a3.5 3.5 0 0 0 .75-6.92V6.92Z" clip-rule="evenodd"/></svg>