<svg xmlns="http://www.w3.org/2000/svg" width="20" height="20" fill="none" viewBox="0 0 20 20"><path fill="#D6D6D6" fill-rule="evenodd" d="M5.5 5.75a.75.75 0 0 1 .75.75v7h-1.5v-7a.75.75 0 0 1 .75-.75Z" clip-rule="evenodd"/><path fill="#212121" fill-rule="evenodd" d="M14.5 5.75a.75.75 0 0 1 .75.75V7a3.75 3.75 0 0 1-3.75 3.75h-3A2.25 2.25 0 0 0 6.25 13v.5a.75.75 0 0 1-1.5 0V13A3.75 3.75 0 0 1 8.5 9.25h3A2.25 2.25 0 0 0 13.75 7v-.5a.75.75 0 0 1 .75-.75Z" clip-rule="evenodd"/><path fill="#D6D6D6" fill-rule="evenodd" d="M5.5 20a3.5 3.5 0 1 0 0-7 3.5 3.5 0 0 0 0 7Zm0-13a3.5 3.5 0 1 0 0-7 3.5 3.5 0 0 0 0 7Z" clip-rule="evenodd"/><path fill="#212121" fill-rule="evenodd" d="M14.5 7a3.5 3.5 0 1 0 0-7 3.5 3.5 0 0 0 0 7Z" clip-rule="evenodd"/></svg>