<svg xmlns="http://www.w3.org/2000/svg" width="20" height="20" fill="none" viewBox="0 0 20 20"><path fill="#D6D6D6" fill-rule="evenodd" d="M9.975.75h.05c.445 0 .816 0 1.12.02.318.022.617.069.907.19a2.75 2.75 0 0 1 1.489 1.488c.12.29.167.59.188.907.009.12.014.252.017.395 1.042 0 1.892.005 2.578.082.754.085 1.403.266 1.959.693.26.2.493.432.692.692.427.556.608 1.205.693 1.96.048.43.068.925.076 1.491l.006 1.578v2.309c0 1.367 0 2.47-.116 3.337-.122.9-.38 1.658-.982 2.26-.602.602-1.36.86-2.26.982-.867.116-1.97.116-3.337.116h-6.11c-1.367 0-2.47 0-3.337-.116-.9-.122-1.658-.38-2.26-.982-.602-.602-.86-1.36-.981-2.26-.117-.867-.117-1.97-.117-3.337v-2.309l.006-1.578c.008-.566.028-1.061.076-1.492.085-.754.266-1.403.693-1.959.2-.26.432-.493.692-.692.556-.427 1.205-.608 1.96-.693.685-.077 1.535-.082 2.578-.082.003-.143.008-.274.016-.395.021-.317.068-.617.188-.907A2.75 2.75 0 0 1 7.948.959c.29-.12.59-.167.907-.188C9.159.75 9.53.75 9.975.75Zm2.27 3a6.622 6.622 0 0 0-.012-.293c-.017-.241-.046-.358-.078-.435a1.25 1.25 0 0 0-.677-.677c-.077-.032-.194-.061-.435-.078A17.091 17.091 0 0 0 10 2.25c-.476 0-.796 0-1.043.017-.241.017-.358.046-.435.078a1.25 1.25 0 0 0-.677.677c-.032.077-.061.194-.078.435-.006.087-.01.184-.012.293h4.49Z" clip-rule="evenodd"/><path fill="#212121" fill-rule="evenodd" d="M10.025.75h-.05c-.445 0-.816 0-1.12.02a2.823 2.823 0 0 0-.907.19 2.75 2.75 0 0 0-1.489 1.488c-.12.29-.167.59-.188.907a8.466 8.466 0 0 0-.016.395h7.49a8.434 8.434 0 0 0-.016-.395 2.822 2.822 0 0 0-.188-.907A2.75 2.75 0 0 0 12.052.959c-.29-.12-.59-.167-.907-.188C10.841.75 10.47.75 10.025.75Zm2.208 2.707c.006.087.01.184.012.293h-4.49c.002-.11.006-.206.012-.293.017-.241.046-.358.078-.435.127-.307.37-.55.677-.677.077-.032.194-.061.435-.078.247-.017.567-.017 1.043-.017s.796 0 1.043.017c.241.017.358.046.435.078.307.127.55.37.677.677.032.077.061.194.078.435ZM2.31 8.705a.75.75 0 0 1 .985-.394l1.486.636a13.25 13.25 0 0 0 10.438 0l1.486-.636a.75.75 0 1 1 .59 1.379l-1.485.636a14.75 14.75 0 0 1-11.62 0L2.705 9.69a.75.75 0 0 1-.394-.985Z" clip-rule="evenodd"/><path fill="#212121" fill-rule="evenodd" d="M10 8a.75.75 0 0 1 .75.75v4a.75.75 0 0 1-1.5 0v-4A.75.75 0 0 1 10 8Z" clip-rule="evenodd"/></svg>