<svg xmlns="http://www.w3.org/2000/svg" width="20" height="20" fill="none" viewBox="0 0 20 20"><path fill="#D6D6D6" d="M2 8c0-3.771 0-5.657 1.172-6.828C4.343 0 6.229 0 10 0c3.771 0 5.657 0 6.828 1.172C18 2.343 18 4.229 18 8v12H2V8Z"/><path fill="#212121" fill-rule="evenodd" d="M.75 18.5a.75.75 0 0 0 0 1.5h18.5a.75.75 0 0 0 0-1.5H13V15a3 3 0 1 0-6 0v3.5H.75Zm7.75 0h3V15a1.5 1.5 0 0 0-3 0v3.5Z" clip-rule="evenodd"/><path fill="#212121" d="M6 5a1 1 0 0 1 1-1h1a1 1 0 1 1 0 2H7a1 1 0 0 1-1-1ZM7 8a1 1 0 1 0 0 2h1a1 1 0 1 0 0-2H7ZM11 5a1 1 0 0 1 1-1h1a1 1 0 1 1 0 2h-1a1 1 0 0 1-1-1ZM12 8a1 1 0 1 0 0 2h1a1 1 0 1 0 0-2h-1Z"/></svg>