<svg xmlns="http://www.w3.org/2000/svg" width="20" height="20" fill="none" viewBox="0 0 20 20"><path fill="#D6D6D6" fill-rule="evenodd" d="M15.25 17.741c-.364.009-.764.009-1.2.009H5.783c-.37 0-.715-.001-1.032-.009V19a.75.75 0 0 1-1.5 0v-1.414c-.447-.11-.852-.3-1.195-.641-.455-.456-.64-1.023-.725-1.65-.08-.595-.08-1.345-.08-2.243V12H1a1 1 0 0 1-1-1V9a1 1 0 0 1 1-1h.26c.003-.092.005-.215.007-.358.008-.483.02-1.187.036-1.642h1.496c-.049.761-.049 1.716-.049 3v1.25h14.5V9c0-1.284 0-2.239-.05-3h1.497a94.712 94.712 0 0 1 .042 2H19a1 1 0 0 1 1 1v2a1 1 0 0 1-1 1h-.25v1.052c0 .899 0 1.648-.08 2.242-.084.628-.27 1.195-.726 1.65-.342.343-.747.533-1.194.642V19a.75.75 0 0 1-1.5 0v-1.259ZM4 14c0-.552.336-1 .75-1h2.5c.414 0 .75.448.75 1s-.336 1-.75 1h-2.5c-.414 0-.75-.448-.75-1Zm8.75-1c-.414 0-.75.448-.75 1s.336 1 .75 1h2.5c.414 0 .75-.448.75-1s-.336-1-.75-1h-2.5Z" clip-rule="evenodd"/><path fill="#212121" d="M18.606 5c-.088-.597-.234-1.123-.483-1.61A5.75 5.75 0 0 0 15.61.877C14.952.54 14.225.393 13.345.32 12.481.25 11.405.25 10.034.25h-.068c-1.371 0-2.447 0-3.311.07-.88.073-1.607.221-2.265.557A5.75 5.75 0 0 0 1.877 3.39c-.249.487-.395 1.013-.483 1.61h17.212Z"/></svg>