<svg xmlns="http://www.w3.org/2000/svg" width="20" height="20" fill="none" viewBox="0 0 20 20"><path fill="#D6D6D6" fill-rule="evenodd" d="M.005 8C0 8.615 0 9.28 0 10c0 4.714 0 7.071 1.464 8.535C2.93 20 5.286 20 10 20c4.714 0 7.071 0 8.535-1.465C20 17.072 20 14.714 20 10c0-.72 0-1.385-.005-2H.005Z" clip-rule="evenodd"/><path fill="#212121" fill-rule="evenodd" d="M4 11.25a.75.75 0 0 1 .75-.75h1.5a.75.75 0 0 1 0 1.5h-1.5a.75.75 0 0 1-.75-.75Zm4.5 0a.75.75 0 0 1 .75-.75h1.5a.75.75 0 0 1 0 1.5h-1.5a.75.75 0 0 1-.75-.75Zm4.5 0a.75.75 0 0 1 .75-.75h1.5a.75.75 0 0 1 0 1.5h-1.5a.75.75 0 0 1-.75-.75Zm-9 4a.75.75 0 0 1 .75-.75h1.5a.75.75 0 0 1 0 1.5h-1.5a.75.75 0 0 1-.75-.75Zm4.5 0a.75.75 0 0 1 .75-.75h1.5a.75.75 0 0 1 0 1.5h-1.5a.75.75 0 0 1-.75-.75Zm4.5 0a.75.75 0 0 1 .75-.75h1.5a.75.75 0 0 1 0 1.5h-1.5a.75.75 0 0 1-.75-.75ZM19.945 6c-.11-2.193-.436-3.562-1.41-4.536C17.072 0 14.714 0 10 0S2.929 0 1.464 1.464C.491 2.438.164 3.807.055 6h19.89ZM12 3.25a.75.75 0 0 1 .75-.75h2.5a.75.75 0 0 1 0 1.5h-2.5a.75.75 0 0 1-.75-.75Z" clip-rule="evenodd"/></svg>