<svg xmlns="http://www.w3.org/2000/svg" width="20" height="20" fill="none" viewBox="0 0 20 20"><path fill="#212121" fill-rule="evenodd" d="M6.75 0a.75.75 0 0 1 .75.75v1.5a.75.75 0 0 1-1.5 0V.75A.75.75 0 0 1 6.75 0Zm6 0a.75.75 0 0 1 .75.75v1.5a.75.75 0 0 1-1.5 0V.75a.75.75 0 0 1 .75-.75Z" clip-rule="evenodd"/><path fill="#D6D6D6" d="M11 2c2.796 0 4.194 0 5.296.457a6 6 0 0 1 3.247 3.247C20 6.807 20 8.204 20 11c0 2.796 0 4.194-.457 5.296a6 6 0 0 1-3.247 3.247C15.194 20 13.796 20 11 20H9c-2.796 0-4.193 0-5.296-.457a6 6 0 0 1-3.247-3.247C0 15.194 0 13.796 0 11c0-2.796 0-4.193.457-5.296a6 6 0 0 1 3.247-3.247C4.807 2 6.204 2 9 2h2Z"/><path stroke="#212121" stroke-linecap="round" stroke-width="1.5" d="M3.75 7.25h12.5"/></svg>