<svg xmlns="http://www.w3.org/2000/svg" width="20" height="20" fill="none" viewBox="0 0 20 20"><path fill="#D6D6D6" d="M6.75 0a.75.75 0 0 1 .75.75v1.254C7.951 2 8.448 2 9 2h3V.75a.75.75 0 0 1 1.5 0v1.27c1.252.038 2.085.142 2.796.437a6 6 0 0 1 3.247 3.247C20 6.807 20 8.204 20 11c0 2.796 0 4.194-.457 5.296a6 6 0 0 1-3.247 3.247C15.194 20 13.796 20 11 20H9c-2.796 0-4.193 0-5.296-.457a6 6 0 0 1-3.247-3.247C0 15.194 0 13.796 0 11c0-2.796 0-4.193.457-5.296a6 6 0 0 1 3.247-3.247C4.316 2.203 5.018 2.09 6 2.04V.75A.75.75 0 0 1 6.75 0Z"/><path fill="#212121" d="m7.03 11.72 1.223 1.222c.956-2.01 2.064-3.31 3.003-4.131a7.908 7.908 0 0 1 1.383-.984 5.068 5.068 0 0 1 .56-.265l.04-.015.014-.005.006-.002h.002l.002-.001a.75.75 0 0 1 .48 1.421l-.01.004a3.608 3.608 0 0 0-.371.178 6.41 6.41 0 0 0-1.118.798c-.91.796-2.091 2.197-3.048 4.589a.75.75 0 0 1-1.226.252l-2-2a.75.75 0 1 1 1.06-1.061Z"/></svg>