<svg xmlns="http://www.w3.org/2000/svg" width="20" height="20" fill="none" viewBox="0 0 20 20"><path fill="#D6D6D6" d="M6.75 0a.75.75 0 0 1 .75.75v1.254C7.951 2 8.448 2 9 2h3V.75a.75.75 0 0 1 1.5 0v1.27c1.252.038 2.085.142 2.796.437a6 6 0 0 1 3.247 3.247C20 6.807 20 8.204 20 11c0 2.796 0 4.194-.457 5.296a6 6 0 0 1-3.247 3.247C15.194 20 13.796 20 11 20H9c-2.796 0-4.193 0-5.296-.457a6 6 0 0 1-3.247-3.247C0 15.194 0 13.796 0 11c0-2.796 0-4.193.457-5.296a6 6 0 0 1 3.247-3.247C4.316 2.203 5.018 2.09 6 2.04V.75A.75.75 0 0 1 6.75 0Z"/><path fill="#212121" fill-rule="evenodd" d="M12.828 8.172a.75.75 0 0 1 0 1.06L11.061 11l1.767 1.768a.75.75 0 1 1-1.06 1.06L10 12.062l-1.768 1.768a.75.75 0 0 1-1.06-1.061L8.939 11 7.172 9.232a.75.75 0 0 1 1.06-1.06L10 9.939l1.768-1.767a.75.75 0 0 1 1.06 0Z" clip-rule="evenodd"/></svg>