<svg xmlns="http://www.w3.org/2000/svg" width="20" height="20" fill="none" viewBox="0 0 20 20"><path fill="#D6D6D6" fill-rule="evenodd" d="M6.75 0a.75.75 0 0 1 .75.75v1.254C7.951 2 8.448 2 9 2h3V.75a.75.75 0 0 1 1.5 0v1.27c1.252.038 2.085.142 2.796.437a6 6 0 0 1 3.247 3.247C20 6.807 20 8.204 20 11c0 2.796 0 4.194-.457 5.296a6 6 0 0 1-3.247 3.247C15.194 20 13.796 20 11 20H9c-2.796 0-4.193 0-5.296-.457a6 6 0 0 1-3.247-3.247C0 15.194 0 13.796 0 11c0-2.796 0-4.193.457-5.296a6 6 0 0 1 3.247-3.247C4.316 2.203 5.018 2.09 6 2.04V.75A.75.75 0 0 1 6.75 0Z" clip-rule="evenodd"/><path fill="#212121" d="M9.004 7.562A.5.5 0 0 1 9.5 7h1.367a.5.5 0 0 1 .496.562l-.375 3a.5.5 0 0 1-.496.438h-.617a.5.5 0 0 1-.496-.438l-.375-3Zm.299 6.34a.5.5 0 0 0 .49.598h.78a.5.5 0 0 0 .491-.598l-.2-1a.5.5 0 0 0-.49-.402h-.38a.5.5 0 0 0-.49.402l-.2 1Z"/></svg>