<svg xmlns="http://www.w3.org/2000/svg" width="20" height="20" fill="none" viewBox="0 0 20 20"><path fill="#D6D6D6" d="M3.903 19.622C4.917 20 6.187 20 8.727 20h2.546c2.54 0 3.81 0 4.824-.378a6 6 0 0 0 3.525-3.525C20 15.082 20 13.813 20 11.273c0-2.117 0-4.175-.315-5.02a5 5 0 0 0-2.938-2.938 4.372 4.372 0 0 0-1.043-.233c-.393-.046-.691-.364-.78-.75A3 3 0 0 0 12.669.075C12.338 0 11.94 0 11.143 0H8.857C8.06 0 7.662 0 7.332.075a3 3 0 0 0-2.257 2.257c-.088.386-.386.704-.779.75-.403.046-.737.119-1.043.233A5 5 0 0 0 .315 6.253C0 7.098 0 9.156 0 11.273c0 2.54 0 3.81.378 4.824a6 6 0 0 0 3.525 3.525Z"/><path fill="#212121" fill-rule="evenodd" d="M10 13.4a2.4 2.4 0 1 0 0-4.8 2.4 2.4 0 0 0 0 4.8Zm0 1.6a4 4 0 1 0 0-8 4 4 0 0 0 0 8Z" clip-rule="evenodd"/></svg>