<svg xmlns="http://www.w3.org/2000/svg" width="20" height="20" fill="none" viewBox="0 0 20 20"><path fill="#212121" d="M10.039.25H9.96c-1.208 0-2.168 0-2.944.075C6.22.402 5.548.564 4.94.93a4.75 4.75 0 0 0-1.164.985c-.461.54-.73 1.176-.938 1.95-.148.552-.272 1.21-.406 1.99a5.118 5.118 0 0 1 1.613-.497c.08-.424.157-.787.242-1.105.177-.661.37-1.06.63-1.364a3.25 3.25 0 0 1 .796-.674c.343-.206.767-.33 1.449-.397.695-.067 1.583-.068 2.838-.068 1.255 0 2.143 0 2.838.068.682.066 1.106.19 1.449.397.3.18.569.408.796.674.26.305.453.703.63 1.364.085.318.163.681.243 1.106a5.117 5.117 0 0 1 1.612.496c-.134-.78-.258-1.438-.406-1.99-.207-.774-.477-1.41-.938-1.95A4.75 4.75 0 0 0 15.06.93c-.608-.366-1.28-.528-2.077-.605C12.207.25 11.247.25 10.039.25ZM2.25 17.663V19a.75.75 0 0 0 1.5 0v-1.25c-.35 0-.678-.004-.963-.023-.17-.012-.35-.03-.537-.064ZM16.25 17.75c.35 0 .678-.004.963-.023.17-.012.35-.03.537-.064V19a.75.75 0 0 1-1.5 0v-1.25Z"/><path fill="#D6D6D6" fill-rule="evenodd" d="M13.027 6.25H6.973c-.91 0-1.63 0-2.213.04-.596.04-1.104.125-1.578.322a4.75 4.75 0 0 0-2.57 2.57c-.197.474-.282.982-.322 1.578-.04.584-.04 1.304-.04 2.213v.052c0 .445 0 .816.02 1.12.022.318.069.617.19.907a2.75 2.75 0 0 0 1.488 1.489c.29.12.59.167.907.188.304.021.675.021 1.12.021h12.05c.445 0 .816 0 1.12-.02.317-.022.617-.069.907-.19a2.75 2.75 0 0 0 1.489-1.488c.12-.29.167-.59.188-.907.021-.304.021-.675.021-1.12v-.052c0-.909 0-1.63-.04-2.213-.04-.596-.125-1.104-.322-1.578a4.75 4.75 0 0 0-2.57-2.57c-.474-.197-.982-.282-1.578-.322-.584-.04-1.304-.04-2.213-.04ZM5.5 13a1.5 1.5 0 1 0 0-3 1.5 1.5 0 0 0 0 3Zm9 0a1.5 1.5 0 1 0 0-3 1.5 1.5 0 0 0 0 3Z" clip-rule="evenodd"/><path fill="#212121" d="M7 11.5a1.5 1.5 0 1 1-3 0 1.5 1.5 0 0 1 3 0ZM16 11.5a1.5 1.5 0 1 1-3 0 1.5 1.5 0 0 1 3 0Z"/></svg>