<svg xmlns="http://www.w3.org/2000/svg" width="20" height="20" fill="none" viewBox="0 0 20 20"><path fill="#D6D6D6" d="M0 10c0-2.809 0-4.213.674-5.222a4 4 0 0 1 1.104-1.104C2.787 3 4.19 3 7 3h6c2.809 0 4.213 0 5.222.674a4 4 0 0 1 1.104 1.104C20 5.787 20 7.19 20 10c0 2.809 0 4.213-.674 5.222a4.003 4.003 0 0 1-1.104 1.104C17.213 17 15.81 17 13 17H7c-2.809 0-4.213 0-5.222-.674a4.002 4.002 0 0 1-1.104-1.104C0 14.213 0 12.81 0 10Z"/><path fill="#212121" fill-rule="evenodd" d="M10 8.75a1.25 1.25 0 1 0 0 2.5 1.25 1.25 0 0 0 0-2.5ZM7.25 10a2.75 2.75 0 1 1 5.5 0 2.75 2.75 0 0 1-5.5 0ZM14 13a.75.75 0 0 1 .75-.75h1.5a.75.75 0 0 1 0 1.5h-1.5A.75.75 0 0 1 14 13ZM3 7a.75.75 0 0 1 .75-.75h1.5a.75.75 0 0 1 0 1.5h-1.5A.75.75 0 0 1 3 7Z" clip-rule="evenodd"/></svg>