<svg xmlns="http://www.w3.org/2000/svg" width="20" height="20" fill="none" viewBox="0 0 20 20"><path fill="#D6D6D6" d="M0 8c0-2.809 0-4.213.674-5.222a4 4 0 0 1 1.104-1.104C2.787 1 4.19 1 7 1h6c2.809 0 4.213 0 5.222.674a4 4 0 0 1 1.104 1.104C20 3.787 20 5.19 20 8v1c0 1.864 0 2.796-.305 3.53a4 4 0 0 1-2.164 2.165C16.796 15 15.864 15 14 15c-.66 0-.99 0-1.307.052a3.996 3.996 0 0 0-1.216.405c-.286.15-.55.347-1.077.743l-3.2 2.4c-1.396 1.047-2.094 1.57-2.647 1.294C4 19.618 4 18.745 4 17v-1.2a.8.8 0 0 0-.8-.8"/><path fill="#212121" fill-rule="evenodd" d="M6.75 8a.75.75 0 0 1 .75-.75h5a.75.75 0 0 1 0 1.5h-5A.75.75 0 0 1 6.75 8Z" clip-rule="evenodd"/></svg>