<svg xmlns="http://www.w3.org/2000/svg" width="20" height="20" fill="none" viewBox="0 0 20 20"><path fill="#D6D6D6" d="M20 10c0 5.523-4.477 10-10 10S0 15.523 0 10 4.477 0 10 0s10 4.477 10 10Z"/><path fill="#212121" fill-rule="evenodd" d="M9.998 4.25a.75.75 0 0 1 .75.75v.7c.387.09.761.253 1.084.501.55.424.918 1.072.918 1.894a.75.75 0 0 1-1.5 0c0-.333-.133-.55-.333-.704-.22-.17-.551-.278-.918-.277-.367 0-.697.108-.917.277-.2.154-.332.372-.332.704 0 .307.11.482.329.648.27.205.657.357 1.184.555l.048.018c.465.174 1.054.395 1.518.747.531.404.921.995.921 1.842 0 .822-.368 1.47-.918 1.894a2.828 2.828 0 0 1-1.084.502V15a.75.75 0 1 1-1.5 0v-.7a2.828 2.828 0 0 1-1.081-.503 2.328 2.328 0 0 1-.917-1.892.75.75 0 1 1 1.5 0c0 .333.132.55.332.704.22.17.55.277.917.277s.697-.107.918-.277c.2-.153.333-.371.333-.704 0-.307-.11-.481-.329-.648-.27-.205-.657-.357-1.184-.555l-.048-.018c-.465-.174-1.054-.395-1.518-.747-.531-.404-.921-.995-.921-1.842 0-.82.367-1.469.917-1.892A2.827 2.827 0 0 1 9.248 5.7V5a.75.75 0 0 1 .75-.75Z" clip-rule="evenodd"/></svg>