<svg xmlns="http://www.w3.org/2000/svg" width="20" height="20" fill="none" viewBox="0 0 20 20"><path fill="#D6D6D6" d="M20 10c0 5.523-4.477 10-10 10S0 15.523 0 10 4.477 0 10 0s10 4.477 10 10Z"/><path fill="#212121" fill-rule="evenodd" d="M6.43 6.5a.75.75 0 0 1 1.06 0l6.01 6.01a.75.75 0 0 1-1.06 1.06L6.43 7.56a.75.75 0 0 1 0-1.06Z" clip-rule="evenodd"/><path fill="#212121" fill-rule="evenodd" d="M6.5 13.57a.75.75 0 0 1 0-1.06l6.01-6.01a.75.75 0 1 1 1.06 1.06l-6.01 6.01a.75.75 0 0 1-1.06 0Z" clip-rule="evenodd"/></svg>