<svg xmlns="http://www.w3.org/2000/svg" width="20" height="20" fill="none" viewBox="0 0 20 20"><path fill="#D6D6D6" d="M4.502 1.385c-.535.173-.967.423-1.33.787C2 3.343 2 5.229 2 9v3c0 3.771 0 5.657 1.172 6.828C4.343 20 6.229 20 10 20c3.771 0 5.657 0 6.828-1.172C18 17.657 18 15.771 18 12V9c0-3.771 0-5.657-1.172-6.828-.363-.364-.795-.614-1.33-.787l.002.115a3 3 0 0 1-3 3h-5a3 3 0 0 1-2.998-3.115Z"/><path fill="#212121" d="M6 1.5A1.5 1.5 0 0 1 7.5 0h5a1.5 1.5 0 0 1 0 3h-5A1.5 1.5 0 0 1 6 1.5Z"/></svg>