<svg xmlns="http://www.w3.org/2000/svg" width="20" height="20" fill="none" viewBox="0 0 20 20"><path fill="#D6D6D6" d="M4.043 1.838C5.606 1.154 7.713.75 10 .75c2.288 0 4.394.404 5.957 1.088.78.341 1.46.767 1.953 1.278.437.452.754.999.825 1.62-.113.897-.873 1.85-2.367 2.636C14.777 8.209 12.527 8.75 10 8.75s-4.777-.54-6.368-1.378c-1.494-.787-2.254-1.739-2.367-2.636.07-.621.388-1.168.824-1.62.494-.51 1.173-.937 1.954-1.278ZM17.067 8.7c.627-.33 1.2-.72 1.683-1.161V9.5c0 .06-.003.122-.01.184a6.475 6.475 0 0 0-1.836-.9l.163-.085ZM10.572 10.241c-.19.006-.38.009-.572.009-2.72 0-5.22-.579-7.067-1.55A8.035 8.035 0 0 1 1.25 7.538V9.5c0 .964.756 2.016 2.382 2.872 1.297.683 3.033 1.168 4.999 1.324a6.49 6.49 0 0 1 1.941-3.455ZM8.503 15.19c-2.133-.17-4.068-.7-5.57-1.49a8.032 8.032 0 0 1-1.683-1.161V15c0 .731.342 1.37.84 1.884.493.51 1.172.937 1.953 1.278 1.563.684 3.67 1.088 5.957 1.088h.082a6.473 6.473 0 0 1-1.58-4.06Z"/><path fill="#212121" fill-rule="evenodd" d="M19.238 13.711h.002l.002-.001h.001a.087.087 0 0 0-.005.001Zm-5.485 3.981L12.53 16.47a.75.75 0 1 0-1.06 1.06l2 2a.75.75 0 0 0 1.226-.252c.957-2.391 2.138-3.793 3.048-4.589.456-.399.849-.65 1.117-.797a3.634 3.634 0 0 1 .372-.179l.01-.003a.75.75 0 0 0-.48-1.422L19 13c-.237-.712-.238-.711-.238-.711h-.003l-.006.003-.013.005a1.925 1.925 0 0 0-.17.067 5.07 5.07 0 0 0-.431.213 7.907 7.907 0 0 0-1.383.983c-.939.822-2.047 2.121-3.003 4.132Z" clip-rule="evenodd"/></svg>