<svg xmlns="http://www.w3.org/2000/svg" width="20" height="20" fill="none" viewBox="0 0 20 20"><path fill="#D6D6D6" d="M4.043 1.838C5.606 1.154 7.713.75 10 .75c2.288 0 4.394.404 5.957 1.088.78.341 1.46.767 1.953 1.278.437.452.754.999.825 1.62-.113.897-.873 1.85-2.367 2.636C14.777 8.209 12.527 8.75 10 8.75s-4.777-.54-6.368-1.378c-1.494-.787-2.254-1.739-2.367-2.636.07-.621.388-1.168.824-1.62.494-.51 1.173-.937 1.954-1.278ZM1.25 12.539V15c0 .731.342 1.37.84 1.884.493.51 1.172.937 1.953 1.278 1.563.684 3.67 1.088 5.957 1.088 2.288 0 4.394-.404 5.957-1.088.78-.341 1.46-.767 1.953-1.278.498-.515.84-1.153.84-1.884v-2.461a8.032 8.032 0 0 1-1.683 1.16C15.22 14.671 12.72 15.25 10 15.25c-2.72 0-5.22-.579-7.067-1.55a8.032 8.032 0 0 1-1.683-1.161Z"/><path fill="#D6D6D6" d="M17.067 8.7c.627-.33 1.2-.72 1.683-1.161V9.5c0 .964-.756 2.016-2.382 2.872-1.591.837-3.841 1.378-6.368 1.378s-4.777-.54-6.368-1.378C2.006 11.516 1.25 10.464 1.25 9.5V7.539c.483.442 1.057.83 1.683 1.16C4.78 9.671 7.28 10.25 10 10.25c2.72 0 5.22-.579 7.067-1.55Z"/></svg>