<svg xmlns="http://www.w3.org/2000/svg" width="20" height="20" fill="none" viewBox="0 0 20 20"><path fill="#D6D6D6" d="M2.648 5.794C3.823 4.419 4.41 3.732 5.204 3.366 5.998 3 6.901 3 8.707 3h4.31c2.802 0 4.203 0 5.21.674.435.292.81.667 1.1 1.104C20 5.787 20 7.19 20 10c0 2.809 0 4.213-.672 5.222a3.996 3.996 0 0 1-1.101 1.104C17.22 17 15.819 17 13.017 17h-4.31c-1.806 0-2.709 0-3.503-.366-.793-.366-1.381-1.053-2.556-2.428l-.258-.301C.797 12.04 0 11.11 0 10c0-1.11.797-2.041 2.39-3.905l.258-.301Z"/><path fill="#212121" fill-rule="evenodd" d="M10.47 7.47a.75.75 0 0 1 1.06 0L13 8.94l1.47-1.47a.75.75 0 1 1 1.06 1.06L14.06 10l1.47 1.47a.75.75 0 1 1-1.06 1.06L13 11.06l-1.47 1.47a.75.75 0 0 1-1.06-1.06L11.94 10l-1.47-1.47a.75.75 0 0 1 0-1.06Z" clip-rule="evenodd"/></svg>