<svg xmlns="http://www.w3.org/2000/svg" width="20" height="20" fill="none" viewBox="0 0 20 20"><path fill="#D6D6D6" fill-rule="evenodd" d="M12.292 18.503c-.722.551-1.44.904-2.292.904-.851 0-1.57-.353-2.292-.904-.696-.53-1.475-1.31-2.442-2.277l-1.492-1.492c-.967-.967-1.747-1.746-2.277-2.442C.946 11.57.593 10.852.593 10c0-.851.353-1.57.904-2.292.53-.696 1.31-1.475 2.277-2.442l1.492-1.492c.967-.967 1.746-1.746 2.442-2.277C8.43.947 9.148.593 10 .593c.851 0 1.57.353 2.292.904.696.53 1.475 1.31 2.442 2.277l1.492 1.492c.967.967 1.747 1.746 2.277 2.442.551.722.904 1.44.904 2.292 0 .851-.353 1.57-.904 2.292-.53.696-1.31 1.475-2.277 2.442l-1.492 1.492c-.967.967-1.746 1.747-2.442 2.277Z" clip-rule="evenodd"/><path fill="#212121" fill-rule="evenodd" d="M9.97 6.47a.75.75 0 0 1 1.06 0l3 3a.75.75 0 0 1 0 1.06l-3 3a.75.75 0 1 1-1.06-1.06l1.72-1.72H6.3a.75.75 0 0 1 0-1.5h5.39L9.97 7.53a.75.75 0 0 1 0-1.06Z" clip-rule="evenodd"/></svg>