<svg xmlns="http://www.w3.org/2000/svg" width="20" height="20" fill="none" viewBox="0 0 20 20"><path fill="#D6D6D6" fill-rule="evenodd" d="M5.5 6.25a.75.75 0 0 1 .75.75v.396c0 .586.407 1.093.979 1.22l1.368.304A2.744 2.744 0 0 1 10 9.717c.368-.39.85-.674 1.403-.797l1.368-.304a1.25 1.25 0 0 0 .979-1.22V7a.75.75 0 0 1 1.5 0v.396a2.75 2.75 0 0 1-2.153 2.684l-1.368.304a1.25 1.25 0 0 0-.979 1.22V13a.75.75 0 0 1-1.5 0v-1.396a1.25 1.25 0 0 0-.979-1.22l-1.368-.304A2.75 2.75 0 0 1 4.75 7.396V7a.75.75 0 0 1 .75-.75Z" clip-rule="evenodd"/><path fill="#212121" fill-rule="evenodd" d="M5.5 7a3.5 3.5 0 1 0 0-7 3.5 3.5 0 0 0 0 7Zm9 0a3.5 3.5 0 1 0 0-7 3.5 3.5 0 0 0 0 7Z" clip-rule="evenodd"/><path fill="#D6D6D6" fill-rule="evenodd" d="M10 20a3.5 3.5 0 1 0 0-7 3.5 3.5 0 0 0 0 7Z" clip-rule="evenodd"/></svg>