<svg xmlns="http://www.w3.org/2000/svg" width="20" height="20" fill="none" viewBox="0 0 20 20"><path fill="#D6D6D6" d="M0 10c0-3.738 0-5.608.804-7A6 6 0 0 1 3 .804C4.392 0 6.262 0 10 0c3.739 0 5.608 0 7 .804A6 6 0 0 1 19.196 3C20 4.392 20 6.262 20 10c0 3.739 0 5.608-.804 7A6.002 6.002 0 0 1 17 19.196C15.608 20 13.739 20 10 20c-3.738 0-5.608 0-7-.804A6 6 0 0 1 .804 17C0 15.608 0 13.739 0 10Z"/><path fill="#212121" d="M6.416 7.75a4.752 4.752 0 0 1 8.146-1.892.75.75 0 1 1-1.124.992 3.251 3.251 0 0 0-5.439.9H10a.75.75 0 0 1 0 1.5H7.75v1.5H10a.75.75 0 0 1 0 1.5H8a3.25 3.25 0 0 0 5.438.9.75.75 0 0 1 1.124.992 4.752 4.752 0 0 1-8.146-1.892H5a.75.75 0 0 1 0-1.5h1.25v-1.5H5a.75.75 0 0 1 0-1.5h1.416Z"/></svg>