<svg xmlns="http://www.w3.org/2000/svg" width="20" height="20" fill="none" viewBox="0 0 20 20"><path fill="#D6D6D6" fill-rule="evenodd" d="M10.4 0H10C6.229 0 4.343 0 3.172 1.172 2 2.343 2 4.229 2 8v4c0 3.771 0 5.657 1.172 6.828C4.343 20 6.229 20 10 20c3.771 0 5.657 0 6.828-1.172C18 17.657 18 15.771 18 12V7.6h-5A2.6 2.6 0 0 1 10.4 5V0Z" clip-rule="evenodd"/><path fill="#212121" fill-rule="evenodd" d="M6 11.25a.75.75 0 0 1 .75-.75h6.5a.75.75 0 0 1 0 1.5h-6.5a.75.75 0 0 1-.75-.75ZM6 15.25a.75.75 0 0 1 .75-.75h3.5a.75.75 0 0 1 0 1.5h-3.5a.75.75 0 0 1-.75-.75Z" clip-rule="evenodd"/><path fill="#212121" d="M12 5V.724a.3.3 0 0 1 .512-.212l4.976 4.976a.3.3 0 0 1-.212.512H13a1 1 0 0 1-1-1Z"/></svg>