<svg xmlns="http://www.w3.org/2000/svg" width="20" height="20" fill="none" viewBox="0 0 20 20"><path fill="#D6D6D6" fill-rule="evenodd" d="M10 0C6.229 0 4.343 0 3.172 1.172 2 2.343 2 4.229 2 8v4c0 3.771 0 5.657 1.172 6.828C4.343 20 6.229 20 10 20c3.771 0 5.657 0 6.828-1.172C18 17.657 18 15.771 18 12V8c-3.771 0-5.657 0-6.828-1.172C10 5.657 10 3.771 10 0Z" clip-rule="evenodd"/><path fill="#212121" fill-rule="evenodd" d="M9.47 8.47a.75.75 0 0 1 1.06 0l3 3a.75.75 0 1 1-1.06 1.06l-1.72-1.72v4.39a.75.75 0 0 1-1.5 0v-4.39l-1.72 1.72a.75.75 0 0 1-1.06-1.06l3-3Z" clip-rule="evenodd"/><path fill="#212121" d="M11.6.83c0-.39.401-.648.755-.487a10.678 10.678 0 0 1 5.302 5.302.534.534 0 0 1-.486.755H14.2a2.6 2.6 0 0 1-2.6-2.6V.83Z"/></svg>