<svg xmlns="http://www.w3.org/2000/svg" width="20" height="20" fill="none" viewBox="0 0 20 20"><path fill="#D6D6D6" d="M0 8.514c0-2.348 0-3.522.477-4.41a4 4 0 0 1 1.628-1.627C2.992 2 4.166 2 6.514 2h1.683c1.127 0 2.178.563 2.803 1.5A3.368 3.368 0 0 0 13.803 5h.986c1.126 0 1.689 0 2.153.113a4 4 0 0 1 2.945 2.945C20 8.522 20 9.085 20 10.21V11.5c0 2.335 0 3.502-.472 4.386a4 4 0 0 1-1.642 1.642C17.002 18 15.835 18 13.5 18H8c-3.771 0-5.657 0-6.828-1.172C0 15.657 0 13.771 0 10V8.514Z"/><path fill="#212121" d="M9.3 13.25a.75.75 0 0 0 1.5 0V11.8h1.45a.75.75 0 1 0 0-1.5H10.8V8.75a.75.75 0 1 0-1.5 0v1.55H7.75a.75.75 0 0 0 0 1.5H9.3v1.45Z"/></svg>