<svg xmlns="http://www.w3.org/2000/svg" width="20" height="20" fill="none" viewBox="0 0 20 20"><path fill="#D6D6D6" d="M11.16 1.25H8.84c-1.859 0-3.34 0-4.417.155-1.073.155-2.044.502-2.478 1.468-.434.966-.048 1.923.55 2.828.599.909 1.582 2.015 2.817 3.404l1.117 1.257c.537.603.67.77.74.954.07.185.081.397.081 1.205v3.617c0 .469 0 .899.046 1.225.044.309.17.855.726 1.085.555.23 1.03-.067 1.28-.254.263-.198.567-.502.898-.834l1.745-1.744.056-.056c.231-.23.48-.478.616-.805.135-.326.134-.678.133-1.003V12.52c0-.808.011-1.02.082-1.205.07-.185.202-.35.739-.954l1.117-1.257c1.235-1.389 2.218-2.495 2.818-3.404.597-.905.983-1.862.549-2.828-.434-.966-1.405-1.313-2.478-1.468-1.078-.155-2.558-.155-4.417-.155Z"/></svg>