<svg xmlns="http://www.w3.org/2000/svg" width="20" height="20" fill="none" viewBox="0 0 20 20"><path fill="#D6D6D6" fill-rule="evenodd" d="M10 .25C4.615.25.25 4.615.25 10s4.365 9.75 9.75 9.75 9.75-4.365 9.75-9.75S15.385.25 10 .25ZM3.424 14.983a8.237 8.237 0 0 0 6.87 3.262.757.757 0 0 1 .035-.08l.415-.83a1.25 1.25 0 0 0-.158-1.36l-.706-.848a2.75 2.75 0 0 1-.176-3.286l1.578-2.366A2.75 2.75 0 0 1 13.57 8.25h4.494a8.258 8.258 0 0 0-6.814-6.406v1.92a2.75 2.75 0 0 1-1.52 2.46l-1.208.603a1.25 1.25 0 0 0-.59 1.61l.275.641a2.75 2.75 0 0 1-.416 2.844l-1.35 1.621a2.75 2.75 0 0 1-1.244.848l-1.773.592Z" clip-rule="evenodd"/><circle cx="10" cy="10" r="9" stroke="#212121" stroke-width="1.5"/></svg>