<svg xmlns="http://www.w3.org/2000/svg" width="20" height="20" fill="none" viewBox="0 0 20 20"><path fill="#D6D6D6" fill-rule="evenodd" d="M10.125 2.125c-4.642 0-8.25 3.327-8.25 7.25h-1.5c0-4.913 4.45-8.75 9.75-8.75s9.75 3.837 9.75 8.75h-1.5c0-3.923-3.608-7.25-8.25-7.25Z" clip-rule="evenodd"/><path fill="#212121" d="M.375 9.375h1c1.87 0 2.804 0 3.5.402a3 3 0 0 1 1.098 1.098c.402.696.402 1.63.402 3.5v2a3 3 0 1 1-6 0v-7ZM19.875 9.375h-1c-1.87 0-2.804 0-3.5.402a3 3 0 0 0-1.098 1.098c-.402.696-.402 1.63-.402 3.5v2a3 3 0 1 0 6 0v-7Z"/></svg>