<svg xmlns="http://www.w3.org/2000/svg" width="20" height="20" fill="none" viewBox="0 0 20 20"><path fill="#D6D6D6" d="M7.942 1.235 3.884 3.669C1.987 4.808 1.038 5.377.519 6.294 0 7.21 0 8.317 0 10.529V12c0 3.772 0 5.658 1.172 6.83C2.343 20 4.229 20 8 20h4c3.771 0 5.657 0 6.828-1.17C20 17.656 20 15.77 20 11.998v-1.47c0-2.212 0-3.318-.52-4.235-.518-.917-1.467-1.486-3.364-2.625l-4.058-2.434C11.055.633 10.554.332 10 .332c-.554 0-1.055.301-2.058.903Z"/><path fill="#212121" d="M7 15c0-.932 0-1.398.152-1.765a2 2 0 0 1 1.083-1.083C8.602 12 9.068 12 10 12c.932 0 1.398 0 1.765.152a2 2 0 0 1 1.083 1.083C13 13.602 13 14.068 13 15v5H7v-5Z"/></svg>