<svg xmlns="http://www.w3.org/2000/svg" width="20" height="20" fill="none" viewBox="0 0 20 20"><path fill="#D6D6D6" fill-rule="evenodd" d="M5.756 18.406c1.025.093 2.347.094 4.244.094 1.897 0 3.22-.001 4.244-.094 1.005-.091 1.576-.26 2.006-.509a4.499 4.499 0 0 0 1.647-1.647c.248-.43.418-1.001.509-2.006.093-1.025.094-2.347.094-4.244 0-1.897-.001-3.22-.094-4.244-.091-1.005-.26-1.576-.509-2.006a4.5 4.5 0 0 0-1.647-1.647c-.43-.248-1.001-.418-2.006-.509C13.22 1.501 11.897 1.5 10 1.5c-1.897 0-3.22.001-4.244.094-1.005.091-1.576.26-2.006.509A4.5 4.5 0 0 0 2.103 3.75c-.248.43-.418 1.001-.509 2.006C1.501 6.78 1.5 8.103 1.5 10c0 1.897.001 3.22.094 4.244.091 1.005.26 1.576.509 2.006a4.5 4.5 0 0 0 1.647 1.647c.43.248 1.001.418 2.006.509ZM.804 3C0 4.392 0 6.262 0 10c0 3.739 0 5.608.804 7A6 6 0 0 0 3 19.196C4.392 20 6.262 20 10 20c3.739 0 5.608 0 7-.804A6.002 6.002 0 0 0 19.196 17C20 15.608 20 13.739 20 10c0-3.738 0-5.608-.804-7A6 6 0 0 0 17 .804C15.608 0 13.739 0 10 0 6.262 0 4.392 0 3 .804A6 6 0 0 0 .804 3Z" clip-rule="evenodd"/><path fill="#D6D6D6" stroke="#212121" stroke-width="1.5" d="M.75 10v-.192c.411-.038.828-.058 1.25-.058 5.965 0 11.011 3.943 12.672 9.365-1.091.132-2.542.135-4.672.135-1.883 0-3.245 0-4.312-.097-1.057-.096-1.75-.281-2.313-.606a5.25 5.25 0 0 1-1.922-1.922c-.325-.563-.51-1.256-.606-2.313C.751 13.245.75 11.883.75 10Z"/><path fill="#D6D6D6" stroke="#212121" stroke-width="1.5" d="M16.625 18.546c-.497.287-1.095.465-1.954.569a13.25 13.25 0 0 0-3.539-5.716A11.195 11.195 0 0 1 17 11.75c.769 0 1.52.078 2.244.224-.026 2.488-.16 3.72-.697 4.652a5.25 5.25 0 0 1-1.922 1.921Z"/><path fill="#212121" fill-rule="evenodd" d="M13.5 8a1.5 1.5 0 1 0 0-3 1.5 1.5 0 0 0 0 3Zm0 1.5a3 3 0 1 0 0-6 3 3 0 0 0 0 6Z" clip-rule="evenodd"/></svg>