<svg xmlns="http://www.w3.org/2000/svg" width="20" height="20" fill="none" viewBox="0 0 20 20"><path fill="#D6D6D6" d="M14.45.704a.75.75 0 0 1 1.06 0l3.536 3.536a.75.75 0 0 1-1.06 1.06l-1.238-1.237L14.98 5.83l3.359 3.358a.75.75 0 0 1-1.06 1.061l-.885-.884-6.01 6.01a2.75 2.75 0 0 1-1.76.799l-4.273.285-1.568 1.568a.75.75 0 1 1-1.061-1.06l1.568-1.569.285-4.272a2.75 2.75 0 0 1 .8-1.762l.706-.706 2.651 2.652a.75.75 0 0 0 1.06-1.061l-2.65-2.652 1.413-1.414 2.652 2.652a.75.75 0 0 0 1.06-1.06l-2.65-2.653 1.767-1.767-.884-.884a.75.75 0 1 1 1.06-1.06l3.36 3.358 1.767-1.768-1.237-1.237a.75.75 0 0 1 0-1.061Z"/><path fill="#212121" fill-rule="evenodd" d="M8.086 5.654a.75.75 0 0 1 1.06 0l2.122 2.121a.75.75 0 1 1-1.06 1.06l-2.122-2.12a.75.75 0 0 1 0-1.061ZM5.61 8.129a.75.75 0 0 1 1.06 0l2.122 2.12a.75.75 0 0 1-1.06 1.062L5.61 9.189a.75.75 0 0 1 0-1.06Z" clip-rule="evenodd"/><path stroke="#212121" stroke-linecap="round" stroke-width="1.5" d="m4.02 15.73-1.768 1.768M10.03 1.94l1.415 1.415 2.474 2.475m3.89 3.889-1.415-1.415-2.475-2.474m0 0 2.829-2.829m0 0L14.98 1.234m1.768 1.768 1.768 1.768"/></svg>