<svg xmlns="http://www.w3.org/2000/svg" width="20" height="20" fill="none" viewBox="0 0 20 20"><path stroke="#212121" stroke-width="1.5" d="M11.75 15.5c0-.71 0-1.204.027-1.59.026-.38.074-.602.144-.771a2.25 2.25 0 0 1 1.218-1.218c.169-.07.39-.118.77-.144.387-.027.882-.027 1.591-.027.71 0 1.203 0 1.59.027.38.026.602.074.771.144.551.229.99.667 1.218 1.218.07.169.118.39.144.77.027.387.027.882.027 1.591 0 .71 0 1.203-.027 1.59-.026.38-.074.602-.144.771a2.25 2.25 0 0 1-1.218 1.218c-.169.07-.39.118-.77.144-.388.027-.882.027-1.591.027-.71 0-1.204 0-1.59-.027-.38-.026-.602-.074-.771-.144a2.25 2.25 0 0 1-1.218-1.218c-.07-.169-.118-.39-.144-.77-.027-.388-.027-.882-.027-1.591Z"/><path fill="#D6D6D6" d="M11 4.5c0-1.398 0-2.097.228-2.648A3 3 0 0 1 12.852.228C13.403 0 14.102 0 15.5 0c1.398 0 2.097 0 2.648.228a3 3 0 0 1 1.624 1.624C20 2.403 20 3.102 20 4.5c0 1.398 0 2.097-.228 2.648a3 3 0 0 1-1.624 1.624C17.597 9 16.898 9 15.5 9c-1.398 0-2.097 0-2.648-.228a3 3 0 0 1-1.624-1.624C11 6.597 11 5.898 11 4.5ZM0 4.5c0-1.398 0-2.097.228-2.648A3 3 0 0 1 1.852.228C2.403 0 3.102 0 4.5 0c1.398 0 2.097 0 2.648.228a3 3 0 0 1 1.624 1.624C9 2.403 9 3.102 9 4.5c0 1.398 0 2.097-.228 2.648a3 3 0 0 1-1.624 1.624C6.597 9 5.898 9 4.5 9c-1.398 0-2.097 0-2.648-.228A3 3 0 0 1 .228 7.148C0 6.597 0 5.898 0 4.5ZM0 15.5c0-1.398 0-2.097.228-2.648a3 3 0 0 1 1.624-1.624C2.403 11 3.102 11 4.5 11c1.398 0 2.097 0 2.648.228a3 3 0 0 1 1.624 1.624C9 13.403 9 14.102 9 15.5c0 1.398 0 2.097-.228 2.648a3 3 0 0 1-1.624 1.624C6.597 20 5.898 20 4.5 20c-1.398 0-2.097 0-2.648-.228a3 3 0 0 1-1.624-1.624C0 17.597 0 16.898 0 15.5Z"/></svg>