<svg xmlns="http://www.w3.org/2000/svg" width="20" height="20" fill="none" viewBox="0 0 20 20"><path fill="#D6D6D6" d="M11 4.55c0-1.398 0-2.097.228-2.648A3 3 0 0 1 12.852.278C13.403.05 14.102.05 15.5.05c1.398 0 2.097 0 2.648.228a3 3 0 0 1 1.624 1.624C20 2.453 20 3.152 20 4.55c0 1.398 0 2.097-.228 2.648a3 3 0 0 1-1.624 1.624c-.551.228-1.25.228-2.648.228-1.398 0-2.097 0-2.648-.228a3 3 0 0 1-1.624-1.624C11 6.647 11 5.948 11 4.55ZM0 4.5c0-1.398 0-2.097.228-2.648A3 3 0 0 1 1.852.228C2.403 0 3.102 0 4.5 0c1.398 0 2.097 0 2.648.228a3 3 0 0 1 1.624 1.624C9 2.403 9 3.102 9 4.5c0 1.398 0 2.097-.228 2.648a3 3 0 0 1-1.624 1.624C6.597 9 5.898 9 4.5 9c-1.398 0-2.097 0-2.648-.228A3 3 0 0 1 .228 7.148C0 6.597 0 5.898 0 4.5Z"/><path fill="#212121" fill-rule="evenodd" d="M15.5 11.05a.75.75 0 0 1 .75.75v2.95h2.95a.75.75 0 0 1 0 1.5h-2.95v2.95a.75.75 0 1 1-1.5 0v-2.95H11.8a.75.75 0 1 1 0-1.5h2.95V11.8a.75.75 0 0 1 .75-.75Z" clip-rule="evenodd"/><path fill="#D6D6D6" d="M0 15.5c0-1.398 0-2.097.228-2.648a3 3 0 0 1 1.624-1.624C2.403 11 3.102 11 4.5 11c1.398 0 2.097 0 2.648.228a3 3 0 0 1 1.624 1.624C9 13.403 9 14.102 9 15.5c0 1.398 0 2.097-.228 2.648a3 3 0 0 1-1.624 1.624C6.597 20 5.898 20 4.5 20c-1.398 0-2.097 0-2.648-.228a3 3 0 0 1-1.624-1.624C0 17.597 0 16.898 0 15.5Z"/></svg>