<svg xmlns="http://www.w3.org/2000/svg" width="20" height="20" fill="none" viewBox="0 0 20 20"><path fill="#D6D6D6" fill-rule="evenodd" d="M15.52 10.924C16.262 9.916 17 8.917 17 7A7 7 0 1 0 3 7c0 1.271.622 2.214 1.299 3.241.533.809 1.1 1.67 1.427 2.784C6.036 14.085 6.896 15 8 15h4c1.105 0 1.945-.924 2.302-1.969.292-.853.756-1.482 1.217-2.107Z" clip-rule="evenodd"/><path fill="#212121" d="M11.182 9.923a1.5 1.5 0 1 0-2.365 0c.22.281.433.596.433.953V15h1.5v-4.124c0-.357.213-.672.432-.953Z"/><path fill="#212121" fill-rule="evenodd" d="M7.25 19.25A.75.75 0 0 1 8 18.5h4a.75.75 0 0 1 0 1.5H8a.75.75 0 0 1-.75-.75Zm-.5-2.5A.75.75 0 0 1 7.5 16h5a.75.75 0 0 1 0 1.5h-5a.75.75 0 0 1-.75-.75Z" clip-rule="evenodd"/></svg>