<svg xmlns="http://www.w3.org/2000/svg" width="20" height="20" fill="none" viewBox="0 0 20 20"><path fill="#212121" fill-rule="evenodd" d="M9.9.2h.2c.833 0 1.372 0 1.836.092a4.8 4.8 0 0 1 3.772 3.772c.092.465.092 1.003.092 1.837V8h-1.6V6c0-.968-.004-1.335-.061-1.625a3.2 3.2 0 0 0-2.515-2.514c-.29-.058-.656-.062-1.624-.062-.968 0-1.335.004-1.624.062A3.2 3.2 0 0 0 5.86 4.376C5.804 4.666 5.8 5.033 5.8 6v2H4.2V5.9c0-.833 0-1.371.092-1.836A4.8 4.8 0 0 1 8.064.292C8.528.2 9.067.2 9.9.2Z" clip-rule="evenodd"/><path fill="#D6D6D6" d="M1 13.5c0-1.395 0-2.092.138-2.667a5 5 0 0 1 3.695-3.695C5.408 7 6.105 7 7.5 7h5c1.395 0 2.092 0 2.667.138a5 5 0 0 1 3.695 3.695C19 11.408 19 12.105 19 13.5c0 1.395 0 2.092-.138 2.667a5 5 0 0 1-3.695 3.695C14.592 20 13.895 20 12.5 20h-5c-1.395 0-2.092 0-2.667-.138a5 5 0 0 1-3.695-3.695C1 15.592 1 14.894 1 13.5Z"/><path fill="#212121" d="M8.5 13a1.5 1.5 0 0 1 3 0v1a1.5 1.5 0 0 1-3 0v-1Z"/></svg>