<svg xmlns="http://www.w3.org/2000/svg" width="20" height="20" fill="none" viewBox="0 0 20 20"><path fill="#D6D6D6" fill-rule="evenodd" d="M4.25 6.92A3.501 3.501 0 0 0 3.5 0a3.5 3.5 0 0 0-.75 6.92v6.16A3.501 3.501 0 0 0 3.5 20a3.5 3.5 0 0 0 .75-6.92V6.92Z" clip-rule="evenodd"/><path fill="#212121" d="M12.53 2.03A.75.75 0 0 0 11.47.97L8.94 3.5l2.53 2.53a.75.75 0 1 0 1.06-1.06l-.717-.718c.87.007 1.289.034 1.63.138a3.25 3.25 0 0 1 2.167 2.167c.132.434.14.993.14 2.443v4.08A3.501 3.501 0 0 0 16.5 20a3.5 3.5 0 0 0 .75-6.92V8.858c0-1.258 0-2.06-.204-2.736a4.75 4.75 0 0 0-3.167-3.166c-.548-.167-1.18-.198-2.07-.204l.721-.72Z"/></svg>