<svg xmlns="http://www.w3.org/2000/svg" width="20" height="20" fill="none" viewBox="0 0 20 20"><path fill="#212121" fill-rule="evenodd" d="M10 14.25a.75.75 0 0 1 .75.75v3.5h4.5a.75.75 0 0 1 0 1.5H4.75a.75.75 0 0 1 0-1.5h4.5V15a.75.75 0 0 1 .75-.75Z" clip-rule="evenodd"/><path fill="#D6D6D6" d="M7.5 15c-2.33 0-3.495 0-4.413-.38A5 5 0 0 1 .38 11.912C0 10.995 0 9.83 0 7.5s0-3.495.38-4.413A5 5 0 0 1 3.088.38C4.005 0 5.17 0 7.5 0h5c2.33 0 3.495 0 4.413.38a5 5 0 0 1 2.706 2.707C20 4.005 20 5.17 20 7.5s0 3.495-.38 4.413a5 5 0 0 1-2.707 2.706C15.995 15 14.83 15 12.5 15h-5Z"/></svg>