<svg xmlns="http://www.w3.org/2000/svg" width="20" height="20" fill="none" viewBox="0 0 20 20"><path fill="#D6D6D6" d="M10 20c-.929 0-1.393 0-1.784-.044a7 7 0 0 1-6.172-6.172C2 13.394 2 12.929 2 12V8c0-.929 0-1.393.044-1.784A7 7 0 0 1 8.216.044C8.606 0 9.071 0 10 0s1.393 0 1.784.044a7 7 0 0 1 6.172 6.172C18 6.606 18 7.071 18 8v4c0 .929 0 1.393-.044 1.784a7 7 0 0 1-6.172 6.172C11.394 20 10.929 20 10 20Z"/><path fill="#212121" fill-rule="evenodd" d="M10 5a.75.75 0 0 1 .75.75v3.5a.75.75 0 0 1-1.5 0v-3.5A.75.75 0 0 1 10 5Z" clip-rule="evenodd"/></svg>