<svg xmlns="http://www.w3.org/2000/svg" width="20" height="20" fill="none" viewBox="0 0 20 20"><path fill="#D6D6D6" fill-rule="evenodd" d="M3.169 1.606a2.75 2.75 0 0 1 4.441.792l1.326 2.87a1.75 1.75 0 0 1-.027 1.522l-.731 1.449a1.25 1.25 0 0 0 .232 1.447l1.882 1.882a1.25 1.25 0 0 0 1.447.232l1.449-.731a1.75 1.75 0 0 1 1.522-.027l2.87 1.326a2.75 2.75 0 0 1 .792 4.44l-.718.718c-1.892 1.892-4.885 2.253-7.07.59-1.42-1.082-3.117-2.478-4.68-4.042-1.564-1.564-2.96-3.26-4.042-4.681-1.663-2.184-1.302-5.178.59-7.07l.717-.717Z" clip-rule="evenodd"/><path fill="#212121" fill-rule="evenodd" d="M12.48 2.22a.75.75 0 0 1 1.06 0l1.591 1.59 1.591-1.59a.75.75 0 0 1 1.061 1.06l-1.591 1.591 1.591 1.591a.75.75 0 1 1-1.06 1.061L15.13 5.932l-1.59 1.591a.75.75 0 1 1-1.061-1.06l1.59-1.592-1.59-1.59a.75.75 0 0 1 0-1.061Z" clip-rule="evenodd"/></svg>