<svg xmlns="http://www.w3.org/2000/svg" width="20" height="20" fill="none" viewBox="0 0 20 20"><path fill="#D6D6D6" d="M8 3a2 2 0 1 1 4 0v1.76c0 .241 0 .362.016.472a1.5 1.5 0 0 0 .697 1.056c.094.058.205.105.427.2L19 9v3l-7-1v2.394c0 .786 0 1.18.178 1.511.177.332.504.55 1.158.986L15 17v2l-4.412-.882c-.293-.059-.44-.088-.588-.088-.149 0-.295.029-.588.088L5 19v-2l1.664-1.11c.654-.435.981-.653 1.159-.985C8 14.573 8 14.18 8 13.395V11l-6 1V9l4.944-2.472c.22-.11.328-.164.421-.23a1.5 1.5 0 0 0 .618-.999C8 5.187 8 5.064 8 4.819V3Z"/></svg>