<svg xmlns="http://www.w3.org/2000/svg" width="20" height="20" fill="none" viewBox="0 0 20 20"><path fill="#D6D6D6" fill-rule="evenodd" d="M7.748.248h.132c.392 0 .79.002 1.143.003h.005l.974.001h.034c1.372 0 2.447 0 3.312.071.88.072 1.607.22 2.265.556a5.75 5.75 0 0 1 2.513 2.513c.335.658.484 1.385.556 2.265.07.865.07 1.94.07 3.312v2.067c0 1.372 0 2.447-.07 3.312-.072.88-.22 1.607-.556 2.265a5.75 5.75 0 0 1-2.513 2.513c-.658.335-1.385.484-2.265.556-.865.07-1.94.07-3.312.07h-.067c-1.372 0-2.447 0-3.312-.07-.88-.072-1.607-.22-2.265-.556a5.75 5.75 0 0 1-2.513-2.513c-.335-.658-.484-1.385-.556-2.265-.07-.865-.07-1.94-.07-3.312V7.958c0-.906 0-1.537.211-2.14.212-.604.608-1.1 1.177-1.81l1.688-2.113c.49-.615.88-1.104 1.45-1.377.57-.274 1.19-.272 1.97-.27Z" clip-rule="evenodd"/><path fill="#212121" d="M8.502 5.752a.75.75 0 0 0-1.5 0v3.5a.75.75 0 0 0 1.5 0v-3.5Zm2.25-.75a.75.75 0 0 1 .75.75v3.5a.75.75 0 1 1-1.5 0v-3.5a.75.75 0 0 1 .75-.75Zm3 0a.75.75 0 0 1 .75.75v3.5a.75.75 0 1 1-1.5 0v-3.5a.75.75 0 0 1 .75-.75Z"/></svg>