<svg xmlns="http://www.w3.org/2000/svg" width="20" height="20" fill="none" viewBox="0 0 20 20"><path fill="#D6D6D6" d="M2.122 5.762c-.92.262-.982 1.541-.093 1.892L7.45 9.79a2 2 0 0 0 2.147-.447l2.24-2.24a.75.75 0 0 1 1.062 1.06l-2.242 2.241a2 2 0 0 0-.446 2.148l2.136 5.419c.35.889 1.63.826 1.892-.093L18.59 2.646a1 1 0 0 0-1.236-1.236L2.122 5.762Z"/><path fill="#212121" fill-rule="evenodd" d="M7.53 12.47a.75.75 0 0 1 0 1.06l-5 5a.75.75 0 0 1-1.06-1.06l5-5a.75.75 0 0 1 1.06 0Zm-3-2a.75.75 0 0 1 0 1.06l-2 2a.75.75 0 0 1-1.06-1.06l2-2a.75.75 0 0 1 1.06 0Zm5 5a.75.75 0 0 1 0 1.06l-2 2a.75.75 0 0 1-1.06-1.06l2-2a.75.75 0 0 1 1.06 0Z" clip-rule="evenodd"/></svg>