<svg xmlns="http://www.w3.org/2000/svg" width="20" height="20" fill="none" viewBox="0 0 20 20"><path fill="#D6D6D6" d="M2 6.206c0-1.03 0-1.545.105-1.994a4 4 0 0 1 2.066-2.647c.41-.21.91-.336 1.91-.585C7.082.73 7.583.604 8.087.522a12 12 0 0 1 3.824 0c.504.082 1.005.207 2.008.458.999.25 1.498.374 1.909.585a4 4 0 0 1 2.066 2.647c.105.45.105.964.105 1.994V12c0 2.795-3.907 5.59-6.26 7.02-.787.479-1.18.718-1.74.718s-.953-.24-1.74-.718C5.907 17.59 2 14.795 2 12V6.206Z"/><path fill="#212121" d="m7.03 10.22 1.223 1.222c.956-2.01 2.064-3.31 3.003-4.131a7.908 7.908 0 0 1 1.383-.984 5.068 5.068 0 0 1 .56-.265l.04-.015.014-.005.006-.002h.002l.002-.001a.75.75 0 0 1 .48 1.421l-.01.004a3.608 3.608 0 0 0-.371.178 6.41 6.41 0 0 0-1.118.798c-.91.796-2.091 2.197-3.048 4.589a.75.75 0 0 1-1.226.252l-2-2a.75.75 0 1 1 1.06-1.061Z"/></svg>