<svg xmlns="http://www.w3.org/2000/svg" width="20" height="20" fill="none" viewBox="0 0 20 20"><path fill="#D6D6D6" d="M2 6.206c0-1.03 0-1.545.105-1.994a4 4 0 0 1 2.066-2.647c.41-.21.91-.336 1.91-.585C7.082.73 7.583.604 8.087.522a12 12 0 0 1 3.824 0c.504.082 1.005.207 2.008.458.999.25 1.498.374 1.909.585a4 4 0 0 1 2.066 2.647c.105.45.105.964.105 1.994V12c0 2.795-3.907 5.59-6.26 7.02-.787.479-1.18.718-1.74.718s-.953-.24-1.74-.718C5.907 17.59 2 14.795 2 12V6.206Z"/><path fill="#212121" fill-rule="evenodd" d="M6.5 5.5a.75.75 0 0 1 1.06 0L10 7.94l2.44-2.44a.75.75 0 0 1 1.06 1.06L11.06 9l2.44 2.44a.75.75 0 0 1-1.06 1.06L10 10.06 7.56 12.5a.75.75 0 0 1-1.06-1.06L8.94 9 6.5 6.56a.75.75 0 0 1 0-1.06Z" clip-rule="evenodd"/></svg>