<svg xmlns="http://www.w3.org/2000/svg" width="20" height="20" fill="none" viewBox="0 0 20 20"><path fill="#D6D6D6" fill-rule="evenodd" d="m7.5 8.124 2.5 1.04 2.5-1.04 2.5 1.04 2.503-1.041.247.096v10.03H19a.75.75 0 0 1 0 1.5h-5V15a2 2 0 1 0-4 0v4.75H1a.75.75 0 0 1 0-1.5h1.25V8.22c.081-.03.163-.063.247-.096L5 9.165l2.5-1.04ZM6 11a1 1 0 0 0-1 1v1a1 1 0 0 0 1 1h1a1 1 0 0 0 1-1v-1a1 1 0 0 0-1-1H6Z" clip-rule="evenodd"/><path stroke="#212121" stroke-linecap="round" stroke-width="1.5" d="M1 19h18"/><rect width="3" height="3" x="5" y="11" fill="#212121" rx="1"/><path fill="#212121" d="M.317 2.524C1.092 1.362 1.48.782 2.048.436a3 3 0 0 1 .288-.154C2.939 0 3.637 0 5.033 0h9.933c1.397 0 2.095 0 2.698.282.099.046.195.097.288.154.57.346.956.926 1.73 2.088.149.222.223.333.265.458l.019.062c.034.127.034.26.034.528v1.26c0 1.085 0 1.627-.298 1.92a1 1 0 0 1-.315.21c-.385.163-.886-.045-1.887-.462L15 7.54 12.5 6.5 10 7.54 7.5 6.5 5 7.54 2.5 6.5c-1.001.417-1.502.625-1.887.463a1 1 0 0 1-.315-.21C0 6.459 0 5.917 0 4.833v-1.26c0-.268 0-.402.034-.529a1 1 0 0 1 .019-.062c.042-.125.116-.236.264-.458ZM10 15a2 2 0 1 1 4 0v4.75h-4V15Z"/></svg>