<svg xmlns="http://www.w3.org/2000/svg" width="20" height="20" fill="none" viewBox="0 0 20 20"><path fill="#D6D6D6" d="M1.735 12.105c.41-1.869.616-2.803 1.13-3.493A4 4 0 0 1 4.43 7.353C5.214 7 6.17 7 8.084 7h3.832c1.913 0 2.87 0 3.653.353a4 4 0 0 1 1.567 1.26c.513.689.718 1.623 1.129 3.492.609 2.771.913 4.157.529 5.237a4 4 0 0 1-1.649 2.05c-.973.608-2.391.608-5.229.608H8.084c-2.838 0-4.256 0-5.229-.608a4 4 0 0 1-1.649-2.05c-.384-1.08-.08-2.466.53-5.237Z"/><path fill="#212121" fill-rule="evenodd" d="M5.25 5a4.75 4.75 0 0 1 9.5 0v6h-1.5V5a3.25 3.25 0 0 0-6.5 0v6h-1.5V5Z" clip-rule="evenodd"/><path fill="#212121" d="M7 11a1 1 0 1 1-2 0 1 1 0 0 1 2 0Zm8 0a1 1 0 1 1-2 0 1 1 0 0 1 2 0Z"/></svg>