<svg xmlns="http://www.w3.org/2000/svg" width="20" height="20" fill="none" viewBox="0 0 20 20"><path fill="#D6D6D6" d="M0 10c0-3.738 0-5.608.804-7A6 6 0 0 1 3 .804C4.392 0 6.262 0 10 0c3.739 0 5.608 0 7 .804A6 6 0 0 1 19.196 3C20 4.392 20 6.262 20 10c0 3.739 0 5.608-.804 7A6.002 6.002 0 0 1 17 19.196C15.608 20 13.739 20 10 20c-3.738 0-5.608 0-7-.804A6 6 0 0 1 .804 17C0 15.608 0 13.739 0 10Z"/><path fill="#212121" fill-rule="evenodd" d="M13.57 6.5a.75.75 0 0 1 0 1.06l-2.51 2.51 2.44 2.44a.75.75 0 0 1-1.06 1.06L10 11.132l-2.44 2.44a.75.75 0 0 1-1.06-1.06l2.44-2.44-2.51-2.51A.75.75 0 0 1 7.49 6.5L10 9.01l2.51-2.51a.75.75 0 0 1 1.06 0Z" clip-rule="evenodd"/></svg>