<svg xmlns="http://www.w3.org/2000/svg" width="20" height="20" fill="none" viewBox="0 0 20 20"><path fill="#D6D6D6" d="M0 10c0-3.738 0-5.608.804-7A6 6 0 0 1 3 .804C4.392 0 6.262 0 10 0c3.739 0 5.608 0 7 .804A6 6 0 0 1 19.196 3C20 4.392 20 6.262 20 10c0 3.739 0 5.608-.804 7A6.002 6.002 0 0 1 17 19.196C15.608 20 13.739 20 10 20c-3.738 0-5.608 0-7-.804A6 6 0 0 1 .804 17C0 15.608 0 13.739 0 10Z"/><path fill="#212121" d="m7.03 10.47 1.223 1.222c.956-2.01 2.064-3.31 3.003-4.131a7.908 7.908 0 0 1 1.383-.984 5.068 5.068 0 0 1 .56-.265l.04-.015.014-.005.006-.002h.002l.002-.001a.75.75 0 0 1 .48 1.421l-.01.004a3.608 3.608 0 0 0-.371.178 6.41 6.41 0 0 0-1.118.798c-.91.796-2.091 2.197-3.048 4.589a.75.75 0 0 1-1.226.252l-2-2a.75.75 0 1 1 1.06-1.061Z"/></svg>