<svg xmlns="http://www.w3.org/2000/svg" width="20" height="20" fill="none" viewBox="0 0 20 20"><path fill="#D6D6D6" d="M7.993 3.5c.782-1.612 1.173-2.417 1.8-2.417.626 0 1.017.805 1.799 2.417l1.352 2.787 3.136.524c1.633.273 2.45.41 2.64.98.19.57-.38 1.17-1.52 2.37l-2.307 2.43.489 3.263c.258 1.72.387 2.58-.117 2.935s-1.27-.055-2.804-.875l-2.668-1.427-2.669 1.427c-1.533.82-2.3 1.23-2.804.875-.504-.356-.375-1.216-.117-2.935l.49-3.263-2.308-2.43c-1.14-1.2-1.71-1.8-1.52-2.37.19-.57 1.007-.707 2.64-.98l3.136-.524L7.993 3.5Z"/></svg>