<svg xmlns="http://www.w3.org/2000/svg" width="20" height="20" fill="none" viewBox="0 0 20 20"><path fill="#D6D6D6" d="M15 10a5 5 0 1 1-10 0 5 5 0 0 1 10 0Z"/><path fill="#212121" fill-rule="evenodd" d="M10 0a.75.75 0 0 1 .75.75v1.5a.75.75 0 0 1-1.5 0V.75A.75.75 0 0 1 10 0ZM2.929 2.929a.75.75 0 0 1 1.06 0l1.061 1.06A.75.75 0 1 1 3.99 5.05L2.929 3.99a.75.75 0 0 1 0-1.061Zm14.142 0a.75.75 0 0 1 0 1.06l-1.06 1.061a.75.75 0 0 1-1.061-1.06l1.06-1.061a.75.75 0 0 1 1.061 0ZM17 10a.75.75 0 0 1 .75-.75h1.5a.75.75 0 0 1 0 1.5h-1.5A.75.75 0 0 1 17 10ZM0 10a.75.75 0 0 1 .75-.75h1.5a.75.75 0 0 1 0 1.5H.75A.75.75 0 0 1 0 10Zm5.05 4.95a.75.75 0 0 1 0 1.06l-1.06 1.061a.75.75 0 1 1-1.061-1.06l1.06-1.061a.75.75 0 0 1 1.061 0Zm9.9 0a.75.75 0 0 1 1.06 0l1.061 1.06a.75.75 0 0 1-1.06 1.061l-1.061-1.06a.75.75 0 0 1 0-1.061ZM10 17a.75.75 0 0 1 .75.75v1.5a.75.75 0 0 1-1.5 0v-1.5A.75.75 0 0 1 10 17Z" clip-rule="evenodd"/></svg>