<svg xmlns="http://www.w3.org/2000/svg" width="20" height="20" fill="none" viewBox="0 0 20 20"><path fill="#D6D6D6" d="M4.357 15.644c-1.987-1.986-2.98-2.98-3.217-4.17a4 4 0 0 1 0-1.56c.237-1.19 1.23-2.184 3.217-4.17l2.347-2.348c1.28-1.28 1.92-1.92 2.742-2.224.821-.304 1.724-.234 3.529-.095l2.105.162c1.632.125 2.447.188 2.97.711.523.523.586 1.339.712 2.97l.162 2.105c.138 1.805.208 2.708-.096 3.53-.304.82-.944 1.46-2.224 2.74l-2.348 2.349c-1.986 1.986-2.98 2.979-4.17 3.216a3.999 3.999 0 0 1-1.56 0c-1.19-.237-2.183-1.23-4.17-3.216Z"/><path fill="#212121" d="M14.963 7.866a2 2 0 1 1-2.828-2.829 2 2 0 0 1 2.828 2.829Z"/></svg>