<svg xmlns="http://www.w3.org/2000/svg" width="20" height="20" fill="none" viewBox="0 0 20 20"><path fill="#212121" d="M1.394 5c.088-.597.234-1.123.483-1.61A5.75 5.75 0 0 1 4.39.877C5.048.54 5.775.393 6.655.32 7.519.25 8.595.25 9.966.25h.068c1.371 0 2.447 0 3.311.07.88.073 1.607.221 2.265.557a5.75 5.75 0 0 1 2.513 2.513c.249.487.395 1.013.483 1.61H1.394Z"/><path fill="#D6D6D6" fill-rule="evenodd" d="M5.782 16.75h8.27l.636-.001 2.782 2.781a.75.75 0 1 0 1.06-1.06l-1.864-1.865c.48-.105.915-.297 1.279-.66.455-.456.64-1.023.725-1.65.08-.595.08-1.345.08-2.243V8.966c0-1.195 0-2.165-.047-2.966h-1.502c.049.761.049 1.716.049 3v.25h-6.5V6h-1.5v3.25h-6.5V9c0-1.284 0-2.239.05-3H1.296c-.047.802-.047 1.772-.047 2.966v3.086c0 .899 0 1.648.08 2.242.084.628.27 1.195.725 1.65.364.364.799.556 1.28.661L1.47 18.47a.75.75 0 1 0 1.06 1.06l2.782-2.781.47.001ZM4.75 12c-.414 0-.75.448-.75 1s.336 1 .75 1h2.5c.414 0 .75-.448.75-1s-.336-1-.75-1h-2.5ZM12 13c0-.552.336-1 .75-1h2.5c.414 0 .75.448.75 1s-.336 1-.75 1h-2.5c-.414 0-.75-.448-.75-1Z" clip-rule="evenodd"/></svg>