<svg xmlns="http://www.w3.org/2000/svg" width="20" height="20" fill="none" viewBox="0 0 20 20"><path fill="#212121" fill-rule="evenodd" d="M9.75 11.89a95.673 95.673 0 0 1-.134-.134L6.03 8.17a.75.75 0 1 0-1.06 1.06l3.585 3.586.032.032c.306.306.587.587.846.784.285.218.63.404 1.067.404.437 0 .782-.186 1.067-.404.26-.197.54-.478.846-.784l.031-.032 3.586-3.585a.75.75 0 0 0-1.06-1.061l-3.586 3.586-.134.133V1.5a.75.75 0 0 0-1.5 0v10.39Z" clip-rule="evenodd"/><path fill="#D6D6D6" fill-rule="evenodd" d="M3.75 18.5a.75.75 0 0 1 .75-.75h12a.75.75 0 0 1 0 1.5h-12a.75.75 0 0 1-.75-.75Z" clip-rule="evenodd"/></svg>