<svg xmlns="http://www.w3.org/2000/svg" width="20" height="20" fill="none" viewBox="0 0 20 20"><path fill="#D6D6D6" d="M0 9.5c0-2.33 0-3.495.38-4.413A5 5 0 0 1 3.088 2.38C4.005 2 5.17 2 7.5 2s3.495 0 4.413.38a5 5 0 0 1 2.706 2.707C15 6.005 15 7.17 15 9.5v1c0 2.33 0 3.495-.38 4.413a5 5 0 0 1-2.707 2.706C10.995 18 9.83 18 7.5 18s-3.495 0-4.413-.38A5 5 0 0 1 .38 14.912C0 13.995 0 12.83 0 10.5v-1Z"/><path fill="#212121" d="M16 8.667c0-.652 0-.979.095-1.275.063-.197.155-.383.275-.551.18-.254.442-.45.963-.841.918-.688 1.376-1.032 1.762-.996a1 1 0 0 1 .645.323c.26.286.26.86.26 2.006v5.334c0 1.146 0 1.72-.26 2.006a1 1 0 0 1-.645.322c-.386.037-.844-.307-1.762-.995-.521-.391-.782-.587-.963-.84a1.998 1.998 0 0 1-.275-.552C16 12.312 16 11.985 16 11.333V8.667Z"/></svg>