<svg xmlns="http://www.w3.org/2000/svg" width="20" height="20" fill="none" viewBox="0 0 20 20"><path fill="#D6D6D6" d="m4.762 15 3.149 3.306A2.236 2.236 0 0 0 9.53 19c1.095 0 2.021-.795 2.132-1.884A71.43 71.43 0 0 0 12 10c0-3.099-.18-5.557-.338-7.116C11.55 1.794 10.625 1 9.53 1c-.612 0-1.197.25-1.62.694L4.763 5c-1.644 0-2.466 0-3.097.314a3 3 0 0 0-1.351 1.35C0 7.297 0 8.119 0 9.763v.476c0 1.644 0 2.466.314 3.097a3 3 0 0 0 1.35 1.351C2.297 15 3.119 15 4.763 15Z"/><path fill="#212121" d="M17.643 10.75h1.714c.355 0 .643-.336.643-.75s-.288-.75-.643-.75h-4.714c-.355 0-.643.336-.643.75s.288.75.643.75h3Z"/></svg>