<svg xmlns="http://www.w3.org/2000/svg" width="20" height="20" fill="none" viewBox="0 0 20 20"><path fill="#212121" fill-rule="evenodd" d="M.984 7.045a.75.75 0 0 1 0-1.06c4.98-4.98 13.052-4.98 18.032 0a.75.75 0 0 1-1.061 1.06c-4.393-4.393-11.517-4.393-15.91 0a.75.75 0 0 1-1.06 0Z" clip-rule="evenodd"/><path fill="#212121" fill-rule="evenodd" d="M4.52 10.58a.75.75 0 0 1 0-1.06 7.75 7.75 0 0 1 10.96 0 .75.75 0 0 1-1.06 1.06 6.25 6.25 0 0 0-8.84 0 .75.75 0 0 1-1.06 0Z" clip-rule="evenodd"/><path fill="#D6D6D6" fill-rule="evenodd" d="M7.25 15a2.75 2.75 0 1 1 5.5 0 2.75 2.75 0 0 1-5.5 0Z" clip-rule="evenodd"/></svg>