<svg xmlns="http://www.w3.org/2000/svg" width="20" height="20" fill="none" viewBox="0 0 20 20"><path fill="#212121" d="M1 5c0-1.87 0-2.804.402-3.5A3 3 0 0 1 2.5.402C3.06.079 3.772.016 5 .003v19.994c-1.228-.013-1.94-.076-2.5-.399A3 3 0 0 1 1.402 18.5C1 17.804 1 16.87 1 15V5Z"/><path fill="#212121" fill-rule="evenodd" d="M7 20V0h6c2.828 0 4.243 0 5.121.879C19 1.757 19 3.172 19 6v8c0 2.828 0 4.243-.879 5.121C17.243 20 15.828 20 13 20H7Zm4-15.75a.75.75 0 0 0 0 1.5h4a.75.75 0 0 0 0-1.5h-4Z" clip-rule="evenodd"/></svg>