<svg xmlns="http://www.w3.org/2000/svg" width="20" height="20" fill="none" viewBox="0 0 20 20"><path fill="#212121" d="M18.44 3.5a.75.75 0 0 0 1.06-1.06L17.56.5a.75.75 0 1 0-1.06 1.06l1.94 1.94Z"/><path fill="#212121" fill-rule="evenodd" d="M16.424 16.303a9 9 0 1 0-12.788 0L1.5 18.44a.75.75 0 1 0 1.06 1.06l2.22-2.22a8.96 8.96 0 0 0 5.25 1.69 8.96 8.96 0 0 0 5.25-1.69l2.22 2.22a.75.75 0 1 0 1.06-1.06l-2.136-2.137ZM10.28 5.47a.75.75 0 1 0-1.5 0v5.75h5.75a.75.75 0 0 0 0-1.5h-4.25V5.47Z" clip-rule="evenodd"/><path fill="#212121" d="M3.56.5a.75.75 0 0 1 0 1.06L1.622 3.5a.75.75 0 1 1-1.06-1.06L2.5.5a.75.75 0 0 1 1.06 0Z"/></svg>