<svg xmlns="http://www.w3.org/2000/svg" width="20" height="20" fill="none" viewBox="0 0 20 20"><path fill="#212121" fill-rule="evenodd" d="M2.16 7.648c-.075-1.006-.113-1.509.184-1.828.297-.32.801-.32 1.81-.32h11.692c1.009 0 1.513 0 1.81.32.297.319.26.822.185 1.828l-.324 4.371c-.23 3.098-.344 4.647-1.267 5.666a3.99 3.99 0 0 1-.506.47C14.66 19 13.107 19 10 19c-3.106 0-4.66 0-5.744-.845a3.994 3.994 0 0 1-.506-.47c-.923-1.019-1.038-2.568-1.267-5.666l-.324-4.371Zm8.59 1.602a.75.75 0 0 0-1.5 0V11H7.5a.75.75 0 0 0 0 1.5h1.75v1.75a.75.75 0 0 0 1.5 0V12.5h1.75a.75.75 0 0 0 0-1.5h-1.75V9.25Z" clip-rule="evenodd"/><rect width="18" height="3" x="1" y="1" fill="#212121" rx="1.5"/></svg>