<svg xmlns="http://www.w3.org/2000/svg" width="20" height="20" fill="none" viewBox="0 0 20 20"><path fill="#212121" fill-rule="evenodd" d="M2.344 5.82c-.297.319-.26.822-.185 1.828l.324 4.371c.23 3.098.344 4.647 1.267 5.666.155.171.324.328.506.47C5.34 19 6.894 19 10 19c3.107 0 4.66 0 5.744-.845a4.02 4.02 0 0 0 .506-.47c.923-1.019 1.038-2.568 1.267-5.666l.324-4.371c.074-1.006.112-1.509-.185-1.828-.297-.32-.801-.32-1.81-.32H4.154c-1.009 0-1.513 0-1.81.32Zm6.419 3.9a.75.75 0 0 0-1.061 1.06l1.237 1.238-1.237 1.237a.75.75 0 0 0 1.06 1.06L10 13.079l1.237 1.238a.75.75 0 0 0 1.061-1.06l-1.237-1.238 1.237-1.238a.75.75 0 1 0-1.06-1.06L10 10.957 8.763 9.72Z" clip-rule="evenodd"/><rect width="18" height="3" x="1" y="1" fill="#212121" rx="1.5"/></svg>