<svg xmlns="http://www.w3.org/2000/svg" width="20" height="20" fill="none" viewBox="0 0 20 20"><path fill="#212121" d="M0 10.75v.056c0 1.838 0 3.294.153 4.433.158 1.172.49 2.121 1.238 2.87.748.748 1.697 1.08 2.87 1.238 1.14.153 2.595.153 4.432.153h2.113c1.838 0 3.294 0 4.433-.153 1.172-.158 2.121-.49 2.87-1.238.748-.749 1.08-1.698 1.238-2.87.153-1.14.153-2.595.153-4.433v-.056a.75.75 0 0 0-1.5 0c0 1.907-.002 3.261-.14 4.289-.135 1.006-.389 1.586-.812 2.009-.423.423-1.003.677-2.009.812-1.028.138-2.382.14-4.29.14h-2c-1.906 0-3.26-.002-4.288-.14-1.006-.135-1.586-.389-2.01-.812-.422-.423-.676-1.003-.811-2.009-.139-1.028-.14-2.382-.14-4.29a.75.75 0 0 0-1.5 0Z"/><path fill="#212121" d="M10.25.69a.75.75 0 0 0-1 0l-4 3.572a.75.75 0 0 0 1 1.119L9 2.925v8.325a.75.75 0 0 0 1.5 0V2.925l2.75 2.456a.75.75 0 1 0 1-1.119l-4-3.571Z"/></svg>