<svg xmlns="http://www.w3.org/2000/svg" width="20" height="20" fill="none" viewBox="0 0 20 20"><path fill="#212121" fill-rule="evenodd" d="M.804 3C0 4.392 0 6.262 0 10c0 3.739 0 5.608.804 7A6.001 6.001 0 0 0 3 19.196C4.392 20 6.26 20 10 20c3.738 0 5.608 0 7-.804A6.002 6.002 0 0 0 19.196 17C20 15.608 20 13.739 20 10c0-3.738 0-5.608-.804-7A6 6 0 0 0 17 .804C15.608 0 13.738 0 10 0 6.26 0 4.392 0 3 .804A6 6 0 0 0 .804 3ZM11.03 6.47a.75.75 0 0 0-1.06 1.06l1.72 1.72H6.3a.75.75 0 1 0 0 1.5h5.39l-1.72 1.72a.75.75 0 1 0 1.06 1.06l3-3a.75.75 0 0 0 0-1.06l-3-3Z" clip-rule="evenodd"/></svg>