<svg xmlns="http://www.w3.org/2000/svg" width="20" height="20" fill="none" viewBox="0 0 20 20"><path fill="#212121" d="M12 17.5H8c-.468 0-.702 0-.85.227-.148.227-.072.398.079.74C7.539 19.17 8.272 20 10 20s2.46-.83 2.771-1.533c.151-.342.227-.513.079-.74-.148-.227-.382-.227-.85-.227ZM11.131.09A7 7 0 0 0 3 7c0 .324 0 .486-.012.595-.026.234-.036.343-.07.442-.034.1-.093.191-.218.392-.057.093-.322.431-.851 1.107A4 4 0 0 0 5 16h10a4 4 0 0 0 3.546-5.853A6.25 6.25 0 0 1 11.131.091Z"/><path fill="#212121" fill-rule="evenodd" d="M20 5a5 5 0 1 1-10 0 5 5 0 0 1 10 0Zm-2.977 2.856a3.5 3.5 0 0 1-4.88-4.88l4.88 4.88Zm1.011-1.11-4.78-4.78a3.5 3.5 0 0 1 4.78 4.78Z" clip-rule="evenodd"/></svg>