<svg xmlns="http://www.w3.org/2000/svg" width="20" height="20" fill="none" viewBox="0 0 20 20"><path fill="#212121" d="M10 0a7 7 0 0 0-7 7c0 .324 0 .486-.012.595-.052.469-.04.432-.288.834-.057.093-.322.431-.851 1.107A4 4 0 0 0 5 16h10a4 4 0 0 0 3.151-6.464c-.529-.676-.794-1.014-.852-1.107-.248-.402-.235-.365-.287-.834C17 7.485 17 7.324 17 7a7 7 0 0 0-7-7ZM12 17.5H8c-.468 0-.702 0-.85.227-.148.227-.072.398.079.74C7.539 19.17 8.272 20 10 20s2.46-.83 2.771-1.533c.151-.342.227-.513.079-.74-.148-.227-.382-.227-.85-.227Z"/></svg>