<svg xmlns="http://www.w3.org/2000/svg" width="20" height="20" fill="none" viewBox="0 0 20 20"><path fill="#212121" fill-rule="evenodd" d="M12.75 0a.75.75 0 0 1 .75.75v1.5a.747.747 0 0 1-.038.236c.121.036.24.077.356.126a4.75 4.75 0 0 1 2.57 2.57c.197.474.281.982.322 1.578.036.528.04 1.168.04 1.959.49.28.897.634 1.14 1.165.275.598.245 1.207.094 1.837-.143.597-.42 1.314-.754 2.175l-.777 2.005 2.963 1.975a.75.75 0 1 1-.832 1.248L16 17.401l-3 2-3-2-3 2-3-2-2.584 1.723a.75.75 0 1 1-.832-1.248l2.963-1.975-.777-2.005c-.333-.86-.611-1.578-.754-2.175-.15-.63-.18-1.239.094-1.837.244-.53.65-.885 1.14-1.165 0-.79.004-1.43.04-1.959.04-.596.125-1.104.322-1.578a4.75 4.75 0 0 1 2.57-2.57c.474-.197.982-.282 1.578-.322.584-.04 1.304-.04 2.213-.04h.054c.789 0 1.435 0 1.973.026V.75a.75.75 0 0 1 .75-.75Zm2.498 8.066a20.24 20.24 0 0 0-.034-1.204c-.036-.52-.103-.845-.211-1.106a3.25 3.25 0 0 0-1.76-1.759c-.26-.108-.586-.175-1.105-.21C11.61 3.75 10.942 3.75 10 3.75s-1.611 0-2.138.036c-.52.036-.845.103-1.106.211a3.25 3.25 0 0 0-1.759 1.76c-.108.26-.175.586-.21 1.105-.023.334-.032.724-.035 1.205.26-.096.537-.194.83-.298l2.93-1.037c.565-.201 1.013-.36 1.488-.36.476 0 .923.159 1.489.36l2.928 1.037c.294.104.572.202.831.297ZM7 15a1 1 0 1 0 0-2 1 1 0 0 0 0 2Z" clip-rule="evenodd"/></svg>