<svg xmlns="http://www.w3.org/2000/svg" width="20" height="20" fill="none" viewBox="0 0 20 20"><path fill="#212121" fill-rule="evenodd" d="M3.674 1.778C3 2.787 3 4.19 3 7v9.114c0 1.702 0 2.553.542 2.832.543.28 1.235-.216 2.62-1.205l2.676-1.91c.56-.402.842-.602 1.162-.602.32 0 .601.2 1.162.601l2.675 1.911c1.386.99 2.078 1.484 2.62 1.205.543-.28.543-1.13.543-2.832V7c0-2.809 0-4.213-.674-5.222A4.002 4.002 0 0 0 15.222.674C14.213 0 12.81 0 10 0 7.191 0 5.787 0 4.778.674a4 4 0 0 0-1.104 1.104ZM10.8 5.75a.75.75 0 1 0-1.5 0V7.3H7.75a.75.75 0 0 0 0 1.5H9.3v1.45a.75.75 0 0 0 1.5 0V8.8h1.45a.75.75 0 0 0 0-1.5H10.8V5.75Z" clip-rule="evenodd"/></svg>