<svg xmlns="http://www.w3.org/2000/svg" width="20" height="20" fill="none" viewBox="0 0 20 20"><path fill="#212121" fill-rule="evenodd" d="M17.828 17.828C16.657 19 14.771 19 11 19H9c-3.771 0-5.657 0-6.828-1.172C1 16.657 1 14.771 1 11V7l9-.5 9 .5v4c0 3.771 0 5.657-1.172 6.828ZM4.75 14.5a.75.75 0 0 0 0 1.5h3.5a.75.75 0 0 0 0-1.5h-3.5Z" clip-rule="evenodd"/><path fill="#212121" fill-rule="evenodd" d="M8.72.25h2.56c1.352 0 2.431 0 3.3.1.899.102 1.649.317 2.314.797.666.48 1.107 1.123 1.488 1.942.37.794.71 1.817 1.138 3.1l.23.69v4.177c0 1.838 0 3.294-.153 4.433-.158 1.172-.49 2.121-1.238 2.87-.749.748-1.698 1.08-2.87 1.238-1.14.153-2.595.153-4.433.153H8.944c-1.838 0-3.294 0-4.433-.153-1.172-.158-2.121-.49-2.87-1.238-.748-.749-1.08-1.698-1.238-2.87C.25 14.349.25 12.894.25 11.056V6.878l.23-.688c.427-1.284.769-2.307 1.138-3.1.38-.82.822-1.464 1.488-1.943C3.77.667 4.52.452 5.419.349 6.29.25 7.368.25 8.721.25ZM5.59 1.84c-.756.086-1.225.248-1.607.523-.382.276-.685.67-1.005 1.36-.285.61-.56 1.4-.917 2.467l7.189-.4V1.75h-.484c-1.409 0-2.402.001-3.177.09Zm5.16-.09v4.04l7.19.4c-.359-1.068-.633-1.856-.918-2.468-.32-.69-.623-1.083-1.005-1.359-.381-.275-.851-.437-1.606-.523-.775-.089-1.768-.09-3.177-.09h-.484Zm7.5 5.96V11c0 1.907-.002 3.261-.14 4.29-.135 1.005-.389 1.585-.812 2.008-.423.423-1.003.677-2.009.812-1.027.138-2.382.14-4.289.14H9c-1.907 0-3.261-.002-4.29-.14-1.005-.135-1.585-.389-2.008-.812-.423-.423-.677-1.003-.812-2.009-.138-1.027-.14-2.382-.14-4.289V7.71L10 7.25l8.25.458Z" clip-rule="evenodd"/></svg>