<svg xmlns="http://www.w3.org/2000/svg" width="20" height="20" fill="none" viewBox="0 0 20 20"><path fill="#212121" fill-rule="evenodd" d="M4.75 13.5v-7h1.5v7h-1.5Zm10.5-7v4.027c0 .91 0 1.63-.04 2.213-.04.596-.125 1.104-.322 1.578a4.75 4.75 0 0 1-2.57 2.57c-.474.197-.982.281-1.578.322-.584.04-1.304.04-2.213.04H8.5v-1.5c.942 0 1.611 0 2.138-.036.52-.036.845-.103 1.106-.211a3.25 3.25 0 0 0 1.759-1.76c.108-.26.175-.586.21-1.105.037-.527.037-1.196.037-2.138v-4h1.5Z" clip-rule="evenodd"/><path fill="#212121" fill-rule="evenodd" d="M9 3.5a3.5 3.5 0 1 1-7 0 3.5 3.5 0 0 1 7 0Zm0 13a3.5 3.5 0 1 1-7 0 3.5 3.5 0 0 1 7 0ZM14.5 7a3.5 3.5 0 1 0 0-7 3.5 3.5 0 0 0 0 7Z" clip-rule="evenodd"/></svg>