<svg xmlns="http://www.w3.org/2000/svg" width="20" height="20" fill="none" viewBox="0 0 20 20"><path fill="#212121" fill-rule="evenodd" d="M10.025.75h-.05c-.445 0-.816 0-1.12.02a2.823 2.823 0 0 0-.907.19 2.75 2.75 0 0 0-1.489 1.488c-.12.29-.167.59-.188.907a8.466 8.466 0 0 0-.016.395h7.49a8.434 8.434 0 0 0-.016-.395 2.822 2.822 0 0 0-.188-.907A2.75 2.75 0 0 0 12.052.959c-.29-.12-.59-.167-.907-.188C10.841.75 10.47.75 10.025.75Zm2.208 2.707c.006.087.01.184.012.293h-4.49c.002-.11.006-.206.012-.293.017-.241.046-.358.078-.435.127-.307.37-.55.677-.677.077-.032.194-.061.435-.078.247-.017.567-.017 1.043-.017s.796 0 1.043.017c.241.017.358.046.435.078.307.127.55.37.677.677.032.077.061.194.078.435Z" clip-rule="evenodd"/><path fill="#212121" fill-rule="evenodd" d="M10.025.75h-.05c-.445 0-.816 0-1.12.02a2.823 2.823 0 0 0-.907.19 2.75 2.75 0 0 0-1.489 1.488c-.12.29-.167.59-.188.907a8.494 8.494 0 0 0-.016.395c-1.043 0-1.893.005-2.579.082-.754.085-1.403.266-1.959.693-.26.2-.493.432-.692.692-.427.556-.608 1.205-.693 1.96-.048.43-.068.925-.076 1.491L.25 10.246v2.309c0 1.367 0 2.47.117 3.337.12.9.38 1.658.981 2.26.602.602 1.36.86 2.26.982.867.116 1.97.116 3.337.116h6.11c1.367 0 2.47 0 3.337-.116.9-.122 1.658-.38 2.26-.982.602-.602.86-1.36.982-2.26.116-.867.116-1.97.116-3.337v-2.309l-.006-1.578a15.696 15.696 0 0 0-.076-1.492c-.085-.754-.266-1.403-.693-1.959a3.75 3.75 0 0 0-.692-.692c-.556-.427-1.205-.608-1.96-.693-.685-.077-1.535-.082-2.578-.082a8.434 8.434 0 0 0-.016-.395 2.822 2.822 0 0 0-.188-.907A2.75 2.75 0 0 0 12.052.959c-.29-.12-.59-.167-.907-.188C10.841.75 10.47.75 10.025.75Zm2.208 2.707c.006.087.01.184.012.293h-4.49c.002-.11.006-.206.012-.293.017-.241.046-.358.078-.435.127-.307.37-.55.677-.677.077-.032.194-.061.435-.078.247-.017.567-.017 1.043-.017s.796 0 1.043.017c.241.017.358.046.435.078.307.127.55.37.677.677.032.077.061.194.078.435ZM10.75 8.75a.75.75 0 0 0-1.5 0v1.247a13.246 13.246 0 0 1-4.47-1.05l-1.485-.636a.75.75 0 0 0-.59 1.378l1.485.637a14.743 14.743 0 0 0 5.06 1.173v1.251a.75.75 0 0 0 1.5 0V11.5a14.743 14.743 0 0 0 5.06-1.174l1.485-.637a.75.75 0 1 0-.59-1.378l-1.486.636a13.245 13.245 0 0 1-4.469 1.05V8.75Z" clip-rule="evenodd"/></svg>