<svg xmlns="http://www.w3.org/2000/svg" width="20" height="20" fill="none" viewBox="0 0 20 20"><path fill="#212121" fill-rule="evenodd" d="M.75 18.5a.75.75 0 0 0 0 1.5H7a1 1 0 0 0 1-1v-3a2 2 0 1 1 4 0v3a1 1 0 0 0 1 1h6.25a.75.75 0 0 0 0-1.5H18V8c0-3.771 0-5.657-1.172-6.828C15.657 0 13.771 0 10 0 6.229 0 4.343 0 3.172 1.172 2 2.343 2 4.229 2 8v10.5H.75ZM6 9a1 1 0 0 1 1-1h1a1 1 0 0 1 0 2H7a1 1 0 0 1-1-1Zm0-4a1 1 0 0 1 1-1h1a1 1 0 0 1 0 2H7a1 1 0 0 1-1-1Zm6-1a1 1 0 1 0 0 2h1a1 1 0 1 0 0-2h-1Zm-1 5a1 1 0 0 1 1-1h1a1 1 0 1 1 0 2h-1a1 1 0 0 1-1-1Z" clip-rule="evenodd"/></svg>