<svg xmlns="http://www.w3.org/2000/svg" width="20" height="20" fill="none" viewBox="0 0 20 20"><path fill="#212121" d="M1 15.25a.75.75 0 0 1 .75-.75h16.5a.75.75 0 0 1 .75.75A3.75 3.75 0 0 1 15.25 19H4.75A3.75 3.75 0 0 1 1 15.25Z"/><path fill="#212121" fill-rule="evenodd" d="M.25 15.25a1.5 1.5 0 0 1 1.5-1.5h16.5a1.5 1.5 0 0 1 1.5 1.5 4.5 4.5 0 0 1-4.5 4.5H4.75a4.5 4.5 0 0 1-4.5-4.5Zm18 0H1.75a3 3 0 0 0 3 3h10.5a3 3 0 0 0 3-3Z" clip-rule="evenodd"/><path fill="#212121" d="M1 7.563c0 .517.42.937.938.937h16.125c.517 0 .937-.42.937-.938A6.562 6.562 0 0 0 12.437 1H7.564A6.562 6.562 0 0 0 1 7.563Z"/><path fill="#212121" fill-rule="evenodd" d="M.25 7.563c0 .931.756 1.687 1.688 1.687h16.125c.931 0 1.687-.756 1.687-1.688A7.312 7.312 0 0 0 12.437.25H7.564A7.313 7.313 0 0 0 .25 7.563Zm1.688.187a.188.188 0 0 1-.188-.188A5.812 5.812 0 0 1 7.563 1.75h4.875a5.812 5.812 0 0 1 5.812 5.813.187.187 0 0 1-.188.187H1.938ZM.051 10.684a1 1 0 0 1 1.265-.633l2.368.79a1 1 0 0 0 .632 0l1.735-.58a3 3 0 0 1 1.898 0l1.735.58a1 1 0 0 0 .632 0l1.735-.58a3.001 3.001 0 0 1 1.898 0l1.735.58a1 1 0 0 0 .632 0l2.368-.79a1 1 0 1 1 .632 1.897l-2.367.79a3 3 0 0 1-1.898 0l-1.735-.579a1 1 0 0 0-.632 0l-1.735.579a3 3 0 0 1-1.898 0l-1.735-.579a1 1 0 0 0-.632 0l-1.735.579a3 3 0 0 1-1.898 0l-2.367-.79a1 1 0 0 1-.633-1.264Z" clip-rule="evenodd"/></svg>