<svg xmlns="http://www.w3.org/2000/svg" width="20" height="20" fill="none" viewBox="0 0 20 20"><path fill="#212121" fill-rule="evenodd" d="M14.05 17.75c.436 0 .836 0 1.2-.009V19a.75.75 0 0 0 1.5 0v-1.414c.447-.11.852-.3 1.195-.641.455-.456.64-1.023.725-1.65.08-.595.08-1.345.08-2.243V11H19a1 1 0 0 0 1-1V8a1 1 0 0 0-1-1h-.26c-.01-.5-.028-.945-.06-1.345-.072-.88-.221-1.607-.557-2.265A5.75 5.75 0 0 0 15.61.877C14.953.54 14.226.393 13.345.32 12.481.25 11.405.25 10.034.25h-.068c-1.371 0-2.447 0-3.311.07-.88.073-1.607.221-2.265.557A5.75 5.75 0 0 0 1.877 3.39c-.336.658-.484 1.385-.556 2.265-.033.4-.05.846-.06 1.345H1a1 1 0 0 0-1 1v2a1 1 0 0 0 1 1h.25v2.052c0 .899 0 1.648.08 2.242.084.628.27 1.195.725 1.65.343.343.748.533 1.195.642V19a.75.75 0 0 0 1.5 0v-1.259c.317.008.662.009 1.032.009h8.269Zm3.2-7.5H2.75V9c0-1.413 0-2.427.066-3.223.024-.295.056-.55.098-.777h14.172c.042.226.074.482.098.777.065.796.066 1.81.066 3.223v1.25ZM4.75 13c-.414 0-.75.448-.75 1s.336 1 .75 1h2.5c.414 0 .75-.448.75-1s-.336-1-.75-1h-2.5ZM12 14c0-.552.336-1 .75-1h2.5c.414 0 .75.448.75 1s-.336 1-.75 1h-2.5c-.414 0-.75-.448-.75-1Z" clip-rule="evenodd"/></svg>