<svg xmlns="http://www.w3.org/2000/svg" width="20" height="20" fill="none" viewBox="0 0 20 20"><path fill="#212121" fill-rule="evenodd" d="M12 2H9c-.552 0-1.049 0-1.5.004V.75a.75.75 0 0 0-1.5 0v1.29c-.982.05-1.684.163-2.296.417A6 6 0 0 0 .457 5.704C0 6.807 0 8.204 0 11c0 2.796 0 4.194.457 5.296a6 6 0 0 0 3.247 3.247C4.807 20 6.204 20 9 20h2c2.796 0 4.194 0 5.296-.457a6 6 0 0 0 3.247-3.247C20 15.194 20 13.796 20 11c0-2.796 0-4.193-.457-5.296a6 6 0 0 0-3.247-3.247c-.71-.295-1.544-.4-2.796-.437V.75a.75.75 0 0 0-1.5 0V2ZM9.5 7a.5.5 0 0 0-.496.562l.375 3a.5.5 0 0 0 .496.438h.617a.5.5 0 0 0 .496-.438l.375-3A.5.5 0 0 0 10.867 7H9.5Zm.294 7.5a.5.5 0 0 1-.49-.598l.2-1a.5.5 0 0 1 .49-.402h.38a.5.5 0 0 1 .49.402l.2 1a.5.5 0 0 1-.49.598h-.78Z" clip-rule="evenodd"/></svg>