<svg xmlns="http://www.w3.org/2000/svg" width="20" height="20" fill="none" viewBox="0 0 20 20"><path fill="#212121" fill-rule="evenodd" d="M3 15.25a.75.75 0 0 1 .75.75v3a.75.75 0 0 1-1.5 0v-3a.75.75 0 0 1 .75-.75Zm14 0a.75.75 0 0 1 .75.75v3a.75.75 0 0 1-1.5 0v-3a.75.75 0 0 1 .75-.75ZM9.961.25h.078c1.208 0 2.168 0 2.944.075.797.077 1.469.239 2.077.605a4.76 4.76 0 0 1 1.164.985c.46.54.73 1.176.938 1.95.201.753.36 1.7.558 2.892l.165.993H2.115l.165-.993c.199-1.192.357-2.14.558-2.892.207-.774.477-1.41.938-1.95A4.75 4.75 0 0 1 4.94.93C5.548.564 6.22.402 7.017.325 7.793.25 8.753.25 9.961.25Zm-2.8 1.568c-.68.066-1.105.19-1.448.397-.3.18-.569.408-.796.674-.26.305-.453.703-.63 1.364-.14.52-.259 1.162-.4 1.997h12.227c-.142-.835-.262-1.476-.401-1.997-.177-.661-.37-1.06-.63-1.364a3.25 3.25 0 0 0-.796-.674c-.343-.206-.767-.33-1.449-.397-.695-.067-1.583-.068-2.838-.068-1.255 0-2.143 0-2.838.068Z" clip-rule="evenodd"/><path fill="#212121" fill-rule="evenodd" d="M13.027 6.25H6.973c-.91 0-1.63 0-2.213.04-.596.04-1.104.125-1.578.322a4.75 4.75 0 0 0-2.57 2.57c-.197.474-.282.982-.322 1.578-.04.584-.04 1.304-.04 2.213v.052c0 .445 0 .816.02 1.12.022.318.069.617.19.907a2.75 2.75 0 0 0 1.488 1.489c.29.12.59.167.907.188.304.021.675.021 1.12.021h12.05c.445 0 .816 0 1.12-.02.317-.022.617-.069.907-.19a2.75 2.75 0 0 0 1.489-1.488c.12-.29.167-.59.188-.907.021-.304.021-.675.021-1.12v-.052c0-.91 0-1.63-.04-2.213-.04-.596-.125-1.104-.322-1.578a4.75 4.75 0 0 0-2.57-2.57c-.474-.197-.982-.282-1.578-.322-.584-.04-1.304-.04-2.213-.04ZM5.5 13a1.5 1.5 0 1 0 0-3 1.5 1.5 0 0 0 0 3Zm9 0a1.5 1.5 0 1 0 0-3 1.5 1.5 0 0 0 0 3Z" clip-rule="evenodd"/></svg>