<svg xmlns="http://www.w3.org/2000/svg" width="20" height="20" fill="none" viewBox="0 0 20 20"><path fill="#212121" fill-rule="evenodd" d="M.674 4.778C0 5.787 0 7.19 0 10c0 2.809 0 4.213.674 5.222a4 4 0 0 0 1.104 1.104C2.787 17 4.19 17 7 17h6c2.809 0 4.213 0 5.222-.674a4.003 4.003 0 0 0 1.104-1.104C20 14.213 20 12.81 20 10c0-2.809 0-4.213-.674-5.222a4.002 4.002 0 0 0-1.104-1.104C17.213 3 15.81 3 13 3H7c-2.809 0-4.213 0-5.222.674A4 4 0 0 0 .674 4.778ZM8.75 10a1.25 1.25 0 1 1 2.5 0 1.25 1.25 0 0 1-2.5 0ZM10 7.25a2.75 2.75 0 1 0 0 5.5 2.75 2.75 0 0 0 0-5.5ZM2 6a1 1 0 0 1 1-1h1a1 1 0 0 1 0 2H3a1 1 0 0 1-1-1Zm14 7a1 1 0 1 0 0 2h1a1 1 0 1 0 0-2h-1Z" clip-rule="evenodd"/></svg>