<svg xmlns="http://www.w3.org/2000/svg" width="20" height="20" fill="none" viewBox="0 0 20 20"><path fill="#212121" fill-rule="evenodd" d="M.674 2.778C0 3.787 0 5.19 0 8v3.8A3.2 3.2 0 0 0 3.2 15a.8.8 0 0 1 .8.8V17c0 1.745 0 2.618.553 2.894.553.277 1.25-.247 2.647-1.294l3.2-2.4c.527-.396.791-.593 1.077-.743.38-.2.791-.337 1.216-.405C13.01 15 13.34 15 14 15c1.864 0 2.796 0 3.53-.305a4 4 0 0 0 2.165-2.164C20 11.796 20 10.864 20 9V8c0-2.809 0-4.213-.674-5.222a4.002 4.002 0 0 0-1.104-1.104C17.213 1 15.81 1 13 1H7c-2.809 0-4.213 0-5.222.674A4 4 0 0 0 .674 2.778ZM7.5 7.25a.75.75 0 0 0 0 1.5h5a.75.75 0 0 0 0-1.5h-5Z" clip-rule="evenodd"/></svg>