<svg xmlns="http://www.w3.org/2000/svg" width="20" height="20" fill="none" viewBox="0 0 20 20"><path fill="#212121" fill-rule="evenodd" d="M10 20c5.523 0 10-4.477 10-10S15.523 0 10 0 0 4.477 0 10s4.477 10 10 10Zm.748-15a.75.75 0 1 0-1.5 0v.7c-.386.09-.76.255-1.081.503a2.328 2.328 0 0 0-.917 1.892c0 .847.39 1.438.921 1.842.464.352 1.053.573 1.518.747l.048.018c.527.198.914.35 1.184.555.219.167.329.34.329.648 0 .333-.133.55-.333.704-.22.17-.551.278-.918.277-.367 0-.697-.108-.917-.277-.2-.154-.332-.371-.332-.704a.75.75 0 1 0-1.5 0c0 .82.367 1.469.917 1.892a2.83 2.83 0 0 0 1.081.503v.7a.75.75 0 0 0 1.5 0v-.7c.387-.09.761-.254 1.084-.502.55-.423.918-1.071.918-1.893 0-.847-.39-1.438-.921-1.842-.464-.352-1.053-.573-1.518-.747l-.047-.018c-.528-.198-.915-.35-1.185-.555-.219-.166-.329-.34-.329-.648 0-.332.132-.55.332-.704.22-.17.55-.277.917-.277s.697.107.918.277c.2.153.333.371.333.704a.75.75 0 0 0 1.5 0 2.33 2.33 0 0 0-.918-1.894 2.83 2.83 0 0 0-1.084-.502V5Z" clip-rule="evenodd"/></svg>