<svg xmlns="http://www.w3.org/2000/svg" width="20" height="20" fill="none" viewBox="0 0 20 20"><path fill="#212121" fill-rule="evenodd" d="M11.77 1.041c-.772-1.388-2.768-1.388-3.54 0l-.331.597a2.024 2.024 0 0 1-2.326.964l-.657-.188c-1.527-.436-2.938.975-2.502 2.502l.188.657A2.024 2.024 0 0 1 1.638 7.9l-.597.331c-1.388.772-1.388 2.768 0 3.54l.597.331a2.024 2.024 0 0 1 .964 2.326l-.188.657c-.436 1.527.975 2.939 2.502 2.502l.657-.188a2.024 2.024 0 0 1 2.326.964l.331.597c.772 1.388 2.768 1.388 3.54 0l.331-.597a2.024 2.024 0 0 1 2.326-.964l.657.188c1.527.437 2.939-.975 2.502-2.502l-.188-.657a2.024 2.024 0 0 1 .964-2.326l.597-.332c1.388-.77 1.388-2.767 0-3.539l-.597-.331a2.024 2.024 0 0 1-.964-2.326l.188-.657c.437-1.527-.975-2.938-2.502-2.502l-.657.188a2.024 2.024 0 0 1-2.326-.964l-.332-.597ZM10 13a3 3 0 1 0 0-6 3 3 0 0 0 0 6Z" clip-rule="evenodd"/></svg>