<svg xmlns="http://www.w3.org/2000/svg" width="20" height="20" fill="none" viewBox="0 0 20 20"><path fill="#212121" fill-rule="evenodd" d="M0 10c0-.829 0-1.473.018-2h19.964C20 8.527 20 9.171 20 10c0 1.86 0 2.79-.204 3.553a6 6 0 0 1-4.243 4.243C14.79 18 13.86 18 12 18H8c-1.86 0-2.79 0-3.553-.204a6 6 0 0 1-4.243-4.243C0 12.79 0 11.86 0 10Zm19.796-3.553c.046.173.082.354.11.553H.094c.027-.199.063-.38.11-.553a6 6 0 0 1 4.242-4.243C5.21 2 6.14 2 8 2h4c1.86 0 2.79 0 3.553.204a6 6 0 0 1 4.243 4.243ZM5.75 12.5a.75.75 0 0 0 0 1.5h5.5a.75.75 0 0 0 0-1.5h-5.5Z" clip-rule="evenodd"/></svg>