<svg xmlns="http://www.w3.org/2000/svg" width="20" height="20" fill="none" viewBox="0 0 20 20"><path fill="#212121" fill-rule="evenodd" d="M5.204 3.366c-.793.366-1.381 1.053-2.556 2.428l-.258.301C.797 7.96 0 8.89 0 10c0 1.11.797 2.041 2.39 3.905l.258.301c1.175 1.375 1.763 2.062 2.556 2.428C5.998 17 6.901 17 8.707 17h4.31c2.802 0 4.203 0 5.21-.674.435-.292.81-.667 1.1-1.104C20 14.213 20 12.81 20 10c0-2.809 0-4.213-.672-5.222a3.995 3.995 0 0 0-1.101-1.104C17.22 3 15.819 3 13.017 3h-4.31c-1.806 0-2.709 0-3.503.366ZM11.53 7.47a.75.75 0 1 0-1.06 1.06L11.94 10l-1.47 1.47a.75.75 0 1 0 1.06 1.06L13 11.06l1.47 1.47a.75.75 0 0 0 1.06-1.06L14.06 10l1.47-1.47a.75.75 0 0 0-1.06-1.06L13 8.94l-1.47-1.47Z" clip-rule="evenodd"/></svg>