<svg xmlns="http://www.w3.org/2000/svg" width="20" height="20" fill="none" viewBox="0 0 20 20"><path fill="#212121" fill-rule="evenodd" d="M.593 10c0 .851.353 1.57.904 2.292.53.696 1.31 1.475 2.277 2.442l1.492 1.492c.967.967 1.746 1.747 2.442 2.277.722.551 1.44.904 2.292.904.851 0 1.57-.353 2.292-.904.696-.53 1.475-1.31 2.442-2.277l1.492-1.492c.967-.967 1.747-1.746 2.277-2.442.551-.722.904-1.44.904-2.292 0-.851-.353-1.57-.904-2.292-.53-.696-1.31-1.475-2.277-2.442l-1.492-1.492c-.967-.967-1.746-1.746-2.442-2.277C11.57.947 10.852.593 10 .593c-.851 0-1.57.353-2.292.904-.696.53-1.475 1.31-2.442 2.277L3.774 5.266c-.967.967-1.747 1.746-2.277 2.442C.946 8.43.593 9.148.593 10Zm4.877-.53a.75.75 0 0 0 0 1.06l3 3a.75.75 0 0 0 1.06-1.06l-1.72-1.72h5.39a.75.75 0 0 0 0-1.5H7.81l1.72-1.72a.75.75 0 0 0-1.06-1.06l-3 3Z" clip-rule="evenodd"/></svg>