<svg xmlns="http://www.w3.org/2000/svg" width="20" height="20" fill="none" viewBox="0 0 20 20"><path fill="#212121" fill-rule="evenodd" d="M10 20c5.523 0 10-4.477 10-10S15.523 0 10 0 0 4.477 0 10s4.477 10 10 10Zm1-15.75a4.752 4.752 0 0 0-4.584 3.5H5a.75.75 0 0 0 0 1.5h1.25v1.5H5a.75.75 0 0 0 0 1.5h1.416a4.752 4.752 0 0 0 8.146 1.892.75.75 0 1 0-1.124-.992 3.25 3.25 0 0 1-5.439-.9H10a.75.75 0 0 0 0-1.5H7.75v-1.5H10a.75.75 0 0 0 0-1.5H8a3.251 3.251 0 0 1 5.438-.9.75.75 0 1 0 1.124-.992A4.74 4.74 0 0 0 11 4.25Z" clip-rule="evenodd"/></svg>