<svg xmlns="http://www.w3.org/2000/svg" width="20" height="20" fill="none" viewBox="0 0 20 20"><path fill="#212121" fill-rule="evenodd" d="M10 0h.4v5A2.6 2.6 0 0 0 13 7.6h5V12c0 3.771 0 5.657-1.172 6.828C15.657 20 13.771 20 10 20c-3.771 0-5.657 0-6.828-1.172C2 17.657 2 15.771 2 12V8c0-3.771 0-5.657 1.172-6.828C4.343 0 6.229 0 10 0ZM6.75 10.5a.75.75 0 0 0 0 1.5h6.5a.75.75 0 0 0 0-1.5h-6.5Zm0 4a.75.75 0 0 0 0 1.5h3.5a.75.75 0 0 0 0-1.5h-3.5Z" clip-rule="evenodd"/><path fill="#212121" d="M12 5V.724a.3.3 0 0 1 .512-.212l4.976 4.976a.3.3 0 0 1-.212.512H13a1 1 0 0 1-1-1Z"/></svg>