<svg xmlns="http://www.w3.org/2000/svg" width="20" height="20" fill="none" viewBox="0 0 20 20"><path fill="#212121" fill-rule="evenodd" d="M3.172 1.172C4.343 0 6.229 0 10 0c0 3.771 0 5.657 1.172 6.828C12.343 8 14.229 8 18 8v4c0 3.771 0 5.657-1.172 6.828C15.657 20 13.771 20 10 20c-3.771 0-5.657 0-6.828-1.172C2 17.657 2 15.771 2 12V8c0-3.771 0-5.657 1.172-6.828ZM10.75 9.8a.75.75 0 0 0-1.5 0v4.39l-1.72-1.72a.75.75 0 1 0-1.06 1.06l3 3a.75.75 0 0 0 1.06 0l3-3a.75.75 0 0 0-1.06-1.06l-1.72 1.72V9.8Z" clip-rule="evenodd"/><path fill="#212121" d="M11.6.83c0-.39.401-.648.755-.487a10.678 10.678 0 0 1 5.302 5.302.534.534 0 0 1-.486.755H14.2a2.6 2.6 0 0 1-2.6-2.6V.83Z"/></svg>