<svg xmlns="http://www.w3.org/2000/svg" width="20" height="20" fill="none" viewBox="0 0 20 20"><path fill="#212121" fill-rule="evenodd" d="M.477 4.105C0 4.992 0 6.166 0 8.514V10c0 3.771 0 5.657 1.172 6.828C2.343 18 4.229 18 8 18h5.5c2.335 0 3.502 0 4.386-.472a4 4 0 0 0 1.642-1.642C20 15.002 20 13.835 20 11.5v-1.289c0-1.126 0-1.689-.113-2.153a4 4 0 0 0-2.945-2.945C16.478 5 15.915 5 14.79 5h-.986A3.368 3.368 0 0 1 11 3.5 3.368 3.368 0 0 0 8.197 2H6.514c-2.348 0-3.522 0-4.41.477A4 4 0 0 0 .478 4.105ZM10.75 7.8a.75.75 0 0 0-1.5 0v4.39l-1.72-1.72a.75.75 0 0 0-1.06 1.06l3 3a.75.75 0 0 0 1.06 0l3-3a.75.75 0 1 0-1.06-1.06l-1.72 1.72V7.8Z" clip-rule="evenodd"/></svg>