<svg xmlns="http://www.w3.org/2000/svg" width="20" height="20" fill="none" viewBox="0 0 20 20"><path fill="#212121" fill-rule="evenodd" d="M.477 4.105C0 4.992 0 6.166 0 8.514V10c0 3.771 0 5.657 1.172 6.828C2.343 18 4.229 18 8 18h4a5 5 0 0 0 7.98-4.45c.02-.566.02-1.237.02-2.05v-1.289c0-1.126 0-1.689-.113-2.153a4 4 0 0 0-2.945-2.945C16.478 5 15.915 5 14.79 5h-.986A3.368 3.368 0 0 1 11 3.5 3.368 3.368 0 0 0 8.197 2H6.514c-2.348 0-3.522 0-4.41.477A4 4 0 0 0 .478 4.105Zm17.557 11.641a3.5 3.5 0 0 0-4.78-4.78l4.78 4.78Zm-1.01 1.11a3.5 3.5 0 0 1-4.88-4.88l4.88 4.88Z" clip-rule="evenodd"/></svg>