<svg xmlns="http://www.w3.org/2000/svg" width="20" height="20" fill="none" viewBox="0 0 20 20"><path stroke="#212121" stroke-linecap="round" stroke-width="1.5" d="M1.75 18h12.5"/><path fill="#212121" fill-rule="evenodd" d="M7.964 1.25h.072c.904 0 1.633 0 2.222.053.606.055 1.136.172 1.617.45a3.75 3.75 0 0 1 1.373 1.372c.277.481.394 1.011.449 1.617.053.589.053 1.318.053 2.222v.29c.143.004.274.009.395.017.318.021.617.068.907.188a2.75 2.75 0 0 1 1.489 1.489c.12.29.167.59.188.907.021.304.021.675.021 1.12V13.5a.75.75 0 0 0 1.5 0V7.828c0-.215 0-.335-.007-.426a.57.57 0 0 0-.01-.073l-.002-.01v-.002l-.006-.008a.584.584 0 0 0-.045-.058 6.395 6.395 0 0 0-.296-.306L16.47 5.53a.75.75 0 0 1 1.06-1.06l1.415 1.414.056.056c.231.23.48.478.616.805.135.326.134.678.133 1.003V13.5a2.25 2.25 0 0 1-4.5 0V11c0-.476 0-.796-.017-1.043-.017-.241-.046-.358-.078-.435a1.25 1.25 0 0 0-.677-.677c-.077-.032-.194-.061-.435-.078a6.614 6.614 0 0 0-.293-.012v9.995H2.25V6.964c0-.904 0-1.633.053-2.222.055-.606.172-1.136.45-1.617a3.75 3.75 0 0 1 1.372-1.373c.481-.277 1.011-.394 1.617-.449.589-.053 1.318-.053 2.222-.053ZM5.038 5.61C5 5.803 5 6.035 5 6.5s0 .697.038.89A2 2 0 0 0 6.61 8.962C6.803 9 7.035 9 7.5 9h1c.465 0 .697 0 .89-.038a2 2 0 0 0 1.572-1.572C11 7.197 11 6.965 11 6.5s0-.697-.038-.89A2 2 0 0 0 9.39 4.038C9.197 4 8.965 4 8.5 4h-1c-.465 0-.697 0-.89.038A2 2 0 0 0 5.038 5.61Z" clip-rule="evenodd"/></svg>