<svg xmlns="http://www.w3.org/2000/svg" width="20" height="20" fill="none" viewBox="0 0 20 20"><path fill="#212121" d="M12.058 1.235C11.055.633 10.554.332 10 .332c-.554 0-1.055.301-2.058.903L3.884 3.669C1.987 4.808 1.038 5.377.519 6.294 0 7.21 0 8.317 0 10.529v4.138c0 1.24 0 1.86.136 2.368a4 4 0 0 0 2.829 2.829C3.473 20 4.093 20 5.333 20c.62 0 .93 0 1.185-.068a2 2 0 0 0 1.414-1.415C8 18.263 8 17.953 8 17.333V16c0-.943 0-1.414.293-1.707C8.586 14 9.057 14 10 14c.943 0 1.414 0 1.707.293.293.293.293.764.293 1.707v1.333c0 .62 0 .93.068 1.184a2 2 0 0 0 1.414 1.415c.255.068.565.068 1.185.068 1.24 0 1.86 0 2.368-.136a4 4 0 0 0 2.829-2.829c.136-.509.136-1.129.136-2.368v-4.138c0-2.212 0-3.318-.52-4.235-.518-.917-1.467-1.486-3.364-2.625l-4.058-2.434Z"/></svg>