<svg xmlns="http://www.w3.org/2000/svg" width="20" height="20" fill="none" viewBox="0 0 20 20"><path fill="#212121" fill-rule="evenodd" d="M14.45.704a.75.75 0 0 1 1.06 0l3.536 3.536a.75.75 0 0 1-1.06 1.06l-1.238-1.237L14.98 5.83l3.359 3.358a.75.75 0 0 1-1.06 1.061l-.885-.884-6.01 6.01a2.75 2.75 0 0 1-1.76.799l-4.273.285-1.568 1.568a.75.75 0 1 1-1.061-1.06l1.568-1.569.285-4.272a2.75 2.75 0 0 1 .8-1.762l.706-.706 2.651 2.652a.75.75 0 0 0 1.06-1.061l-2.65-2.652 1.413-1.414 2.652 2.652a.75.75 0 0 0 1.06-1.06l-2.65-2.653 1.767-1.767-.884-.884a.75.75 0 1 1 1.06-1.06l3.36 3.358 1.767-1.768-1.237-1.237a.75.75 0 0 1 0-1.061Z" clip-rule="evenodd"/></svg>