<svg xmlns="http://www.w3.org/2000/svg" width="20" height="20" fill="none" viewBox="0 0 20 20"><path fill="#212121" d="M0 4.5c0-1.398 0-2.097.228-2.648A3 3 0 0 1 1.852.228C2.403 0 3.102 0 4.5 0c1.398 0 2.097 0 2.648.228a3 3 0 0 1 1.624 1.624C9 2.403 9 3.102 9 4.5c0 1.398 0 2.097-.228 2.648a3 3 0 0 1-1.624 1.624C6.597 9 5.898 9 4.5 9c-1.398 0-2.097 0-2.648-.228A3 3 0 0 1 .228 7.148C0 6.597 0 5.898 0 4.5Zm11.228-2.648C11 2.403 11 3.102 11 4.5c0 1.398 0 2.097.228 2.648a3 3 0 0 0 1.624 1.624C13.403 9 14.102 9 15.5 9c1.398 0 2.097 0 2.648-.228a3 3 0 0 0 1.624-1.624C20 6.597 20 5.898 20 4.5c0-1.398 0-2.097-.228-2.648A3 3 0 0 0 18.148.228C17.597 0 16.898 0 15.5 0c-1.398 0-2.097 0-2.648.228a3 3 0 0 0-1.624 1.624Zm-11 11C0 13.403 0 14.102 0 15.5c0 1.398 0 2.097.228 2.648a3 3 0 0 0 1.624 1.624C2.403 20 3.102 20 4.5 20c1.398 0 2.097 0 2.648-.228a3 3 0 0 0 1.624-1.624C9 17.597 9 16.898 9 15.5c0-1.398 0-2.097-.228-2.648a3 3 0 0 0-1.624-1.624C6.597 11 5.898 11 4.5 11c-1.398 0-2.097 0-2.648.228a3 3 0 0 0-1.624 1.624Z"/><path fill="#212121" fill-rule="evenodd" d="M15.5 11.05a.75.75 0 0 1 .75.75v2.95h2.95a.75.75 0 0 1 0 1.5h-2.95v2.95a.75.75 0 1 1-1.5 0v-2.95H11.8a.75.75 0 1 1 0-1.5h2.95V11.8a.75.75 0 0 1 .75-.75Z" clip-rule="evenodd"/></svg>