<svg xmlns="http://www.w3.org/2000/svg" width="20" height="20" fill="none" viewBox="0 0 20 20"><path fill="#212121" d="M0 4.5c0-1.398 0-2.097.228-2.648A3 3 0 0 1 1.852.228C2.403 0 3.102 0 4.5 0c1.398 0 2.097 0 2.648.228a3 3 0 0 1 1.624 1.624C9 2.403 9 3.102 9 4.5c0 1.398 0 2.097-.228 2.648a3 3 0 0 1-1.624 1.624C6.597 9 5.898 9 4.5 9c-1.398 0-2.097 0-2.648-.228A3 3 0 0 1 .228 7.148C0 6.597 0 5.898 0 4.5ZM11.228 1.852C11 2.403 11 3.102 11 4.5c0 1.398 0 2.097.228 2.648a3 3 0 0 0 1.624 1.624C13.403 9 14.102 9 15.5 9c1.398 0 2.097 0 2.648-.228a3 3 0 0 0 1.624-1.624C20 6.597 20 5.898 20 4.5c0-1.398 0-2.097-.228-2.648A3 3 0 0 0 18.148.228C17.597 0 16.898 0 15.5 0c-1.398 0-2.097 0-2.648.228a3 3 0 0 0-1.624 1.624ZM11.228 12.852C11 13.403 11 14.102 11 15.5c0 1.398 0 2.097.228 2.648a3 3 0 0 0 1.624 1.624c.551.228 1.25.228 2.648.228 1.398 0 2.097 0 2.648-.228a3 3 0 0 0 1.624-1.624C20 17.597 20 16.898 20 15.5c0-1.398 0-2.097-.228-2.648a3 3 0 0 0-1.624-1.624C17.597 11 16.898 11 15.5 11c-1.398 0-2.097 0-2.648.228a3 3 0 0 0-1.624 1.624ZM.228 12.852C0 13.403 0 14.102 0 15.5c0 1.398 0 2.097.228 2.648a3 3 0 0 0 1.624 1.624C2.403 20 3.102 20 4.5 20c1.398 0 2.097 0 2.648-.228a3 3 0 0 0 1.624-1.624C9 17.597 9 16.898 9 15.5c0-1.398 0-2.097-.228-2.648a3 3 0 0 0-1.624-1.624C6.597 11 5.898 11 4.5 11c-1.398 0-2.097 0-2.648.228a3 3 0 0 0-1.624 1.624Z"/></svg>