<svg xmlns="http://www.w3.org/2000/svg" width="20" height="20" fill="none" viewBox="0 0 20 20"><path fill="#212121" fill-rule="evenodd" d="M10 0c3.739 0 5.608 0 7 .804A6 6 0 0 1 19.196 3C20 4.392 20 6.262 20 10c0 3.739 0 5.608-.804 7A6.002 6.002 0 0 1 17 19.196C15.608 20 13.739 20 10 20c-3.738 0-5.608 0-7-.804A6 6 0 0 1 .804 17C0 15.608 0 13.739 0 10c0-3.738 0-5.608.804-7A6 6 0 0 1 3 .804C4.392 0 6.262 0 10 0Zm0 17a.75.75 0 0 1-.75-.75v-5.5h-5.5a.75.75 0 0 1 0-1.5h5.5v-5.5a.75.75 0 0 1 1.5 0v5.5h5.5a.75.75 0 0 1 0 1.5h-5.5v5.5A.75.75 0 0 1 10 17Z" clip-rule="evenodd"/></svg>