<svg xmlns="http://www.w3.org/2000/svg" width="20" height="20" fill="none" viewBox="0 0 20 20"><path fill="#212121" d="M17 7c0 1.917-.737 2.916-1.48 3.924-.462.625-.926 1.254-1.218 2.107C13.945 14.076 13.105 15 12 15h-.25a1 1 0 0 1-1-1v-3.124c0-.357.213-.672.432-.953a1.5 1.5 0 1 0-2.365 0c.22.281.433.596.433.953V14a1 1 0 0 1-1 1H8c-1.105 0-1.964-.914-2.274-1.975-.326-1.114-.894-1.975-1.427-2.784C3.622 9.214 3 8.271 3 7a7 7 0 0 1 14 0ZM7.25 19.25A.75.75 0 0 1 8 18.5h4a.75.75 0 0 1 0 1.5H8a.75.75 0 0 1-.75-.75ZM7.5 16a.75.75 0 0 0 0 1.5h5a.75.75 0 0 0 0-1.5h-5Z"/></svg>