<svg xmlns="http://www.w3.org/2000/svg" width="20" height="20" fill="none" viewBox="0 0 20 20"><path fill="#212121" fill-rule="evenodd" d="M10 .25h-.095c-.838 0-1.372 0-1.832.091a4.75 4.75 0 0 0-3.732 3.732c-.091.46-.091.994-.091 1.832v1.411a5 5 0 0 0-3.112 3.517C1 11.408 1 12.105 1 13.5c0 1.395 0 2.092.138 2.667a5 5 0 0 0 3.695 3.695C5.408 20 6.105 20 7.5 20h5c1.395 0 2.092 0 2.667-.138a5 5 0 0 0 3.695-3.695C19 15.592 19 14.894 19 13.5c0-1.395 0-2.092-.138-2.667a5 5 0 0 0-3.112-3.517V5.905c0-.838 0-1.372-.091-1.832A4.75 4.75 0 0 0 11.927.341C11.467.25 10.933.25 10.095.25H10Zm4.25 6.772V6c0-.965-.004-1.338-.062-1.634a3.25 3.25 0 0 0-2.554-2.554c-.296-.058-.669-.062-1.634-.062-.965 0-1.338.004-1.634.062a3.25 3.25 0 0 0-2.554 2.554c-.058.296-.062.669-.062 1.634v1.022C6.189 7 6.741 7 7.5 7h5c.759 0 1.311 0 1.75.022ZM10 12a1.5 1.5 0 0 0-1.5 1.5v1a1.5 1.5 0 0 0 3 0v-1A1.5 1.5 0 0 0 10 12Z" clip-rule="evenodd"/></svg>