<svg xmlns="http://www.w3.org/2000/svg" width="20" height="20" fill="none" viewBox="0 0 20 20"><path fill="#212121" fill-rule="evenodd" d="M10 20c-2.8 0-4.2 0-5.27-.545a5 5 0 0 1-2.185-2.185C2 16.2 2 14.8 2 12V8c0-2.8 0-4.2.545-5.27A5 5 0 0 1 4.73.545C5.8 0 7.2 0 10 0c2.8 0 4.2 0 5.27.545a5 5 0 0 1 2.185 2.185C18 3.8 18 5.2 18 8v4c0 2.8 0 4.2-.545 5.27a5 5 0 0 1-2.185 2.185C14.2 20 12.8 20 10 20Zm1.5-4.5a1.5 1.5 0 1 1-3 0 1.5 1.5 0 0 1 3 0ZM8.5 2a.5.5 0 0 0 0 1h3a.5.5 0 0 0 0-1h-3Z" clip-rule="evenodd"/></svg>