<svg xmlns="http://www.w3.org/2000/svg" width="20" height="21" fill="none" viewBox="0 0 20 21"><path fill="#212121" d="M3.103 15.603c.92.38 2.084.38 4.414.38h1.75v3.5h-4.5a.75.75 0 0 0 0 1.5h10.5a.75.75 0 0 0 0-1.5h-4.5v-3.5h1.75c2.33 0 3.494 0 4.413-.38a5 5 0 0 0 2.706-2.706c.211-.51.305-1.095.347-1.914h-4.966a5 5 0 0 1-5-5v-5h-2.5c-2.33 0-3.495 0-4.414.381A5 5 0 0 0 .397 4.07c-.38.919-.38 2.084-.38 4.413 0 2.33 0 3.495.38 4.414a5 5 0 0 0 2.706 2.706Z"/><path fill="#212121" d="M19.767 5.05a.75.75 0 0 1-.75.75h-6a.75.75 0 0 1 0-1.5h6a.75.75 0 0 1 .75.75Z"/></svg>