<svg xmlns="http://www.w3.org/2000/svg" width="20" height="20" fill="none" viewBox="0 0 20 20"><path fill="#212121" fill-rule="evenodd" d="M8.216 19.956C8.606 20 9.071 20 10 20s1.393 0 1.784-.044a7 7 0 0 0 6.172-6.172C18 13.394 18 12.929 18 12V8c0-.929 0-1.393-.044-1.784A7 7 0 0 0 11.784.044C11.394 0 10.929 0 10 0S8.607 0 8.216.044a7 7 0 0 0-6.172 6.172C2 6.606 2 7.071 2 8v4c0 .929 0 1.393.044 1.784a7 7 0 0 0 6.172 6.172ZM11 5.75c0-.414-.448-.75-1-.75s-1 .336-1 .75v3.5c0 .414.448.75 1 .75s1-.336 1-.75v-3.5Z" clip-rule="evenodd"/></svg>