<svg xmlns="http://www.w3.org/2000/svg" width="20" height="20" fill="none" viewBox="0 0 20 20"><path fill="#212121" fill-rule="evenodd" d="M0 3.75c0-.697 0-1.045.058-1.335A3 3 0 0 1 2.415.058C2.705 0 3.053 0 3.75 0h2.5c.697 0 1.045 0 1.335.058a3 3 0 0 1 2.357 2.357c.058.29.058.638.058 1.335V15a5 5 0 0 1-10 0V3.75ZM6.5 15a1.5 1.5 0 1 1-3 0 1.5 1.5 0 0 1 3 0Z" clip-rule="evenodd"/><path fill="#212121" d="M18.613 10.47c-.247.357-.584.694-.973 1.082l-8 8a6.55 6.55 0 0 1-.486.448h7.096c.697 0 1.046 0 1.335-.058a3 3 0 0 0 2.357-2.357c.058-.29.058-.638.058-1.335v-2.5c0-.697 0-1.046-.058-1.335a3 3 0 0 0-1.33-1.945ZM11.423 2.17c.078.428.078.904.077 1.454V15c0 .202-.01.401-.027.598l5.018-5.018c.492-.493.739-.74.903-.985a3 3 0 0 0 0-3.333c-.164-.246-.41-.492-.903-.985l-1.768-1.768c-.493-.493-.74-.74-.985-.903a3 3 0 0 0-2.315-.435Z"/></svg>