<svg xmlns="http://www.w3.org/2000/svg" width="20" height="20" fill="none" viewBox="0 0 20 20"><path fill="#212121" d="m16.755 3.28-.035-.035c-.315-.315-.577-.577-.807-.778a2.824 2.824 0 0 0-.775-.508 2.75 2.75 0 0 0-2.105 0c-.29.12-.535.3-.774.508-.23.201-.493.463-.807.778l-.194.194 5.303 5.304.194-.195c.315-.314.577-.577.778-.807.209-.24.387-.484.508-.774a2.75 2.75 0 0 0 0-2.105c-.12-.29-.3-.535-.508-.775-.201-.23-.463-.492-.778-.807ZM15.5 9.803 10.197 4.5 3.35 11.347l-.038.038c-.156.155-.324.322-.443.532-.118.21-.176.439-.229.652l-.013.052-.489 1.945c-.17.676-.317 1.264-.364 1.731-.048.49-.01 1.058.43 1.498.44.44 1.009.48 1.499.43.467-.046 1.055-.194 1.73-.363l1.946-.49.052-.012c.213-.053.443-.11.652-.23.21-.118.377-.286.532-.442l.038-.038L15.5 9.803Z"/></svg>