<svg xmlns="http://www.w3.org/2000/svg" width="20" height="20" fill="none" viewBox="0 0 20 20"><path fill="#212121" fill-rule="evenodd" d="M1.842 2.775c-1.059.77-1.2 2.155-.669 3.191l6.381 12.416c1.023 1.99 3.869 1.99 4.892 0l6.38-12.416c.533-1.036.39-2.422-.668-3.191C15.898 1.132 12.93.335 10 .335c-2.93 0-5.898.797-8.158 2.44ZM14 9.5a1.5 1.5 0 1 1-3 0 1.5 1.5 0 0 1 3 0ZM8 12a1.5 1.5 0 1 0 0-3 1.5 1.5 0 0 0 0 3Zm2.5 4a1.5 1.5 0 1 0 0-3 1.5 1.5 0 0 0 0 3ZM6.442 5.976a11.25 11.25 0 0 1 7.116 0l2.205.736a.75.75 0 0 0 .474-1.423l-2.205-.736a12.75 12.75 0 0 0-8.064 0l-2.205.736a.75.75 0 0 0 .474 1.423l2.205-.736Z" clip-rule="evenodd"/></svg>