<svg xmlns="http://www.w3.org/2000/svg" width="20" height="20" fill="none" viewBox="0 0 20 20"><path fill="#212121" fill-rule="evenodd" d="M10.11 13.93 6.07 9.89l.132-1.575 1.77-2.847 1.003-1.38 2.49-2.346A4.75 4.75 0 0 1 15.087.464l2.637.203a1.75 1.75 0 0 1 1.61 1.61l.203 2.636a4.753 4.753 0 0 1-1.278 3.621l-2.347 2.491-1.38 1.003-2.846 1.77-1.576.131Zm5.965-7.87a1.5 1.5 0 1 1-2.122-2.12 1.5 1.5 0 0 1 2.122 2.12Z" clip-rule="evenodd"/><path fill="#212121" d="M8.475 14.416a.998.998 0 0 1-.683 1.01l-3.88 1.294a.5.5 0 0 1-.632-.632l1.293-3.88a.998.998 0 0 1 1.01-.683l2.892 2.891ZM4.617 9.268l.12-1.438 1.99-3.2.516-.71c-.35-.01-.728-.005-1.122.024-1.743.124-3.967.727-5.215 2.807l-.442.737 4.153 1.78ZM16.08 12.757c.01.35.005.728-.024 1.122-.124 1.743-.727 3.967-2.807 5.215l-.737.442-1.78-4.154 1.438-.12 3.2-1.989.71-.516Z"/></svg>