<svg xmlns="http://www.w3.org/2000/svg" width="20" height="20" fill="none" viewBox="0 0 20 20"><path fill="#212121" fill-rule="evenodd" d="M0 11c0 3.771 0 5.657 1.172 6.828C2.343 19 4.229 19 8 19h4c3.771 0 5.657 0 6.828-1.172C20 16.657 20 14.771 20 11H0Zm20-2c0-3.771 0-5.657-1.172-6.828C17.657 1 15.771 1 12 1H8C4.229 1 2.343 1 1.172 2.172 0 3.343 0 5.229 0 9h20ZM4 15a1 1 0 0 1 1-1h1a1 1 0 1 1 0 2H5a1 1 0 0 1-1-1Zm5 0a1 1 0 0 1 1-1h5a1 1 0 1 1 0 2h-5a1 1 0 0 1-1-1ZM5 4a1 1 0 0 0 0 2h1a1 1 0 0 0 0-2H5Zm5 0a1 1 0 0 0 0 2h5a1 1 0 1 0 0-2h-5Z" clip-rule="evenodd"/></svg>