<svg xmlns="http://www.w3.org/2000/svg" width="20" height="20" fill="none" viewBox="0 0 20 20"><path fill="#212121" fill-rule="evenodd" d="M2.25 19.25a.75.75 0 0 0 1.5 0V9.905a3.001 3.001 0 0 0 0-5.81V.75a.75.75 0 0 0-1.5 0v3.345a3.001 3.001 0 0 0 0 5.81v9.345ZM3 5.5a1.5 1.5 0 1 1 0 3 1.5 1.5 0 0 1 0-3Zm13.25 13.75a.75.75 0 0 0 1.5 0V8.905a3.001 3.001 0 0 0 0-5.81V.75a.75.75 0 0 0-1.5 0v2.345a3.001 3.001 0 0 0 0 5.81V19.25ZM18.5 6a1.5 1.5 0 1 0-3 0 1.5 1.5 0 0 0 3 0ZM10 20a.75.75 0 0 1-.75-.75v-3.345a3.001 3.001 0 0 1 0-5.81V.75a.75.75 0 0 1 1.5 0v9.345a3.001 3.001 0 0 1 0 5.81v3.345A.75.75 0 0 1 10 20Zm0-8.5a1.5 1.5 0 1 1 0 3 1.5 1.5 0 0 1 0-3Z" clip-rule="evenodd"/></svg>