<svg xmlns="http://www.w3.org/2000/svg" width="20" height="20" fill="none" viewBox="0 0 20 20"><path fill="#212121" fill-rule="evenodd" d="M2.105 4.212C2 4.662 2 5.176 2 6.206V12c0 2.795 3.907 5.59 6.26 7.02.787.479 1.18.718 1.74.718s.953-.24 1.74-.718C14.093 17.59 18 14.795 18 12V6.206c0-1.03 0-1.545-.105-1.994a4 4 0 0 0-2.066-2.647c-.41-.21-.91-.336-1.91-.585-1.002-.25-1.503-.376-2.007-.458a12 12 0 0 0-3.824 0C7.584.604 7.083.73 6.08.98c-.999.25-1.498.374-1.909.585a4 4 0 0 0-2.066 2.647ZM7.56 5.5A.75.75 0 0 0 6.5 6.56L8.94 9 6.5 11.44a.75.75 0 1 0 1.06 1.06L10 10.06l2.44 2.44a.75.75 0 0 0 1.06-1.06L11.06 9l2.44-2.44a.75.75 0 1 0-1.06-1.06L10 7.94 7.56 5.5Z" clip-rule="evenodd"/></svg>