<svg xmlns="http://www.w3.org/2000/svg" width="20" height="20" fill="none" viewBox="0 0 20 20"><path fill="#212121" fill-rule="evenodd" d="M2 6.206c0-1.03 0-1.545.105-1.994a4 4 0 0 1 2.066-2.647c.41-.21.91-.336 1.91-.585C7.082.73 7.583.604 8.087.522a12 12 0 0 1 3.824 0c.504.082 1.005.207 2.008.458.999.25 1.498.374 1.909.585a4 4 0 0 1 2.066 2.647c.105.45.105.964.105 1.994V12c0 2.795-3.907 5.59-6.26 7.02-.787.479-1.18.718-1.74.718s-.953-.24-1.74-.718C5.907 17.59 2 14.795 2 12V6.206Zm6.253 5.236L7.03 10.22a.75.75 0 1 0-1.06 1.06l2 2a.75.75 0 0 0 1.226-.251c.957-2.392 2.138-3.793 3.048-4.59.456-.399.849-.65 1.117-.797a3.608 3.608 0 0 1 .371-.178l.01-.004a.75.75 0 0 0-.48-1.421h-.001l-.002.001-.006.002-.013.005a2.064 2.064 0 0 0-.17.067 5.068 5.068 0 0 0-.431.213 7.909 7.909 0 0 0-1.383.984c-.939.821-2.047 2.12-3.003 4.131Z" clip-rule="evenodd"/></svg>