<svg xmlns="http://www.w3.org/2000/svg" width="20" height="20" fill="none" viewBox="0 0 20 20"><path fill="#212121" fill-rule="evenodd" d="M10 .25A4.75 4.75 0 0 0 5.25 5v2.113a3.31 3.31 0 0 0-.82.24 4 4 0 0 0-1.566 1.26c-.513.689-.718 1.623-1.129 3.492-.609 2.771-.913 4.157-.529 5.237a4 4 0 0 0 1.649 2.05C3.828 20 5.246 20 8.084 20h3.832c2.838 0 4.256 0 5.229-.608a4 4 0 0 0 1.649-2.05c.384-1.08.08-2.466-.53-5.237-.41-1.869-.615-2.803-1.128-3.493a4 4 0 0 0-1.566-1.259 3.311 3.311 0 0 0-.82-.24V5A4.75 4.75 0 0 0 10 .25Zm3.25 6.757V5a3.25 3.25 0 0 0-6.5 0v2.007C7.137 7 7.577 7 8.084 7h3.832c.507 0 .947 0 1.334.007ZM6 11a1 1 0 1 0 0-2 1 1 0 0 0 0 2Zm9-1a1 1 0 1 1-2 0 1 1 0 0 1 2 0Z" clip-rule="evenodd"/></svg>