<svg xmlns="http://www.w3.org/2000/svg" width="20" height="20" fill="none" viewBox="0 0 20 20"><path fill="#212121" d="m8.399 7.747-.901 1.352-.34-.511a5.25 5.25 0 0 0-4.37-2.338H1a.75.75 0 0 1 0-1.5h1.789a6.75 6.75 0 0 1 5.61 2.997Z"/><path fill="#212121" d="M7.157 11.412A5.25 5.25 0 0 1 2.79 13.75H1a.75.75 0 0 0 0 1.5h1.789a6.75 6.75 0 0 0 5.616-3.006l2.438-3.656A5.25 5.25 0 0 1 15.21 6.25h1.978l-1.72 1.72a.75.75 0 0 0 1.061 1.06l3-3a.75.75 0 0 0 0-1.06l-3-3a.75.75 0 1 0-1.06 1.06l1.72 1.72H15.21a6.75 6.75 0 0 0-5.616 3.006l-2.438 3.656Z"/><path fill="#212121" d="m9.6 12.254.902-1.353.34.511a5.25 5.25 0 0 0 4.37 2.338h1.977l-1.72-1.72a.75.75 0 1 1 1.061-1.06l3 3a.75.75 0 0 1 0 1.06l-3 3a.75.75 0 1 1-1.06-1.06l1.72-1.72h-1.98a6.75 6.75 0 0 1-5.61-2.996Z"/></svg>