<svg xmlns="http://www.w3.org/2000/svg" width="20" height="20" fill="none" viewBox="0 0 20 20"><path fill="#212121" fill-rule="evenodd" d="M.804 3C0 4.392 0 6.262 0 10c0 3.739 0 5.608.804 7A6 6 0 0 0 3 19.196C4.392 20 6.262 20 10 20c3.739 0 5.608 0 7-.804A6.002 6.002 0 0 0 19.196 17C20 15.608 20 13.739 20 10c0-3.738 0-5.608-.804-7A6 6 0 0 0 17 .804C15.608 0 13.739 0 10 0 6.262 0 4.392 0 3 .804A6 6 0 0 0 .804 3ZM13.57 7.56a.75.75 0 0 0-1.06-1.06L10 9.01 7.49 6.5a.75.75 0 0 0-1.06 1.06l2.51 2.51-2.44 2.44a.75.75 0 1 0 1.06 1.06L10 11.132l2.44 2.44a.75.75 0 0 0 1.06-1.06l-2.44-2.44 2.51-2.51Z" clip-rule="evenodd"/></svg>