<svg xmlns="http://www.w3.org/2000/svg" width="20" height="20" fill="none" viewBox="0 0 20 20"><path fill="#212121" fill-rule="evenodd" d="M0 10c0-3.738 0-5.608.804-7A6 6 0 0 1 3 .804C4.392 0 6.262 0 10 0c3.739 0 5.608 0 7 .804A6 6 0 0 1 19.196 3C20 4.392 20 6.262 20 10c0 3.739 0 5.608-.804 7A6.002 6.002 0 0 1 17 19.196C15.608 20 13.739 20 10 20c-3.738 0-5.608 0-7-.804A6 6 0 0 1 .804 17C0 15.608 0 13.739 0 10Zm8.253 1.692L7.03 10.47a.75.75 0 0 0-1.06 1.06l2 2a.75.75 0 0 0 1.226-.251c.957-2.392 2.138-3.793 3.048-4.59.456-.399.849-.65 1.117-.797a3.608 3.608 0 0 1 .371-.178l.01-.004a.75.75 0 0 0-.48-1.421h-.001l-.002.001-.006.002-.013.005a2.064 2.064 0 0 0-.17.067 5.068 5.068 0 0 0-.431.213 7.909 7.909 0 0 0-1.383.984c-.939.821-2.047 2.12-3.003 4.131Z" clip-rule="evenodd"/></svg>