<svg xmlns="http://www.w3.org/2000/svg" width="20" height="20" fill="none" viewBox="0 0 20 20"><path fill="#212121" fill-rule="evenodd" d="M3 19.196C4.392 20 6.262 20 10 20c3.739 0 5.608 0 7-.804A6.002 6.002 0 0 0 19.196 17C20 15.608 20 13.739 20 10c0-3.738 0-5.608-.804-7A6 6 0 0 0 17 .804C15.608 0 13.739 0 10 0 6.262 0 4.392 0 3 .804A6 6 0 0 0 .804 3C0 4.392 0 6.262 0 10c0 3.739 0 5.608.804 7A6 6 0 0 0 3 19.196ZM9.721 5.25c-.204 0-.343 0-.466.008a3.75 3.75 0 0 0-3.497 3.497 7.52 7.52 0 0 0-.008.466V13a.75.75 0 0 0 1.5 0V9.25c0-.244 0-.33.005-.397a2.25 2.25 0 0 1 2.098-2.098c.067-.005.153-.005.397-.005.244 0 .33 0 .397.005a2.25 2.25 0 0 1 2.098 2.098c.005.067.005.153.005.397v2.94l-.72-.72a.75.75 0 1 0-1.06 1.06l2 2a.75.75 0 0 0 1.06 0l2-2a.75.75 0 1 0-1.06-1.06l-.72.72V9.22c0-.204 0-.343-.008-.466a3.75 3.75 0 0 0-3.497-3.497 7.52 7.52 0 0 0-.466-.008h-.058Z" clip-rule="evenodd"/></svg>