<svg xmlns="http://www.w3.org/2000/svg" width="20" height="20" fill="none" viewBox="0 0 20 20"><path fill="#212121" fill-rule="evenodd" d="M17 19.196C15.608 20 13.739 20 10 20c-3.738 0-5.608 0-7-.804A6 6 0 0 1 .804 17C0 15.608 0 13.739 0 10c0-3.738 0-5.608.804-7A6 6 0 0 1 3 .804C4.392 0 6.262 0 10 0c3.739 0 5.608 0 7 .804A6 6 0 0 1 19.196 3C20 4.392 20 6.262 20 10c0 3.739 0 5.608-.804 7A6.002 6.002 0 0 1 17 19.196ZM6.97 4.47a.75.75 0 0 1 1.06 1.06l-.72.72c1.25 0 2.27.007 3.082.117.9.12 1.658.38 2.26.981.602.602.86 1.36.982 2.26.116.867.116 1.97.116 3.337V14a.75.75 0 0 1-1.5 0v-1c0-1.435-.002-2.437-.103-3.192-.099-.734-.28-1.122-.556-1.399-.277-.277-.665-.457-1.4-.556-.699-.094-1.61-.102-2.88-.103l.72.72A.75.75 0 0 1 6.97 9.53l-2-2a.75.75 0 0 1 0-1.06l2-2Z" clip-rule="evenodd"/></svg>