<svg xmlns="http://www.w3.org/2000/svg" width="20" height="20" fill="none" viewBox="0 0 20 20"><path fill="#212121" fill-rule="evenodd" d="M18.5 11.5A8.5 8.5 0 1 1 3.716 5.776L2.47 4.53a.75.75 0 0 1 1.06-1.06l1.29 1.29A8.463 8.463 0 0 1 10 3c1.95 0 3.745.656 5.18 1.76l1.29-1.29a.75.75 0 1 1 1.06 1.06l-1.246 1.246A8.47 8.47 0 0 1 18.5 11.5ZM10 6.25a.75.75 0 0 1 .75.75v4.69l2.78 2.78a.75.75 0 1 1-1.06 1.06l-3.22-3.22V7a.75.75 0 0 1 .75-.75Z" clip-rule="evenodd"/><path fill="#212121" d="M8 0a.75.75 0 0 0 0 1.5h4A.75.75 0 0 0 12 0H8Z"/></svg>