<svg xmlns="http://www.w3.org/2000/svg" width="20" height="20" fill="none" viewBox="0 0 20 20"><path fill="#212121" fill-rule="evenodd" d="M1.14 11.475c.237 1.19 1.23 2.183 3.217 4.169 1.986 1.986 2.979 2.98 4.169 3.216a4 4 0 0 0 1.56 0c1.19-.237 2.184-1.23 4.17-3.216l2.348-2.348c1.28-1.28 1.92-1.92 2.224-2.742.304-.821.234-1.724.096-3.529l-.162-2.105c-.126-1.631-.189-2.447-.712-2.97-.523-.523-1.339-.586-2.97-.711l-2.105-.162c-1.805-.139-2.708-.208-3.529.095-.821.304-1.461.944-2.742 2.224L4.357 5.744c-1.987 1.987-2.98 2.98-3.217 4.17a4 4 0 0 0 0 1.56Zm10.995-3.61a2 2 0 1 0 2.828-2.828 2 2 0 0 0-2.828 2.829Z" clip-rule="evenodd"/></svg>