<svg xmlns="http://www.w3.org/2000/svg" width="20" height="20" fill="none" viewBox="0 0 20 20"><path fill="#212121" fill-rule="evenodd" d="M14.051 16.75H5.782l-.47-.001L2.53 19.53a.75.75 0 0 1-1.06-1.06l1.864-1.865c-.48-.105-.915-.297-1.279-.66-.455-.456-.64-1.023-.725-1.65-.08-.595-.08-1.345-.08-2.243V8.966c0-1.371 0-2.447.07-3.311.073-.88.221-1.607.557-2.265A5.75 5.75 0 0 1 4.39.877C5.048.54 5.775.393 6.655.32 7.519.25 8.595.25 9.966.25h.068c1.371 0 2.447 0 3.311.07.88.073 1.607.221 2.265.557a5.75 5.75 0 0 1 2.513 2.513c.336.658.485 1.385.556 2.265.071.864.071 1.94.071 3.311v3.086c0 .899 0 1.648-.08 2.242-.084.628-.27 1.195-.726 1.65-.363.364-.798.556-1.278.661l1.864 1.865a.75.75 0 1 1-1.06 1.06l-2.782-2.781-.637.001Zm-3.301-7.5h6.5V9c0-1.413 0-2.427-.066-3.223-.037-.453-.428-.777-.882-.777H11.75a1 1 0 0 0-1 1v3.25Zm-1.5 0V6a1 1 0 0 0-1-1H3.698c-.454 0-.845.324-.882.777C2.75 6.573 2.75 7.587 2.75 9v.25h6.5ZM4 13c0-.552.336-1 .75-1h2.5c.414 0 .75.448.75 1s-.336 1-.75 1h-2.5c-.414 0-.75-.448-.75-1Zm8.75-1c-.414 0-.75.448-.75 1s.336 1 .75 1h2.5c.414 0 .75-.448.75-1s-.336-1-.75-1h-2.5Z" clip-rule="evenodd"/></svg>