<svg xmlns="http://www.w3.org/2000/svg" width="20" height="20" fill="none" viewBox="0 0 20 20"><path fill="#212121" d="M2 6.5h16l-1.241 8.38c-.362 2.442-.543 3.663-1.388 4.391-.844.729-2.079.729-4.548.729H9.177c-2.47 0-3.704 0-4.548-.729-.845-.728-1.026-1.95-1.388-4.392L2 6.5ZM2 4a1 1 0 0 1 1-1h.743c.515 0 .773 0 .984-.106a1 1 0 0 0 .259-.186c.167-.167.249-.412.411-.9l.147-.44c.22-.66.33-.99.592-1.18C6.398 0 6.746 0 7.442 0h5.117c.695 0 1.043 0 1.305.189s.372.519.592 1.179l.147.44c.162.488.244.733.411.9a1 1 0 0 0 .259.186c.211.106.469.106.984.106H17a1 1 0 1 1 0 2H3a1 1 0 0 1-1-1Z"/></svg>