<svg xmlns="http://www.w3.org/2000/svg" width="20" height="20" fill="none" viewBox="0 0 20 20"><path fill="#212121" fill-rule="evenodd" d="M2.343 8.895c-.16-1.067-.24-1.6.06-1.948.299-.347.839-.347 1.918-.347h11.358c1.08 0 1.619 0 1.918.347.3.347.22.88.06 1.948l-.894 5.99c-.364 2.44-.546 3.66-1.39 4.388-.844.727-2.077.727-4.544.727H9.171c-2.467 0-3.7 0-4.544-.727-.844-.728-1.026-1.948-1.39-4.387l-.894-5.99ZM9 10.75a.75.75 0 0 0-1.5 0v4.5a.75.75 0 0 0 1.5 0v-4.5Zm3.5 0a.75.75 0 0 0-1.5 0v4.5a.75.75 0 0 0 1.5 0v-4.5Z" clip-rule="evenodd"/><path fill="#212121" d="M2 4a1 1 0 0 1 1-1h.743c.515 0 .773 0 .984-.106a1 1 0 0 0 .259-.186c.167-.167.249-.412.411-.9l.147-.44c.22-.66.33-.99.592-1.18C6.398 0 6.746 0 7.442 0h5.117c.695 0 1.043 0 1.305.189s.372.519.592 1.179l.147.44c.162.488.244.733.411.9a1 1 0 0 0 .259.186c.211.106.469.106.984.106H17a1 1 0 1 1 0 2H3a1 1 0 0 1-1-1Z"/></svg>