<svg xmlns="http://www.w3.org/2000/svg" width="20" height="20" fill="none" viewBox="0 0 20 20"><path fill="#212121" d="m4.762 15 3.149 3.306A2.236 2.236 0 0 0 9.53 19c1.095 0 2.021-.795 2.132-1.884.158-1.56.338-4.017.338-7.116 0-3.099-.18-5.557-.338-7.116C11.55 1.794 10.625 1 9.53 1c-.612 0-1.197.25-1.62.694L4.763 5c-1.644 0-2.466 0-3.097.314a3 3 0 0 0-1.351 1.35C0 7.297 0 8.119 0 9.763v.476c0 1.644 0 2.466.314 3.097a3 3 0 0 0 1.35 1.351C2.297 15 3.119 15 4.763 15ZM17.146 2.52a.75.75 0 0 0-1.152.96C17.38 5.144 18.25 7.443 18.25 10c0 2.557-.87 4.856-2.256 6.52a.75.75 0 0 0 1.152.96c1.62-1.944 2.604-4.586 2.604-7.48s-.984-5.536-2.604-7.48Z"/><path fill="#212121" d="M15.464 5.592a.75.75 0 1 0-1.259.816A6.594 6.594 0 0 1 15.25 10a6.594 6.594 0 0 1-1.045 3.592.75.75 0 0 0 1.26.816A8.093 8.093 0 0 0 16.75 10a8.093 8.093 0 0 0-1.286-4.408Z"/></svg>