<svg xmlns="http://www.w3.org/2000/svg" width="20" height="20" fill="none" viewBox="0 0 20 20"><path fill="#E5E5E8" stroke="#212121" stroke-width="1.5" d="M1.75 5c0-.948 0-1.61.047-2.122.046-.503.13-.788.254-1.003a2.25 2.25 0 0 1 .824-.824c.215-.124.5-.208 1.003-.254C4.39.751 5.052.75 6 .75h7c1.435 0 2.437.002 3.192.103.734.099 1.122.28 1.399.556.277.277.457.665.556 1.4.101.754.103 1.756.103 3.191v8c0 1.435-.002 2.436-.103 3.192-.099.734-.28 1.122-.556 1.399-.277.277-.665.457-1.4.556-.754.101-1.756.103-3.191.103H6c-.948 0-1.61 0-2.122-.047-.503-.046-.788-.13-1.003-.254a2.25 2.25 0 0 1-.824-.824c-.124-.215-.208-.5-.254-1.003-.046-.512-.047-1.174-.047-2.122V5Z"/><path fill="#212121" fill-rule="evenodd" d="M5.25 20V0h1.5v20h-1.5ZM9.25 5a.75.75 0 0 1 .75-.75h4v1.5h-4A.75.75 0 0 1 9.25 5Zm5.5 0a.75.75 0 0 1-.75.75v-1.5a.75.75 0 0 1 .75.75Z" clip-rule="evenodd"/></svg>