<svg xmlns="http://www.w3.org/2000/svg" width="20" height="20" fill="none" viewBox="0 0 20 20"><path fill="#E5E5E8" d="M18.875 10.125a9 9 0 1 1-18 0 9 9 0 0 1 18 0Z"/><path fill="#212121" fill-rule="evenodd" d="M9.875 17.625a7.5 7.5 0 1 0 0-15 7.5 7.5 0 0 0 0 15Zm0 1.5a9 9 0 1 0 0-18 9 9 0 0 0 0 18Z" clip-rule="evenodd"/><path fill="#212121" fill-rule="evenodd" d="M9.375 4.875a.75.75 0 0 1 .75.75v4.25h4.25a.75.75 0 0 1 0 1.5h-5.75v-5.75a.75.75 0 0 1 .75-.75ZM3.405.655a.75.75 0 0 1 0 1.06l-1.939 1.94a.75.75 0 0 1-1.06-1.06L2.344.655a.75.75 0 0 1 1.06 0ZM19.345 3.655a.75.75 0 0 1-1.06 0l-1.94-1.94a.75.75 0 1 1 1.06-1.06l1.94 1.94a.75.75 0 0 1 0 1.06ZM1.345 18.595l3-3 1.06 1.06-3 3a.75.75 0 1 1-1.06-1.06ZM18.405 18.595l-3-3-1.06 1.06 3 3a.75.75 0 0 0 1.06-1.06Z" clip-rule="evenodd"/></svg>