<svg xmlns="http://www.w3.org/2000/svg" width="20" height="20" fill="none" viewBox="0 0 20 20"><path fill="#E5E5E8" fill-rule="evenodd" d="M2.16 7.648c-.075-1.006-.113-1.509.184-1.828.297-.32.801-.32 1.81-.32h11.692c1.009 0 1.513 0 1.81.32.297.319.26.822.185 1.828l-.324 4.371c-.23 3.098-.344 4.647-1.267 5.666a3.99 3.99 0 0 1-.506.47C14.66 19 13.107 19 10 19c-3.106 0-4.66 0-5.744-.845a3.994 3.994 0 0 1-.506-.47c-.923-1.019-1.038-2.568-1.267-5.666l-.324-4.371Z" clip-rule="evenodd"/><path fill="#212121" d="M2.483 12.02c.23 3.097.344 4.646 1.267 5.665.155.171.324.328.506.47C5.34 19 6.894 19 10 19c3.107 0 4.66 0 5.744-.845a4.02 4.02 0 0 0 .506-.47c.923-1.019 1.038-2.568 1.267-5.666L18 5.5h-1.5L16.385 7l-.364 4.908c-.117 1.585-.198 2.645-.35 3.442-.147.763-.329 1.103-.532 1.328a2.502 2.502 0 0 1-.317.294c-.24.187-.592.343-1.364.432-.806.094-1.87.096-3.458.096-1.589 0-2.652-.002-3.458-.096-.772-.089-1.124-.245-1.364-.432a2.497 2.497 0 0 1-.316-.294c-.204-.225-.386-.565-.532-1.328-.153-.797-.234-1.857-.351-3.442L3.615 7 3.5 5.5H2l.483 6.52Z"/><path fill="#212121" fill-rule="evenodd" d="M10 7.5a.75.75 0 0 1 .75.75v4.39l1.72-1.72a.75.75 0 1 1 1.06 1.06l-3 3a.75.75 0 0 1-1.06 0l-3-3a.75.75 0 1 1 1.06-1.06l1.72 1.72V8.25A.75.75 0 0 1 10 7.5Z" clip-rule="evenodd"/><rect width="18" height="3" x="1" y="1" fill="#212121" rx="1.5"/></svg>