<svg xmlns="http://www.w3.org/2000/svg" width="20" height="20" fill="none" viewBox="0 0 20 20"><path fill="#E5E5E8" stroke="#212121" stroke-width="1.5" d="M19.25 10c0 1.883 0 3.245-.097 4.312-.096 1.057-.281 1.75-.606 2.313a5.25 5.25 0 0 1-1.922 1.922c-.563.325-1.256.51-2.313.606-1.067.096-2.429.097-4.312.097-1.883 0-3.245 0-4.312-.097-1.057-.096-1.75-.281-2.313-.606a5.25 5.25 0 0 1-1.922-1.922c-.325-.563-.51-1.256-.606-2.313C.751 13.245.75 11.883.75 10c0-1.883 0-3.245.097-4.312.096-1.057.281-1.75.606-2.313L.803 3l.65.375a5.25 5.25 0 0 1 1.922-1.922L3 .803l.375.65c.563-.325 1.256-.51 2.313-.606C6.755.751 8.117.75 10 .75c1.883 0 3.245 0 4.312.097 1.057.096 1.75.281 2.313.606a5.25 5.25 0 0 1 1.922 1.922c.325.563.51 1.256.606 2.313.096 1.067.097 2.429.097 4.312Z"/><path fill="#212121" fill-rule="evenodd" d="M10.03 6.47a.75.75 0 0 1 0 1.06L8.31 9.25h5.39a.75.75 0 0 1 0 1.5H8.31l1.72 1.72a.75.75 0 1 1-1.06 1.06l-3-3a.75.75 0 0 1 0-1.06l3-3a.75.75 0 0 1 1.06 0Z" clip-rule="evenodd"/></svg>