<svg xmlns="http://www.w3.org/2000/svg" width="20" height="20" fill="none" viewBox="0 0 20 20"><path fill="#E5E5E8" stroke="#212121" stroke-width="1.5" d="m17.182 13.25-.155.546c-.102.36-.243.602-.436.795-.277.277-.665.457-1.4.556-.755.101-1.756.103-3.191.103H6c-1.435 0-2.437-.002-3.192-.103-.734-.099-1.122-.28-1.399-.556-.277-.277-.457-.665-.556-1.4C.752 12.437.75 11.436.75 10c0-1.435.002-2.437.103-3.192.099-.734.28-1.122.556-1.399.277-.277.665-.457 1.4-.556C3.562 4.752 4.564 4.75 6 4.75h6c1.435 0 2.437.002 3.192.103.734.099 1.122.28 1.399.556.193.193.334.435.436.795l.155.546H18c.69 0 1.25.56 1.25 1.25v4c0 .69-.56 1.25-1.25 1.25h-.818Z"/><path fill="#212121" fill-rule="evenodd" d="M4.75 7a.75.75 0 0 1 .75.75v4.5a.75.75 0 0 1-1.5 0v-4.5A.75.75 0 0 1 4.75 7ZM7.75 7a.75.75 0 0 1 .75.75v4.5a.75.75 0 0 1-1.5 0v-4.5A.75.75 0 0 1 7.75 7ZM10.75 7a.75.75 0 0 1 .75.75v4.5a.75.75 0 0 1-1.5 0v-4.5a.75.75 0 0 1 .75-.75ZM13.75 7a.75.75 0 0 1 .75.75v4.5a.75.75 0 0 1-1.5 0v-4.5a.75.75 0 0 1 .75-.75Z" clip-rule="evenodd"/></svg>