<svg xmlns="http://www.w3.org/2000/svg" width="20" height="20" fill="none" viewBox="0 0 20 20"><path fill="#E5E5E8" fill-rule="evenodd" d="M15.75 5.25H.25v6.792c0 1.369 0 2.454.088 3.32.09.888.28 1.629.713 2.277.346.519.791.964 1.31 1.31.648.434 1.39.623 2.277.713.866.088 1.951.088 3.32.088h2.137c.838 0 1.372 0 1.832-.091a4.75 4.75 0 0 0 3.732-3.732c.091-.46.091-.994.091-1.832V5.25Z" clip-rule="evenodd"/><path fill="#212121" fill-rule="evenodd" d="M6 9a.75.75 0 0 1 .75.75v4.5a.75.75 0 0 1-1.5 0v-4.5A.75.75 0 0 1 6 9Zm4 0a.75.75 0 0 1 .75.75v4.5a.75.75 0 0 1-1.5 0v-4.5A.75.75 0 0 1 10 9Z" clip-rule="evenodd"/><path fill="#212121" fill-rule="evenodd" d="M2.955.25h10.09c.433 0 .83 0 1.152.043.356.048.731.16 1.04.47.31.309.422.684.47 1.04.043.323.043.72.043 1.152v.297c.596.004 1.111.02 1.544.078.628.084 1.195.27 1.65.725.456.456.642 1.023.726 1.65.08.595.08 1.345.08 2.243v2.104c0 .899 0 1.648-.08 2.242-.084.628-.27 1.195-.726 1.65-.455.456-1.022.642-1.65.726-.434.058-.95.074-1.546.079-.005.485-.024.85-.09 1.178a4.75 4.75 0 0 1-3.731 3.732c-.46.091-.994.091-1.832.091H7.958c-1.369 0-2.454 0-3.32-.088-.888-.09-1.629-.28-2.277-.712a4.751 4.751 0 0 1-1.31-1.311c-.434-.648-.623-1.39-.713-2.277-.088-.866-.088-1.951-.088-3.32V2.955c0-.433 0-.83.043-1.152.048-.356.16-.731.47-1.04.309-.31.684-.422 1.04-.47C2.126.25 2.523.25 2.955.25ZM15.75 13.248c.57-.004 1-.018 1.345-.064.461-.063.659-.17.789-.3.13-.13.237-.328.3-.79.064-.482.066-1.13.066-2.094V8c0-.964-.002-1.612-.067-2.095-.062-.461-.169-.659-.3-.789-.13-.13-.327-.237-.788-.3-.346-.046-.776-.06-1.345-.064v8.496ZM1.823 1.823l.003-.001a.706.706 0 0 1 .177-.042c.21-.028.504-.03.997-.03h10c.493 0 .787.002.997.03a.704.704 0 0 1 .177.042l.003.001.001.003a.703.703 0 0 1 .042.177c.028.21.03.504.03.997v2.25H1.75V3c0-.493.002-.787.03-.997a.706.706 0 0 1 .042-.177l.001-.003ZM1.75 6.75V12c0 1.42 0 2.429.08 3.21.079.77.227 1.235.468 1.596.237.354.542.66.896.896.361.241.827.39 1.596.468.781.08 1.79.08 3.21.08h2c.965 0 1.338-.004 1.634-.062a3.25 3.25 0 0 0 2.554-2.554c.058-.296.062-.669.062-1.634V6.75H1.75Z" clip-rule="evenodd"/></svg>