<svg xmlns="http://www.w3.org/2000/svg" width="20" height="20" fill="none" viewBox="0 0 20 20"><path fill="#E5E5E8" stroke="#212121" stroke-width="1.5" d="m16.267 7.677.745-.082-.745.082.007.066c.018.17.038.362.099.539.061.177.163.34.254.486l.035.055c.054.088.165.234.293.4l.604.773.002.003A3.25 3.25 0 0 1 15 15.25H4.999a3.25 3.25 0 0 1-2.56-5.251l.001-.003c.263-.336.463-.591.604-.774.128-.165.239-.31.293-.399L2.7 8.43l.638.394.035-.055c.09-.146.193-.31.254-.486.061-.177.081-.369.1-.54l.006-.065c.017-.151.017-.352.017-.622V7a6.25 6.25 0 1 1 12.5 0v.055c0 .27 0 .47.017.622Z"/><path fill="#212121" d="M12 17.5H8c-.468 0-.702 0-.85.227-.148.227-.072.398.079.74C7.539 19.17 8.272 20 10 20s2.46-.83 2.771-1.533c.151-.342.227-.513.079-.74-.148-.227-.382-.227-.85-.227Z"/></svg>