<svg xmlns="http://www.w3.org/2000/svg" width="20" height="20" fill="none" viewBox="0 0 20 20"><path fill="#E5E5E8" stroke="#212121" stroke-width="1.5" d="M3.75 7a6.25 6.25 0 0 1 9.007-5.61 4.25 4.25 0 0 0 3.95 7.503c.061.086.15.202.248.33l.604.773.002.003A3.25 3.25 0 0 1 15 15.25H4.999a3.25 3.25 0 0 1-2.56-5.251l.001-.003c.263-.336.463-.591.604-.774.128-.165.239-.31.293-.399L2.7 8.43l.638.394.035-.055c.09-.146.193-.31.254-.486.061-.177.081-.369.1-.54l.006-.065c.017-.151.017-.352.017-.622V7Z"/><path fill="#212121" d="M12 17.5H8c-.468 0-.702 0-.85.227-.148.227-.072.398.079.74C7.539 19.17 8.272 20 10 20s2.46-.83 2.771-1.533c.151-.342.227-.513.079-.74-.148-.227-.382-.227-.85-.227Z"/><path fill="#212121" fill-rule="evenodd" d="M20 5a5 5 0 1 1-10 0 5 5 0 0 1 10 0Zm-2.977 2.856a3.5 3.5 0 0 1-4.88-4.88l4.88 4.88Zm1.011-1.11-4.78-4.78a3.5 3.5 0 0 1 4.78 4.78Z" clip-rule="evenodd"/></svg>