<svg xmlns="http://www.w3.org/2000/svg" width="20" height="20" fill="none" viewBox="0 0 20 20"><path fill="#212121" fill-rule="evenodd" d="M9.973 2.25h.054c.91 0 1.63 0 2.213.04.596.04 1.104.125 1.578.322a4.75 4.75 0 0 1 2.57 2.57c.197.474.281.982.322 1.578.04.584.04 1.304.04 2.213V9h-1.5c0-.942 0-1.611-.036-2.138-.036-.52-.103-.845-.211-1.106a3.25 3.25 0 0 0-1.76-1.759c-.26-.108-.586-.175-1.105-.21C11.61 3.75 10.942 3.75 10 3.75s-1.611 0-2.138.036c-.52.036-.845.103-1.106.211a3.25 3.25 0 0 0-1.759 1.76c-.108.26-.175.586-.21 1.105C4.75 7.39 4.75 8.058 4.75 9h-1.5v-.027c0-.91 0-1.63.04-2.213.04-.596.125-1.104.322-1.578a4.75 4.75 0 0 1 2.57-2.57c.474-.197.982-.282 1.578-.322.584-.04 1.304-.04 2.213-.04Z" clip-rule="evenodd"/><path fill="#212121" fill-rule="evenodd" d="M12.75 0a.75.75 0 0 1 .75.75v1.5a.75.75 0 0 1-1.5 0V.75a.75.75 0 0 1 .75-.75Z" clip-rule="evenodd"/><path fill="#E5E5E8" stroke="#212121" stroke-linecap="round" stroke-width="1.5" d="M3.47 13.625h0l-.002-.005c-.34-.876-.595-1.538-.723-2.073-.13-.549-.13-.966.047-1.35.152-.332.408-.58.796-.807l1.443-.627c.249-.091.515-.185.802-.287h0l2.929-1.037h0c.596-.212.916-.317 1.238-.317.322 0 .642.105 1.238.316h0l2.929 1.038h0c.287.102.553.196.802.287l1.443.626c.388.228.644.476.797.808.176.384.177.802.046 1.35-.128.536-.384 1.2-.724 2.078h0l-.777 2.005-.01.026-.01.028-.374 1.243L13 18.5l-2.584-1.723L10 16.5l-.416.277L7 18.5l-2.36-1.573-.375-1.243-.008-.028-.01-.027-.777-2.004Z"/><path fill="#212121" d="M9 14a1 1 0 1 1-2 0 1 1 0 0 1 2 0Z"/><path fill="#212121" fill-rule="evenodd" d="M8 15a1 1 0 1 0 0-2 1 1 0 0 0 0 2Zm-4 .599 3 2 3-2 3 2 3-2 3.416 2.277a.75.75 0 1 1-.832 1.248L16 17.401l-3 2-3-2-3 2-3-2-2.584 1.723a.75.75 0 0 1-.832-1.248L4 15.599Z" clip-rule="evenodd"/></svg>