<svg xmlns="http://www.w3.org/2000/svg" width="20" height="20" fill="none" viewBox="0 0 20 20"><path fill="#E5E5E8" stroke="#212121" stroke-width="1.5" d="M3.75 7c0-1.42 0-2.429.08-3.21.079-.77.227-1.235.468-1.596a3.25 3.25 0 0 1 .896-.896c.361-.241.827-.39 1.596-.468C7.57.75 8.58.75 10 .75s2.429 0 3.21.08c.77.079 1.235.227 1.596.468.355.237.66.542.896.896.241.361.39.827.468 1.596.08.781.08 1.79.08 3.21v9.114c0 .876-.002 1.447-.06 1.84a1.1 1.1 0 0 1-.08.317 1.1 1.1 0 0 1-.304-.12c-.353-.18-.82-.51-1.532-1.02l-2.676-1.911-.028-.02a8.072 8.072 0 0 0-.715-.476 1.73 1.73 0 0 0-.855-.245c-.334 0-.612.11-.855.245a8.061 8.061 0 0 0-.715.476l-.028.02-2.675 1.91c-.714.51-1.18.84-1.533 1.022a1.1 1.1 0 0 1-.304.119c-.02-.04-.053-.13-.08-.317-.058-.393-.06-.964-.06-1.84V7Zm12.341 11.298s.003-.005.01-.01c-.006.008-.01.01-.01.01Zm.039-.025c.008-.003.013-.002.013-.002 0 .001-.003.002-.013.002ZM3.857 18.27l.013.002c-.01 0-.014-.001-.013-.002Zm.043.017c.006.005.009.01.009.01s-.004-.002-.01-.01Z"/><path fill="#212121" fill-rule="evenodd" d="M10.05 5a.75.75 0 0 1 .75.75V7.3h1.45a.75.75 0 0 1 0 1.5H10.8v1.45a.75.75 0 1 1-1.5 0V8.8H7.75a.75.75 0 0 1 0-1.5H9.3V5.75a.75.75 0 0 1 .75-.75Z" clip-rule="evenodd"/></svg>