<svg xmlns="http://www.w3.org/2000/svg" width="20" height="20" fill="none" viewBox="0 0 20 20"><path fill="#E5E5E8" stroke="#212121" stroke-width="1.5" d="M8.25 3.5a2.75 2.75 0 1 1-5.5 0 2.75 2.75 0 0 1 5.5 0Zm0 13a2.75 2.75 0 1 1-5.5 0 2.75 2.75 0 0 1 5.5 0Zm9-13a2.75 2.75 0 1 1-5.5 0 2.75 2.75 0 0 1 5.5 0Z"/><path fill="#212121" fill-rule="evenodd" d="M5.5 5.75a.75.75 0 0 1 .75.75V10a3.733 3.733 0 0 1 2.25-.75h3A2.25 2.25 0 0 0 13.75 7v-.5a.75.75 0 0 1 1.5 0V7a3.75 3.75 0 0 1-3.75 3.75h-3A2.25 2.25 0 0 0 6.25 13v.5h-1.5v-7a.75.75 0 0 1 .75-.75Z" clip-rule="evenodd"/></svg>