<svg xmlns="http://www.w3.org/2000/svg" width="20" height="20" fill="none" viewBox="0 0 20 20"><path fill="#212121" fill-rule="evenodd" d="M18.536 1.464c.973.974 1.3 2.343 1.409 4.536H.055c.11-2.193.436-3.562 1.41-4.536C2.929 0 5.286 0 10 0s7.071 0 8.536 1.464ZM12.75 2.5a.75.75 0 0 0 0 1.5h2.5a.75.75 0 0 0 0-1.5h-2.5Z" clip-rule="evenodd"/><path fill="#E5E5E8" stroke="#212121" stroke-width="1.5" d="m.75 10 .001-1.25H19.25L19.25 10c0 2.378-.002 4.086-.176 5.386-.172 1.279-.5 2.05-1.069 2.62-.57.569-1.34.896-2.619 1.068-1.3.174-3.008.176-5.386.176s-4.086-.002-5.386-.176c-1.279-.172-2.05-.5-2.62-1.069-.569-.57-.896-1.34-1.068-2.619C.752 14.086.75 12.378.75 10Z"/><path fill="#212121" fill-rule="evenodd" d="M4 11.75a.75.75 0 0 1 .75-.75h1.5a.75.75 0 0 1 0 1.5h-1.5a.75.75 0 0 1-.75-.75Zm4.5 0a.75.75 0 0 1 .75-.75h1.5a.75.75 0 0 1 0 1.5h-1.5a.75.75 0 0 1-.75-.75Zm4.5 0a.75.75 0 0 1 .75-.75h1.5a.75.75 0 0 1 0 1.5h-1.5a.75.75 0 0 1-.75-.75Zm-9 4a.75.75 0 0 1 .75-.75h1.5a.75.75 0 0 1 0 1.5h-1.5a.75.75 0 0 1-.75-.75Zm4.5 0a.75.75 0 0 1 .75-.75h1.5a.75.75 0 0 1 0 1.5h-1.5a.75.75 0 0 1-.75-.75Zm4.5 0a.75.75 0 0 1 .75-.75h1.5a.75.75 0 0 1 0 1.5h-1.5a.75.75 0 0 1-.75-.75Z" clip-rule="evenodd"/></svg>