<svg xmlns="http://www.w3.org/2000/svg" width="20" height="20" fill="none" viewBox="0 0 20 20"><path fill="#E5E5E8" stroke="#212121" stroke-width="1.5" d="M11 2.75c1.408 0 2.427 0 3.232.055.798.055 1.332.16 1.777.345a5.25 5.25 0 0 1 2.841 2.84c.185.446.29.98.345 1.778.055.805.055 1.824.055 3.232 0 1.408 0 2.427-.055 3.232-.055.798-.16 1.332-.345 1.777a5.25 5.25 0 0 1-2.84 2.841c-.446.185-.98.29-1.778.345-.805.055-1.824.055-3.232.055H9c-1.408 0-2.427 0-3.232-.055-.798-.055-1.332-.16-1.777-.345a5.25 5.25 0 0 1-2.841-2.84c-.185-.446-.29-.98-.345-1.778C.75 13.427.75 12.408.75 11c0-1.408 0-2.427.055-3.232.055-.798.16-1.332.345-1.777A5.25 5.25 0 0 1 3.99 3.15c.446-.185.98-.29 1.778-.345C6.573 2.75 7.592 2.75 9 2.75h2Z"/><path fill="#212121" fill-rule="evenodd" d="M6 11a.75.75 0 0 1 .75-.75h6.5a.75.75 0 0 1 0 1.5h-6.5A.75.75 0 0 1 6 11Z" clip-rule="evenodd"/><path fill="#212121" fill-rule="evenodd" d="M10 15a.75.75 0 0 1-.75-.75v-6.5a.75.75 0 0 1 1.5 0v6.5A.75.75 0 0 1 10 15ZM6.75 0a.75.75 0 0 1 .75.75v1.5a.75.75 0 0 1-1.5 0V.75A.75.75 0 0 1 6.75 0ZM12.75 0a.75.75 0 0 1 .75.75v1.5a.75.75 0 0 1-1.5 0V.75a.75.75 0 0 1 .75-.75Z" clip-rule="evenodd"/></svg>