<svg xmlns="http://www.w3.org/2000/svg" width="20" height="20" fill="none" viewBox="0 0 20 20"><path fill="#E5E5E8" stroke="#212121" stroke-width="1.5" d="M8.727 19.25c-1.279 0-2.204 0-2.937-.046-.728-.045-1.216-.133-1.625-.285a5.25 5.25 0 0 1-3.084-3.084c-.152-.41-.24-.897-.285-1.625C.75 13.477.75 12.552.75 11.273c0-1.063 0-2.089.039-2.954.04-.897.119-1.508.229-1.804l-.703-.262.703.262a4.25 4.25 0 0 1 2.497-2.497c.234-.088.506-.15.867-.191.768-.089 1.28-.695 1.424-1.328A2.25 2.25 0 0 1 7.5.806C7.726.755 8.02.75 8.857.75h2.286c.838 0 1.131.005 1.358.056.842.193 1.5.85 1.693 1.693.144.633.656 1.24 1.424 1.328.36.041.633.103.867.191a4.25 4.25 0 0 1 2.497 2.497c.11.296.19.907.23 1.804.038.865.038 1.89.038 2.954 0 1.279 0 2.204-.046 2.937-.045.728-.133 1.216-.285 1.625a5.25 5.25 0 0 1-3.084 3.084c-.41.152-.897.24-1.625.285-.733.046-1.658.046-2.937.046H8.727ZM10 14.75a3.75 3.75 0 1 0 0-7.5 3.75 3.75 0 0 0 0 7.5Z"/></svg>