<svg xmlns="http://www.w3.org/2000/svg" width="20" height="20" fill="none" viewBox="0 0 20 20"><path fill="#212121" fill-rule="evenodd" d="M3 15.25a.75.75 0 0 1 .75.75v3a.75.75 0 0 1-1.5 0v-3a.75.75 0 0 1 .75-.75Zm14 0a.75.75 0 0 1 .75.75v3a.75.75 0 0 1-1.5 0v-3a.75.75 0 0 1 .75-.75Z" clip-rule="evenodd"/><path fill="#E5E5E8" fill-rule="evenodd" d="M9.961.25h.078c1.208 0 2.168 0 2.944.075.797.077 1.469.239 2.077.605a4.76 4.76 0 0 1 1.164.985c.46.54.73 1.176.938 1.95.201.753.36 1.7.558 2.892l.165.993H2.115l.165-.993c.199-1.192.357-2.14.558-2.892.207-.774.477-1.41.938-1.95A4.75 4.75 0 0 1 4.94.93C5.548.564 6.22.402 7.017.325 7.793.25 8.753.25 9.961.25Zm-2.8 1.568c-.68.066-1.105.19-1.448.397-.3.18-.569.408-.796.674-.26.305-.453.703-.63 1.364-.14.52-.259 1.162-.4 1.997h12.227c-.142-.835-.262-1.476-.401-1.997-.177-.661-.37-1.06-.63-1.364a3.25 3.25 0 0 0-.796-.674c-.343-.206-.767-.33-1.449-.397-.695-.067-1.583-.068-2.838-.068-1.255 0-2.143 0-2.838.068Z" clip-rule="evenodd"/><path fill="#E5E5E8" stroke="#212121" stroke-width="1.5" d="M1.75 13c0-.942 0-1.611.036-2.138.036-.52.103-.845.211-1.106a3.25 3.25 0 0 1 1.76-1.759c.26-.108.586-.175 1.105-.21C5.39 7.75 6.058 7.75 7 7.75h6c.942 0 1.611 0 2.138.036.52.036.845.103 1.106.211a3.25 3.25 0 0 1 1.759 1.76c.108.26.175.586.21 1.105.037.527.037 1.196.037 2.138 0 .476 0 .796-.017 1.043-.017.241-.046.358-.078.435a1.25 1.25 0 0 1-.677.677c-.077.032-.194.061-.435.078-.247.017-.567.017-1.043.017H4c-.476 0-.796 0-1.043-.017-.241-.017-.358-.046-.435-.078a1.25 1.25 0 0 1-.677-.677c-.032-.077-.061-.194-.078-.435A17.091 17.091 0 0 1 1.75 13Z"/><path fill="#212121" d="M7 11.5a1.5 1.5 0 1 1-3 0 1.5 1.5 0 0 1 3 0Zm9 0a1.5 1.5 0 1 1-3 0 1.5 1.5 0 0 1 3 0Z"/></svg>