<svg xmlns="http://www.w3.org/2000/svg" width="20" height="20" fill="none" viewBox="0 0 20 20"><path fill="#E5E5E8" stroke="#212121" stroke-width="1.5" d="M.75 10c0-1.42 0-2.429.08-3.21.079-.77.227-1.235.468-1.596a3.25 3.25 0 0 1 .896-.896c.361-.241.827-.39 1.596-.468.781-.08 1.79-.08 3.21-.08h6c1.42 0 2.429 0 3.21.08.77.079 1.235.227 1.596.468.354.237.66.542.896.896.241.361.39.827.468 1.596.08.781.08 1.79.08 3.21s0 2.429-.08 3.21c-.079.77-.227 1.235-.468 1.596-.237.355-.542.66-.896.896-.361.241-.827.39-1.596.468-.781.08-1.79.08-3.21.08H7c-1.42 0-2.429 0-3.21-.08-.77-.079-1.235-.227-1.596-.468a3.25 3.25 0 0 1-.896-.896c-.241-.361-.39-.827-.468-1.596C.75 12.43.75 11.42.75 10Z"/><path fill="#212121" fill-rule="evenodd" d="M10 8.75a1.25 1.25 0 1 0 0 2.5 1.25 1.25 0 0 0 0-2.5ZM7.25 10a2.75 2.75 0 1 1 5.5 0 2.75 2.75 0 0 1-5.5 0ZM14 13a.75.75 0 0 1 .75-.75h1.5a.75.75 0 0 1 0 1.5h-1.5A.75.75 0 0 1 14 13ZM3 7a.75.75 0 0 1 .75-.75h1.5a.75.75 0 0 1 0 1.5h-1.5A.75.75 0 0 1 3 7Z" clip-rule="evenodd"/></svg>