<svg xmlns="http://www.w3.org/2000/svg" width="20" height="20" fill="none" viewBox="0 0 20 20"><path fill="#E5E5E8" d="M0 8c0-2.809 0-4.213.674-5.222a4 4 0 0 1 1.104-1.104C2.787 1 4.19 1 7 1h6c2.809 0 4.213 0 5.222.674.437.292.812.667 1.104 1.104C20 3.787 20 5.19 20 8v1c0 1.864 0 2.796-.305 3.53a4 4 0 0 1-2.164 2.165C16.796 15 15.864 15 14 15c-.66 0-.99 0-1.307.052a3.996 3.996 0 0 0-1.216.405c-.286.15-.55.347-1.077.743l-3.2 2.4c-1.396 1.047-2.094 1.57-2.647 1.294C4 19.618 4 18.745 4 17v-1.2a.8.8 0 0 0-.8-.8"/><path fill="#212121" fill-rule="evenodd" d="M13 2.5H7c-1.436 0-2.4.002-3.134.077-.71.072-1.038.2-1.255.344a2.5 2.5 0 0 0-.69.69c-.145.217-.272.545-.344 1.255C1.502 5.6 1.5 6.564 1.5 8v3.8a1.7 1.7 0 0 0 1.7 1.7 2.3 2.3 0 0 1 2.3 2.3V17c0 .399 0 .723.006.989.215-.156.475-.35.794-.589L9.5 15c.026-.02.052-.04.078-.058.452-.34.808-.607 1.203-.814a5.503 5.503 0 0 1 1.671-.557c.44-.071.886-.071 1.45-.071H14c.952 0 1.592 0 2.087-.035.481-.032.715-.091.87-.155a2.5 2.5 0 0 0 1.353-1.353c.064-.155.123-.389.155-.87.034-.495.035-1.135.035-2.087V8c0-1.436-.002-2.4-.077-3.134-.072-.71-.2-1.038-.344-1.255a2.5 2.5 0 0 0-.69-.69c-.217-.145-.545-.272-1.255-.344C15.4 2.502 14.436 2.5 13 2.5ZM.674 2.778C0 3.787 0 5.19 0 8v3.8A3.2 3.2 0 0 0 3.2 15a.8.8 0 0 1 .8.8V17c0 1.745 0 2.618.553 2.894.553.277 1.25-.247 2.647-1.294l3.2-2.4c.527-.396.791-.593 1.077-.743.38-.2.791-.337 1.216-.405C13.01 15 13.34 15 14 15c1.864 0 2.796 0 3.53-.305a4 4 0 0 0 2.165-2.164C20 11.796 20 10.864 20 9V8c0-2.809 0-4.213-.674-5.222a4.002 4.002 0 0 0-1.104-1.104C17.213 1 15.81 1 13 1H7c-2.809 0-4.213 0-5.222.674A4 4 0 0 0 .674 2.778Z" clip-rule="evenodd"/><path fill="#212121" d="M7 8a1.5 1.5 0 1 1-3 0 1.5 1.5 0 0 1 3 0ZM11.5 8a1.5 1.5 0 1 1-3 0 1.5 1.5 0 0 1 3 0ZM14.5 9.5a1.5 1.5 0 1 0 0-3 1.5 1.5 0 0 0 0 3Z"/></svg>