<svg xmlns="http://www.w3.org/2000/svg" width="20" height="20" fill="none" viewBox="0 0 20 20"><path fill="#E5E5E8" d="M20 10c0 5.523-4.477 10-10 10S0 15.523 0 10 4.477 0 10 0s10 4.477 10 10Z"/><path fill="#212121" fill-rule="evenodd" d="M10 18.5a8.5 8.5 0 1 0 0-17 8.5 8.5 0 0 0 0 17Zm0 1.5c5.523 0 10-4.477 10-10S15.523 0 10 0 0 4.477 0 10s4.477 10 10 10Z" clip-rule="evenodd"/><path fill="#212121" d="M12.752 9.168a1 1 0 0 1 0 1.664l-3.197 2.132A1 1 0 0 1 8 12.132V7.869a1 1 0 0 1 1.555-.832l3.197 2.131Z"/></svg>