<svg xmlns="http://www.w3.org/2000/svg" width="20" height="20" fill="none" viewBox="0 0 20 20"><path fill="#E5E5E8" stroke="#212121" stroke-width="1.5" d="M19.25 10a9.25 9.25 0 1 1-18.5 0 9.25 9.25 0 0 1 18.5 0Z"/><path fill="#212121" d="m7.03 10.47 1.223 1.222c.956-2.01 2.064-3.31 3.003-4.131a7.908 7.908 0 0 1 1.383-.984 5.068 5.068 0 0 1 .56-.265l.04-.015.014-.005.006-.002h.002l.002-.001a.75.75 0 0 1 .48 1.421l-.01.004a3.608 3.608 0 0 0-.371.178 6.41 6.41 0 0 0-1.118.798c-.91.796-2.091 2.197-3.048 4.589a.75.75 0 0 1-1.226.252l-2-2a.75.75 0 1 1 1.06-1.061Z"/></svg>