<svg xmlns="http://www.w3.org/2000/svg" width="20" height="20" fill="none" viewBox="0 0 20 20"><path fill="#E5E5E8" d="M4.502 1.385c-.535.173-.967.423-1.33.787C2 3.343 2 5.229 2 9v3c0 3.771 0 5.657 1.172 6.828C4.343 20 6.229 20 10 20c3.771 0 5.657 0 6.828-1.172C18 17.657 18 15.771 18 12V9c0-3.771 0-5.657-1.172-6.828-.363-.364-.795-.614-1.33-.787l.002.115a3 3 0 0 1-3 3h-5a3 3 0 0 1-2.998-3.115Z"/><path fill="#212121" fill-rule="evenodd" d="M3.068 2.28a3.045 3.045 0 0 1 1.12-.78c.101-.042.205-.08.314-.115a2.987 2.987 0 0 0 .323 1.476A3 3 0 0 0 7.5 4.5h5a3 3 0 0 0 2.998-3.115c.109.035.213.073.313.115a3.078 3.078 0 0 1 1.122.78C18 3.46 18 5.345 18 9v3c0 3.771 0 5.657-1.172 6.828C15.657 20 13.771 20 10 20c-3.771 0-5.657 0-6.828-1.172C2 17.657 2 15.771 2 12V9c0-3.656 0-5.54 1.068-6.72Zm13.145 1.764c.06.206.112.456.154.767.13.966.133 2.261.133 4.189v3c0 1.928-.003 3.223-.133 4.19-.124.922-.339 1.317-.6 1.578-.26.26-.655.475-1.578.599-.966.13-2.261.133-4.189.133s-3.223-.003-4.19-.133c-.922-.124-1.317-.339-1.578-.6l-1.058 1.059 1.058-1.058c-.26-.26-.475-.656-.599-1.579-.13-.966-.133-2.261-.133-4.189V9c0-1.928.003-3.223.133-4.19.042-.31.094-.56.154-.766A4.495 4.495 0 0 0 7.5 6h5a4.495 4.495 0 0 0 3.713-1.956Z" clip-rule="evenodd"/><path fill="#212121" d="M6 1.5A1.5 1.5 0 0 1 7.5 0h5a1.5 1.5 0 0 1 0 3h-5A1.5 1.5 0 0 1 6 1.5Z"/></svg>