<svg xmlns="http://www.w3.org/2000/svg" width="20" height="20" fill="none" viewBox="0 0 20 20"><path fill="#E5E5E8" stroke="#212121" stroke-width="1.5" d="m3.479 10.791.896-.144-.31-.852a5.25 5.25 0 1 1 9.898-3.512l.155.447.47.053A5.25 5.25 0 0 1 14 17.25H4a3.25 3.25 0 0 1-.521-6.459Z"/><path fill="#212121" fill-rule="evenodd" d="M10 6.55a.75.75 0 0 1 .75.75v5.39l1.72-1.72a.75.75 0 1 1 1.06 1.06l-3 3a.75.75 0 0 1-1.06 0l-3-3a.75.75 0 1 1 1.06-1.06l1.72 1.72V7.3a.75.75 0 0 1 .75-.75Z" clip-rule="evenodd"/></svg>