<svg xmlns="http://www.w3.org/2000/svg" width="20" height="20" fill="none" viewBox="0 0 20 20"><path fill="#E5E5E8" stroke="#212121" stroke-width="1.5" d="m18.595 8.886.355-.64-.355.64a1.274 1.274 0 0 1 0 2.228l-.598.331a2.774 2.774 0 0 0-1.32 3.188l.715-.204-.715.204.188.657a1.274 1.274 0 0 1-1.575 1.575l-.657-.188a2.774 2.774 0 0 0-3.188 1.32l-.331.598a1.274 1.274 0 0 1-2.228 0l-.331-.598a2.774 2.774 0 0 0-3.188-1.32l-.657.188a1.274 1.274 0 0 1-1.575-1.575l.188-.657a2.774 2.774 0 0 0-1.32-3.188l-.598-.331a1.274 1.274 0 0 1 0-2.228l.597-.331a2.774 2.774 0 0 0 1.32-3.188l-.187-.657A1.274 1.274 0 0 1 4.71 3.135l.657.188a2.774 2.774 0 0 0 3.188-1.32l.331-.598a1.274 1.274 0 0 1 2.228 0l.331.597.637-.353-.637.353a2.774 2.774 0 0 0 3.188 1.32l.657-.187a1.274 1.274 0 0 1 1.575 1.575l-.188.657a2.774 2.774 0 0 0 1.32 3.188l.598.331ZM7.25 10a2.75 2.75 0 1 0 5.5 0 2.75 2.75 0 0 0-5.5 0Z"/></svg>