<svg xmlns="http://www.w3.org/2000/svg" width="20" height="20" fill="none" viewBox="0 0 20 20"><path fill="#E5E5E8" d="M2 15V6.173c.387.42.928.828 1.632 1.199C5.223 8.209 7.473 8.75 10 8.75s4.777-.54 6.368-1.378c.704-.37 1.245-.778 1.632-1.2v3.06a6.5 6.5 0 0 0-8.482 9.261C5.324 18.386 2 16.864 2 15Z"/><path fill="#212121" fill-rule="evenodd" d="M17.25 7.445V9h1.5V5c0-.731-.342-1.369-.84-1.884-.494-.51-1.172-.937-1.953-1.278C14.394 1.154 12.287.75 10 .75c-2.288 0-4.394.404-5.957 1.088-.78.341-1.46.767-1.954 1.278C1.592 3.631 1.25 4.27 1.25 5v10c0 1.293 1.039 2.269 2.265 2.91 1.274.666 3.003 1.117 4.923 1.276.172.014.346.026.521.036l.082-1.498c-.161-.009-.321-.02-.479-.033-1.782-.148-3.303-.562-4.353-1.11C3.111 16.005 2.75 15.415 2.75 15v-2.556c.24.17.498.326.765.465 1.274.667 3.003 1.118 4.923 1.277l.124-1.495c-1.782-.148-3.303-.562-4.353-1.11C3.111 11.005 2.75 10.415 2.75 10V7.445c.38.27.818.51 1.293.717C5.606 8.846 7.713 9.25 10 9.25c2.288 0 4.394-.404 5.957-1.088a7.272 7.272 0 0 0 1.293-.717ZM3.168 4.159c-.312.323-.418.606-.418.841s.106.518.418.841c.316.327.808.655 1.476.947 1.332.583 3.225.962 5.356.962 2.13 0 4.024-.38 5.356-.962.667-.292 1.16-.62 1.476-.947.312-.323.418-.606.418-.841s-.106-.518-.418-.841c-.316-.327-.809-.655-1.476-.947C14.024 2.63 12.131 2.25 10 2.25c-2.13 0-4.024.38-5.356.962-.668.292-1.16.62-1.476.947Z" clip-rule="evenodd"/><path fill="#212121" d="M13.82 11.562a.5.5 0 0 1 .496-.562h1.368a.5.5 0 0 1 .496.562l-.375 3a.5.5 0 0 1-.496.438h-.618a.5.5 0 0 1-.496-.438l-.375-3ZM14.12 17.902a.5.5 0 0 0 .49.598h.78a.5.5 0 0 0 .49-.598l-.2-1a.5.5 0 0 0-.49-.402h-.38a.5.5 0 0 0-.49.402l-.2 1Z"/></svg>