<svg xmlns="http://www.w3.org/2000/svg" width="20" height="20" fill="none" viewBox="0 0 20 20"><path fill="#E5E5E8" stroke="#212121" stroke-width="1.5" d="M3.218 6.281c1.22-1.427 1.69-1.953 2.3-2.234.61-.28 1.314-.297 3.189-.297h4.31c1.417 0 2.423 0 3.202.08.767.079 1.23.227 1.59.467l.414-.618-.414.618c.354.237.658.542.894.897.24.36.389.826.467 1.596.08.781.08 1.79.08 3.21s0 2.429-.08 3.21c-.078.77-.226 1.235-.467 1.596-.236.355-.54.66-.894.897-.36.24-.823.388-1.59.467-.78.08-1.785.08-3.202.08h-4.31c-1.875 0-2.58-.016-3.189-.297-.61-.281-1.08-.807-2.3-2.234l-.258-.302c-.81-.946-1.37-1.604-1.736-2.16C.869 10.72.75 10.353.75 10c0-.353.119-.719.474-1.257.366-.556.927-1.214 1.736-2.16l.258-.302Z"/><path fill="#212121" fill-rule="evenodd" d="M10.47 7.47a.75.75 0 0 1 1.06 0L13 8.94l1.47-1.47a.75.75 0 1 1 1.06 1.06L14.06 10l1.47 1.47a.75.75 0 1 1-1.06 1.06L13 11.06l-1.47 1.47a.75.75 0 0 1-1.06-1.06L11.94 10l-1.47-1.47a.75.75 0 0 1 0-1.06Z" clip-rule="evenodd"/></svg>