<svg xmlns="http://www.w3.org/2000/svg" width="20" height="20" fill="none" viewBox="0 0 20 20"><path fill="#E5E5E8" stroke="#212121" stroke-width="1.5" d="M19.25 10a9.25 9.25 0 1 1-18.5 0 9.25 9.25 0 0 1 18.5 0Z"/><path fill="#212121" d="M6.416 7.75a4.752 4.752 0 0 1 8.146-1.892.75.75 0 1 1-1.124.992 3.251 3.251 0 0 0-5.439.9H10a.75.75 0 0 1 0 1.5H7.75v1.5H10a.75.75 0 0 1 0 1.5H8a3.25 3.25 0 0 0 5.438.9.75.75 0 0 1 1.124.992 4.752 4.752 0 0 1-8.146-1.892H5a.75.75 0 0 1 0-1.5h1.25v-1.5H5a.75.75 0 0 1 0-1.5h1.416Z"/></svg>