<svg xmlns="http://www.w3.org/2000/svg" width="20" height="20" fill="none" viewBox="0 0 20 20"><path fill="#D6D6D6" stroke="#212121" stroke-width="1.5" d="M8 9h4v5.528a2 2 0 0 1-.211.894l-.725 1.45a1.987 1.987 0 0 0-.109.263l-.48 1.442a.5.5 0 0 1-.95 0l-.48-1.442a2.002 2.002 0 0 0-.109-.262l-.725-1.45A2 2 0 0 1 8 14.527V9Z"/><path fill="#212121" stroke="#212121" stroke-width="1.5" d="M6 7a1 1 0 0 1 1-1 1 1 0 0 0 1-1V3a2 2 0 1 1 4 0v2a1 1 0 0 0 1 1 1 1 0 0 1 1 1v1a1 1 0 0 1-1 1H7a1 1 0 0 1-1-1V7Z"/></svg>