<svg xmlns="http://www.w3.org/2000/svg" width="20" height="20" fill="none" viewBox="0 0 20 20"><path fill="#E5E5E8" fill-rule="evenodd" d="M10 0C6.229 0 4.343 0 3.172 1.172 2 2.343 2 4.229 2 8v4c0 3.771 0 5.657 1.172 6.828C4.343 20 6.229 20 10 20c3.771 0 5.657 0 6.828-1.172C18 17.657 18 15.771 18 12V8c-3.771 0-5.657 0-6.828-1.172C10 5.657 10 3.771 10 0Z" clip-rule="evenodd"/><path fill="#212121" fill-rule="evenodd" d="M7 13.05a.75.75 0 0 1 .75-.75h4.5a.75.75 0 0 1 0 1.5h-4.5a.75.75 0 0 1-.75-.75Z" clip-rule="evenodd"/><path fill="#212121" d="M11.6.83c0-.39.401-.648.755-.487a10.678 10.678 0 0 1 5.302 5.302.534.534 0 0 1-.486.755H14.2a2.6 2.6 0 0 1-2.6-2.6V.83Z"/><path fill="#212121" fill-rule="evenodd" d="M10 0C6.229 0 4.343 0 3.172 1.172 2 2.343 2 4.229 2 8v4c0 3.771 0 5.657 1.172 6.828C4.343 20 6.229 20 10 20c3.771 0 5.657 0 6.828-1.172C18 17.657 18 15.771 18 12V8c-.576 0-1.108 0-1.6-.004V12c0 1.93-.003 3.218-.132 4.176-.123.912-.332 1.282-.57 1.521-.24.239-.61.448-1.522.57-.958.13-2.245.133-4.176.133-1.93 0-3.218-.003-4.176-.132-.912-.123-1.282-.332-1.521-.57-.239-.24-.448-.61-.57-1.522C3.602 15.218 3.6 13.93 3.6 12V8c0-1.93.003-3.218.132-4.176.123-.912.332-1.282.57-1.521.24-.239.61-.448 1.522-.57C6.782 1.602 8.07 1.6 10 1.6h.004C10 1.108 10 .576 10 0Z" clip-rule="evenodd"/></svg>