<svg xmlns="http://www.w3.org/2000/svg" width="20" height="20" fill="none" viewBox="0 0 20 20"><path fill="#E5E5E8" stroke="#212121" stroke-width="1.5" d="M.75 8.514c0-1.187 0-2.03.057-2.688.055-.65.16-1.05.33-1.366A3.25 3.25 0 0 1 2.46 3.138c.316-.17.717-.276 1.366-.331.658-.056 1.501-.057 2.688-.057h1.683a2.62 2.62 0 0 1 2.179 1.166 4.118 4.118 0 0 0 3.427 1.834h.986c1.17 0 1.621.005 1.977.091a3.25 3.25 0 0 1 2.393 2.393c.086.356.091.807.091 1.977V11.5c0 1.18 0 2.018-.056 2.673-.055.646-.16 1.044-.328 1.359a3.25 3.25 0 0 1-1.334 1.334c-.315.168-.713.273-1.359.328-.655.055-1.493.056-2.673.056H8c-1.907 0-3.261-.002-4.29-.14-1.005-.135-1.585-.389-2.008-.812-.423-.423-.677-1.003-.812-2.009C.752 13.262.75 11.907.75 10V8.514Z"/><path fill="#212121" fill-rule="evenodd" d="M10 7.05a.75.75 0 0 1 .75.75v4.39l1.72-1.72a.75.75 0 1 1 1.06 1.06l-3 3a.75.75 0 0 1-1.06 0l-3-3a.75.75 0 0 1 1.06-1.06l1.72 1.72V7.8a.75.75 0 0 1 .75-.75Z" clip-rule="evenodd"/></svg>