<svg xmlns="http://www.w3.org/2000/svg" width="20" height="20" fill="none" viewBox="0 0 20 20"><path fill="#E5E5E8" d="M0 8.514c0-2.348 0-3.522.477-4.41a4 4 0 0 1 1.628-1.627C2.992 2 4.166 2 6.514 2h1.683c1.127 0 2.178.563 2.803 1.5A3.368 3.368 0 0 0 13.803 5h.986c1.126 0 1.689 0 2.153.113a4 4 0 0 1 2.945 2.945C20 8.522 20 9.085 20 10.21v1.29c0 2.335 0 3.502-.472 4.386a4 4 0 0 1-1.642 1.642C17.002 18 15.835 18 13.5 18H8c-3.771 0-5.657 0-6.828-1.172C0 15.657 0 13.771 0 10V8.514Z"/><path fill="#212121" fill-rule="evenodd" d="M18.5 11.5v-1.289c0-1.213-.01-1.554-.07-1.8a2.5 2.5 0 0 0-1.841-1.84c-.246-.06-.587-.071-1.8-.071h-.986a4.869 4.869 0 0 1-4.051-2.168A1.868 1.868 0 0 0 8.197 3.5H6.514c-1.2 0-2.005.001-2.624.054-.6.052-.886.143-1.075.244a2.5 2.5 0 0 0-1.017 1.018c-.1.188-.192.473-.244 1.074-.053.619-.054 1.424-.054 2.624V10c0 1.928.003 3.223.133 4.19.124.922.339 1.317.6 1.578.26.26.655.475 1.578.599.966.13 2.261.133 4.189.133h5.5c1.193 0 1.994-.001 2.61-.054.597-.05.881-.141 1.069-.241a2.5 2.5 0 0 0 1.026-1.026c.1-.188.19-.472.241-1.07.053-.615.054-1.416.054-2.609ZM.477 4.105C0 4.992 0 6.166 0 8.514V10c0 3.771 0 5.657 1.172 6.828C2.343 18 4.229 18 8 18h5.5c2.335 0 3.502 0 4.386-.472a4 4 0 0 0 1.642-1.642C20 15.002 20 13.835 20 11.5v-1.289c0-1.126 0-1.689-.113-2.153a4 4 0 0 0-2.945-2.945C16.478 5 15.915 5 14.79 5h-.986A3.368 3.368 0 0 1 11 3.5 3.368 3.368 0 0 0 8.197 2H6.514c-2.348 0-3.522 0-4.41.477A4 4 0 0 0 .478 4.105Z" clip-rule="evenodd"/></svg>