<svg xmlns="http://www.w3.org/2000/svg" width="20" height="20" fill="none" viewBox="0 0 20 20"><path fill="#E5E5E8" stroke="#212121" stroke-width="1.5" d="M.75 8.514c0-1.187 0-2.03.057-2.688.055-.65.16-1.05.33-1.366A3.25 3.25 0 0 1 2.46 3.138c.316-.17.717-.276 1.366-.331.658-.056 1.501-.057 2.688-.057h1.683c.876 0 1.693.438 2.179 1.166a4.118 4.118 0 0 0 3.427 1.834h.986c1.17 0 1.621.005 1.977.091a3.25 3.25 0 0 1 2.393 2.393c.086.356.091.807.091 1.977V11.5c0 .848 0 1.52-.021 2.073a4.25 4.25 0 1 0-6.968 3.677H8c-1.907 0-3.261-.002-4.29-.14-1.005-.135-1.585-.389-2.008-.812-.423-.423-.677-1.003-.812-2.009C.752 13.262.75 11.907.75 10V8.514Z"/><path fill="#212121" fill-rule="evenodd" d="M20 14a5 5 0 1 1-10 0 5 5 0 0 1 10 0Zm-2.977 2.856a3.5 3.5 0 0 1-4.88-4.88l4.88 4.88Zm1.011-1.11-4.78-4.78a3.5 3.5 0 0 1 4.78 4.78Z" clip-rule="evenodd"/></svg>