<svg xmlns="http://www.w3.org/2000/svg" width="20" height="20" fill="none" viewBox="0 0 20 20"><path fill="#D6D6D6" stroke="#212121" stroke-width="1.5" d="M8.84 2h2.32c1.883 0 3.298.002 4.31.148 1.027.148 1.636.444 1.9 1.033.265.589.082 1.241-.49 2.107-.563.853-1.502 1.912-2.753 3.32L13.01 9.862l-.007.009c-.49.55-.742.834-.872 1.178-.131.343-.131.723-.131 1.46V13.752c.001.35-.008.55-.076.716-.069.165-.203.312-.451.559h-.001l-.057.057L9.67 16.83c-.345.346-.608.605-.819.764a1.04 1.04 0 0 1-.299.168.33.33 0 0 1-.243-.007.33.33 0 0 1-.177-.168 1.037 1.037 0 0 1-.093-.33c-.037-.261-.04-.63-.039-1.119V12.51c0-.736 0-1.116-.13-1.46-.131-.343-.384-.627-.873-1.177l-.007-.009-1.117-1.256C4.623 7.2 3.683 6.141 3.12 5.287c-.572-.865-.755-1.517-.49-2.106.264-.59.873-.885 1.9-1.033C5.542 2.002 6.957 2 8.84 2Z"/></svg>