<svg xmlns="http://www.w3.org/2000/svg" width="20" height="20" fill="none" viewBox="0 0 20 20"><path fill="#D6D6D6" d="M8.036 1.25h-.072c-.904 0-1.633 0-2.222.053-.606.055-1.136.172-1.617.45a3.75 3.75 0 0 0-1.373 1.372c-.277.481-.394 1.011-.449 1.617-.053.589-.053 1.318-.053 2.222V18.75h11.5V8.755c.11.002.206.006.293.012.241.017.358.046.435.078.307.127.55.37.677.677.032.077.061.194.078.435.017.247.017.567.017 1.043v2.5a2.25 2.25 0 0 0 4.5 0V7.748c.001-.325.002-.677-.133-1.003-.136-.327-.385-.575-.616-.805l-.056-.056L17.53 4.47a.75.75 0 1 0-1.06 1.06l1.414 1.415c.152.152.237.237.296.306a.584.584 0 0 1 .05.066l.001.002.003.01a.57.57 0 0 1 .009.073c.007.09.007.211.007.426V13.5a.75.75 0 0 1-1.5 0v-2.525c0-.445 0-.816-.02-1.12a2.822 2.822 0 0 0-.19-.907 2.75 2.75 0 0 0-1.488-1.489c-.29-.12-.59-.167-.907-.188a8.498 8.498 0 0 0-.395-.016v-.29c0-.905 0-1.634-.053-2.223-.055-.606-.172-1.136-.45-1.617a3.75 3.75 0 0 0-1.372-1.373c-.481-.277-1.011-.394-1.617-.449-.589-.053-1.318-.053-2.222-.053Z"/><path stroke="#212121" stroke-linecap="round" stroke-width="1.5" d="M13 8V7c0-1.87 0-2.804-.402-3.5A3 3 0 0 0 11.5 2.402C10.804 2 9.87 2 8 2v0c-1.87 0-2.804 0-3.5.402A3 3 0 0 0 3.402 3.5C3 4.196 3 5.13 3 7v11h10V8Zm0 0v0c.932 0 1.398 0 1.765.152a2 2 0 0 1 1.083 1.083C16 9.602 16 10.068 16 11v2.5a1.5 1.5 0 0 0 1.5 1.5v0a1.5 1.5 0 0 0 1.5-1.5V7.828c0-.408 0-.613-.076-.796-.076-.184-.22-.329-.51-.618L17 5M1.75 18h12.5"/><rect width="6" height="5" x="5" y="4" fill="#212121" rx="2"/></svg>