<svg xmlns="http://www.w3.org/2000/svg" width="20" height="20" fill="none" viewBox="0 0 20 20"><path fill="#D6D6D6" stroke="#212121" stroke-width="1.5" d="m3.187 14.271-.935.311A9 9 0 0 1 10.5 1.013v2.751a2 2 0 0 1-1.106 1.789l-1.207.604a2 2 0 0 0-.944 2.576l.274.64a2 2 0 0 1-.302 2.069l-1.35 1.62a2 2 0 0 1-.905.618l-1.773.591ZM9.985 19a8.986 8.986 0 0 1-7.175-3.586l.017.022A8.987 8.987 0 0 0 9.985 19Zm1.378-17.897-.042-.007a9.008 9.008 0 0 1 7.487 7.047l-.01-.051a9.008 9.008 0 0 0-7.435-6.99ZM18.064 9h.881a9 9 0 0 1-8.113 9.962l.168-.461V18.5l.415-.83a2 2 0 0 0-.252-2.175l-.707-.848a2 2 0 0 1-.128-2.39l1.578-2.366A2 2 0 0 1 13.57 9h4.494Zm-7.743 9.994h.014-.016.002Z"/><circle cx="10" cy="10" r="9" stroke="#212121" stroke-width="1.5"/></svg>