<svg xmlns="http://www.w3.org/2000/svg" width="20" height="20" fill="none" viewBox="0 0 20 20"><path fill="#212121" fill-rule="evenodd" d="M10.125 2.125c-4.642 0-8.25 3.327-8.25 7.25h-1.5c0-4.913 4.45-8.75 9.75-8.75s9.75 3.837 9.75 8.75h-1.5c0-3.923-3.608-7.25-8.25-7.25Z" clip-rule="evenodd"/><path fill="#E5E5E8" stroke="#212121" stroke-width="1.5" d="M1.125 10.125h.25c.948 0 1.61 0 2.122.047.503.046.788.13 1.003.254.342.198.626.482.824.824.124.215.208.5.254 1.003.046.512.047 1.174.047 2.122v2a2.25 2.25 0 0 1-4.5 0v-6.25Zm18 0v6.25a2.25 2.25 0 0 1-4.5 0v-2c0-.948 0-1.61.047-2.122.046-.502.13-.788.254-1.003a2.26 2.26 0 0 1 .824-.824c.215-.124.5-.208 1.003-.254.512-.046 1.174-.047 2.122-.047h.25Z"/></svg>