<svg xmlns="http://www.w3.org/2000/svg" width="20" height="20" fill="none" viewBox="0 0 20 20"><path fill="#E5E5E8" stroke="#212121" stroke-width="1.5" d="m4.255 4.321.015-.008 4.058-2.435c.514-.309.853-.51 1.13-.641.263-.124.414-.155.542-.155.128 0 .28.031.542.155.277.13.616.332 1.13.64l4.058 2.436c.961.576 1.636.982 2.139 1.354.49.363.77.661.96.996l.652-.37-.653.37c.19.336.302.728.36 1.335.061.624.062 1.41.062 2.531V12c0 1.908-.002 3.262-.14 4.29-.135 1.006-.389 1.586-.812 2.009-.423.423-1.003.677-2.009.812-1.028.138-2.382.14-4.289.14H8c-1.907 0-3.261-.002-4.29-.14-1.005-.135-1.585-.389-2.008-.812-.423-.423-.677-1.003-.812-2.009-.138-1.028-.14-2.382-.14-4.29v-1.47c0-1.12 0-1.907.061-2.53.06-.608.17-1 .36-1.336.19-.335.47-.633.96-.996.499-.369 1.166-.77 2.114-1.34l.01-.006Z"/><path fill="#212121" d="M7 15c0-.932 0-1.398.152-1.765a2 2 0 0 1 1.083-1.083C8.602 12 9.068 12 10 12c.932 0 1.398 0 1.765.152a2 2 0 0 1 1.083 1.083C13 13.602 13 14.068 13 15v5H7v-5Z"/></svg>