<svg xmlns="http://www.w3.org/2000/svg" width="20" height="20" fill="none" viewBox="0 0 20 20"><path fill="#E5E5E8" fill-rule="evenodd" d="M18.25 11.75h-3.132a1.06 1.06 0 0 0-.947.585 2.559 2.559 0 0 1-2.289 1.415H8.118a2.56 2.56 0 0 1-2.289-1.415 1.059 1.059 0 0 0-.947-.585H1.75v.75c0 1.435.002 2.437.103 3.192.099.734.28 1.122.556 1.399.277.277.665.457 1.4.556.754.101 1.756.103 3.191.103h6c1.435 0 2.437-.002 3.192-.103.734-.099 1.122-.28 1.399-.556.277-.277.457-.665.556-1.4.101-.755.103-1.756.103-3.191v-.75Z" clip-rule="evenodd"/><path fill="#212121" d="M5 7.5a.5.5 0 0 1 .5-.5h9a.5.5 0 0 1 0 1h-9a.5.5 0 0 1-.5-.5ZM6 5a.5.5 0 0 1 .5-.5h7a.5.5 0 0 1 0 1h-7A.5.5 0 0 1 6 5Z"/><path fill="#212121" fill-rule="evenodd" d="M12.235.75h-4.47c-1.113 0-2.016 0-2.741.088-.756.092-1.403.287-1.964.737-.56.45-.892 1.04-1.145 1.757-.244.689-.44 1.57-.68 2.657L.402 9.731a6.204 6.204 0 0 0-.13.69 6.423 6.423 0 0 0-.023.7v1.434c0 1.367 0 2.47.117 3.337.12.9.38 1.658.981 2.26.602.602 1.36.86 2.26.982.867.116 1.97.116 3.337.116h6.11c1.367 0 2.47 0 3.337-.116.9-.122 1.658-.38 2.26-.982.602-.602.86-1.36.982-2.26.116-.867.116-1.97.116-3.337V11.12c0-.293 0-.496-.022-.7-.023-.205-.067-.404-.13-.69l-.832-3.742c-.242-1.086-.438-1.968-.68-2.657-.254-.717-.585-1.307-1.146-1.757-.56-.45-1.209-.645-1.964-.737C14.251.75 13.348.75 12.235.75ZM3.999 2.745c.261-.21.602-.345 1.206-.418.624-.076 1.436-.077 2.608-.077h4.374c1.172 0 1.984.001 2.608.077.604.073.945.208 1.206.418.262.21.467.513.67 1.087.21.592.387 1.385.641 2.53l.813 3.658.05.23h-3.057a2.56 2.56 0 0 0-2.289 1.415 1.06 1.06 0 0 1-.947.585H8.118a1.06 1.06 0 0 1-.947-.585 2.559 2.559 0 0 0-2.289-1.415H1.824l.051-.23.813-3.659c.254-1.144.432-1.937.641-2.53.203-.573.408-.876.67-1.086Zm11.119 9.005h3.132v.75c0 1.435-.002 2.437-.103 3.192-.099.734-.28 1.122-.556 1.399-.277.277-.665.457-1.4.556-.754.101-1.756.103-3.191.103H7c-1.435 0-2.437-.002-3.192-.103-.734-.099-1.122-.28-1.399-.556-.277-.277-.457-.665-.556-1.4-.101-.755-.103-1.756-.103-3.191v-.75h3.132c.401 0 .768.227.947.585a2.559 2.559 0 0 0 2.289 1.415h3.764a2.56 2.56 0 0 0 2.289-1.415 1.06 1.06 0 0 1 .947-.585Z" clip-rule="evenodd"/></svg>