<svg xmlns="http://www.w3.org/2000/svg" width="20" height="20" fill="none" viewBox="0 0 20 20"><path fill="#E5E5E8" stroke="#212121" stroke-width="1.5" d="M10 .75c1.883 0 3.245 0 4.312.097 1.057.096 1.75.281 2.313.606a5.25 5.25 0 0 1 1.922 1.922c.325.563.51 1.256.606 2.313.096 1.067.097 2.429.097 4.312 0 1.883 0 3.245-.097 4.312-.096 1.057-.281 1.75-.606 2.313a5.25 5.25 0 0 1-1.922 1.922c-.563.325-1.256.51-2.313.606-1.067.096-2.429.097-4.312.097-1.883 0-3.245 0-4.312-.097-1.057-.096-1.75-.281-2.313-.606a5.25 5.25 0 0 1-1.922-1.922c-.325-.563-.51-1.256-.606-2.313C.751 13.245.75 11.883.75 10c0-1.883 0-3.245.097-4.312.096-1.057.281-1.75.606-2.313l-.641-.37.641.37a5.25 5.25 0 0 1 1.922-1.922c.563-.325 1.256-.51 2.313-.606C6.755.751 8.117.75 10 .75Z"/><path fill="#212121" fill-rule="evenodd" d="M9.25 10.75h-5.5a.75.75 0 0 1 0-1.5h5.5v-5.5a.75.75 0 0 1 1.5 0v5.5h5.5a.75.75 0 0 1 0 1.5h-5.5v5.5a.75.75 0 0 1-1.5 0v-5.5Z" clip-rule="evenodd"/></svg>