<svg xmlns="http://www.w3.org/2000/svg" width="20" height="20" fill="none" viewBox="0 0 20 20"><path fill="#E5E5E8" stroke="#212121" stroke-width="1.5" d="M11.75 4.55c0-.71 0-1.203.027-1.59.026-.38.074-.602.144-.771A2.25 2.25 0 0 1 13.14.971c.169-.07.39-.118.77-.144C14.297.8 14.792.8 15.5.8c.71 0 1.203 0 1.59.027.38.026.602.074.771.144.551.229.99.667 1.218 1.218.07.169.118.39.144.77.027.388.027.882.027 1.591 0 .71 0 1.204-.027 1.59-.026.38-.074.602-.144.771A2.25 2.25 0 0 1 17.86 8.13c-.169.07-.39.118-.77.144-.388.027-.882.027-1.591.027-.71 0-1.204 0-1.59-.027-.38-.026-.602-.074-.771-.144a2.25 2.25 0 0 1-1.218-1.218c-.07-.169-.118-.39-.144-.77-.027-.387-.027-.882-.027-1.591ZM.75 4.5c0-.71 0-1.203.027-1.59.026-.38.074-.602.144-.771A2.25 2.25 0 0 1 2.14.921c.169-.07.39-.118.77-.144C3.298.75 3.792.75 4.5.75c.71 0 1.203 0 1.59.027.38.026.602.074.771.144.551.229.99.667 1.218 1.218.07.169.118.39.144.77.027.388.027.882.027 1.591 0 .71 0 1.203-.027 1.59-.026.38-.074.602-.144.771A2.25 2.25 0 0 1 6.86 8.079c-.169.07-.39.118-.77.144-.388.027-.882.027-1.591.027-.71 0-1.203 0-1.59-.027-.38-.026-.602-.074-.771-.144A2.25 2.25 0 0 1 .921 6.86c-.07-.169-.118-.39-.144-.77C.75 5.702.75 5.208.75 4.5Z"/><path fill="#212121" fill-rule="evenodd" d="M15.5 11.05a.75.75 0 0 1 .75.75v2.95h2.95a.75.75 0 0 1 0 1.5h-2.95v2.95a.75.75 0 1 1-1.5 0v-2.95H11.8a.75.75 0 1 1 0-1.5h2.95V11.8a.75.75 0 0 1 .75-.75Z" clip-rule="evenodd"/><path fill="#E5E5E8" stroke="#212121" stroke-width="1.5" d="M.75 15.5c0-.71 0-1.204.027-1.59.026-.38.074-.602.144-.771a2.25 2.25 0 0 1 1.218-1.218c.169-.07.39-.118.77-.144.388-.027.882-.027 1.591-.027.71 0 1.203 0 1.59.027.38.026.602.074.771.144.551.229.99.667 1.218 1.218.07.169.118.39.144.77.027.387.027.882.027 1.591 0 .71 0 1.203-.027 1.59-.026.38-.074.602-.144.771a2.25 2.25 0 0 1-1.218 1.218c-.169.07-.39.118-.77.144-.388.027-.882.027-1.591.027-.71 0-1.203 0-1.59-.027-.38-.026-.602-.074-.771-.144A2.25 2.25 0 0 1 .921 17.86c-.07-.169-.118-.39-.144-.77C.75 16.702.75 16.208.75 15.5Z"/></svg>