<svg xmlns="http://www.w3.org/2000/svg" width="20" height="20" fill="none" viewBox="0 0 20 20"><g clip-path="url(#a)"><path fill="#E5E5E8" stroke="#212121" stroke-width="1.5" d="M.75 10c0-1.883 0-3.245.097-4.312.096-1.057.281-1.75.606-2.313a5.25 5.25 0 0 1 1.922-1.922c.563-.325 1.256-.51 2.313-.606C6.755.751 8.117.75 10 .75c1.883 0 3.245 0 4.312.097 1.057.096 1.75.281 2.313.606a5.25 5.25 0 0 1 1.922 1.922c.325.563.51 1.256.606 2.313.096 1.067.097 2.429.097 4.312 0 1.883 0 3.245-.097 4.312-.096 1.057-.281 1.75-.606 2.313a5.25 5.25 0 0 1-1.922 1.922c-.563.325-1.256.51-2.313.606-1.067.096-2.429.097-4.312.097-1.883 0-3.245 0-4.312-.097-1.057-.096-1.75-.281-2.313-.606a5.25 5.25 0 0 1-1.922-1.922c-.325-.563-.51-1.256-.606-2.313C.751 13.245.75 11.883.75 10Z"/><path fill="#212121" fill-rule="evenodd" d="M17 6.25a.75.75 0 0 1-.75.75H3.75a.75.75 0 0 1 0-1.5h12.5a.75.75 0 0 1 .75.75Z" clip-rule="evenodd"/></g><defs><clipPath id="a"><path fill="#fff" d="M0 0h20v20H0z"/></clipPath></defs></svg>