<svg xmlns="http://www.w3.org/2000/svg" width="20" height="20" fill="none" viewBox="0 0 20 20"><path fill="#E5E5E8" fill-rule="evenodd" d="M15.52 10.924C16.262 9.916 17 8.917 17 7A7 7 0 1 0 3 7c0 1.271.622 2.214 1.299 3.241.533.809 1.1 1.67 1.427 2.784C6.036 14.085 6.896 15 8 15h4c1.105 0 1.945-.924 2.302-1.969.292-.853.756-1.482 1.217-2.107Z" clip-rule="evenodd"/><path fill="#212121" fill-rule="evenodd" d="M8 15c-1.105 0-1.964-.914-2.274-1.975-.326-1.114-.894-1.975-1.427-2.784C3.622 9.214 3 8.271 3 7a7 7 0 0 1 14 0c0 1.917-.737 2.916-1.48 3.924-.462.625-.926 1.254-1.218 2.107C13.945 14.076 13.105 15 12 15H8Zm7.5-8c0 1.41-.482 2.076-1.188 3.033l-.033.045c-.448.607-1.03 1.394-1.396 2.468-.11.324-.286.59-.467.758-.172.157-.31.196-.416.196h-1.25v-2.624c0-.357.213-.672.432-.953a1.5 1.5 0 1 0-2.365 0c.22.281.433.596.433.953V13.5H8c-.115 0-.255-.042-.418-.193a1.573 1.573 0 0 1-.416-.703c-.39-1.332-1.063-2.353-1.584-3.142l-.03-.047C4.838 8.335 4.5 7.755 4.5 7a5.5 5.5 0 1 1 11 0ZM7.25 19.25A.75.75 0 0 1 8 18.5h4a.75.75 0 0 1 0 1.5H8a.75.75 0 0 1-.75-.75ZM6.75 16.75A.75.75 0 0 1 7.5 16h5a.75.75 0 0 1 0 1.5h-5a.75.75 0 0 1-.75-.75Z" clip-rule="evenodd"/></svg>