<svg xmlns="http://www.w3.org/2000/svg" width="20" height="20" fill="none" viewBox="0 0 20 20"><path fill="#D6D6D6" d="M9.966 1.186a.894.894 0 0 1 1.613.69L10.428 7.25h4.161a1.25 1.25 0 0 1 1.055 1.921l-6.118 9.613a.908.908 0 0 1-1.665-.616l.774-5.418H4.446a1.25 1.25 0 0 1-1.033-1.954l6.553-9.61Z"/><path fill="#212121" fill-rule="evenodd" d="M10.093.999c.525-.77 1.729-.255 1.534.657l-1.2 5.594h4.162a1.25 1.25 0 0 1 1.055 1.921l-6.262 9.84c-.492.773-1.688.33-1.559-.576l.812-5.685H4.446a1.25 1.25 0 0 1-1.033-1.954l6.68-9.797Zm-.628 3.583L4.92 11.25h4.005c.76 0 1.345.674 1.237 1.427l-.427 2.987 4.4-6.914h-4.016a1.25 1.25 0 0 1-1.222-1.512l.57-2.656Z" clip-rule="evenodd"/></svg>