<svg xmlns="http://www.w3.org/2000/svg" width="20" height="20" fill="none" viewBox="0 0 20 20"><path fill="#E5E5E8" stroke="#212121" stroke-width="1.5" d="M9.9.95h.2c.862 0 1.314.003 1.69.078a4.05 4.05 0 0 1 3.182 3.182c.075.376.078.828.078 1.69v1.95l.48.185a4.25 4.25 0 0 1 2.603 2.973c.112.467.117 1.054.117 2.492s-.005 2.025-.117 2.492a4.25 4.25 0 0 1-3.14 3.14c-.468.113-1.055.118-2.493.118h-5c-1.438 0-2.025-.005-2.492-.117a4.25 4.25 0 0 1-3.14-3.14c-.113-.468-.118-1.055-.118-2.493s.005-2.025.117-2.492A4.25 4.25 0 0 1 4.47 8.035l.48-.185V5.9c0-.863.003-1.315.078-1.69A4.05 4.05 0 0 1 8.21 1.027C8.586.953 9.038.95 9.9.95Zm4.265 6.82.785.035V6c0-.93 0-1.39-.076-1.77a3.95 3.95 0 0 0-3.103-3.104C11.39 1.05 10.929 1.05 10 1.05c-.93 0-1.39 0-1.77.076A3.95 3.95 0 0 0 5.125 4.23c-.076.38-.076.84-.076 1.77v1.805l.785-.036c.409-.019.928-.019 1.665-.019h5c.737 0 1.256 0 1.665.02Z"/><path fill="#212121" d="M8.5 13a1.5 1.5 0 0 1 3 0v1a1.5 1.5 0 0 1-3 0v-1Z"/></svg>