<svg xmlns="http://www.w3.org/2000/svg" width="20" height="20" fill="none" viewBox="0 0 20 20"><path fill="#212121" fill-rule="evenodd" d="M3.5 5.75a.75.75 0 0 1 .75.75v7a.75.75 0 0 1-1.5 0v-7a.75.75 0 0 1 .75-.75ZM12.53.97a.75.75 0 0 1 0 1.06l-.72.721c.89.006 1.52.037 2.069.204a4.75 4.75 0 0 1 3.167 3.166c.205.676.204 1.478.204 2.736V13.5a.75.75 0 0 1-1.5 0V9c0-1.45-.008-2.009-.14-2.443a3.25 3.25 0 0 0-2.166-2.167c-.342-.104-.761-.13-1.631-.138l.717.718a.75.75 0 0 1-1.06 1.06L8.94 3.5 11.47.97a.75.75 0 0 1 1.06 0Z" clip-rule="evenodd"/><path fill="#E5E5E8" d="M20 16.5a3.5 3.5 0 1 1-7 0 3.5 3.5 0 0 1 7 0ZM7 16.5a3.5 3.5 0 1 1-7 0 3.5 3.5 0 0 1 7 0ZM7 3.5a3.5 3.5 0 1 1-7 0 3.5 3.5 0 0 1 7 0Z"/><path fill="#212121" fill-rule="evenodd" d="M16.5 18.5a2 2 0 1 0 0-4 2 2 0 0 0 0 4Zm-13 0a2 2 0 1 0 0-4 2 2 0 0 0 0 4Zm0-13a2 2 0 1 0 0-4 2 2 0 0 0 0 4Zm0 1.5a3.5 3.5 0 1 0 0-7 3.5 3.5 0 0 0 0 7ZM7 16.5a3.5 3.5 0 1 1-7 0 3.5 3.5 0 0 1 7 0Zm13 0a3.5 3.5 0 1 1-7 0 3.5 3.5 0 0 1 7 0Z" clip-rule="evenodd"/></svg>