<svg xmlns="http://www.w3.org/2000/svg" width="20" height="20" fill="none" viewBox="0 0 20 20"><path fill="#212121" fill-rule="evenodd" d="M9.9 14.15a.75.75 0 0 1 .75.75v3.5h4.5a.75.75 0 0 1 0 1.5H4.65a.75.75 0 0 1 0-1.5h4.5v-3.5a.75.75 0 0 1 .75-.75Z" clip-rule="evenodd"/><path fill="#E5E5E8" d="M7.4 13.9c-2.335 0-3.502 0-4.386-.472a4 4 0 0 1-1.642-1.642C.9 10.902.9 9.735.9 7.4c0-2.334 0-3.502.472-4.385a4 4 0 0 1 1.642-1.642C3.898.9 5.065.9 7.4.9h5c2.334 0 3.502 0 4.385.473a4 4 0 0 1 1.642 1.642c.473.883.473 2.05.473 4.385s0 3.502-.473 4.386a4 4 0 0 1-1.642 1.642c-.883.472-2.05.472-4.385.472h-5Z"/><path fill="#212121" fill-rule="evenodd" d="M.1 7.437v-.073c0-1.137 0-2.04.062-2.769.063-.745.196-1.38.505-1.958a4.8 4.8 0 0 1 1.97-1.97C3.215.358 3.85.226 4.595.162 5.323.1 6.227.1 7.364.1h5.073c1.136 0 2.04 0 2.768.062.745.064 1.38.196 1.958.505a4.8 4.8 0 0 1 1.97 1.97c.309.578.442 1.213.505 1.958.062.729.062 1.632.062 2.769v.073c0 1.136 0 2.04-.062 2.768-.063.746-.196 1.38-.505 1.958a4.8 4.8 0 0 1-1.97 1.97c-.578.31-1.213.442-1.958.505-.728.062-1.632.062-2.768.062H7.364c-1.137 0-2.04 0-2.769-.062-.746-.063-1.38-.196-1.958-.505a4.8 4.8 0 0 1-1.97-1.97c-.309-.578-.442-1.212-.505-1.958C.1 9.477.1 8.573.1 7.437Zm1.656 2.632c.055.643.158 1.033.322 1.34a3.2 3.2 0 0 0 1.314 1.313c.306.164.696.267 1.339.322.652.056 1.488.056 2.669.056h5c1.181 0 2.017 0 2.67-.056.641-.055 1.032-.158 1.338-.322a3.2 3.2 0 0 0 1.314-1.313c.164-.307.267-.697.322-1.34.055-.652.056-1.488.056-2.669 0-1.18 0-2.017-.056-2.669-.055-.642-.158-1.033-.322-1.34a3.2 3.2 0 0 0-1.314-1.313c-.306-.164-.697-.267-1.339-.322-.652-.055-1.488-.056-2.669-.056h-5c-1.181 0-2.017 0-2.67.056-.642.055-1.032.158-1.338.322a3.2 3.2 0 0 0-1.314 1.314c-.164.306-.267.697-.322 1.34-.055.65-.056 1.486-.056 2.668s0 2.017.056 2.67Z" clip-rule="evenodd"/></svg>