<svg xmlns="http://www.w3.org/2000/svg" width="20" height="21" fill="none" viewBox="0 0 20 21"><path fill="#E5E5E8" d="M3.103 15.603c.92.38 2.084.38 4.414.38h5c2.33 0 3.494 0 4.413-.38a5 5 0 0 0 2.706-2.706c.211-.51.305-1.095.347-1.914h-4.966a5 5 0 0 1-5-5v-5h-2.5c-2.33 0-3.495 0-4.414.381A5 5 0 0 0 .397 4.07c-.38.919-.38 2.084-.38 4.413 0 2.33 0 3.495.38 4.414a5 5 0 0 0 2.706 2.706Z"/><path fill="#212121" fill-rule="evenodd" d="M7.48 1.184h2.537a.8.8 0 0 1 0 1.6h-2.5c-1.181 0-2.017 0-2.67.056-.642.054-1.032.158-1.338.321a3.2 3.2 0 0 0-1.314 1.314c-.164.306-.267.697-.322 1.34-.055.652-.056 1.488-.056 2.669 0 1.18 0 2.016.056 2.669.055.642.158 1.033.322 1.34a3.2 3.2 0 0 0 1.314 1.313c.306.163.696.267 1.339.321.652.056 1.488.057 2.669.057h5c1.181 0 2.017-.001 2.67-.057.642-.054 1.032-.158 1.338-.321a3.2 3.2 0 0 0 1.314-1.314c.22-.411.325-.96.36-2.035a.8.8 0 0 1 1.6.053c-.037 1.106-.143 1.977-.549 2.736a4.8 4.8 0 0 1-1.97 1.97c-.578.31-1.213.442-1.958.506-.728.062-1.632.062-2.768.062H7.48c-1.136 0-2.04 0-2.768-.062-.746-.064-1.38-.197-1.958-.505a4.8 4.8 0 0 1-1.97-1.97c-.309-.578-.442-1.213-.505-1.959C.217 10.56.217 9.656.217 8.52v-.073c0-1.136 0-2.04.062-2.768.063-.746.196-1.38.505-1.958a4.8 4.8 0 0 1 1.97-1.97c.578-.31 1.212-.442 1.958-.505.728-.062 1.632-.062 2.768-.062Z" clip-rule="evenodd"/><path fill="#212121" fill-rule="evenodd" d="M19.017 5.8h-6a.75.75 0 0 1 0-1.5h6a.75.75 0 0 1 0 1.5ZM10.017 15.233a.75.75 0 0 1 .75.75v3.5h4.5a.75.75 0 0 1 0 1.5h-10.5a.75.75 0 0 1 0-1.5h4.5v-3.5a.75.75 0 0 1 .75-.75Z" clip-rule="evenodd"/></svg>