<svg xmlns="http://www.w3.org/2000/svg" width="20" height="20" fill="none" viewBox="0 0 20 20"><path fill="#E5E5E8" stroke="#212121" stroke-width="1.5" d="M10 19.25c-.95 0-1.362-.001-1.7-.04a6.25 6.25 0 0 1-5.51-5.51c-.039-.338-.04-.75-.04-1.7V8c0-.95.001-1.362.04-1.7A6.25 6.25 0 0 1 8.3.79C8.638.75 9.05.75 10 .75s1.361.001 1.7.04a6.25 6.25 0 0 1 5.51 5.51c.039.338.04.75.04 1.7v4c0 .95-.001 1.361-.04 1.7a6.25 6.25 0 0 1-5.51 5.51c-.338.039-.75.04-1.7.04Z"/><path fill="#212121" fill-rule="evenodd" d="M10 5a.75.75 0 0 1 .75.75v3.5a.75.75 0 0 1-1.5 0v-3.5A.75.75 0 0 1 10 5Z" clip-rule="evenodd"/></svg>