<svg xmlns="http://www.w3.org/2000/svg" width="20" height="20" fill="none" viewBox="0 0 20 20"><path fill="#212121" d="M8.57 18.5H15c.962 0 1.584-.001 2.055-.044.45-.04.613-.11.695-.157a1.5 1.5 0 0 0 .549-.549c.047-.081.116-.245.157-.695.043-.471.044-1.093.044-2.055 0-.962-.001-1.583-.044-2.054-.04-.45-.11-.614-.157-.696a1.5 1.5 0 0 0-.549-.549c-.082-.047-.245-.116-.695-.157a18.47 18.47 0 0 0-1.485-.043l.037-.037c.582-.583 1.037-1.037 1.38-1.43.66.044 1.124.143 1.513.368a3 3 0 0 1 1.098 1.098C20 12.196 20 13.131 20 15c0 1.87 0 2.804-.402 3.5a3 3 0 0 1-1.098 1.098C17.804 20 16.87 20 15 20H5a4.985 4.985 0 0 0 3.57-1.5Z"/><path fill="#212121" d="m8.573 18.497 7.033-7.033c1.322-1.322 1.983-1.983 2.191-2.759a3 3 0 0 0 0-1.553c-.208-.776-.869-1.437-2.19-2.759-1.322-1.322-1.983-1.983-2.76-2.19a3 3 0 0 0-1.553 0c-.434.116-.831.373-1.329.809C10 3.532 10 4.175 10 5v.05c.46-.457.794-.78 1.08-1.018.347-.29.511-.356.603-.38a1.5 1.5 0 0 1 .776 0c.091.024.255.09.603.38.363.303.803.741 1.484 1.422.68.68 1.119 1.12 1.421 1.484.29.347.357.511.381.602.068.255.068.522 0 .777-.024.09-.091.255-.38.602-.303.364-.742.804-1.422 1.484L10 14.95V15a4.984 4.984 0 0 1-1.427 3.497Z"/><path fill="#E5E5E8" stroke="#212121" stroke-width="1.5" d="M.75 5c0-.948 0-1.61.047-2.122.046-.503.13-.788.254-1.003a2.25 2.25 0 0 1 .824-.824c.215-.124.5-.208 1.003-.254C3.39.751 4.052.75 5 .75s1.61 0 2.122.047c.503.046.788.13 1.003.254.342.198.626.482.824.824.124.215.208.5.254 1.003.046.512.047 1.174.047 2.122v10a4.25 4.25 0 0 1-8.5 0V5Z"/><path fill="#212121" d="M6.5 15a1.5 1.5 0 1 1-3 0 1.5 1.5 0 0 1 3 0Z"/></svg>