<svg xmlns="http://www.w3.org/2000/svg" width="20" height="20" fill="none" viewBox="0 0 20 20"><path fill="#E5E5E8" d="M15.5 9.803 10.197 4.5 3.35 11.347l-.038.038c-.156.155-.324.322-.443.532-.119.21-.176.439-.229.652l-.013.052-.489 1.945c-.17.676-.317 1.264-.364 1.731-.048.49-.01 1.058.43 1.498.44.44 1.009.48 1.499.43.467-.046 1.055-.193 1.73-.363l1.946-.49.052-.012c.213-.053.443-.11.652-.23.21-.118.377-.286.532-.442l.038-.038L15.5 9.803Z"/><path fill="#212121" d="m16.755 3.28-.035-.035a17.699 17.699 0 0 0-.807-.778 2.823 2.823 0 0 0-.775-.508 2.75 2.75 0 0 0-2.105 0c-.29.12-.535.3-.774.508-.23.201-.493.463-.807.778l-.195.194 5.304 5.304.194-.195c.315-.314.577-.577.778-.807.208-.24.387-.484.508-.774a2.75 2.75 0 0 0 0-2.105c-.12-.29-.3-.535-.508-.775-.201-.23-.463-.492-.778-.807Z"/><path fill="#E5E5E8" stroke="#212121" stroke-width="1.5" d="m3.88 11.878 6.317-6.317 4.242 4.242-6.316 6.317h-.001l-.038.039c-.166.166-.264.259-.37.32l.37.652-.37-.653c-.107.06-.237.097-.465.154l-.052.013h-.001l-1.945.49c-.696.174-1.222.305-1.622.344-.415.041-.695-.015-.894-.214-.199-.199-.255-.478-.213-.893l-.747-.075.747.075c.04-.4.169-.928.344-1.623l.489-1.945.013-.053c.057-.228.093-.358.154-.464l-.644-.365.644.365c.06-.107.153-.205.319-.37v-.001l.038-.038Z"/></svg>