<svg xmlns="http://www.w3.org/2000/svg" width="20" height="20" fill="none" viewBox="0 0 20 20"><path fill="#E5E5E8" d="M8 3a2 2 0 1 1 4 0v1.76c0 .241 0 .362.016.472a1.5 1.5 0 0 0 .697 1.056c.094.058.205.105.427.2L19 9v3l-7-1v2.394c0 .786 0 1.18.178 1.511.177.332.504.55 1.158.986L15 17v2l-4.412-.882c-.293-.059-.44-.088-.588-.088-.149 0-.295.029-.588.088L5 19v-2l1.664-1.11c.654-.435.981-.653 1.159-.985C8 14.573 8 14.18 8 13.395V11l-6 1V9l4.944-2.472c.22-.11.328-.164.421-.23a1.5 1.5 0 0 0 .618-.999C8 5.187 8 5.064 8 4.819V3Z"/><path fill="#212121" fill-rule="evenodd" d="M7.25 3a2.75 2.75 0 0 1 5.5 0v1.76c0 .265.002.32.008.361a.75.75 0 0 0 .348.528c.036.022.085.046.329.15l6.315 2.706v4.36l-7-1v1.53c0 .406 0 .66.019.856.017.18.044.253.07.3.025.047.071.111.211.225.152.123.364.265.702.49L15.75 16.6v3.316l-5.309-1.062c-.32-.064-.384-.073-.441-.073-.057 0-.12.009-.441.073L4.25 19.915v-3.316l1.998-1.332c.338-.226.55-.368.702-.491.14-.114.186-.178.211-.225.026-.047.053-.12.07-.3.018-.196.019-.45.019-.857v-1.509l-6 1V8.536l5.359-2.679c.24-.12.288-.146.324-.171a.75.75 0 0 0 .308-.5c.007-.043.009-.098.009-.366V3ZM10 1.75c-.69 0-1.25.56-1.25 1.25v1.862c0 .203 0 .38-.026.55a2.25 2.25 0 0 1-.926 1.499c-.14.1-.3.178-.48.269l-.038.019-4.53 2.265v1.65l6-1v3.311c0 .367 0 .692-.025.965a2.223 2.223 0 0 1-.241.869 2.224 2.224 0 0 1-.59.682c-.213.173-.483.353-.788.557L5.75 17.4v.684l3.515-.703.049-.01c.245-.049.461-.092.686-.092.225 0 .441.043.686.092l.05.01 3.514.703V17.4l-1.356-.903c-.305-.204-.575-.384-.788-.557a2.224 2.224 0 0 1-.59-.682 2.224 2.224 0 0 1-.24-.87c-.026-.272-.026-.597-.026-.964v-3.29l7 1v-1.64l-5.406-2.317-.039-.017a3.675 3.675 0 0 1-.486-.235 2.25 2.25 0 0 1-1.045-1.584c-.024-.166-.024-.34-.024-.54V3c0-.69-.56-1.25-1.25-1.25Z" clip-rule="evenodd"/></svg>