<svg xmlns="http://www.w3.org/2000/svg" width="20" height="20" fill="none" viewBox="0 0 20 20"><path fill="#E5E5E8" stroke="#212121" stroke-width="1.5" d="M3.083 7.75h.886l-.146-.874a5.25 5.25 0 0 1 9.755-3.449l.254.452.513-.079A4.25 4.25 0 1 1 15 12.25H3a2.25 2.25 0 0 1 0-4.5h.083Z"/><path fill="#212121" fill-rule="evenodd" d="M6 14.5a.75.75 0 0 1 .75.75v3a.75.75 0 0 1-1.5 0v-3A.75.75 0 0 1 6 14.5Zm8 0a.75.75 0 0 1 .75.75v3a.75.75 0 0 1-1.5 0v-3a.75.75 0 0 1 .75-.75Zm-4 1a.75.75 0 0 1 .75.75v3a.75.75 0 0 1-1.5 0v-3a.75.75 0 0 1 .75-.75Z" clip-rule="evenodd"/></svg>