<svg xmlns="http://www.w3.org/2000/svg" width="20" height="20" fill="none" viewBox="0 0 20 20"><path fill="#212121" fill-rule="evenodd" d="m4 .94 3.53 3.53a.75.75 0 0 1-1.06 1.06L4.75 3.81v3.181a.83.83 0 0 1 0 .01v8A2.25 2.25 0 0 0 7 17.25h3a.75.75 0 0 1 0 1.5H7A3.75 3.75 0 0 1 3.25 15V3.81L1.53 5.53A.75.75 0 1 1 .47 4.47L4 .94Z" clip-rule="evenodd"/><path fill="#E5E5E8" fill-rule="evenodd" d="m16 19.06-3.53-3.53a.75.75 0 1 1 1.06-1.06l1.72 1.72V5A2.25 2.25 0 0 0 13 2.75h-3a.75.75 0 0 1 0-1.5h3A3.75 3.75 0 0 1 16.75 5v11.19l1.72-1.72a.75.75 0 1 1 1.06 1.06L16 19.06Z" clip-rule="evenodd"/></svg>