<svg xmlns="http://www.w3.org/2000/svg" width="20" height="20" fill="none" viewBox="0 0 20 20"><path fill="#212121" d="M8.475 14.416a.998.998 0 0 1-.683 1.011l-3.88 1.294a.5.5 0 0 1-.632-.633l1.293-3.88a.998.998 0 0 1 1.01-.683l2.892 2.891ZM4.617 9.268l.12-1.438 1.99-3.2.516-.71c-.35-.009-.728-.004-1.122.024-1.743.124-3.967.728-5.215 2.807l-.442.737 4.153 1.78Zm11.463 3.49c.01.35.005.728-.024 1.12-.124 1.744-.727 3.968-2.807 5.216l-.737.442-1.78-4.153 1.438-.12 3.2-1.99.71-.515Z"/><path fill="#E5E5E8" stroke="#212121" stroke-width="1.5" d="M17.665 1.414a1 1 0 0 1 .92.92l.203 2.636a4 4 0 0 1-1.076 3.05l-2.299 2.44-1.3.945-2.67 1.66-1.05.088-3.546-3.546.087-1.05 1.66-2.67.946-1.3 2.44-2.299a4.002 4.002 0 0 1 3.05-1.076l2.635.202Z"/><path fill="#212121" d="M14.277 5.773a1 1 0 1 0 1.414-1.414 1 1 0 0 0-1.414 1.414Z"/></svg>