<svg xmlns="http://www.w3.org/2000/svg" width="20" height="20" fill="none" viewBox="0 0 20 20"><path fill="#E5E5E8" stroke="#212121" stroke-width="1.5" d="M7.879.998c.391 0 .788.002 1.142.003h.005l.976.001h.034c1.383 0 2.424.001 3.25.069l.062-.748-.062.748c.834.068 1.452.204 1.986.476l.335-.657-.335.657a5 5 0 0 1 2.185 2.185c.273.535.41 1.153.477 1.986.068.827.068 1.867.068 3.25v2.068c0 1.383 0 2.424-.068 3.25-.068.834-.204 1.452-.477 1.986a5 5 0 0 1-2.185 2.186c-.534.272-1.152.408-1.986.476-.826.068-1.867.068-3.25.068h-.067c-1.384 0-2.424 0-3.25-.068-.834-.068-1.452-.204-1.987-.477a5 5 0 0 1-2.185-2.185c-.272-.534-.408-1.152-.476-1.986-.068-.826-.069-1.867-.069-3.25V7.958c0-.94.009-1.433.17-1.892.161-.46.464-.851 1.055-1.59l1.688-2.112v-.001c.517-.648.802-.984 1.188-1.17l-.322-.67.322.672c.387-.186.823-.198 1.643-.196h.133Z"/><path fill="#212121" d="M8.502 5.752a.75.75 0 0 0-1.5 0v3.5a.75.75 0 0 0 1.5 0v-3.5Zm2.25-.75a.75.75 0 0 1 .75.75v3.5a.75.75 0 1 1-1.5 0v-3.5a.75.75 0 0 1 .75-.75Zm3 0a.75.75 0 0 1 .75.75v3.5a.75.75 0 1 1-1.5 0v-3.5a.75.75 0 0 1 .75-.75Z"/></svg>