<svg xmlns="http://www.w3.org/2000/svg" width="20" height="20" fill="none" viewBox="0 0 20 20"><path fill="#E5E5E8" stroke="#212121" stroke-width="1.5" d="M2.75 6.206c0-1.07.005-1.479.085-1.824a3.25 3.25 0 0 1 1.68-2.15c.314-.161.71-.265 1.747-.525 1.015-.253 1.48-.37 1.945-.444a11.25 11.25 0 0 1 3.586 0c.465.075.93.19 1.945.444 1.037.26 1.433.364 1.748.525a3.25 3.25 0 0 1 1.678 2.15c.081.345.086.755.086 1.824V12c0 1.07-.772 2.279-2.018 3.482-1.213 1.172-2.725 2.195-3.881 2.898-.836.507-1.041.608-1.351.608-.31 0-.515-.1-1.35-.608-1.157-.703-2.669-1.726-3.882-2.897C3.522 14.278 2.75 13.07 2.75 12V6.206Z"/><path fill="#212121" d="m7.03 10.22 1.223 1.222c.956-2.01 2.064-3.31 3.003-4.131a7.908 7.908 0 0 1 1.383-.984 5.068 5.068 0 0 1 .56-.265l.04-.015.014-.005.006-.002h.002l.002-.001a.75.75 0 0 1 .48 1.421l-.01.004a3.608 3.608 0 0 0-.371.178 6.41 6.41 0 0 0-1.118.798c-.91.796-2.091 2.197-3.048 4.589a.75.75 0 0 1-1.226.252l-2-2a.75.75 0 1 1 1.06-1.061Z"/></svg>