<svg xmlns="http://www.w3.org/2000/svg" width="20" height="20" fill="none" viewBox="0 0 20 20"><path fill="#E5E5E8" stroke="#212121" stroke-width="1.5" d="M2.75 6.206c0-1.07.005-1.479.085-1.824a3.25 3.25 0 0 1 1.68-2.15c.314-.161.71-.265 1.747-.525 1.015-.253 1.48-.37 1.945-.444a11.25 11.25 0 0 1 3.586 0c.465.075.93.19 1.945.444 1.037.26 1.433.364 1.748.525a3.25 3.25 0 0 1 1.678 2.15c.081.345.086.755.086 1.824V12c0 1.07-.772 2.279-2.018 3.482-1.213 1.172-2.725 2.195-3.881 2.898-.836.507-1.041.608-1.351.608-.31 0-.515-.1-1.35-.608-1.157-.703-2.669-1.726-3.882-2.897C3.522 14.278 2.75 13.07 2.75 12V6.206Z"/><path fill="#212121" fill-rule="evenodd" d="M6.5 5.5a.75.75 0 0 1 1.06 0L10 7.94l2.44-2.44a.75.75 0 0 1 1.06 1.06L11.06 9l2.44 2.44a.75.75 0 0 1-1.06 1.06L10 10.06 7.56 12.5a.75.75 0 0 1-1.06-1.06L8.94 9 6.5 6.56a.75.75 0 0 1 0-1.06Z" clip-rule="evenodd"/></svg>