<svg xmlns="http://www.w3.org/2000/svg" width="20" height="20" fill="none" viewBox="0 0 20 20"><path fill="#E5E5E8" stroke="#212121" stroke-width="1.5" d="M2.468 12.266c.208-.946.355-1.614.511-2.133.154-.51.302-.825.487-1.073a3.25 3.25 0 0 1 1.273-1.023c.281-.127.62-.204 1.152-.245.54-.041 1.225-.042 2.193-.042h3.832c.968 0 1.652 0 2.193.042.531.04.87.118 1.152.245.505.227.943.58 1.273 1.023.185.248.333.563.487 1.073.156.52.303 1.187.511 2.133.308 1.4.527 2.4.626 3.185.098.78.064 1.26-.071 1.64a3.25 3.25 0 0 1-1.34 1.665c-.341.214-.803.35-1.585.421-.79.072-1.813.073-3.246.073H8.084c-1.433 0-2.457 0-3.246-.073-.782-.071-1.244-.207-1.586-.42a3.25 3.25 0 0 1-1.339-1.667c-.135-.38-.169-.86-.07-1.639.098-.786.317-1.786.625-3.185Z"/><path fill="#212121" fill-rule="evenodd" d="M5.25 5a4.75 4.75 0 0 1 9.5 0v6h-1.5V5a3.25 3.25 0 0 0-6.5 0v6h-1.5V5Z" clip-rule="evenodd"/><path fill="#212121" d="M7 11a1 1 0 1 1-2 0 1 1 0 0 1 2 0Zm8 0a1 1 0 1 1-2 0 1 1 0 0 1 2 0Z"/></svg>