<svg xmlns="http://www.w3.org/2000/svg" width="20" height="20" fill="none" viewBox="0 0 20 20"><path fill="#E5E5E8" d="M9.901 10 9 8.648 8.099 10 9 11.352 9.901 10ZM9.6 12.254l.902-1.353.34.511a5.25 5.25 0 0 0 4.37 2.338h1.977l-1.72-1.72a.75.75 0 1 1 1.061-1.06l3 3a.75.75 0 0 1 0 1.06l-3 3a.75.75 0 1 1-1.06-1.06l1.72-1.72H15.21a6.75 6.75 0 0 1-5.61-2.996ZM7.498 9.099l.901-1.352a6.75 6.75 0 0 0-5.61-2.997H1a.75.75 0 0 0 0 1.5h1.789a5.25 5.25 0 0 1 4.368 2.338l.34.51Z"/><path fill="#212121" fill-rule="evenodd" d="M15.47 1.97a.75.75 0 0 1 1.06 0l3 3a.75.75 0 0 1 0 1.06l-3 3a.75.75 0 1 1-1.06-1.06l1.72-1.72H15.21a5.25 5.25 0 0 0-4.368 2.338l-2.438 3.656A6.75 6.75 0 0 1 2.79 15.25H1a.75.75 0 0 1 0-1.5h1.789a5.25 5.25 0 0 0 4.368-2.338l2.438-3.656A6.75 6.75 0 0 1 15.21 4.75h1.978l-1.72-1.72a.75.75 0 0 1 0-1.06Z" clip-rule="evenodd"/></svg>