<svg xmlns="http://www.w3.org/2000/svg" width="20" height="20" fill="none" viewBox="0 0 20 20"><path fill="#E5E5E8" stroke="#212121" stroke-width="1.5" d="M3 6.75h.75V6a4.25 4.25 0 0 1 7.65-2.55l.45.6.6-.45A4.25 4.25 0 1 1 15 11.25H3a2.25 2.25 0 0 1 0-4.5Z"/><path fill="#212121" d="M11 15a1 1 0 1 1-2 0 1 1 0 0 1 2 0ZM7 15a1 1 0 1 1-2 0 1 1 0 0 1 2 0ZM15 15a1 1 0 1 1-2 0 1 1 0 0 1 2 0ZM17 18a1 1 0 1 1-2 0 1 1 0 0 1 2 0ZM13 18a1 1 0 1 1-2 0 1 1 0 0 1 2 0ZM9 18a1 1 0 1 1-2 0 1 1 0 0 1 2 0ZM5 18a1 1 0 1 1-2 0 1 1 0 0 1 2 0Z"/></svg>