<svg xmlns="http://www.w3.org/2000/svg" width="20" height="20" fill="none" viewBox="0 0 20 20"><path fill="#E5E5E8" stroke="#212121" stroke-width="1.5" d="M.75 10c0-1.883 0-3.245.097-4.312.096-1.057.281-1.75.606-2.313a5.25 5.25 0 0 1 1.922-1.922c.563-.325 1.256-.51 2.313-.606C6.755.751 8.117.75 10 .75c1.883 0 3.245 0 4.312.097 1.057.096 1.75.281 2.313.606a5.25 5.25 0 0 1 1.922 1.922c.325.563.51 1.256.606 2.313.096 1.067.097 2.429.097 4.312 0 1.883 0 3.245-.097 4.312-.096 1.057-.281 1.75-.606 2.313a5.25 5.25 0 0 1-1.922 1.922c-.563.325-1.256.51-2.313.606-1.067.096-2.429.097-4.312.097-1.883 0-3.245 0-4.312-.097-1.057-.096-1.75-.281-2.313-.606a5.25 5.25 0 0 1-1.922-1.922c-.325-.563-.51-1.256-.606-2.313C.751 13.245.75 11.883.75 10Z"/><path fill="#212121" fill-rule="evenodd" d="M9.998 4.25a.75.75 0 0 1 .75.75v.7c.387.09.761.253 1.084.501a2.33 2.33 0 0 1 .918 1.894.75.75 0 0 1-1.5 0c0-.333-.133-.55-.333-.704-.22-.17-.551-.278-.918-.277-.367 0-.697.108-.917.277-.2.154-.332.372-.332.704 0 .307.11.482.329.648.27.205.657.357 1.184.555l.048.018c.465.174 1.054.395 1.518.747.531.404.921.995.921 1.842a2.33 2.33 0 0 1-.918 1.894 2.828 2.828 0 0 1-1.084.502V15a.75.75 0 1 1-1.5 0v-.7a2.828 2.828 0 0 1-1.081-.503 2.328 2.328 0 0 1-.917-1.892.75.75 0 1 1 1.5 0c0 .333.132.55.332.704.22.17.55.277.917.277s.697-.107.918-.277c.2-.153.333-.371.333-.704 0-.307-.11-.481-.329-.648-.27-.205-.657-.357-1.184-.555l-.048-.018c-.465-.174-1.054-.395-1.518-.747-.531-.404-.921-.995-.921-1.842 0-.82.367-1.469.917-1.892A2.827 2.827 0 0 1 9.248 5.7V5a.75.75 0 0 1 .75-.75Z" clip-rule="evenodd"/></svg>