<svg xmlns="http://www.w3.org/2000/svg" width="20" height="20" fill="none" viewBox="0 0 20 20"><path fill="#E5E5E8" stroke="#212121" stroke-width="1.5" d="M10 19.25c-1.883 0-3.245 0-4.312-.097-1.057-.096-1.75-.281-2.313-.606a5.25 5.25 0 0 1-1.922-1.922c-.325-.563-.51-1.256-.606-2.313C.751 13.245.75 11.883.75 10c0-1.883 0-3.245.097-4.312.096-1.057.281-1.75.606-2.313a5.25 5.25 0 0 1 1.922-1.922L3 .803l.375.65c.563-.325 1.256-.51 2.313-.606C6.755.751 8.117.75 10 .75c1.883 0 3.245 0 4.312.097 1.057.096 1.75.281 2.313.606a5.25 5.25 0 0 1 1.922 1.922c.325.563.51 1.256.606 2.313.096 1.067.097 2.429.097 4.312 0 1.883 0 3.245-.097 4.312-.096 1.057-.281 1.75-.606 2.313a5.25 5.25 0 0 1-1.922 1.922c-.563.325-1.256.51-2.313.606-1.067.096-2.429.097-4.312.097Z"/><path fill="#212121" fill-rule="evenodd" d="M9.721 5.25h.058c.204 0 .343 0 .466.008a3.75 3.75 0 0 1 3.497 3.497c.008.123.008.262.008.466v2.968l.72-.72a.75.75 0 1 1 1.06 1.061l-2 2a.75.75 0 0 1-1.06 0l-2-2a.75.75 0 1 1 1.06-1.06l.72.72V9.25c0-.244 0-.33-.005-.397a2.25 2.25 0 0 0-2.098-2.098 7.136 7.136 0 0 0-.397-.005c-.244 0-.33 0-.397.005a2.25 2.25 0 0 0-2.098 2.098 7.132 7.132 0 0 0-.005.397V13a.75.75 0 0 1-1.5 0V9.221c0-.204 0-.343.008-.466a3.75 3.75 0 0 1 3.497-3.497c.123-.008.262-.008.466-.008Z" clip-rule="evenodd"/></svg>