<svg xmlns="http://www.w3.org/2000/svg" width="20" height="20" fill="none" viewBox="0 0 20 20"><path fill="#E5E5E8" stroke="#212121" stroke-width="1.5" d="m12.27 6.614.169.349.382.063 3.135.525c.842.14 1.388.234 1.754.352.176.057.257.103.29.128-.011.04-.048.126-.154.277-.222.315-.602.718-1.19 1.336l-2.307 2.43-.252.266.054.362.49 3.263c.132.885.217 1.464.218 1.87 0 .192-.018.289-.032.332a1.136 1.136 0 0 1-.324-.08c-.382-.138-.9-.412-1.688-.834l-2.669-1.428-.353-.189-.354.19-2.668 1.427c-.79.422-1.307.696-1.689.833-.18.066-.278.08-.323.081a1.138 1.138 0 0 1-.033-.332c.001-.406.086-.985.219-1.87l.49-3.263.054-.362-.253-.266-2.307-2.43c-.588-.618-.968-1.021-1.19-1.336a1.058 1.058 0 0 1-.155-.277c.034-.025.115-.071.29-.128.368-.118.913-.212 1.755-.352l3.135-.525.382-.063.17-.349 1.352-2.787c.402-.828.668-1.372.904-1.718a1.19 1.19 0 0 1 .22-.264c.039.03.11.1.222.264.235.346.501.89.903 1.718l1.353 2.787Zm5.753 1.438c-.001 0-.005-.003-.009-.01l.009.01Zm-.018-.038V8c.001 0 .002.003 0 .013Zm-3.193 10.185c0-.001.001-.005.007-.011-.004.008-.007.011-.008.01Zm.036-.032c.008-.004.013-.004.013-.004 0 .001-.003.003-.013.004Zm-10.124-.004s.005 0 .013.004c-.01-.001-.014-.003-.013-.004Zm.042.025.008.01c0 .001-.004-.002-.008-.01ZM1.58 8v.013V8Zm-.01.041c-.003.007-.007.01-.007.01-.001 0 0-.003.008-.01Zm8.255-6.216s-.004.003-.012.005c.008-.005.012-.006.012-.005Zm-.053.005c-.008-.002-.012-.005-.012-.005 0-.001.004 0 .012.005Z"/></svg>