<svg xmlns="http://www.w3.org/2000/svg" width="20" height="20" fill="none" viewBox="0 0 20 20"><path fill="#E5E5E8" d="M18.5 11.5a8.5 8.5 0 1 1-17 0 8.5 8.5 0 0 1 17 0Z"/><path fill="#212121" fill-rule="evenodd" d="M10 18.5a7 7 0 1 0 0-14 7 7 0 0 0 0 14Zm0 1.5a8.5 8.5 0 1 0 0-17 8.5 8.5 0 0 0 0 17Z" clip-rule="evenodd"/><path fill="#212121" fill-rule="evenodd" d="m16.47 3.47-2 2 1.06 1.06 2-2a.75.75 0 1 0-1.06-1.06Zm-14 1.06 2 2 1.06-1.06-2-2a.75.75 0 0 0-1.06 1.06ZM7.25.75A.75.75 0 0 1 8 0h4a.75.75 0 0 1 0 1.5H8a.75.75 0 0 1-.75-.75ZM10 6.25a.75.75 0 0 1 .75.75v4.69l2.78 2.78a.75.75 0 1 1-1.06 1.06l-3.22-3.22V7a.75.75 0 0 1 .75-.75Z" clip-rule="evenodd"/></svg>