<svg xmlns="http://www.w3.org/2000/svg" width="20" height="20" fill="none" viewBox="0 0 20 20"><path fill="#E5E5E8" stroke="#212121" stroke-width="1.5" d="M4.887 15.113c-1.004-1.004-1.717-1.718-2.213-2.326-.489-.6-.713-1.034-.798-1.459a3.25 3.25 0 0 1 0-1.268c.085-.426.31-.86.798-1.459.496-.608 1.209-1.322 2.213-2.326l2.348-2.348c1.328-1.33 1.84-1.818 2.471-2.051.632-.234 1.338-.196 3.211-.052l2.106.162c.835.065 1.391.109 1.808.194.395.08.57.182.689.3.118.119.22.294.3.69.085.416.13.973.194 1.808l.162 2.105c.144 1.873.182 2.58-.051 3.211-.234.631-.723 1.143-2.051 2.471l-2.348 2.348c-1.005 1.005-1.718 1.717-2.327 2.213-.6.489-1.033.713-1.459.798a3.26 3.26 0 0 1-1.268 0c-.425-.084-.86-.309-1.458-.797-.61-.497-1.323-1.21-2.327-2.214Z"/><path fill="#212121" d="M14.963 7.866a2 2 0 1 1-2.828-2.829 2 2 0 0 1 2.828 2.829Z"/></svg>