<svg xmlns="http://www.w3.org/2000/svg" width="20" height="20" fill="none" viewBox="0 0 20 20"><path fill="#E5E5E8" fill-rule="evenodd" d="M6.584 1.376a.75.75 0 0 1 1.04.208L10 5.148l2.376-3.564a.75.75 0 1 1 1.248.832L10.901 6.5l6.667 10h1.682a.75.75 0 0 1 0 1.5H.75a.75.75 0 0 1 0-1.5h1.682l6.667-10-2.723-4.084a.75.75 0 0 1 .208-1.04Z" clip-rule="evenodd"/><path fill="#212121" fill-rule="evenodd" d="M6.584 1.376a.75.75 0 0 1 1.04.208L10 5.148l2.376-3.564a.75.75 0 1 1 1.248.832L10.901 6.5l6.667 10h1.682a.75.75 0 0 1 0 1.5H.75a.75.75 0 0 1 0-1.5h1.682l6.667-10-2.723-4.084a.75.75 0 0 1 .208-1.04ZM10 7.852 4.235 16.5h11.53L10 7.852Z" clip-rule="evenodd"/><path fill="#212121" d="M8.447 13.815a1.574 1.574 0 0 1 3.106 0L12 16.5H8l.447-2.685Z"/></svg>