<svg xmlns="http://www.w3.org/2000/svg" width="20" height="20" fill="none" viewBox="0 0 20 20"><path fill="#E5E5E8" stroke="#212121" stroke-width="1.6" d="M10 19.2c-1.884 0-3.243 0-4.308-.097-1.053-.096-1.738-.28-2.292-.6A5.2 5.2 0 0 1 1.497 16.6c-.32-.554-.504-1.24-.6-2.292C.801 13.243.8 11.884.8 10s0-3.243.097-4.308c.096-1.053.28-1.738.6-2.292A5.2 5.2 0 0 1 3.4 1.497c.554-.32 1.24-.504 2.292-.6C6.757.801 8.116.8 10 .8s3.243 0 4.308.097c1.053.096 1.738.28 2.292.6A5.2 5.2 0 0 1 18.503 3.4c.32.554.504 1.24.6 2.292.096 1.065.097 2.424.097 4.308s0 3.243-.097 4.308c-.096 1.053-.28 1.738-.6 2.292a5.2 5.2 0 0 1-1.903 1.903c-.554.32-1.24.504-2.292.6-1.065.096-2.424.097-4.308.097Z"/><path fill="#212121" fill-rule="evenodd" d="M9.53 9.47a.75.75 0 0 1 0 1.06l-3 3a.75.75 0 0 1-1.06-1.06L7.94 10 5.47 7.53a.75.75 0 0 1 1.06-1.06l3 3ZM11 13.25a.75.75 0 0 1 .75-.75h2.5a.75.75 0 0 1 0 1.5h-2.5a.75.75 0 0 1-.75-.75Z" clip-rule="evenodd"/></svg>