<svg xmlns="http://www.w3.org/2000/svg" width="20" height="20" fill="none" viewBox="0 0 20 20"><path fill="#212121" fill-rule="evenodd" d="M1 6.25a.75.75 0 0 1 .75.75v11a.75.75 0 0 1-1.5 0V7A.75.75 0 0 1 1 6.25Z" clip-rule="evenodd"/><path fill="#E5E5E8" stroke="#212121" stroke-width="1.5" d="m18.421 9.506-1.436 6.225a3.25 3.25 0 0 1-3.167 2.519H6A2.25 2.25 0 0 1 3.75 16V7.243c0-.597.237-1.17.659-1.591l3.45-3.45a3.25 3.25 0 0 1 2.298-.952h.737c.91 0 1.514.94 1.138 1.767l-.893 1.966a1.25 1.25 0 0 0 1.138 1.767h3.952a2.25 2.25 0 0 1 2.192 2.756Z"/></svg>