<svg xmlns="http://www.w3.org/2000/svg" width="20" height="20" fill="none" viewBox="0 0 20 20"><path fill="#E5E5E8" d="M2 12c0 1.886 0 2.828.586 3.414C3.172 16 4.115 16 6 16H14c1.886 0 2.83 0 3.415-.586C18 14.828 18 13.886 18 12v-2H2v2Z"/><path fill="#212121" fill-rule="evenodd" d="M4 13a.75.75 0 0 1 .75-.75h2.5a.75.75 0 0 1 0 1.5h-2.5A.75.75 0 0 1 4 13ZM12 13a.75.75 0 0 1 .75-.75h2.5a.75.75 0 0 1 0 1.5h-2.5A.75.75 0 0 1 12 13Z" clip-rule="evenodd"/><path fill="#212121" fill-rule="evenodd" d="M14.051 16.75H5.782l-.47-.001L2.53 19.53a.75.75 0 0 1-1.06-1.06l1.864-1.865c-.48-.105-.915-.297-1.279-.66-.455-.456-.64-1.023-.725-1.65-.08-.595-.08-1.345-.08-2.243V8.966c0-1.371 0-2.447.07-3.311.073-.88.221-1.607.557-2.265A5.75 5.75 0 0 1 4.39.877C5.048.54 5.775.393 6.655.32 7.519.25 8.595.25 9.966.25h.068c1.371 0 2.447 0 3.311.07.88.073 1.607.221 2.265.557a5.75 5.75 0 0 1 2.513 2.513c.336.658.485 1.385.556 2.265.071.864.071 1.94.071 3.311v3.086c0 .899 0 1.648-.08 2.242-.084.628-.27 1.195-.726 1.65-.363.364-.798.556-1.278.661l1.864 1.865a.75.75 0 1 1-1.06 1.06l-2.782-2.781-.637.001Zm3.199-7.5V9c0-1.413 0-2.427-.066-3.223A7.682 7.682 0 0 0 17.086 5H10.75v4.25h6.5Zm-8 0V5H2.914a7.664 7.664 0 0 0-.098.777C2.75 6.573 2.75 7.587 2.75 9v.25h6.5ZM3.563 3.5h12.874a4.25 4.25 0 0 0-1.508-1.287c-.411-.21-.919-.333-1.706-.397-.796-.065-1.81-.066-3.223-.066-1.412 0-2.427 0-3.223.066-.787.064-1.295.188-1.706.397A4.25 4.25 0 0 0 3.563 3.5Zm13.687 7.25H2.75V12c0 .964.002 1.612.067 2.095.062.461.169.659.3.789.13.13.327.237.789.3.483.064 1.13.066 2.095.066H14c.964 0 1.612-.002 2.095-.066.462-.063.66-.17.79-.3.13-.13.237-.328.3-.79.064-.482.066-1.13.066-2.094v-1.25Z" clip-rule="evenodd"/></svg>