<svg xmlns="http://www.w3.org/2000/svg" width="20" height="20" fill="none" viewBox="0 0 20 20"><path fill="#E5E5E8" stroke="#212121" stroke-width="1.5" d="M.75 9.5c0-1.175 0-2.019.046-2.685.045-.659.131-1.089.278-1.441a4.25 4.25 0 0 1 2.3-2.3c.352-.147.782-.233 1.441-.278.666-.046 1.51-.046 2.685-.046s2.019 0 2.685.046c.659.045 1.089.131 1.441.278a4.25 4.25 0 0 1 2.3 2.3c.147.352.233.782.278 1.441.046.666.046 1.51.046 2.685v1c0 1.175 0 2.019-.046 2.685-.045.659-.131 1.089-.277 1.441a4.25 4.25 0 0 1-2.3 2.3c-.353.147-.783.233-1.442.278-.666.046-1.51.046-2.685.046s-2.019 0-2.685-.046c-.659-.045-1.089-.131-1.441-.277a4.25 4.25 0 0 1-2.3-2.3c-.147-.353-.233-.783-.278-1.442C.75 12.519.75 11.675.75 10.5v-1Z"/><path fill="#E5E5E8" stroke="#212121" stroke-width="1.5" d="M14.25 8.816c0-.73.009-.926.063-1.09a1.25 1.25 0 0 1 .231-.414c.111-.132.273-.242.896-.625.844-.52 1.43-.88 1.892-1.106.465-.229.684-.258.807-.244.334.037.64.208.846.472.076.098.166.3.215.816.05.512.05 1.2.05 2.191v2.368c0 .99 0 1.68-.05 2.19-.049.517-.139.718-.215.816a1.25 1.25 0 0 1-.846.473c-.123.014-.342-.015-.807-.244-.462-.226-1.049-.587-1.892-1.106l-.393.639.393-.639c-.623-.383-.784-.493-.896-.625a1.25 1.25 0 0 1-.231-.414c-.054-.164-.063-.36-.063-1.09V8.816Z"/></svg>