<svg xmlns="http://www.w3.org/2000/svg" width="20" height="20" fill="none" viewBox="0 0 20 20"><path fill="#E5E5E8" stroke="#212121" stroke-width="1.5" d="m9.305 14.483-.222-.233h-.321c-.834 0-1.416 0-1.869-.037-.444-.035-.7-.102-.894-.198A2.25 2.25 0 0 1 4.985 13l-.667.332.667-.332c-.096-.194-.163-.45-.198-.894-.036-.453-.037-1.035-.037-1.869v-.476c0-.834 0-1.416.037-1.869.035-.444.102-.7.198-.894l-.662-.33.662.33A2.25 2.25 0 0 1 6 5.985c.194-.096.45-.163.894-.198.453-.036 1.035-.037 1.869-.037h.321l.222-.233 3.149-3.306c.28-.294.669-.461 1.076-.461.73 0 1.316.524 1.385 1.21.156 1.537.335 3.97.335 7.04s-.179 5.502-.335 7.04c-.07.686-.654 1.21-1.385 1.21-.407 0-.796-.167-1.076-.461l-3.149-3.306Z"/></svg>