<svg xmlns="http://www.w3.org/2000/svg" width="20" height="20" fill="none" viewBox="0 0 20 20"><path fill="#E5E5E8" stroke="#212121" stroke-width="1.5" d="m5.305 14.483-.222-.233h-.321c-.834 0-1.416 0-1.869-.037-.444-.035-.7-.102-.894-.198A2.25 2.25 0 0 1 .985 13l-.667.332L.985 13c-.096-.194-.163-.45-.198-.894C.75 11.654.75 11.072.75 10.238v-.476c0-.834 0-1.416.037-1.869.035-.444.102-.7.198-.894l-.662-.33.662.33A2.25 2.25 0 0 1 2 5.985c.194-.096.45-.163.894-.198.453-.036 1.035-.037 1.869-.037h.321l.222-.233 3.149-3.306c.28-.294.669-.461 1.076-.461.73 0 1.316.524 1.385 1.21.156 1.537.335 3.97.335 7.04s-.179 5.502-.335 7.04c-.07.686-.654 1.21-1.385 1.21-.407 0-.796-.167-1.076-.461l-3.149-3.306Z"/><path fill="#212121" d="M17.146 2.52a.75.75 0 0 0-1.152.96C17.38 5.144 18.25 7.443 18.25 10c0 2.557-.87 4.856-2.256 6.52a.75.75 0 0 0 1.152.96c1.62-1.944 2.604-4.586 2.604-7.48s-.984-5.536-2.604-7.48Z"/><path fill="#212121" d="M15.464 5.592a.75.75 0 1 0-1.259.816A6.594 6.594 0 0 1 15.25 10a6.594 6.594 0 0 1-1.045 3.592.75.75 0 0 0 1.26.816A8.093 8.093 0 0 0 16.75 10a8.093 8.093 0 0 0-1.286-4.408Z"/></svg>