<svg xmlns="http://www.w3.org/2000/svg" width="20" height="20" fill="none" viewBox="0 0 20 20"><path fill="#212121" fill-rule="evenodd" d="M3.25.25h13.5v6.83c0 .853 0 1.372-.07 1.82a5.75 5.75 0 0 1-4.78 4.78c-.317.05-.67.064-1.15.068v4.502H14a.75.75 0 0 1 0 1.5H6a.75.75 0 0 1 0-1.5h3.25v-4.502c-.48-.004-.833-.019-1.15-.069A5.75 5.75 0 0 1 3.32 8.9c-.07-.447-.07-.966-.07-1.818V.25Zm1.5 1.5v3.5h10.5v-3.5H4.75Zm10.5 5H4.75V7c0 .958.002 1.35.052 1.665a4.25 4.25 0 0 0 3.533 3.533c.316.05.707.052 1.665.052.958 0 1.35-.002 1.665-.052a4.25 4.25 0 0 0 3.533-3.533c.05-.316.052-.707.052-1.665v-.25Z" clip-rule="evenodd"/><path fill="#E5E5E8" d="M4 6v1c0 .929 0 1.394.062 1.782a5 5 0 0 0 4.156 4.156C8.606 13 9.07 13 10 13s1.393 0 1.782-.062a5 5 0 0 0 4.156-4.156C16 8.394 16 7.93 16 7V6H4Z"/><path fill="#212121" fill-rule="evenodd" d="M3.25 5.25h13.5v1.83c0 .853 0 1.372-.07 1.82a5.75 5.75 0 0 1-4.78 4.78c-.448.07-.967.07-1.82.07h-.16c-.853 0-1.372 0-1.82-.07A5.75 5.75 0 0 1 3.32 8.9c-.07-.448-.07-.967-.07-1.82V5.25Zm1.5 1.5V7c0 .958.002 1.35.052 1.665a4.25 4.25 0 0 0 3.533 3.533c.316.05.707.052 1.665.052.958 0 1.35-.002 1.665-.052a4.25 4.25 0 0 0 3.533-3.533c.05-.316.052-.707.052-1.665v-.25H4.75Z" clip-rule="evenodd"/></svg>