<svg xmlns="http://www.w3.org/2000/svg" width="20" height="20" fill="none" viewBox="0 0 20 20"><path fill="#212121" fill-rule="evenodd" d="M5.25 20V0h1.5v20h-1.5Z" clip-rule="evenodd"/><path fill="#9A9CA3" fill-rule="evenodd" d="M17.5 14V6c0-1.457-.003-2.398-.096-3.092-.088-.65-.23-.854-.343-.969-.114-.114-.318-.255-.97-.343C15.399 1.503 14.458 1.5 13 1.5H6c-.962 0-1.584.001-2.055.044-.45.04-.613.11-.695.157a1.5 1.5 0 0 0-.549.549c-.047.082-.116.245-.157.695C2.501 3.416 2.5 4.038 2.5 5v10c0 .962.001 1.584.044 2.055.04.45.11.613.157.695a1.5 1.5 0 0 0 .549.549c.082.047.245.116.695.157.471.043 1.093.044 2.055.044h7c1.457 0 2.398-.003 3.092-.096.65-.088.855-.23.969-.343.114-.114.255-.318.343-.97.093-.693.096-1.634.096-3.091ZM1.402 1.5C1 2.196 1 3.13 1 5v10c0 1.87 0 2.804.402 3.5A3 3 0 0 0 2.5 19.598C3.196 20 4.13 20 6 20h7c2.828 0 4.243 0 5.121-.879C19 18.243 19 16.828 19 14V6c0-2.828 0-4.243-.879-5.121C17.243 0 15.828 0 13 0H6C4.13 0 3.196 0 2.5.402A3 3 0 0 0 1.402 1.5Z" clip-rule="evenodd"/><path fill="#212121" d="M9.25 5a.75.75 0 0 1 .75-.75h4a.75.75 0 0 1 0 1.5h-4A.75.75 0 0 1 9.25 5Z"/></svg>