<svg xmlns="http://www.w3.org/2000/svg" width="20" height="20" fill="none" viewBox="0 0 20 20"><path fill="#9A9CA3" fill-rule="evenodd" d="M7.466 1.5h5.068c1.139 0 2.04 0 2.766.062.743.063 1.37.195 1.94.499a4.75 4.75 0 0 1 1.95 1.95c.303.569.435 1.196.498 1.939.062.725.062 1.627.062 2.766v.068c0 1.139 0 2.04-.062 2.766-.063.743-.195 1.37-.499 1.94a4.749 4.749 0 0 1-1.95 1.95.75.75 0 1 1-.707-1.324 3.25 3.25 0 0 0 1.334-1.334c.168-.315.273-.713.328-1.359.055-.655.056-1.493.056-2.673s0-2.018-.056-2.673c-.055-.646-.16-1.044-.328-1.359a3.25 3.25 0 0 0-1.334-1.334c-.315-.168-.713-.273-1.359-.328C14.518 3.001 13.68 3 12.5 3h-5c-1.18 0-2.018 0-2.673.056-.646.055-1.044.16-1.359.328a3.25 3.25 0 0 0-1.334 1.334c-.168.315-.273.713-.328 1.359-.055.655-.056 1.493-.056 2.673s0 2.018.056 2.673c.055.646.16 1.044.328 1.359a3.25 3.25 0 0 0 1.334 1.334.75.75 0 0 1-.707 1.323 4.75 4.75 0 0 1-1.95-1.95c-.304-.569-.436-1.196-.5-1.939C.25 10.825.25 9.923.25 8.784v-.068c0-1.139 0-2.04.062-2.766.063-.743.195-1.37.499-1.94a4.75 4.75 0 0 1 1.95-1.95c.569-.303 1.196-.435 1.939-.498C5.425 1.5 6.327 1.5 7.466 1.5Z" clip-rule="evenodd"/><path fill="#212121" d="M8.314 13.186c.584-.584.876-.876 1.211-.988a1.5 1.5 0 0 1 .95 0c.335.112.627.404 1.211.988l1.242 1.242c1.264 1.264 1.896 1.895 1.945 2.436a1.5 1.5 0 0 1-.534 1.288c-.417.348-1.31.348-3.097.348H8.758c-1.787 0-2.68 0-3.097-.348a1.5 1.5 0 0 1-.534-1.288c.05-.54.681-1.172 1.944-2.436l1.243-1.242Z"/></svg>