<svg xmlns="http://www.w3.org/2000/svg" width="20" height="20" fill="none" viewBox="0 0 20 20"><path fill="#9A9CA3" d="M11.72 12.78a.75.75 0 1 1 1.06-1.06l4.44 4.44v-3.19a.75.75 0 0 1 1.5 0v3.045c0 .433 0 .83-.043 1.152-.048.356-.16.732-.47 1.04-.308.31-.684.422-1.04.47-.322.043-.72.043-1.152.043H12.97a.75.75 0 0 1 0-1.5h3.19l-4.44-4.44ZM8.28 7.22a.75.75 0 0 1-1.06 1.06L2.78 3.84v3.19a.75.75 0 0 1-1.5 0V3.985c0-.433 0-.83.043-1.152.048-.356.16-.731.47-1.04.309-.31.684-.422 1.04-.47.323-.043.72-.043 1.152-.043H7.03a.75.75 0 1 1 0 1.5H3.841l4.44 4.44Z"/><path fill="#212121" d="M8.28 12.78a.75.75 0 1 0-1.06-1.06l-4.44 4.44v-3.19a.75.75 0 0 0-1.5 0v3.045c0 .433 0 .83.043 1.152.048.356.16.732.47 1.04.309.31.684.422 1.04.47.323.043.72.043 1.152.043H7.03a.75.75 0 0 0 0-1.5H3.841l4.44-4.44Zm3.44-5.56a.75.75 0 0 0 1.06 1.06l4.44-4.44v3.19a.75.75 0 0 0 1.5 0V3.985c0-.433 0-.83-.043-1.152-.048-.356-.16-.731-.47-1.04-.308-.31-.684-.422-1.04-.47-.322-.043-.72-.043-1.152-.043H12.97a.75.75 0 0 0 0 1.5h3.19l-4.44 4.44Z"/></svg>