<svg xmlns="http://www.w3.org/2000/svg" width="20" height="20" fill="none" viewBox="0 0 20 20"><path fill="#9A9CA3" fill-rule="evenodd" d="M16.615 12.5H18a.5.5 0 0 0 .5-.5V8a.5.5 0 0 0-.5-.5h-1.385l-.31-1.091c-.073-.261-.158-.383-.244-.47-.114-.114-.318-.255-.97-.343C14.399 5.503 13.458 5.5 12 5.5H6c-1.457 0-2.398.003-3.092.096-.65.088-.854.23-.969.343-.114.115-.255.318-.343.97C1.503 7.601 1.5 8.542 1.5 10c0 1.457.003 2.398.096 3.092.088.65.23.854.343.969.115.114.318.255.97.342.693.094 1.634.097 3.091.097h6c1.457 0 2.398-.003 3.092-.097.65-.087.854-.228.969-.342.086-.087.17-.209.244-.47l.31-1.091ZM.879 15.121C0 14.243 0 12.828 0 10c0-2.828 0-4.243.879-5.121C1.757 4 3.172 4 6 4h6c2.828 0 4.243 0 5.121.879.3.3.498.662.628 1.121H18a2 2 0 0 1 2 2v4a2 2 0 0 1-2 2h-.251c-.13.46-.328.822-.628 1.121C16.243 16 14.828 16 12 16H6c-2.828 0-4.243 0-5.121-.879Z" clip-rule="evenodd"/><path fill="#212121" fill-rule="evenodd" d="M4.75 7a.75.75 0 0 1 .75.75v4.5a.75.75 0 0 1-1.5 0v-4.5A.75.75 0 0 1 4.75 7Zm3 0a.75.75 0 0 1 .75.75v4.5a.75.75 0 0 1-1.5 0v-4.5A.75.75 0 0 1 7.75 7Zm3 0a.75.75 0 0 1 .75.75v4.5a.75.75 0 0 1-1.5 0v-4.5a.75.75 0 0 1 .75-.75Z" clip-rule="evenodd"/></svg>