<svg xmlns="http://www.w3.org/2000/svg" width="20" height="20" fill="none" viewBox="0 0 20 20"><path fill="#212121" d="M12 17.5H8c-.468 0-.702 0-.85.227-.148.227-.072.398.079.74C7.539 19.17 8.272 20 10 20s2.46-.83 2.771-1.533c.151-.342.227-.513.079-.74-.148-.227-.382-.227-.85-.227Z"/><path fill="#9A9CA3" fill-rule="evenodd" d="M10 1.75c-3.033 0-5.472 2.418-5.472 5.375v.035c0 .161 0 .276-.004.348l-.004.077c-.01.225-.023.475-.104.706-.08.23-.227.432-.36.615l-.045.062c-.042.06-.24.306-.58.732l-.084.104A2.7 2.7 0 0 0 2.75 11.5c0 1.508 1.245 2.75 2.806 2.75h8.888c1.561 0 2.806-1.242 2.806-2.75h1.5c0 2.358-1.939 4.25-4.306 4.25H5.556c-2.367 0-4.306-1.892-4.306-4.25a4.2 4.2 0 0 1 .926-2.634l.46-.575a34.251 34.251 0 0 0 .155-.195l.002-.003.024-.033A6.536 6.536 0 0 0 3 7.793a6.543 6.543 0 0 0 .027-.668C3.028 3.317 6.162.25 10 .25v1.5Z" clip-rule="evenodd"/><path fill="#212121" fill-rule="evenodd" d="M20 5.5a5 5 0 1 1-10 0 5 5 0 0 1 10 0Zm-2.977 2.856a3.5 3.5 0 0 1-4.88-4.88l4.88 4.88Zm1.011-1.11-4.78-4.78a3.5 3.5 0 0 1 4.78 4.78Z" clip-rule="evenodd"/></svg>