<svg xmlns="http://www.w3.org/2000/svg" width="20" height="20" fill="none" viewBox="0 0 20 20"><path fill="#212121" fill-rule="evenodd" d="M12.75 0a.75.75 0 0 1 .75.75v1.5a.75.75 0 0 1-1.5 0V.75a.75.75 0 0 1 .75-.75Z" clip-rule="evenodd"/><path fill="#9A9CA3" fill-rule="evenodd" d="M10.027 2.25h-.054c-.91 0-1.63 0-2.213.04-.596.04-1.104.125-1.578.322a4.75 4.75 0 0 0-2.57 2.57c-.197.474-.282.982-.322 1.578-.036.528-.04 1.168-.04 1.959-.49.28-.897.634-1.14 1.165-.275.598-.245 1.207-.094 1.837.143.597.42 1.314.754 2.175l1.308 3.375 1.4-.542-1.29-3.326c-.358-.923-.597-1.544-.713-2.03-.111-.466-.08-.693-.002-.863.078-.17.23-.342.655-.561.445-.23 1.072-.453 2.005-.784l2.782-.985c.71-.251.9-.308 1.085-.308.185 0 .375.057 1.085.308l2.782.985c.933.33 1.56.555 2.005.784.425.219.577.39.655.56.078.171.11.398-.002.863-.116.487-.355 1.108-.713 2.031l-1.29 3.326 1.4.542 1.308-3.375c.333-.86.611-1.578.754-2.175.15-.63.18-1.239-.094-1.837-.243-.53-.65-.885-1.14-1.165 0-.79-.004-1.43-.04-1.959-.04-.596-.125-1.104-.322-1.578a4.75 4.75 0 0 0-2.57-2.57c-.474-.197-.982-.282-1.578-.322-.584-.04-1.304-.04-2.213-.04Zm5.221 5.816a20.24 20.24 0 0 0-.034-1.204c-.036-.52-.103-.845-.211-1.106a3.25 3.25 0 0 0-1.76-1.759c-.26-.108-.586-.175-1.105-.21C11.61 3.75 10.942 3.75 10 3.75s-1.611 0-2.138.036c-.52.036-.845.103-1.106.211a3.25 3.25 0 0 0-1.759 1.76c-.108.26-.175.586-.21 1.105-.023.334-.032.724-.035 1.204.26-.095.537-.193.83-.297l2.93-1.037c.565-.201 1.013-.36 1.488-.36.475 0 .923.159 1.489.36l2.928 1.037c.294.104.572.202.831.297Z" clip-rule="evenodd"/><path fill="#212121" fill-rule="evenodd" d="m4 15.599 3 2 3-2 3 2 3-2 3.416 2.277a.75.75 0 1 1-.832 1.248L16 17.401l-3 2-3-2-3 2-3-2-2.584 1.723a.75.75 0 0 1-.832-1.248L4 15.599Z" clip-rule="evenodd"/><path fill="#212121" d="M9 14a1 1 0 1 1-2 0 1 1 0 0 1 2 0Z"/></svg>