<svg xmlns="http://www.w3.org/2000/svg" width="20" height="20" fill="none" viewBox="0 0 20 20"><path stroke="#9A9CA3" stroke-width="1.5" d="M13.013 4.5h.732c1.054 0 1.859.006 2.495.077.687.078 1.182.233 1.586.543a3 3 0 0 1 .554.554l.595-.457-.595.457c.31.404.465.899.543 1.586.044.393.063.858.071 1.415L19 10.246V12.555c0 1.387-.002 2.431-.11 3.237-.11.817-.33 1.39-.769 1.83-.439.439-1.012.658-1.83.768-.805.108-1.849.11-3.236.11h-6.11c-1.387 0-2.431-.002-3.237-.11-.817-.11-1.39-.33-1.83-.769-.439-.439-.658-1.012-.768-1.83-.108-.805-.11-1.849-.11-3.236v-2.308l.006-1.572c.008-.557.027-1.022.071-1.415.078-.687.233-1.182.543-1.586a3 3 0 0 1 .554-.554c.404-.31.899-.465 1.586-.543.636-.071 1.44-.077 2.495-.077h6.758Zm-3.038-3h.05-.05Z"/><path fill="#212121" fill-rule="evenodd" d="M10.025.75h-.05c-.445 0-.816 0-1.12.02a2.823 2.823 0 0 0-.907.19 2.75 2.75 0 0 0-1.489 1.488c-.12.29-.167.59-.188.907a8.466 8.466 0 0 0-.016.395h7.49a8.434 8.434 0 0 0-.016-.395 2.822 2.822 0 0 0-.188-.907A2.75 2.75 0 0 0 12.052.959c-.29-.12-.59-.167-.907-.188C10.841.75 10.47.75 10.025.75Zm2.208 2.707c.006.087.01.184.012.293h-4.49c.002-.11.006-.206.012-.293.017-.241.046-.358.078-.435.127-.307.37-.55.677-.677.077-.032.194-.061.435-.078.247-.017.567-.017 1.043-.017s.796 0 1.043.017c.241.017.358.046.435.078.307.127.55.37.677.677.032.077.061.194.078.435ZM2.31 8.705a.75.75 0 0 1 .985-.394l1.486.636a13.25 13.25 0 0 0 10.438 0l1.486-.636a.75.75 0 1 1 .59 1.379l-1.485.636a14.75 14.75 0 0 1-11.62 0L2.705 9.69a.75.75 0 0 1-.394-.985Z" clip-rule="evenodd"/><path fill="#212121" fill-rule="evenodd" d="M10 8a.75.75 0 0 1 .75.75v4a.75.75 0 0 1-1.5 0v-4A.75.75 0 0 1 10 8Z" clip-rule="evenodd"/></svg>