<svg xmlns="http://www.w3.org/2000/svg" width="20" height="20" fill="none" viewBox="0 0 20 20"><path fill="#212121" fill-rule="evenodd" d="M4 16.25a.75.75 0 0 1 .75.75v2a.75.75 0 0 1-1.5 0v-2a.75.75 0 0 1 .75-.75Zm12 0a.75.75 0 0 1 .75.75v2a.75.75 0 0 1-1.5 0v-2a.75.75 0 0 1 .75-.75ZM4 14a.75.75 0 0 1 .75-.75h2.5a.75.75 0 0 1 0 1.5h-2.5A.75.75 0 0 1 4 14Zm8 0a.75.75 0 0 1 .75-.75h2.5a.75.75 0 0 1 0 1.5h-2.5A.75.75 0 0 1 12 14Z" clip-rule="evenodd"/><path fill="#212121" d="M0 8a1 1 0 0 1 1-1h1v4H1a1 1 0 0 1-1-1V8Zm20 2a1 1 0 0 1-1 1h-1V7h1a1 1 0 0 1 1 1v2Z"/><path fill="#9A9CA3" fill-rule="evenodd" d="M14.05 17.75c.9 0 1.65 0 2.244-.08.628-.084 1.195-.27 1.65-.726.456-.455.642-1.022.726-1.65.08-.594.08-1.344.08-2.242V8.966c0-1.371 0-2.447-.07-3.311-.072-.88-.221-1.607-.557-2.265A5.75 5.75 0 0 0 15.61.877C14.952.54 14.225.393 13.345.32c-.864-.07-1.94-.07-3.311-.07h-.068c-1.371 0-2.447 0-3.311.07-.88.073-1.607.221-2.265.557A5.75 5.75 0 0 0 1.877 3.39c-.336.658-.484 1.385-.556 2.265-.071.864-.071 1.94-.071 3.311v4.086c0 .899 0 1.648.08 2.242.084.628.27 1.195.725 1.65.427.428.952.617 1.534.709l.117.017c.558.075 1.251.08 2.076.08h8.269ZM17.25 9v1.25H2.75V9c0-1.413 0-2.427.066-3.223.024-.295.056-.55.098-.777h14.172c.042.226.074.482.098.777.065.796.066 1.81.066 3.223Zm-.813-5.5H3.563a4.25 4.25 0 0 1 1.508-1.287c.411-.21.919-.333 1.706-.397.796-.065 1.81-.066 3.223-.066 1.412 0 2.427 0 3.223.066.787.064 1.295.188 1.707.397A4.25 4.25 0 0 1 16.437 3.5ZM2.75 11.75h14.5V13c0 .964-.002 1.612-.067 2.095-.062.461-.169.659-.3.789-.13.13-.327.237-.789.3-.483.064-1.13.066-2.095.066H6c-.964 0-1.612-.002-2.095-.067-.462-.062-.66-.169-.79-.3-.13-.13-.237-.327-.3-.788-.064-.483-.066-1.131-.066-2.095v-1.25Z" clip-rule="evenodd"/></svg>