<svg xmlns="http://www.w3.org/2000/svg" width="20" height="20" fill="none" viewBox="0 0 20 20"><path fill="#212121" fill-rule="evenodd" d="M10 7a.75.75 0 0 1 .75.75v4.39l1.72-1.72a.75.75 0 1 1 1.06 1.06l-3 3a.75.75 0 0 1-1.06 0l-3-3a.75.75 0 1 1 1.06-1.06l1.72 1.72V7.75A.75.75 0 0 1 10 7Z" clip-rule="evenodd"/><path fill="#9A9CA3" fill-rule="evenodd" d="M12 2H9c-.552 0-1.049 0-1.5.004V.75a.75.75 0 0 0-1.5 0v1.29c-.982.05-1.684.163-2.296.417A6 6 0 0 0 .457 5.704C0 6.807 0 8.204 0 11c0 2.796 0 4.194.457 5.296a6 6 0 0 0 3.247 3.247C4.807 20 6.204 20 9 20h2c2.796 0 4.194 0 5.296-.457a6 6 0 0 0 3.247-3.247C20 15.194 20 13.796 20 11c0-2.796 0-4.193-.457-5.296a6 6 0 0 0-3.247-3.247c-.71-.295-1.544-.4-2.796-.437V.75a.75.75 0 0 0-1.5 0V2ZM9 18.4h2c1.42 0 2.404 0 3.174-.053.755-.052 1.186-.148 1.51-.282a4.4 4.4 0 0 0 2.381-2.381c.134-.324.23-.755.282-1.51.052-.77.053-1.754.053-3.174s0-2.404-.053-3.174c-.052-.755-.148-1.186-.282-1.51a4.4 4.4 0 0 0-2.381-2.381c-.324-.134-.755-.23-1.51-.282C13.404 3.601 12.42 3.6 11 3.6H9c-1.42 0-2.404 0-3.174.053-.755.052-1.186.148-1.51.282a4.4 4.4 0 0 0-2.381 2.381c-.134.324-.23.755-.282 1.51C1.601 8.596 1.6 9.58 1.6 11s0 2.404.053 3.174c.052.755.148 1.186.282 1.51a4.4 4.4 0 0 0 2.381 2.381c.324.134.755.23 1.51.282.77.052 1.754.053 3.174.053Z" clip-rule="evenodd"/></svg>