<svg xmlns="http://www.w3.org/2000/svg" width="20" height="20" fill="none" viewBox="0 0 20 20"><path fill="#212121" fill-rule="evenodd" d="M6.75 0a.75.75 0 0 1 .75.75v1.5a.75.75 0 0 1-1.5 0V.75A.75.75 0 0 1 6.75 0Zm6 0a.75.75 0 0 1 .75.75v1.5a.75.75 0 0 1-1.5 0V.75a.75.75 0 0 1 .75-.75Z" clip-rule="evenodd"/><path fill="#9A9CA3" fill-rule="evenodd" d="M9 18.5h2c1.418 0 2.407 0 3.18-.054.761-.052 1.204-.149 1.542-.289a4.5 4.5 0 0 0 2.435-2.435c.14-.338.238-.78.29-1.541.052-.774.053-1.763.053-3.181 0-1.418 0-2.407-.054-3.18-.052-.761-.149-1.204-.289-1.542a4.5 4.5 0 0 0-2.435-2.435c-.338-.14-.78-.238-1.541-.29C13.407 3.502 12.418 3.5 11 3.5H9c-1.418 0-2.407 0-3.18.054-.761.051-1.204.149-1.542.289a4.5 4.5 0 0 0-2.435 2.435c-.14.338-.238.78-.29 1.541C1.502 8.593 1.5 9.582 1.5 11c0 1.418 0 2.407.054 3.18.051.761.149 1.204.289 1.542a4.5 4.5 0 0 0 2.435 2.435c.338.14.78.238 1.541.29.774.052 1.763.053 3.181.053Zm7.296-16.043C15.194 2 13.796 2 11 2H9c-2.796 0-4.193 0-5.296.457A6 6 0 0 0 .457 5.704C0 6.807 0 8.204 0 11c0 2.796 0 4.194.457 5.296a6 6 0 0 0 3.247 3.247C4.807 20 6.204 20 9 20h2c2.796 0 4.194 0 5.296-.457a6 6 0 0 0 3.247-3.247C20 15.194 20 13.796 20 11c0-2.796 0-4.193-.457-5.296a6 6 0 0 0-3.247-3.247Z" clip-rule="evenodd"/><path fill="#212121" fill-rule="evenodd" d="M3 8.25a.75.75 0 0 1 .75-.75h12.5a.75.75 0 0 1 0 1.5H3.75A.75.75 0 0 1 3 8.25Z" clip-rule="evenodd"/></svg>