<svg xmlns="http://www.w3.org/2000/svg" width="20" height="20" fill="none" viewBox="0 0 20 20"><path fill="#9A9CA3" fill-rule="evenodd" d="M3.903 19.622C4.917 20 6.187 20 8.727 20h2.546c2.54 0 3.81 0 4.824-.378a6 6 0 0 0 3.525-3.525C20 15.082 20 13.813 20 11.273c0-2.117 0-4.175-.315-5.02a5 5 0 0 0-2.938-2.938 4.372 4.372 0 0 0-1.043-.233c-.393-.046-.691-.364-.78-.75A3 3 0 0 0 12.669.075C12.338 0 11.94 0 11.143 0H8.857C8.06 0 7.662 0 7.332.075a3 3 0 0 0-2.257 2.257c-.088.386-.386.704-.779.75a4.353 4.353 0 0 0-1.043.233A5 5 0 0 0 .315 6.253C0 7.098 0 9.156 0 11.273c0 2.54 0 3.81.378 4.824a6 6 0 0 0 3.525 3.525ZM8.727 18.4c-1.29 0-2.184 0-2.885-.044-.688-.043-1.082-.123-1.38-.233a4.4 4.4 0 0 1-2.585-2.585c-.11-.298-.19-.692-.233-1.38-.043-.701-.044-1.595-.044-2.885 0-1.069 0-2.074.038-2.916.04-.911.12-1.392.176-1.545a3.4 3.4 0 0 1 1.998-1.998 2.8 2.8 0 0 1 .667-.143c1.193-.137 1.947-1.069 2.156-1.983a1.4 1.4 0 0 1 1.053-1.053c.11-.025.284-.035 1.17-.035h2.285c.884 0 1.059.01 1.168.035a1.4 1.4 0 0 1 1.054 1.053c.208.914.963 1.846 2.155 1.983.314.036.515.086.668.143a3.4 3.4 0 0 1 1.998 1.998c.057.153.136.634.176 1.545.038.842.038 1.847.038 2.916 0 1.29 0 2.184-.044 2.885-.043.688-.123 1.082-.233 1.38a4.4 4.4 0 0 1-2.585 2.585c-.298.11-.692.19-1.38.233-.701.043-1.595.044-2.885.044H8.727Z" clip-rule="evenodd"/><path fill="#212121" fill-rule="evenodd" d="M10 13.5a2.5 2.5 0 1 0 0-5 2.5 2.5 0 0 0 0 5Zm0 1.5a4 4 0 1 0 0-8 4 4 0 0 0 0 8Z" clip-rule="evenodd"/></svg>