<svg xmlns="http://www.w3.org/2000/svg" width="20" height="20" fill="none" viewBox="0 0 20 20"><path fill="#212121" fill-rule="evenodd" d="M3 15.25a.75.75 0 0 1 .75.75v3a.75.75 0 0 1-1.5 0v-3a.75.75 0 0 1 .75-.75ZM17 15.25a.75.75 0 0 1 .75.75v3a.75.75 0 0 1-1.5 0v-3a.75.75 0 0 1 .75-.75Z" clip-rule="evenodd"/><path fill="#9A9CA3" fill-rule="evenodd" d="M9.961.25h.078c1.208 0 2.168 0 2.944.075.797.077 1.469.239 2.077.605.439.264.831.596 1.164.985.46.54.73 1.176.938 1.95.201.753.36 1.7.558 2.892l.165.993H2.115l.165-.993c.199-1.192.357-2.14.558-2.892.207-.774.477-1.41.938-1.95A4.75 4.75 0 0 1 4.94.93C5.548.564 6.22.402 7.017.325 7.793.25 8.753.25 9.961.25Zm-2.8 1.568c-.68.066-1.105.19-1.448.397-.3.18-.569.408-.796.674-.26.305-.453.703-.63 1.364-.14.52-.259 1.162-.4 1.997h12.227c-.142-.835-.262-1.476-.401-1.997-.177-.661-.37-1.06-.63-1.364a3.25 3.25 0 0 0-.796-.674c-.343-.206-.767-.33-1.449-.397-.695-.067-1.583-.068-2.838-.068-1.255 0-2.143 0-2.838.068Z" clip-rule="evenodd"/><path fill="#212121" d="M7 11.5a1.5 1.5 0 1 1-3 0 1.5 1.5 0 0 1 3 0ZM16 11.5a1.5 1.5 0 1 1-3 0 1.5 1.5 0 0 1 3 0Z"/><path fill="#9A9CA3" fill-rule="evenodd" d="M6.973 6.25h6.054c.91 0 1.63 0 2.213.04.596.04 1.104.125 1.578.322a4.75 4.75 0 0 1 2.57 2.57c.197.474.281.982.322 1.578.04.584.04 1.304.04 2.213v.052c0 .445 0 .816-.02 1.12a2.822 2.822 0 0 1-.19.907 2.75 2.75 0 0 1-1.488 1.489c-.29.12-.59.167-.907.188-.304.021-.675.021-1.12.021H3.975c-.445 0-.816 0-1.12-.02a2.822 2.822 0 0 1-.907-.19 2.75 2.75 0 0 1-1.489-1.488c-.12-.29-.167-.59-.188-.907-.021-.304-.021-.675-.021-1.12v-.052c0-.91 0-1.63.04-2.213.04-.596.125-1.104.322-1.578a4.75 4.75 0 0 1 2.57-2.57c.474-.197.982-.282 1.578-.322.584-.04 1.304-.04 2.213-.04Zm-2.11 1.536c-.52.036-.846.103-1.107.211a3.25 3.25 0 0 0-1.759 1.76c-.108.26-.175.586-.21 1.105-.037.527-.037 1.196-.037 2.138 0 .476 0 .796.017 1.043.017.241.046.358.078.435.127.307.37.55.677.677.077.032.194.061.435.078.247.017.567.017 1.043.017h12c.476 0 .796 0 1.043-.017.241-.017.358-.046.435-.078.307-.127.55-.37.677-.677.032-.077.061-.194.078-.435.017-.247.017-.567.017-1.043 0-.942 0-1.611-.036-2.138-.036-.52-.103-.845-.211-1.106a3.25 3.25 0 0 0-1.76-1.759c-.26-.108-.586-.175-1.105-.21C14.61 7.75 13.942 7.75 13 7.75H7c-.942 0-1.611 0-2.138.036Z" clip-rule="evenodd"/></svg>