<svg xmlns="http://www.w3.org/2000/svg" width="20" height="20" fill="none" viewBox="0 0 20 20"><path fill="#E5E5E8" fill-rule="evenodd" d="M2.978 2.762a4.43 4.43 0 0 0-.506-.012H1a.75.75 0 1 1 0-1.5h1.522c.266 0 .473 0 .663.026a2.75 2.75 0 0 1 2.287 2.057l10.88 1.536.101.014c.535.075.949.133 1.29.28a2.75 2.75 0 0 1 1.65 2.294c.032.371-.044.781-.143 1.313l-.019.1-.017.094c-.125.678-.211 1.143-.386 1.541a3.75 3.75 0 0 1-2.58 2.146c-.423.1-.896.1-1.586.099H7.058c.039.206.076.379.117.529.084.311.165.454.25.549.08.09.171.168.273.232.108.067.262.124.583.156.335.033.772.034 1.427.034h7.625a.75.75 0 0 1 0 1.5H9.671c-.609 0-1.12 0-1.539-.042-.441-.044-.85-.14-1.23-.376a2.748 2.748 0 0 1-.601-.51c-.296-.335-.458-.723-.574-1.15-.11-.407-.194-.912-.294-1.513l-1.34-8.036c-.055-.334-.072-.426-.094-.496a1.25 1.25 0 0 0-1.021-.865Zm3.824 8.488h7.764c.823 0 1.108-.005 1.34-.06a2.25 2.25 0 0 0 1.548-1.287c.096-.218.153-.498.302-1.307.126-.679.155-.87.143-1.013a1.25 1.25 0 0 0-.75-1.042c-.131-.057-.322-.09-1.006-.187L5.74 4.886l1.061 6.364Z" clip-rule="evenodd"/><path fill="#212121" d="M18 18.5a1.5 1.5 0 1 1-3 0 1.5 1.5 0 0 1 3 0Zm-9 0a1.5 1.5 0 1 1-3 0 1.5 1.5 0 0 1 3 0Z"/></svg>