<svg xmlns="http://www.w3.org/2000/svg" width="20" height="20" fill="none" viewBox="0 0 20 20"><path fill="#9A9CA3" fill-rule="evenodd" d="M13 2.5H7c-1.436 0-2.4.002-3.134.077-.71.072-1.038.2-1.255.344a2.5 2.5 0 0 0-.69.69c-.145.217-.272.545-.344 1.255C1.502 5.6 1.5 6.564 1.5 8v3.8a1.7 1.7 0 0 0 1.7 1.7 2.3 2.3 0 0 1 2.3 2.3V17c0 .399 0 .723.006.989.215-.156.475-.35.794-.589L9.5 15c.026-.02.052-.04.078-.058.452-.34.808-.607 1.203-.814a5.503 5.503 0 0 1 1.671-.557c.44-.071.886-.071 1.45-.071H14c.952 0 1.592 0 2.087-.035.481-.032.715-.091.87-.155a2.5 2.5 0 0 0 1.353-1.353c.064-.155.123-.389.155-.87.034-.495.035-1.135.035-2.087V8c0-1.436-.002-2.4-.077-3.134-.072-.71-.2-1.038-.344-1.255a2.5 2.5 0 0 0-.69-.69c-.217-.145-.545-.272-1.255-.344C15.4 2.502 14.436 2.5 13 2.5ZM.674 2.778C0 3.787 0 5.19 0 8v3.8A3.2 3.2 0 0 0 3.2 15a.8.8 0 0 1 .8.8V17c0 1.745 0 2.618.553 2.894.553.277 1.25-.247 2.647-1.294l3.2-2.4c.527-.396.791-.593 1.077-.743.38-.2.791-.337 1.216-.405C13.01 15 13.34 15 14 15c1.864 0 2.796 0 3.53-.305a4 4 0 0 0 2.165-2.164C20 11.796 20 10.864 20 9V8c0-2.809 0-4.213-.674-5.222a4.002 4.002 0 0 0-1.104-1.104C17.213 1 15.81 1 13 1H7c-2.809 0-4.213 0-5.222.674A4 4 0 0 0 .674 2.778Z" clip-rule="evenodd"/><path fill="#212121" fill-rule="evenodd" d="M15.25 7H4.75a.75.75 0 0 1 0-1.5h10.5a.75.75 0 0 1 0 1.5ZM4 10.25a.75.75 0 0 1 .75-.75h6.5a.75.75 0 0 1 0 1.5h-6.5a.75.75 0 0 1-.75-.75Z" clip-rule="evenodd"/></svg>