<svg xmlns="http://www.w3.org/2000/svg" width="20" height="20" fill="none" viewBox="0 0 20 20"><path fill="#9A9CA3" d="M16.5 12V9c0-1.928-.003-3.223-.133-4.19-.124-.922-.339-1.317-.6-1.578-.26-.26-.655-.475-1.578-.599-.348-.047-.74-.077-1.189-.097V1.035c1.872.078 3.02.328 3.828 1.137C18 3.343 18 5.229 18 9v3c0 3.771 0 5.657-1.172 6.828C15.657 20 13.771 20 10 20c-3.771 0-5.657 0-6.828-1.172C2 17.657 2 15.771 2 12V9c0-3.771 0-5.657 1.172-6.828C3.98 1.363 5.128 1.112 7 1.035v1.501c-.449.02-.84.05-1.19.097-.922.124-1.317.339-1.578.6-.26.26-.475.655-.599 1.578C3.503 5.777 3.5 7.07 3.5 9v3c0 1.928.003 3.223.133 4.19.124.922.339 1.317.6 1.578.26.26.655.475 1.578.599.966.13 2.261.133 4.189.133s3.223-.003 4.19-.133c.922-.124 1.317-.339 1.578-.6.26-.26.475-.655.599-1.578.13-.966.133-2.261.133-4.19Z"/><path fill="#212121" fill-rule="evenodd" d="M12 1.5H8a.5.5 0 0 0 0 1h4a.5.5 0 0 0 0-1ZM8 0a2 2 0 1 0 0 4h4a2 2 0 1 0 0-4H8Z" clip-rule="evenodd"/></svg>