<svg xmlns="http://www.w3.org/2000/svg" width="20" height="20" fill="none" viewBox="0 0 20 20"><path fill="#9A9CA3" fill-rule="evenodd" d="m5.525 11.323-1.911.308A2.4 2.4 0 0 0 4 16.4h10a4.4 4.4 0 0 0 .495-8.773l-1.005-.112-.33-.955a4.402 4.402 0 1 0-8.297 2.944l.662 1.82Zm9.147-5.286A6 6 0 1 0 3.36 10.051 3.998 3.998 0 0 0 0 14a4 4 0 0 0 4 4h10a6 6 0 0 0 .672-11.963Z" clip-rule="evenodd"/><path fill="#212121" fill-rule="evenodd" d="M9.47 6.47a.75.75 0 0 1 1.06 0l3 3a.75.75 0 1 1-1.06 1.06l-1.72-1.72v5.39a.75.75 0 0 1-1.5 0V8.81l-1.72 1.72a.75.75 0 1 1-1.06-1.06l3-3Z" clip-rule="evenodd"/></svg>