<svg xmlns="http://www.w3.org/2000/svg" width="20" height="20" fill="none" viewBox="0 0 20 20"><path fill="#212121" fill-rule="evenodd" d="M17.067 9.788c-.367-.037-.85-.038-1.567-.038H15a.75.75 0 0 1 0-1.5h.538c.67 0 1.229 0 1.681.046.473.048.913.153 1.309.417.3.201.558.459.759.76.264.395.369.834.417 1.308.046.452.046 1.011.046 1.68v.077c0 .67 0 1.229-.046 1.681-.048.474-.153.913-.418 1.309-.2.3-.458.558-.758.758-.396.265-.835.37-1.309.418-.452.046-1.011.046-1.68.046H15a.75.75 0 0 1 0-1.5h.5c.718 0 1.2 0 1.567-.038.355-.036.519-.1.628-.173a1.25 1.25 0 0 0 .344-.345c.073-.108.137-.272.173-.627.037-.367.038-.85.038-1.567 0-.718 0-1.2-.038-1.567-.036-.355-.1-.519-.173-.627a1.251 1.251 0 0 0-.345-.345c-.108-.073-.272-.137-.627-.173Z" clip-rule="evenodd"/><path stroke="#9A9CA3" stroke-linecap="round" stroke-width="1.5" d="M15 12v.162c0 1.755-.008 2.655-.245 3.383a5 5 0 0 1-3.21 3.21c-.728.237-1.628.245-3.383.245h-.324c-1.755 0-2.655-.008-3.383-.245a5 5 0 0 1-3.21-3.21C1.008 14.817 1 13.917 1 12.162V7h14v5Z"/><path fill="#212121" fill-rule="evenodd" d="M3.75 0a.75.75 0 0 1 .75.75v3a.75.75 0 0 1-1.5 0v-3A.75.75 0 0 1 3.75 0Zm4 0a.75.75 0 0 1 .75.75v3a.75.75 0 0 1-1.5 0v-3A.75.75 0 0 1 7.75 0Zm4 0a.75.75 0 0 1 .75.75v3a.75.75 0 0 1-1.5 0v-3a.75.75 0 0 1 .75-.75Z" clip-rule="evenodd"/></svg>