<svg xmlns="http://www.w3.org/2000/svg" width="20" height="20" fill="none" viewBox="0 0 20 20"><path fill="#9A9CA3" fill-rule="evenodd" d="M1.25 5c0-.731.342-1.369.84-1.884.493-.51 1.172-.937 1.953-1.278C5.606 1.154 7.713.75 10 .75c2.288 0 4.394.404 5.957 1.088.78.341 1.46.767 1.953 1.278.498.515.84 1.153.84 1.884v10c0 .731-.342 1.37-.84 1.884-.494.51-1.172.937-1.953 1.278-1.563.684-3.67 1.088-5.957 1.088-2.288 0-4.394-.404-5.957-1.088-.78-.341-1.46-.767-1.954-1.278-.497-.515-.839-1.153-.839-1.884V5Zm1.5 0c0-.235.106-.518.418-.841.316-.327.808-.655 1.476-.947C5.976 2.63 7.869 2.25 10 2.25c2.13 0 4.024.38 5.356.962.667.292 1.16.62 1.476.947.312.323.418.606.418.841s-.106.518-.418.841c-.316.327-.809.655-1.476.947-1.332.583-3.225.962-5.356.962-2.13 0-4.024-.38-5.356-.962-.668-.292-1.16-.62-1.476-.947-.312-.323-.418-.606-.418-.841Zm0 5V7.445c.38.27.818.51 1.293.717C5.606 8.846 7.713 9.25 10 9.25c2.288 0 4.394-.404 5.957-1.088a7.272 7.272 0 0 0 1.293-.717V10c0 .235-.106.518-.418.841-.316.327-.809.655-1.476.947-1.332.583-3.225.962-5.356.962-2.13 0-4.024-.38-5.356-.962-.668-.292-1.16-.62-1.476-.947-.312-.323-.418-.606-.418-.841Zm0 2.445V15c0 .235.106.518.418.841.316.327.808.655 1.476.947 1.332.583 3.225.962 5.356.962 2.13 0 4.024-.38 5.356-.962.667-.292 1.16-.62 1.476-.947.312-.323.418-.606.418-.841v-2.555c-.38.27-.818.51-1.293.717-1.563.684-3.67 1.088-5.957 1.088-2.288 0-4.394-.404-5.957-1.088a7.267 7.267 0 0 1-1.293-.717Z" clip-rule="evenodd"/></svg>