<svg xmlns="http://www.w3.org/2000/svg" width="20" height="20" fill="none" viewBox="0 0 20 20"><path fill="#212121" fill-rule="evenodd" d="M19.238 13.711h.002l.002-.001h.001a.087.087 0 0 0-.005.001Zm-5.485 3.981L12.53 16.47a.75.75 0 1 0-1.06 1.06l2 2a.75.75 0 0 0 1.226-.252c.957-2.391 2.138-3.793 3.048-4.589.456-.399.849-.65 1.117-.797a3.634 3.634 0 0 1 .372-.179l.01-.003a.75.75 0 0 0-.48-1.422L19 13c-.237-.712-.238-.711-.238-.711h-.003l-.006.003-.013.005a1.925 1.925 0 0 0-.17.067 5.07 5.07 0 0 0-.431.213 7.907 7.907 0 0 0-1.383.983c-.939.822-2.047 2.121-3.003 4.132Z" clip-rule="evenodd"/><path fill="#9A9CA3" fill-rule="evenodd" d="M17.25 7.445V9h1.5V5c0-.731-.342-1.369-.84-1.884-.494-.51-1.172-.937-1.953-1.278C14.394 1.154 12.287.75 10 .75c-2.288 0-4.394.404-5.957 1.088-.78.341-1.46.767-1.954 1.278C1.592 3.631 1.25 4.27 1.25 5v10c0 1.293 1.039 2.269 2.265 2.91 1.274.666 3.003 1.117 4.923 1.276.172.014.346.026.521.036l.082-1.498a18.31 18.31 0 0 1-.479-.033c-1.782-.148-3.303-.562-4.353-1.11C3.111 16.005 2.75 15.415 2.75 15v-2.556c.24.17.498.326.765.465 1.274.667 3.003 1.118 4.923 1.277l.124-1.495c-1.782-.148-3.303-.562-4.353-1.11C3.111 11.005 2.75 10.415 2.75 10V7.445c.38.27.818.51 1.293.717C5.606 8.846 7.713 9.25 10 9.25c2.288 0 4.394-.404 5.957-1.088a7.272 7.272 0 0 0 1.293-.717ZM3.168 4.159c-.312.323-.418.606-.418.841s.106.518.418.841c.316.327.808.655 1.476.947 1.332.583 3.225.962 5.356.962 2.13 0 4.024-.38 5.356-.962.667-.292 1.16-.62 1.476-.947.312-.323.418-.606.418-.841s-.106-.518-.418-.841c-.316-.327-.809-.655-1.476-.947C14.024 2.63 12.131 2.25 10 2.25c-2.13 0-4.024.38-5.356.962-.668.292-1.16.62-1.476.947Z" clip-rule="evenodd"/></svg>