<svg xmlns="http://www.w3.org/2000/svg" width="20" height="20" fill="none" viewBox="0 0 20 20"><path fill="#9A9CA3" fill-rule="evenodd" d="m8.556 10.028-5.584-3.35v6.7l5.584-3.35Zm1.487.858a1 1 0 0 0 0-1.715L2.986 4.937a1 1 0 0 0-1.514.857v8.468a1 1 0 0 0 1.514.857l7.057-4.233Z" clip-rule="evenodd"/><path fill="#212121" fill-rule="evenodd" d="m16.556 10.028-5.584-3.35v6.7l5.584-3.35Zm1.487.858a1 1 0 0 0 0-1.715l-7.057-4.234a1 1 0 0 0-1.514.857v8.468a1 1 0 0 0 1.514.857l7.057-4.233Z" clip-rule="evenodd"/></svg>