<svg xmlns="http://www.w3.org/2000/svg" width="20" height="20" fill="none" viewBox="0 0 20 20"><path fill="#9A9CA3" fill-rule="evenodd" d="M8.84 1.25h2.32c1.859 0 3.34 0 4.417.155 1.073.155 2.044.502 2.478 1.468.434.966.048 1.923-.55 2.828-.599.909-1.582 2.015-2.817 3.404l-1.117 1.257c-.537.603-.67.77-.74.954-.07.185-.081.397-.081 1.205v1.23c.001.326.002.678-.133 1.005-.136.326-.385.574-.616.804l-.056.056L10.2 17.36c-.33.332-.635.636-.898.834-.25.187-.725.484-1.28.254-.555-.23-.682-.776-.726-1.085-.046-.326-.046-.756-.046-1.225v-3.617c0-.808-.011-1.02-.082-1.205-.07-.185-.202-.35-.739-.954L5.312 9.105C4.077 7.716 3.094 6.61 2.494 5.701c-.597-.905-.983-1.862-.549-2.828.434-.966 1.405-1.313 2.478-1.468C5.501 1.25 6.981 1.25 8.84 1.25ZM4.637 2.89c-.976.14-1.227.383-1.324.598-.096.215-.11.564.433 1.387.533.807 1.443 1.833 2.732 3.284L7.55 9.365l.074.083c.428.48.766.86.946 1.335.181.475.18.984.18 1.627V16.086c0 .238 0 .433.003.595.117-.112.255-.25.424-.418l1.707-1.708c.152-.152.237-.237.296-.306a.594.594 0 0 0 .046-.058l.004-.008.001-.002.003-.01a.616.616 0 0 0 .009-.073c.006-.09.007-.211.007-.426V12.41c0-.643-.001-1.152.18-1.627.18-.475.518-.855.946-1.335l.074-.083 1.072-1.206c1.29-1.45 2.199-2.477 2.732-3.284.543-.823.529-1.172.433-1.387-.097-.215-.348-.458-1.324-.598-.958-.138-2.329-.14-4.27-.14H8.907c-1.941 0-3.312.002-4.27.14Z" clip-rule="evenodd"/></svg>