<svg xmlns="http://www.w3.org/2000/svg" width="20" height="20" fill="none" viewBox="0 0 20 20"><path stroke="#9A9CA3" stroke-linecap="round" stroke-width="1.5" d="M13 8V7c0-1.87 0-2.804-.402-3.5A3 3 0 0 0 11.5 2.402C10.804 2 9.87 2 8 2v0c-1.87 0-2.804 0-3.5.402A3 3 0 0 0 3.402 3.5C3 4.196 3 5.13 3 7v11h10V8Zm0 0v0c.932 0 1.398 0 1.765.152a2 2 0 0 1 1.083 1.083C16 9.602 16 10.068 16 11v2.5a1.5 1.5 0 0 0 1.5 1.5v0a1.5 1.5 0 0 0 1.5-1.5V7.828c0-.408 0-.613-.076-.796-.076-.184-.22-.329-.51-.618L17 5"/><path stroke="#9A9CA3" stroke-linecap="round" stroke-width="1.5" d="M13 8V7c0-1.87 0-2.804-.402-3.5A3 3 0 0 0 11.5 2.402C10.804 2 9.87 2 8 2v0c-1.87 0-2.804 0-3.5.402A3 3 0 0 0 3.402 3.5C3 4.196 3 5.13 3 7v11h10V8Zm0 0v0c.932 0 1.398 0 1.765.152a2 2 0 0 1 1.083 1.083C16 9.602 16 10.068 16 11v2.5a1.5 1.5 0 0 0 1.5 1.5v0a1.5 1.5 0 0 0 1.5-1.5V7.828c0-.408 0-.613-.076-.796-.076-.184-.22-.329-.51-.618L17 5"/><path stroke="#212121" stroke-linecap="round" stroke-width="1.5" d="M1.75 18h12.5"/><rect width="6" height="5" x="5" y="4" fill="#212121" rx="2"/></svg>