<svg xmlns="http://www.w3.org/2000/svg" width="20" height="20" fill="none" viewBox="0 0 20 20"><path fill="#9A9CA3" fill-rule="evenodd" d="M10.125 2.125c-4.642 0-8.25 3.327-8.25 7.25h-1.5c0-4.913 4.45-8.75 9.75-8.75s9.75 3.837 9.75 8.75h-1.5c0-3.923-3.608-7.25-8.25-7.25Z" clip-rule="evenodd"/><path fill="#212121" fill-rule="evenodd" d="M4.875 16.375v-2c0-.962-.001-1.584-.044-2.055-.04-.45-.11-.613-.157-.695a1.5 1.5 0 0 0-.549-.549c-.082-.047-.245-.116-.695-.157-.384-.035-.868-.042-1.555-.044v5.5a1.5 1.5 0 0 0 3 0Zm-3-7c1.542.004 2.369.038 3 .402a3 3 0 0 1 1.098 1.098c.402.696.402 1.63.402 3.5v2a3 3 0 1 1-6 0v-7h1.5Zm13.5 7v-2c0-.962.001-1.584.044-2.055.04-.45.11-.613.157-.695a1.5 1.5 0 0 1 .549-.549c.082-.047.245-.116.695-.157.384-.035.868-.042 1.555-.044v5.5a1.5 1.5 0 0 1-3 0Zm3-7c-1.542.004-2.369.038-3 .402a3 3 0 0 0-1.098 1.098c-.402.696-.402 1.63-.402 3.5v2a3 3 0 1 0 6 0v-7h-1.5Z" clip-rule="evenodd"/></svg>