<svg xmlns="http://www.w3.org/2000/svg" width="20" height="20" fill="none" viewBox="0 0 20 20"><path fill="#9A9CA3" fill-rule="evenodd" d="M6 1.75A4.25 4.25 0 0 0 1.75 6c0 2.058 1.21 4.355 2.834 6.48 1.604 2.098 3.516 3.904 4.721 4.96a1.04 1.04 0 0 0 1.39 0c1.205-1.056 3.117-2.862 4.72-4.96C17.042 10.355 18.25 8.058 18.25 6a4.25 4.25 0 0 0-7.65-2.55l-.6.798-.6-.798A4.242 4.242 0 0 0 6 1.75ZM.25 6A5.75 5.75 0 0 1 10 1.87 5.75 5.75 0 0 1 19.75 6c0 2.575-1.473 5.208-3.143 7.391-1.69 2.21-3.683 4.09-4.924 5.177a2.54 2.54 0 0 1-3.366 0c-1.24-1.087-3.235-2.967-4.924-5.177C1.723 11.208.25 8.575.25 6Z" clip-rule="evenodd"/></svg>