<svg xmlns="http://www.w3.org/2000/svg" width="20" height="20" fill="none" viewBox="0 0 20 20"><path fill="#9A9CA3" fill-rule="evenodd" d="M5.756 18.406c1.025.093 2.347.094 4.244.094 1.897 0 3.22-.001 4.244-.094 1.005-.091 1.576-.26 2.006-.509a4.499 4.499 0 0 0 1.647-1.647c.248-.43.418-1.001.509-2.006.093-1.025.094-2.347.094-4.244 0-1.897-.001-3.22-.094-4.244-.091-1.005-.26-1.576-.509-2.006a4.5 4.5 0 0 0-1.647-1.647c-.43-.248-1.001-.418-2.006-.509C13.22 1.501 11.897 1.5 10 1.5c-1.897 0-3.22.001-4.244.094-1.005.091-1.576.26-2.006.509A4.5 4.5 0 0 0 2.103 3.75c-.248.43-.418 1.001-.509 2.006C1.501 6.78 1.5 8.103 1.5 10c0 1.897.001 3.22.094 4.244.091 1.005.26 1.576.509 2.006a4.5 4.5 0 0 0 1.647 1.647c.43.248 1.001.418 2.006.509ZM.804 3C0 4.392 0 6.262 0 10c0 3.739 0 5.608.804 7A6 6 0 0 0 3 19.196C4.392 20 6.262 20 10 20c3.739 0 5.608 0 7-.804A6.002 6.002 0 0 0 19.196 17C20 15.608 20 13.739 20 10c0-3.738 0-5.608-.804-7A6 6 0 0 0 17 .804C15.608 0 13.739 0 10 0 6.262 0 4.392 0 3 .804A6 6 0 0 0 .804 3Z" clip-rule="evenodd"/><path fill="#212121" fill-rule="evenodd" d="M1.5 10.51c.001 1.628.01 2.804.094 3.734.091 1.005.26 1.576.509 2.006a4.5 4.5 0 0 0 1.647 1.647c.43.248 1.001.418 2.006.509 1.025.093 2.347.094 4.244.094 1.572 0 2.737-.003 3.646-.052C11.826 13.796 7.296 10.5 2 10.5c-.167 0-.334.003-.5.01Zm13.683 7.765C13.245 12.868 8.074 9 2 9c-.679 0-1.347.048-2 .142V10c0 3.739 0 5.608.804 7A6 6 0 0 0 3 19.196C4.392 20 6.262 20 10 20c1.725 0 3.052 0 4.118-.079a10.419 10.419 0 0 0 1.495-.204 13.905 13.905 0 0 0-.43-1.442Z" clip-rule="evenodd"/><path fill="#212121" fill-rule="evenodd" d="M15.182 18.275c.463-.094.794-.22 1.068-.378a4.502 4.502 0 0 0 1.647-1.647c.39-.677.542-1.592.587-3.646-.485-.069-.98-.104-1.484-.104-1.669 0-3.244.388-4.643 1.08a13.995 13.995 0 0 1 2.825 4.695Zm-4.15-3.916a12.478 12.478 0 0 1 3.086 5.562c1.244-.092 2.132-.292 2.882-.725A6 6 0 0 0 19.196 17c.698-1.21.79-2.78.802-5.623A12.02 12.02 0 0 0 17 11a11.946 11.946 0 0 0-7.092 2.319c.396.323.771.67 1.125 1.04ZM13.5 8a1.5 1.5 0 1 0 0-3 1.5 1.5 0 0 0 0 3Zm0 1.5a3 3 0 1 0 0-6 3 3 0 0 0 0 6Z" clip-rule="evenodd"/></svg>