<svg xmlns="http://www.w3.org/2000/svg" width="20" height="20" fill="none" viewBox="0 0 20 20"><path stroke="#9A9CA3" stroke-linecap="round" stroke-width="1.5" d="M11.445 3.356 10.03 1.94m1.415 1.415 2.474 2.475m-2.474-2.475L8.616 6.184m7.778 2.121-6.54 6.54a2 2 0 0 1-1.28.582l-4.554.303m12.374-7.425L17.81 9.72m-1.415-1.415L13.92 5.831m-9.9 9.9.304-4.554a2 2 0 0 1 .582-1.282L6.14 8.66M4.02 15.73l-1.768 1.768M13.92 5.83l2.829-2.829m0 0L14.98 1.234m1.768 1.768 1.768 1.768m-9.9 1.414L6.141 8.66m2.475-2.475 2.121 2.121m-4.596.354 2.122 2.121"/><path stroke="#212121" stroke-linecap="round" stroke-width="1.5" d="m4.02 15.73-1.768 1.768M10.03 1.94l1.415 1.415 2.474 2.475m3.89 3.889-1.415-1.415-2.475-2.474m0 0 2.829-2.829m0 0L14.98 1.234m1.768 1.768 1.768 1.768m-9.9 1.414 2.121 2.121m-4.596.354 2.122 2.121"/></svg>