<svg xmlns="http://www.w3.org/2000/svg" width="20" height="20" fill="none" viewBox="0 0 20 20"><path fill="#9A9CA3" fill-rule="evenodd" d="M13.96 7.475c.356.024.82.025 1.54.025.72 0 1.184 0 1.54-.025.341-.023.472-.063.534-.09a1.5 1.5 0 0 0 .812-.811c.026-.062.066-.193.089-.535.024-.355.025-.82.025-1.539 0-.72 0-1.184-.025-1.54-.023-.341-.063-.472-.09-.534a1.5 1.5 0 0 0-.811-.812c-.062-.026-.193-.066-.535-.089-.355-.024-.82-.025-1.539-.025-.72 0-1.184 0-1.54.025-.341.023-.472.063-.534.09a1.5 1.5 0 0 0-.812.811c-.026.062-.066.193-.089.535-.024.355-.025.82-.025 1.539 0 .72 0 1.184.025 1.54.023.341.063.472.09.534a1.5 1.5 0 0 0 .811.812c.062.026.193.066.535.089Zm-2.732-5.623C11 2.403 11 3.102 11 4.5c0 1.398 0 2.097.228 2.648a3 3 0 0 0 1.624 1.624C13.403 9 14.102 9 15.5 9c1.398 0 2.097 0 2.648-.228a3 3 0 0 0 1.624-1.624C20 6.597 20 5.898 20 4.5c0-1.398 0-2.097-.228-2.648A3 3 0 0 0 18.148.228C17.597 0 16.898 0 15.5 0c-1.398 0-2.097 0-2.648.228a3 3 0 0 0-1.624 1.624ZM2.96 7.475c.356.024.82.025 1.54.025.72 0 1.184 0 1.54-.025.341-.023.472-.063.534-.09a1.5 1.5 0 0 0 .812-.811c.026-.062.066-.193.089-.535.024-.355.025-.82.025-1.539 0-.72 0-1.184-.025-1.54-.023-.341-.063-.472-.09-.534a1.5 1.5 0 0 0-.811-.812c-.062-.026-.193-.066-.535-.089C5.684 1.501 5.22 1.5 4.5 1.5c-.72 0-1.184 0-1.54.025-.341.023-.472.063-.534.09a1.5 1.5 0 0 0-.812.811c-.026.062-.066.193-.089.535-.024.355-.025.82-.025 1.539 0 .72 0 1.184.025 1.54.023.341.063.472.09.534a1.5 1.5 0 0 0 .811.812c.062.026.193.066.535.089ZM.229 1.852C0 2.403 0 3.102 0 4.5c0 1.398 0 2.097.228 2.648a3 3 0 0 0 1.624 1.624C2.403 9 3.102 9 4.5 9c1.398 0 2.097 0 2.648-.228a3 3 0 0 0 1.624-1.624C9 6.597 9 5.898 9 4.5c0-1.398 0-2.097-.228-2.648A3 3 0 0 0 7.148.228C6.597 0 5.898 0 4.5 0 3.102 0 2.403 0 1.852.228A3 3 0 0 0 .228 1.852Z" clip-rule="evenodd"/><path fill="#212121" d="M14.8 19.25a.75.75 0 0 0 1.5 0V16.3h2.95a.75.75 0 1 0 0-1.5H16.3v-3.05a.75.75 0 0 0-1.5 0v3.05h-3.05a.75.75 0 0 0 0 1.5h3.05v2.95Z"/><path fill="#9A9CA3" fill-rule="evenodd" d="M2.96 18.475c.356.024.82.025 1.54.025.72 0 1.184 0 1.54-.025.341-.023.472-.063.534-.09a1.5 1.5 0 0 0 .812-.811c.026-.062.066-.193.089-.535.024-.355.025-.82.025-1.539 0-.72 0-1.184-.025-1.54-.023-.341-.063-.472-.09-.534a1.5 1.5 0 0 0-.811-.812c-.062-.026-.193-.066-.535-.089-.355-.024-.82-.025-1.539-.025-.72 0-1.184 0-1.54.025-.341.023-.472.063-.534.09a1.5 1.5 0 0 0-.812.811c-.026.062-.066.193-.089.535-.024.355-.025.82-.025 1.539 0 .72 0 1.184.025 1.54.023.341.063.472.09.534a1.5 1.5 0 0 0 .811.812c.062.026.193.066.535.089ZM.229 12.852C0 13.403 0 14.102 0 15.5c0 1.398 0 2.097.228 2.648a3 3 0 0 0 1.624 1.624C2.403 20 3.102 20 4.5 20c1.398 0 2.097 0 2.648-.228a3 3 0 0 0 1.624-1.624C9 17.597 9 16.898 9 15.5c0-1.398 0-2.097-.228-2.648a3 3 0 0 0-1.624-1.624C6.597 11 5.898 11 4.5 11c-1.398 0-2.097 0-2.648.228a3 3 0 0 0-1.624 1.624Z" clip-rule="evenodd"/></svg>