<svg xmlns="http://www.w3.org/2000/svg" width="20" height="20" fill="none" viewBox="0 0 20 20"><path fill="#212121" d="M10.75 10.876c0-.357.213-.672.432-.953a1.5 1.5 0 1 0-2.365 0c.22.281.433.596.433.953V14a.75.75 0 0 0 1.5 0v-3.124Z"/><path fill="#9A9CA3" fill-rule="evenodd" d="M14.701 9.494c.463-.673.799-1.33.799-2.494a5.5 5.5 0 1 0-11 0c0 .663.268 1.214.843 2.098.063.098.131.2.202.306.529.8 1.227 1.853 1.62 3.2.087.296.245.545.417.704.163.15.303.192.418.192h4c.107 0 .244-.039.416-.196.181-.168.356-.434.467-.758.376-1.1 1.03-1.981 1.504-2.62.118-.159.226-.303.314-.432Zm.818 1.43C16.263 9.916 17 8.917 17 7A7 7 0 1 0 3 7c0 1.271.622 2.214 1.299 3.241.533.809 1.1 1.67 1.427 2.784C6.036 14.085 6.896 15 8 15h4c1.105 0 1.945-.924 2.302-1.969.292-.853.756-1.482 1.217-2.107Z" clip-rule="evenodd"/><path fill="#212121" fill-rule="evenodd" d="M7.25 19.25A.75.75 0 0 1 8 18.5h4a.75.75 0 0 1 0 1.5H8a.75.75 0 0 1-.75-.75Zm-.5-2.5A.75.75 0 0 1 7.5 16h5a.75.75 0 0 1 0 1.5h-5a.75.75 0 0 1-.75-.75Z" clip-rule="evenodd"/></svg>