<svg xmlns="http://www.w3.org/2000/svg" width="20" height="20" fill="none" viewBox="0 0 20 20"><path fill="#212121" fill-rule="evenodd" d="M9.905.25a595.39 595.39 0 0 0 .19 0c.838 0 1.372 0 1.832.091a4.75 4.75 0 0 1 3.732 3.732c.091.46.091.994.091 1.832V8h-1.5V6c0-.965-.004-1.338-.062-1.634a3.25 3.25 0 0 0-2.554-2.554c-.296-.058-.669-.062-1.634-.062-.965 0-1.338.004-1.634.062a3.25 3.25 0 0 0-2.554 2.554c-.058.296-.062.669-.062 1.634v2h-1.5V5.905c0-.838 0-1.372.091-1.832A4.75 4.75 0 0 1 8.073.341C8.533.25 9.067.25 9.905.25Z" clip-rule="evenodd"/><path fill="#9A9CA3" fill-rule="evenodd" d="M12.5 8.5h-5c-1.481 0-1.958.01-2.317.097a3.5 3.5 0 0 0-2.586 2.586c-.087.36-.097.836-.097 2.317 0 1.481.01 1.958.097 2.317a3.5 3.5 0 0 0 2.586 2.586c.36.087.836.097 2.317.097h5c1.481 0 1.958-.01 2.317-.097a3.5 3.5 0 0 0 2.586-2.586c.087-.36.097-.836.097-2.317 0-1.481-.01-1.958-.097-2.317a3.5 3.5 0 0 0-2.586-2.586c-.36-.087-.836-.097-2.317-.097ZM1.138 10.833C1 11.408 1 12.105 1 13.5c0 1.395 0 2.092.138 2.667a5 5 0 0 0 3.695 3.695C5.408 20 6.105 20 7.5 20h5c1.395 0 2.092 0 2.667-.138a5 5 0 0 0 3.695-3.695C19 15.592 19 14.894 19 13.5c0-1.395 0-2.092-.138-2.667a5 5 0 0 0-3.695-3.695C14.592 7 13.895 7 12.5 7h-5c-1.395 0-2.092 0-2.667.138a5 5 0 0 0-3.695 3.695Z" clip-rule="evenodd"/><path fill="#212121" d="M8.5 13a1.5 1.5 0 0 1 3 0v1a1.5 1.5 0 0 1-3 0v-1Z"/></svg>