<svg xmlns="http://www.w3.org/2000/svg" width="20" height="21" fill="none" viewBox="0 0 20 21"><path fill="#212121" fill-rule="evenodd" d="M11.07 6.44a.75.75 0 0 0-1.058.06l-3.571 4a.75.75 0 0 0 0 1l3.571 4a.75.75 0 1 0 1.119-1l-2.456-2.75H17a.75.75 0 0 0 0-1.5H8.675l2.456-2.75a.75.75 0 0 0-.06-1.06Z" clip-rule="evenodd"/><path fill="#9A9CA3" d="M9.027 1.25h-.054c-.909 0-1.63 0-2.213.04-.596.04-1.104.125-1.578.322a4.75 4.75 0 0 0-2.57 2.57c-.197.474-.282.982-.322 1.578-.04.584-.04 1.304-.04 2.213v6.054c0 .91 0 1.63.04 2.213.04.596.125 1.104.322 1.578a4.75 4.75 0 0 0 2.57 2.57c.474.197.982.281 1.578.322.584.04 1.304.04 2.213.04h.054c.91 0 1.63 0 2.213-.04.596-.04 1.104-.125 1.578-.322a4.75 4.75 0 0 0 2.57-2.57c.218-.525.3-1.094.334-1.78a.75.75 0 0 0-1.498-.076c-.032.623-.101.991-.221 1.282a3.25 3.25 0 0 1-1.76 1.759c-.26.108-.586.175-1.105.21-.527.037-1.196.037-2.138.037s-1.611 0-2.138-.036c-.52-.036-.845-.103-1.106-.211a3.25 3.25 0 0 1-1.759-1.76c-.108-.26-.175-.586-.21-1.105C3.75 15.61 3.75 14.942 3.75 14V8c0-.942 0-1.611.036-2.138.036-.52.103-.845.211-1.106a3.25 3.25 0 0 1 1.76-1.759c.26-.108.586-.175 1.105-.21C7.39 2.75 8.058 2.75 9 2.75s1.611 0 2.138.036c.52.036.845.103 1.106.211a3.25 3.25 0 0 1 1.759 1.76c.12.29.19.658.221 1.281a.75.75 0 0 0 1.498-.076c-.035-.686-.116-1.255-.334-1.78a4.75 4.75 0 0 0-2.57-2.57c-.474-.197-.982-.282-1.578-.322-.584-.04-1.304-.04-2.213-.04Z"/></svg>