<svg xmlns="http://www.w3.org/2000/svg" width="20" height="20" fill="none" viewBox="0 0 20 20"><path fill="#212121" fill-rule="evenodd" d="M3.376 6.584a.75.75 0 0 1 1.04-.208l2.672 1.781c.82.547 1.386.923 1.858 1.169.456.237.763.318 1.054.318.29 0 .598-.08 1.054-.318.472-.246 1.038-.622 1.858-1.169l2.672-1.781a.75.75 0 1 1 .832 1.248L13.71 9.428c-.778.518-1.411.94-1.964 1.228-.578.301-1.128.489-1.746.489-.618 0-1.168-.188-1.746-.489-.553-.287-1.186-.71-1.964-1.228L3.584 7.624a.75.75 0 0 1-.208-1.04Z" clip-rule="evenodd"/><path fill="#9A9CA3" fill-rule="evenodd" d="M6.945 2.25h6.11c1.367 0 2.47 0 3.337.117.9.12 1.658.38 2.26.981.602.602.86 1.36.982 2.26.116.867.116 1.97.116 3.337v2.11c0 1.367 0 2.47-.116 3.337-.122.9-.38 1.658-.982 2.26-.602.602-1.36.86-2.26.982-.867.116-1.97.116-3.337.116h-6.11c-1.367 0-2.47 0-3.337-.116-.9-.122-1.658-.38-2.26-.982-.602-.602-.86-1.36-.981-2.26-.117-.867-.117-1.97-.117-3.337v-2.11c0-1.367 0-2.47.117-3.337.12-.9.38-1.658.981-2.26.602-.602 1.36-.86 2.26-.981.867-.117 1.97-.117 3.337-.117ZM3.808 3.853c-.734.099-1.122.28-1.399.556-.277.277-.457.665-.556 1.4C1.752 6.562 1.75 7.564 1.75 9v2c0 1.435.002 2.437.103 3.192.099.734.28 1.122.556 1.399.277.277.665.457 1.4.556.754.101 1.756.103 3.191.103h6c1.435 0 2.437-.002 3.192-.103.734-.099 1.122-.28 1.399-.556.277-.277.457-.665.556-1.4.101-.755.103-1.756.103-3.191V9c0-1.435-.002-2.437-.103-3.192-.099-.734-.28-1.122-.556-1.399-.277-.277-.665-.457-1.4-.556-.754-.101-1.756-.103-3.191-.103H7c-1.435 0-2.437.002-3.192.103Z" clip-rule="evenodd"/></svg>