<svg xmlns="http://www.w3.org/2000/svg" width="20" height="20" fill="none" viewBox="0 0 20 20"><path fill="#212121" fill-rule="evenodd" d="M12.5 8V4a2.5 2.5 0 0 0-5 0v4a2.5 2.5 0 0 0 5 0ZM10 0a4 4 0 0 0-4 4v4a4 4 0 0 0 8 0V4a4 4 0 0 0-4-4Z" clip-rule="evenodd"/><path fill="#9A9CA3" fill-rule="evenodd" d="M3 7.25a.75.75 0 0 1 .75.75 6.25 6.25 0 1 0 12.5 0 .75.75 0 0 1 1.5 0 7.75 7.75 0 0 1-7 7.714v2.536H12a.75.75 0 0 1 0 1.5H8a.75.75 0 0 1 0-1.5h1.25v-2.536A7.75 7.75 0 0 1 2.25 8 .75.75 0 0 1 3 7.25Z" clip-rule="evenodd"/></svg>