<svg xmlns="http://www.w3.org/2000/svg" width="20" height="20" fill="none" viewBox="0 0 20 20"><path fill="#9A9CA3" fill-rule="evenodd" d="M15.976.141a.75.75 0 0 1 .75.75v2.317h2.183a.75.75 0 0 1 0 1.5h-2.183V6.89a.75.75 0 1 1-1.5 0V4.708h-2.317a.75.75 0 0 1 0-1.5h2.317V.89a.75.75 0 0 1 .75-.75ZM9.909 14.141a.75.75 0 0 1 .75.75v3.5h4.5a.75.75 0 0 1 0 1.5h-10.5a.75.75 0 0 1 0-1.5h4.5v-3.5a.75.75 0 0 1 .75-.75Z" clip-rule="evenodd"/><path fill="#212121" fill-rule="evenodd" d="M7.373.091h2.536a.8.8 0 0 1 0 1.6h-2.5c-1.181 0-2.017.001-2.669.056-.642.055-1.033.159-1.34.322a3.2 3.2 0 0 0-1.313 1.314c-.164.306-.267.697-.322 1.34-.055.652-.056 1.487-.056 2.668s0 2.017.056 2.67c.055.642.158 1.033.322 1.339a3.2 3.2 0 0 0 1.314 1.313c.306.164.697.268 1.339.322.652.056 1.488.056 2.67.056h5c1.18 0 2.016 0 2.668-.056.643-.055 1.033-.158 1.34-.322A3.202 3.202 0 0 0 17.73 11.4c.22-.412.325-.96.36-2.035a.8.8 0 0 1 1.6.052c-.037 1.107-.143 1.978-.549 2.737a4.8 4.8 0 0 1-1.97 1.97c-.578.31-1.212.442-1.958.505-.728.062-1.632.062-2.768.062H7.373c-1.137 0-2.04 0-2.769-.062-.745-.063-1.38-.196-1.958-.505a4.8 4.8 0 0 1-1.97-1.97c-.309-.578-.442-1.212-.505-1.958C.109 9.468.109 8.564.109 7.428v-.073c0-1.137 0-2.04.062-2.768.063-.746.196-1.38.505-1.958a4.8 4.8 0 0 1 1.97-1.97C3.224.348 3.86.216 4.604.152 5.332.091 6.236.091 7.373.091Z" clip-rule="evenodd"/></svg>