<svg xmlns="http://www.w3.org/2000/svg" width="20" height="20" fill="none" viewBox="0 0 20 20"><path fill="#9A9CA3" d="M8.57 18.5H15c.962 0 1.584-.001 2.055-.044.45-.04.613-.11.695-.157a1.5 1.5 0 0 0 .549-.549c.047-.081.116-.245.157-.695.043-.471.044-1.093.044-2.055 0-.962-.001-1.583-.044-2.054-.04-.45-.11-.614-.157-.696a1.5 1.5 0 0 0-.549-.549c-.082-.047-.245-.116-.695-.157-.371-.033-.835-.041-1.485-.043l.037-.037c.582-.583 1.037-1.037 1.38-1.43.66.044 1.124.143 1.513.368a3 3 0 0 1 1.098 1.098C20 12.196 20 13.131 20 15c0 1.87 0 2.804-.402 3.5a3 3 0 0 1-1.098 1.098C17.804 20 16.87 20 15 20H5a4.985 4.985 0 0 0 3.57-1.5Z"/><path fill="#9A9CA3" d="m8.573 18.497 7.033-7.033c1.322-1.322 1.983-1.983 2.191-2.759a3 3 0 0 0 0-1.553c-.208-.776-.869-1.437-2.19-2.759-1.322-1.322-1.983-1.983-2.76-2.19a3 3 0 0 0-1.553 0c-.434.116-.831.373-1.329.809C10 3.532 10 4.175 10 5v.05c.46-.457.794-.78 1.08-1.018.347-.29.511-.356.603-.38a1.5 1.5 0 0 1 .776 0c.091.024.255.09.603.38.363.303.803.741 1.484 1.422.68.68 1.119 1.12 1.421 1.484.29.347.357.511.381.602.068.255.068.522 0 .777-.024.09-.091.255-.38.602-.303.364-.742.804-1.422 1.484L10 14.95V15a4.984 4.984 0 0 1-1.427 3.497Z"/><path fill="#212121" fill-rule="evenodd" d="M8.5 15V5c0-.962-.001-1.584-.044-2.055-.04-.45-.11-.613-.157-.695a1.5 1.5 0 0 0-.549-.549c-.082-.047-.245-.116-.695-.157C6.584 1.501 5.962 1.5 5 1.5c-.962 0-1.584.001-2.055.044-.45.04-.613.11-.695.157a1.5 1.5 0 0 0-.549.549c-.047.082-.116.245-.157.695C1.501 3.416 1.5 4.038 1.5 5v10a3.5 3.5 0 1 0 7 0ZM.402 1.5C0 2.196 0 3.13 0 5v10a5 5 0 0 0 10 0V5c0-1.87 0-2.804-.402-3.5A3 3 0 0 0 8.5.402C7.804 0 6.87 0 5 0S2.196 0 1.5.402A3 3 0 0 0 .402 1.5Z" clip-rule="evenodd"/><path fill="#212121" d="M6.5 15a1.5 1.5 0 1 1-3 0 1.5 1.5 0 0 1 3 0Z"/></svg>