<svg xmlns="http://www.w3.org/2000/svg" width="22" height="20" fill="none" viewBox="0 0 22 20"><path stroke="#9A9CA3" stroke-width="1.5" d="m6.2 14.47 2.224-2.891a3.25 3.25 0 0 1 5.152 0L15.8 14.47c1.174 1.526-.172 3.69-2.06 3.313a13.975 13.975 0 0 0-5.48 0c-1.888.378-3.234-1.787-2.06-3.313Z"/><path stroke="#212121" stroke-width="1.5" d="M9.25 4.5c0 1.376-.906 2.25-1.75 2.25S5.75 5.876 5.75 4.5s.906-2.25 1.75-2.25 1.75.874 1.75 2.25ZM4.207 10.177c.293 1.093-.23 1.873-.754 2.014-.524.14-1.368-.275-1.66-1.367-.293-1.093.23-1.874.754-2.014.524-.14 1.368.274 1.66 1.367ZM20.207 10.823c-.292 1.093-1.136 1.508-1.66 1.367-.524-.14-1.047-.92-.754-2.014.292-1.092 1.136-1.507 1.66-1.367.524.141 1.047.922.754 2.014ZM16.25 4.5c0 1.376-.906 2.25-1.75 2.25s-1.75-.874-1.75-2.25.906-2.25 1.75-2.25 1.75.874 1.75 2.25Z"/></svg>