<svg xmlns="http://www.w3.org/2000/svg" width="20" height="20" fill="none" viewBox="0 0 20 20"><path fill="#9A9CA3" fill-rule="evenodd" d="M16.552 8.742 11.25 3.44l-7.908 7.908-.037.038c-.156.155-.324.322-.443.531-.119.21-.176.44-.23.653l-.012.052-.489 1.945c-.17.676-.318 1.263-.364 1.731-.048.49-.01 1.058.43 1.498.44.44 1.009.479 1.498.43.468-.046 1.056-.194 1.732-.364l1.945-.488.051-.013c.214-.054.443-.11.653-.23.21-.118.377-.286.532-.442l.038-.038 7.907-7.908Zm-2.12 0L7.583 15.59a6.079 6.079 0 0 1-.242.232l-.006.004-.008.004a6.086 6.086 0 0 1-.323.09l-1.89.474c-.747.188-1.225.306-1.569.34a.955.955 0 0 1-.284-.002H3.26v-.001a.952.952 0 0 1-.002-.285c.034-.343.152-.821.34-1.57l.475-1.888a6.094 6.094 0 0 1 .089-.324l.003-.006.004-.007a6.158 6.158 0 0 1 .232-.242L11.25 5.56l3.182 3.182Z" clip-rule="evenodd"/><path fill="#212121" fill-rule="evenodd" d="M18.032 6.967a2.75 2.75 0 0 0 0-2.105 2.83 2.83 0 0 0-.508-.775c-.2-.23-.463-.492-.777-.807l-.036-.035a17.698 17.698 0 0 0-.806-.778 2.823 2.823 0 0 0-.775-.508 2.75 2.75 0 0 0-2.105 0c-.29.12-.535.3-.774.508-.23.201-.493.463-.807.778L10.188 4.5l5.304 5.303 1.255-1.255c.314-.314.577-.577.777-.807.21-.24.388-.484.508-.774Zm-1.385-1.531c.127.306.127.65 0 .957-.032.077-.094.18-.253.362-.163.187-.389.413-.725.75l-.177.177L12.31 4.5l.177-.177c.336-.337.563-.562.75-.725.181-.159.285-.22.362-.253a1.25 1.25 0 0 1 .957 0c.077.032.18.094.363.253.187.163.413.389.75.725.336.337.562.563.725.75.159.182.22.286.253.363Z" clip-rule="evenodd"/></svg>