<svg xmlns="http://www.w3.org/2000/svg" width="20" height="20" fill="none" viewBox="0 0 20 20"><path stroke="#9A9CA3" stroke-width="1.5" d="M17.717 3.382C13.504.319 6.496.319 2.283 3.382c-.703.51-.84 1.468-.442 2.241L8.22 18.04c.744 1.447 2.814 1.447 3.558 0l6.38-12.416c.398-.773.261-1.73-.442-2.241Z"/><path fill="#000" fill-rule="evenodd" d="M13.807 6.33a10.25 10.25 0 0 0-7.614 0l-.914.366a.75.75 0 1 1-.558-1.393l.915-.365a11.75 11.75 0 0 1 8.728 0l.914.365a.75.75 0 1 1-.557 1.393l-.914-.366Z" clip-rule="evenodd"/><circle cx="10.5" cy="14.5" r="1.5" fill="#212121"/><circle cx="8" cy="10.5" r="1.5" fill="#212121"/><circle cx="12.5" cy="9.5" r="1.5" fill="#212121"/></svg>