<svg xmlns="http://www.w3.org/2000/svg" width="20" height="20" fill="none" viewBox="0 0 20 20"><path fill="#9A9CA3" fill-rule="evenodd" d="M4.856 8.5H3a1.5 1.5 0 1 0 0 3h12a3.5 3.5 0 1 0-.54-6.959l-1.026.159-.51-.905a4.5 4.5 0 0 0-8.362 2.957L4.856 8.5Zm9.375-5.441A6 6 0 0 0 3.083 7H3a3.001 3.001 0 0 0 0 6h12a5 5 0 1 0-.77-9.941Z" clip-rule="evenodd"/><path fill="#212121" fill-rule="evenodd" d="M6 14.5a.75.75 0 0 1 .75.75v3a.75.75 0 0 1-1.5 0v-3A.75.75 0 0 1 6 14.5Zm8 0a.75.75 0 0 1 .75.75v3a.75.75 0 0 1-1.5 0v-3a.75.75 0 0 1 .75-.75Zm-4 1a.75.75 0 0 1 .75.75v3a.75.75 0 0 1-1.5 0v-3a.75.75 0 0 1 .75-.75Z" clip-rule="evenodd"/></svg>