<svg xmlns="http://www.w3.org/2000/svg" width="20" height="20" fill="none" viewBox="0 0 20 20"><path fill="#9A9CA3" fill-rule="evenodd" d="m11.444 9.972 5.584-3.35v6.7l-5.584-3.35Zm-1.487.857a1 1 0 0 1 0-1.715l7.057-4.233a1 1 0 0 1 1.514.857v8.468a1 1 0 0 1-1.514.857L9.957 10.83Z" clip-rule="evenodd"/><path fill="#212121" fill-rule="evenodd" d="m3.444 9.972 5.584-3.35v6.7l-5.584-3.35Zm-1.487.857a1 1 0 0 1 0-1.715l7.057-4.233a1 1 0 0 1 1.514.857v8.468a1 1 0 0 1-1.514.857L1.957 10.83Z" clip-rule="evenodd"/></svg>