<svg xmlns="http://www.w3.org/2000/svg" width="20" height="20" fill="none" viewBox="0 0 20 20"><path fill="#9A9CA3" fill-rule="evenodd" d="M7.748.248h.132a1466.617 1466.617 0 0 1 2.122.004h.034c1.372 0 2.447 0 3.312.071.88.072 1.607.22 2.265.556a5.75 5.75 0 0 1 2.513 2.513c.335.658.484 1.385.556 2.265.07.865.07 1.94.07 3.312v2.067c0 1.372 0 2.447-.07 3.312-.072.88-.22 1.607-.556 2.265a5.75 5.75 0 0 1-2.513 2.513c-.658.335-1.385.484-2.265.556-.865.07-1.94.07-3.312.07h-.067c-1.372 0-2.447 0-3.312-.07-.88-.072-1.607-.22-2.265-.556a5.75 5.75 0 0 1-2.513-2.513c-.335-.658-.484-1.385-.556-2.265-.07-.865-.07-1.94-.07-3.312V7.958c0-.906 0-1.537.211-2.14.212-.604.608-1.1 1.177-1.81l.073-.092L4.244 2c.03-.035.057-.07.085-.105.49-.615.88-1.104 1.45-1.377.57-.274 1.19-.272 1.97-.27Zm.13 1.5c-.977-.001-1.228.015-1.45.122-.222.106-.394.295-1.011 1.067L3.886 4.852c-.67.84-.89 1.128-1.006 1.462-.117.334-.127.693-.127 1.76v2.928c0 1.413 0 2.427.065 3.223.064.788.188 1.296.398 1.707a4.25 4.25 0 0 0 1.857 1.857c.411.21.92.333 1.707.398.796.065 1.81.065 3.222.065 1.413 0 2.427 0 3.223-.065.788-.065 1.296-.188 1.707-.398a4.25 4.25 0 0 0 1.857-1.857c.21-.412.333-.92.398-1.707.065-.796.065-1.81.065-3.223v-2c0-1.412 0-2.426-.065-3.222-.065-.788-.188-1.296-.398-1.707a4.25 4.25 0 0 0-1.857-1.857c-.412-.21-.92-.334-1.707-.398-.796-.065-1.81-.066-3.223-.066a521.388 521.388 0 0 1-2.124-.004Z" clip-rule="evenodd"/><path fill="#212121" d="M8.502 5.752a.75.75 0 0 0-1.5 0v3.5a.75.75 0 0 0 1.5 0v-3.5ZM10.752 5.002a.75.75 0 0 1 .75.75v3.5a.75.75 0 1 1-1.5 0v-3.5a.75.75 0 0 1 .75-.75ZM13.752 5.002a.75.75 0 0 1 .75.75v3.5a.75.75 0 1 1-1.5 0v-3.5a.75.75 0 0 1 .75-.75Z"/></svg>