<svg xmlns="http://www.w3.org/2000/svg" width="20" height="20" fill="none" viewBox="0 0 20 20"><path fill="#9A9CA3" fill-rule="evenodd" d="M2.005 7.345c-.824-.401-.719-1.609.163-1.86L17.724 1.04a1 1 0 0 1 1.236 1.236l-4.444 15.556c-.252.882-1.46.988-1.86.163L9.32 11.14a1 1 0 0 0-.462-.462L2.005 7.345Zm7.51 1.985L3.836 6.568l13.435-3.839-3.839 13.435-2.762-5.68a2.79 2.79 0 0 0-.032-.062l2.983-2.983a.75.75 0 1 0-1.06-1.06L9.578 9.362a2.522 2.522 0 0 0-.063-.032Z" clip-rule="evenodd"/><path fill="#212121" fill-rule="evenodd" d="M7.53 12.47a.75.75 0 0 1 0 1.06l-5 5a.75.75 0 0 1-1.06-1.06l5-5a.75.75 0 0 1 1.06 0ZM4.53 10.47a.75.75 0 0 1 0 1.06l-2 2a.75.75 0 0 1-1.06-1.06l2-2a.75.75 0 0 1 1.06 0ZM9.53 15.47a.75.75 0 0 1 0 1.06l-2 2a.75.75 0 0 1-1.06-1.06l2-2a.75.75 0 0 1 1.06 0Z" clip-rule="evenodd"/></svg>