<svg xmlns="http://www.w3.org/2000/svg" width="20" height="20" fill="none" viewBox="0 0 20 20"><path fill="#9A9CA3" fill-rule="evenodd" d="M20 17a.75.75 0 0 1-.75.75h-.75a.75.75 0 0 1 0-1.5h.75A.75.75 0 0 1 20 17Zm-5.75 0a.75.75 0 0 1-.75.75H.75a.75.75 0 0 1 0-1.5H13.5a.75.75 0 0 1 .75.75ZM20 3a.75.75 0 0 1-.75.75H6.5a.75.75 0 0 1 0-1.5h12.75A.75.75 0 0 1 20 3ZM2.25 3a.75.75 0 0 1-.75.75H.75a.75.75 0 0 1 0-1.5h.75a.75.75 0 0 1 .75.75ZM20 10a.75.75 0 0 1-.75.75H12.5a.75.75 0 0 1 0-1.5h6.75A.75.75 0 0 1 20 10ZM8.25 10a.75.75 0 0 1-.75.75H.75a.75.75 0 0 1 0-1.5H7.5a.75.75 0 0 1 .75.75Z" clip-rule="evenodd"/><path fill="#212121" fill-rule="evenodd" d="M16 15.5a1.5 1.5 0 1 0 0 3 1.5 1.5 0 0 0 0-3Zm0-1.5a3 3 0 1 0 0 6 3 3 0 0 0 0-6ZM4 1.5a1.5 1.5 0 1 0 0 3 1.5 1.5 0 0 0 0-3ZM4 0a3 3 0 1 0 0 6 3 3 0 0 0 0-6Zm6 8.5a1.5 1.5 0 1 0 0 3 1.5 1.5 0 0 0 0-3ZM10 7a3 3 0 1 0 0 6 3 3 0 0 0 0-6Z" clip-rule="evenodd"/></svg>