<svg xmlns="http://www.w3.org/2000/svg" width="20" height="20" fill="none" viewBox="0 0 20 20"><path fill="#9A9CA3" fill-rule="evenodd" d="M3 20a.75.75 0 0 1-.75-.75V9.5a.75.75 0 0 1 1.5 0v9.75A.75.75 0 0 1 3 20ZM3 5.25a.75.75 0 0 1-.75-.75V.75a.75.75 0 0 1 1.5 0V4.5a.75.75 0 0 1-.75.75ZM17 20a.75.75 0 0 1-.75-.75V8.5a.75.75 0 0 1 1.5 0v10.75A.75.75 0 0 1 17 20Zm0-15.75a.75.75 0 0 1-.75-.75V.75a.75.75 0 0 1 1.5 0V3.5a.75.75 0 0 1-.75.75ZM10 20a.75.75 0 0 1-.75-.75V15.5a.75.75 0 0 1 1.5 0v3.75A.75.75 0 0 1 10 20Zm0-8.75a.75.75 0 0 1-.75-.75V.75a.75.75 0 0 1 1.5 0v9.75a.75.75 0 0 1-.75.75Z" clip-rule="evenodd"/><path fill="#212121" fill-rule="evenodd" d="M4.5 7a1.5 1.5 0 1 0-3 0 1.5 1.5 0 0 0 3 0ZM6 7a3 3 0 1 0-6 0 3 3 0 0 0 6 0Zm12.5-1a1.5 1.5 0 1 0-3 0 1.5 1.5 0 0 0 3 0ZM20 6a3 3 0 1 0-6 0 3 3 0 0 0 6 0Zm-8.5 7a1.5 1.5 0 1 0-3 0 1.5 1.5 0 0 0 3 0Zm1.5 0a3 3 0 1 0-6 0 3 3 0 0 0 6 0Z" clip-rule="evenodd"/></svg>