<svg xmlns="http://www.w3.org/2000/svg" width="20" height="20" fill="none" viewBox="0 0 20 20"><path fill="#9A9CA3" fill-rule="evenodd" d="M16.5 12V6.206c0-1.108-.01-1.413-.066-1.653A2.5 2.5 0 0 0 15.143 2.9c-.22-.113-.512-.196-1.587-.465-1.026-.257-1.457-.363-1.883-.432a10.5 10.5 0 0 0-3.346 0c-.426.07-.856.175-1.883.432-1.075.269-1.368.352-1.587.465a2.5 2.5 0 0 0-1.291 1.653c-.056.24-.066.545-.066 1.653V12c0 .744.567 1.763 1.79 2.943 1.155 1.115 2.612 2.105 3.749 2.796.422.256.627.378.79.45.107.049.138.049.169.049h.005c.03 0 .061 0 .169-.049.162-.072.367-.194.789-.45 1.137-.691 2.595-1.68 3.75-2.796C15.933 13.763 16.5 12.744 16.5 12ZM2.105 4.212C2 4.662 2 5.176 2 6.206V12c0 2.795 3.907 5.59 6.26 7.02.787.479 1.18.718 1.74.718s.953-.24 1.74-.718C14.093 17.59 18 14.795 18 12V6.206c0-1.03 0-1.545-.105-1.994a4 4 0 0 0-2.066-2.647c-.41-.21-.91-.336-1.91-.585-1.002-.25-1.503-.376-2.007-.458a12 12 0 0 0-3.824 0C7.584.604 7.083.73 6.08.98c-.999.25-1.498.374-1.909.585a4 4 0 0 0-2.066 2.647Z" clip-rule="evenodd"/><path fill="#212121" d="m7.03 10.22 1.223 1.222c.956-2.01 2.064-3.31 3.003-4.131a7.908 7.908 0 0 1 1.383-.984 5.068 5.068 0 0 1 .56-.265l.04-.015.014-.005.006-.002h.002l.002-.001a.75.75 0 0 1 .48 1.421l-.01.004a3.608 3.608 0 0 0-.371.178 6.41 6.41 0 0 0-1.118.798c-.91.796-2.091 2.197-3.048 4.589a.75.75 0 0 1-1.226.252l-2-2a.75.75 0 1 1 1.06-1.061Z"/></svg>