<svg xmlns="http://www.w3.org/2000/svg" width="20" height="20" fill="none" viewBox="0 0 20 20"><path stroke="#212121" stroke-linecap="round" stroke-width="1.5" d="M14 14v5h-4v-5a2 2 0 1 1 4 0Z"/><path stroke="#9A9CA3" stroke-linecap="round" stroke-width="1.5" d="M3 8v11M17 8v11m0 0h2m-2 0H3m0 0H1"/><rect width="3" height="3" x="5" y="11" fill="#212121" rx="1"/><path stroke="#9A9CA3" stroke-width="1.5" d="M2.406 1.89A2 2 0 0 1 4.07 1h11.86a2 2 0 0 1 1.664.89l1.238 1.858a1 1 0 0 1 .168.555V6.96a1 1 0 0 1-1.406.914L16.75 7.5l-1.844.82a1 1 0 0 1-.812 0L12.25 7.5l-1.844.82a1 1 0 0 1-.812 0L7.75 7.5l-1.844.82a1 1 0 0 1-.812 0L3.25 7.5l-.844.375A1 1 0 0 1 1 6.961V4.303a1 1 0 0 1 .168-.555l1.238-1.857Z"/></svg>