<svg xmlns="http://www.w3.org/2000/svg" width="20" height="20" fill="none" viewBox="0 0 20 20"><path fill="#9A9CA3" fill-rule="evenodd" d="M4.5 7.5H3a1.5 1.5 0 1 0 0 3h12a3.5 3.5 0 1 0-2.1-6.301l-1.198.9-.901-1.198A3.5 3.5 0 0 0 4.5 6v1.499ZM12 3a5 5 0 0 0-9 3 3 3 0 0 0 0 6h12a5 5 0 1 0-3-9Z" clip-rule="evenodd"/><path fill="#212121" d="M11 15a1 1 0 1 1-2 0 1 1 0 0 1 2 0ZM7 15a1 1 0 1 1-2 0 1 1 0 0 1 2 0ZM15 15a1 1 0 1 1-2 0 1 1 0 0 1 2 0ZM17 18a1 1 0 1 1-2 0 1 1 0 0 1 2 0ZM13 18a1 1 0 1 1-2 0 1 1 0 0 1 2 0ZM9 18a1 1 0 1 1-2 0 1 1 0 0 1 2 0ZM5 18a1 1 0 1 1-2 0 1 1 0 0 1 2 0Z"/></svg>