<svg xmlns="http://www.w3.org/2000/svg" width="20" height="20" fill="none" viewBox="0 0 20 20"><path fill="#9A9CA3" fill-rule="evenodd" d="M5.756 18.406c1.025.093 2.347.094 4.244.094 1.897 0 3.22-.001 4.244-.094 1.005-.091 1.576-.26 2.006-.509a4.499 4.499 0 0 0 1.647-1.647c.248-.43.418-1.001.509-2.006.093-1.025.094-2.347.094-4.244 0-1.897-.001-3.22-.094-4.244-.091-1.005-.26-1.576-.509-2.006a4.5 4.5 0 0 0-1.647-1.647c-.43-.248-1.001-.418-2.006-.509C13.22 1.501 11.897 1.5 10 1.5c-1.897 0-3.22.001-4.244.094-1.005.091-1.576.26-2.006.509A4.5 4.5 0 0 0 2.103 3.75c-.248.43-.418 1.001-.509 2.006C1.501 6.78 1.5 8.103 1.5 10c0 1.897.001 3.22.094 4.244.091 1.005.26 1.576.509 2.006a4.5 4.5 0 0 0 1.647 1.647c.43.248 1.001.418 2.006.509ZM.804 3C0 4.392 0 6.262 0 10c0 3.739 0 5.608.804 7A6 6 0 0 0 3 19.196C4.392 20 6.262 20 10 20c3.739 0 5.608 0 7-.804A6.002 6.002 0 0 0 19.196 17C20 15.608 20 13.739 20 10c0-3.738 0-5.608-.804-7A6 6 0 0 0 17 .804C15.608 0 13.739 0 10 0 6.262 0 4.392 0 3 .804A6 6 0 0 0 .804 3Z" clip-rule="evenodd"/><path fill="#212121" fill-rule="evenodd" d="M9.998 4.25a.75.75 0 0 1 .75.75v.7c.387.09.761.253 1.084.501a2.33 2.33 0 0 1 .918 1.894.75.75 0 0 1-1.5 0c0-.333-.133-.55-.333-.704-.22-.17-.551-.278-.918-.277-.367 0-.697.108-.917.277-.2.154-.332.372-.332.704 0 .307.11.482.329.648.27.205.657.357 1.184.555l.048.018c.465.174 1.054.395 1.518.747.531.404.921.995.921 1.842a2.33 2.33 0 0 1-.918 1.894 2.828 2.828 0 0 1-1.084.502V15a.75.75 0 1 1-1.5 0v-.7a2.828 2.828 0 0 1-1.081-.503 2.328 2.328 0 0 1-.917-1.892.75.75 0 1 1 1.5 0c0 .333.132.55.332.704.22.17.55.277.917.277s.697-.107.918-.277c.2-.153.333-.371.333-.704 0-.307-.11-.481-.329-.648-.27-.205-.657-.357-1.184-.555l-.048-.018c-.465-.174-1.054-.395-1.518-.747-.531-.404-.921-.995-.921-1.842 0-.82.367-1.469.917-1.892A2.827 2.827 0 0 1 9.248 5.7V5a.75.75 0 0 1 .75-.75Z" clip-rule="evenodd"/></svg>