<svg xmlns="http://www.w3.org/2000/svg" width="20" height="20" fill="none" viewBox="0 0 20 20"><path fill="#9A9CA3" fill-rule="evenodd" d="M1.594 5.756C1.501 6.78 1.5 8.103 1.5 10c0 1.897.001 3.22.094 4.244.091 1.005.26 1.576.509 2.006a4.5 4.5 0 0 0 1.647 1.647c.43.248 1.001.418 2.006.509 1.025.093 2.347.094 4.244.094 1.897 0 3.22-.001 4.244-.094 1.005-.091 1.576-.26 2.006-.509a4.499 4.499 0 0 0 1.647-1.647c.248-.43.418-1.001.509-2.006.093-1.025.094-2.347.094-4.244 0-1.897-.001-3.22-.094-4.244-.091-1.005-.26-1.576-.509-2.006a4.5 4.5 0 0 0-1.647-1.647c-.43-.248-1.001-.418-2.006-.509C13.22 1.501 11.897 1.5 10 1.5c-1.897 0-3.22.001-4.244.094-1.005.091-1.576.26-2.006.509A4.5 4.5 0 0 0 2.103 3.75c-.248.43-.418 1.001-.509 2.006ZM17 .804C15.608 0 13.739 0 10 0 6.262 0 4.392 0 3 .804A6 6 0 0 0 .804 3C0 4.392 0 6.262 0 10c0 3.739 0 5.608.804 7A6 6 0 0 0 3 19.196C4.392 20 6.262 20 10 20c3.739 0 5.608 0 7-.804A6.002 6.002 0 0 0 19.196 17C20 15.608 20 13.739 20 10c0-3.738 0-5.608-.804-7A6 6 0 0 0 17 .804Z" clip-rule="evenodd"/><path fill="#212121" fill-rule="evenodd" d="M5.47 7.47a.75.75 0 0 1 1.06 0L10 10.94l3.47-3.47a.75.75 0 1 1 1.06 1.06l-4 4a.75.75 0 0 1-1.06 0l-4-4a.75.75 0 0 1 0-1.06Z" clip-rule="evenodd"/></svg>