<svg xmlns="http://www.w3.org/2000/svg" width="20" height="20" fill="none" viewBox="0 0 20 20"><path fill="#9A9CA3" fill-rule="evenodd" d="m3.505 6.811 3.136-.524L7.993 3.5c.782-1.612 1.173-2.417 1.8-2.417.626 0 1.017.805 1.799 2.417l1.352 2.787 3.136.524c1.633.273 2.45.41 2.64.98.19.57-.38 1.17-1.52 2.37l-2.307 2.43.489 3.263c.258 1.72.387 2.58-.117 2.935s-1.27-.055-2.804-.875l-2.668-1.427-2.669 1.427c-1.533.82-2.3 1.23-2.804.875-.504-.356-.375-1.216-.117-2.935l.49-3.263-2.308-2.43c-1.14-1.2-1.71-1.8-1.52-2.37.19-.57 1.007-.707 2.64-.98Zm6.737-2.656 1.691 3.483 3.9.652c.371.063.671.114.917.16-.169.183-.378.405-.637.678l-2.813 2.96.599 3.988c.059.393.106.712.14.975-.236-.12-.52-.272-.87-.46l-3.376-1.806-3.376 1.806c-.35.188-.635.34-.871.46.034-.263.081-.582.14-.975l.599-3.987-2.813-2.961c-.26-.273-.468-.495-.637-.679.245-.045.546-.096.917-.159l3.9-.652 1.69-3.483c.18-.37.326-.67.45-.914.125.245.271.544.45.914Z" clip-rule="evenodd"/></svg>