<svg xmlns="http://www.w3.org/2000/svg" width="20" height="20" fill="none" viewBox="0 0 20 20"><path fill="#9A9CA3" fill-rule="evenodd" d="M7.765 4.457 5.417 6.805C4.402 7.82 3.722 8.503 3.255 9.075c-.45.553-.592.876-.643 1.132a2.5 2.5 0 0 0 0 .975c.05.256.192.578.643 1.13.467.573 1.147 1.256 2.162 2.271s1.698 1.696 2.27 2.162c.554.451.876.593 1.132.644a2.5 2.5 0 0 0 .975 0c.256-.051.578-.193 1.13-.643.573-.467 1.256-1.147 2.271-2.163l2.348-2.348c1.378-1.377 1.715-1.76 1.878-2.201.163-.441.156-.952.007-2.893l-.162-2.106c-.066-.854-.107-1.355-.18-1.715a1.345 1.345 0 0 0-.082-.283.173.173 0 0 0-.014-.025V3.01l-.001-.001-.025-.013a1.337 1.337 0 0 0-.284-.082c-.36-.074-.86-.115-1.715-.18l-2.105-.163c-1.942-.149-2.452-.156-2.894.007-.44.164-.824.501-2.2 1.878Zm10.997.463c-.126-1.631-.189-2.447-.712-2.97-.523-.523-1.338-.586-2.97-.711l-2.105-.162c-1.805-.139-2.708-.208-3.529.095-.821.304-1.461.944-2.742 2.224L4.357 5.744c-1.987 1.987-2.98 2.98-3.217 4.17a4 4 0 0 0 0 1.56c.237 1.19 1.23 2.184 3.217 4.17 1.986 1.986 2.979 2.98 4.169 3.216a3.999 3.999 0 0 0 1.56 0c1.19-.237 2.184-1.23 4.17-3.216l2.348-2.348c1.28-1.28 1.92-1.92 2.224-2.741.304-.822.234-1.724.096-3.53l-.162-2.105Z" clip-rule="evenodd"/><path fill="#212121" d="M14.963 7.866a2 2 0 1 1-2.828-2.829 2 2 0 0 1 2.828 2.829Z"/></svg>