<svg xmlns="http://www.w3.org/2000/svg" width="20" height="20" fill="none" viewBox="0 0 20 20"><path fill="#9A9CA3" fill-rule="evenodd" d="M6.584 1.376a.75.75 0 0 1 1.04.208L10 5.148l2.376-3.564a.75.75 0 1 1 1.248.832L10.901 6.5l6.667 10h1.682a.75.75 0 0 1 0 1.5H.75a.75.75 0 0 1 0-1.5h1.682l6.667-10-2.723-4.084a.75.75 0 0 1 .208-1.04ZM10 7.852 4.235 16.5h11.53L10 7.852Z" clip-rule="evenodd"/><path fill="#212121" fill-rule="evenodd" d="M10.36 14.5h-.72a.5.5 0 0 0-.49.402L8.83 16.5h2.34l-.32-1.598a.5.5 0 0 0-.49-.402Zm1.962.108A2 2 0 0 0 10.36 13h-.72a2 2 0 0 0-1.962 1.608L7 18h6l-.678-3.392Z" clip-rule="evenodd"/></svg>