<svg xmlns="http://www.w3.org/2000/svg" width="20" height="20" fill="none" viewBox="0 0 20 20"><path fill="#212121" fill-rule="evenodd" d="M5.53 15.47a.75.75 0 0 1 0 1.06l-3 3a.75.75 0 0 1-1.06-1.06l3-3a.75.75 0 0 1 1.06 0Zm8.94 0a.75.75 0 0 0 0 1.06l3 3a.75.75 0 1 0 1.06-1.06l-3-3a.75.75 0 0 0-1.06 0ZM4 13a.75.75 0 0 1 .75-.75h2.5a.75.75 0 0 1 0 1.5h-2.5A.75.75 0 0 1 4 13Zm8 0a.75.75 0 0 1 .75-.75h2.5a.75.75 0 0 1 0 1.5h-2.5A.75.75 0 0 1 12 13Z" clip-rule="evenodd"/><path fill="#9A9CA3" fill-rule="evenodd" d="M16.294 16.67c-.595.08-1.344.08-2.243.08H5.782c-.825 0-1.518-.005-2.076-.08a5.404 5.404 0 0 1-.117-.017c-.582-.092-1.107-.281-1.534-.708-.455-.456-.64-1.023-.725-1.65-.08-.595-.08-1.345-.08-2.243V8.966c0-1.371 0-2.447.07-3.311.073-.88.221-1.607.557-2.265A5.75 5.75 0 0 1 4.39.877C5.048.54 5.775.393 6.655.32 7.519.25 8.595.25 9.966.25h.068c1.371 0 2.447 0 3.311.07.88.073 1.607.221 2.265.557a5.75 5.75 0 0 1 2.513 2.513c.336.658.485 1.385.556 2.265.071.864.071 1.94.071 3.311v3.086c0 .899 0 1.648-.08 2.242-.084.628-.27 1.195-.726 1.65-.455.456-1.022.642-1.65.726Zm.956-7.42V9c0-1.413 0-2.427-.066-3.223A7.682 7.682 0 0 0 17.086 5H10.75v4.25h6.5Zm-8 0V5H2.914a7.664 7.664 0 0 0-.098.777C2.75 6.573 2.75 7.587 2.75 9v.25h6.5ZM3.563 3.5h12.874a4.25 4.25 0 0 0-1.508-1.287c-.411-.21-.919-.333-1.706-.397-.796-.065-1.81-.066-3.223-.066-1.412 0-2.427 0-3.223.066-.787.064-1.295.188-1.706.397A4.25 4.25 0 0 0 3.563 3.5Zm13.687 7.25H2.75V12c0 .964.002 1.612.067 2.095.062.461.169.659.3.789.13.13.327.237.789.3.483.064 1.13.066 2.095.066H14c.964 0 1.612-.002 2.095-.066.462-.063.66-.17.79-.3.13-.13.237-.328.3-.79.064-.482.066-1.13.066-2.094v-1.25Z" clip-rule="evenodd"/></svg>