<svg xmlns="http://www.w3.org/2000/svg" width="20" height="20" fill="none" viewBox="0 0 20 20"><path fill="#9A9CA3" fill-rule="evenodd" d="M12.873 13.5H7.127A3.627 3.627 0 0 0 3.5 17.127c0 .5.322.833.688.894 1.383.229 3.439.479 5.812.479s4.429-.25 5.812-.48c.366-.06.688-.394.688-.893a3.627 3.627 0 0 0-3.627-3.627ZM7.127 12A5.127 5.127 0 0 0 2 17.127c0 1.168.79 2.183 1.943 2.373 1.442.24 3.582.5 6.057.5 2.475 0 4.615-.26 6.057-.5C17.209 19.31 18 18.295 18 17.127A5.127 5.127 0 0 0 12.873 12H7.127Z" clip-rule="evenodd"/><path fill="#212121" fill-rule="evenodd" d="M6.5 5a3.5 3.5 0 1 0 7 0 3.5 3.5 0 0 0-7 0ZM10 0a5 5 0 1 0 0 10 5 5 0 0 0 0-10Z" clip-rule="evenodd"/></svg>