<svg xmlns="http://www.w3.org/2000/svg" width="20" height="20" fill="none" viewBox="0 0 20 20"><path fill="#9A9CA3" fill-rule="evenodd" d="M1.544 6.866C1.501 7.501 1.5 8.315 1.5 9.5v1c0 1.185 0 2 .044 2.634.042.62.12.96.222 1.205a3.5 3.5 0 0 0 1.895 1.895c.246.102.584.18 1.205.222.635.043 1.449.044 2.634.044 1.185 0 2 0 2.634-.044.62-.043.96-.12 1.205-.222a3.5 3.5 0 0 0 1.895-1.895c.102-.246.18-.584.222-1.205.043-.635.044-1.449.044-2.634v-1c0-1.185 0-2-.044-2.634-.042-.62-.12-.96-.222-1.205a3.5 3.5 0 0 0-1.895-1.895c-.246-.102-.584-.18-1.205-.222C9.499 3.501 8.685 3.5 7.5 3.5c-1.185 0-2 0-2.634.044-.62.042-.96.12-1.205.222a3.5 3.5 0 0 0-1.895 1.895c-.102.246-.18.584-.222 1.205ZM.381 5.086C0 6.007 0 7.17 0 9.5v1c0 2.33 0 3.495.38 4.413a5 5 0 0 0 2.707 2.706C4.005 18 5.17 18 7.5 18s3.495 0 4.413-.38a5 5 0 0 0 2.706-2.707C15 13.995 15 12.83 15 10.5v-1c0-2.33 0-3.495-.38-4.413a5 5 0 0 0-2.707-2.706C10.995 2 9.83 2 7.5 2s-3.495 0-4.413.38A5 5 0 0 0 .38 5.088Z" clip-rule="evenodd"/><path fill="#212121" fill-rule="evenodd" d="M18.5 11.184V8.816c0-1.006-.002-1.652-.046-2.12a1.981 1.981 0 0 0-.078-.446.5.5 0 0 0-.292-.164c-.036.008-.16.04-.422.168-.421.207-.972.544-1.83 1.072a13.43 13.43 0 0 0-.6.381.98.98 0 0 0-.115.089.5.5 0 0 0-.092.164.958.958 0 0 0-.015.144c-.01.152-.01.355-.01.712v2.368c0 .357 0 .56.01.712a.957.957 0 0 0 .015.144.5.5 0 0 0 .092.164.991.991 0 0 0 .114.088c.125.088.297.195.602.382.857.528 1.408.865 1.83 1.072.26.128.385.16.42.168a.5.5 0 0 0 .293-.164c.012-.034.05-.157.078-.447.044-.467.046-1.113.046-2.12Zm-3.385 1.018.002.002-.002-.002Zm-.089-.16Zm0-4.085v.003-.003Zm.09-.16.001-.001a.015.015 0 0 1-.002.002ZM13.6 7.492c-.101.305-.101.645-.101 1.325v2.368c0 .68 0 1.02.1 1.325a2 2 0 0 0 .371.663c.207.245.497.423 1.076.78 1.66 1.022 2.491 1.533 3.176 1.456a2 2 0 0 0 1.353-.756C20 14.11 20 13.134 20 11.184V8.816c0-1.95 0-2.926-.424-3.468a2 2 0 0 0-1.353-.756c-.685-.077-1.515.434-3.176 1.456-.58.356-.869.535-1.076.78-.165.195-.29.42-.37.663Z" clip-rule="evenodd"/></svg>