<svg xmlns="http://www.w3.org/2000/svg" width="20" height="20" fill="none" viewBox="0 0 20 20"><path fill="#212121" fill-rule="evenodd" d="M9 6a.75.75 0 0 1 .75.75v1.5h1.5a.75.75 0 0 1 0 1.5h-1.5v1.5a.75.75 0 0 1-1.5 0v-1.5h-1.5a.75.75 0 0 1 0-1.5h1.5v-1.5A.75.75 0 0 1 9 6Z" clip-rule="evenodd"/><path fill="#9A9CA3" fill-rule="evenodd" d="M13.397 14.447a7 7 0 1 1 1.05-1.05.711.711 0 0 1 .083.073l4 4a.75.75 0 1 1-1.06 1.06l-4-4a.756.756 0 0 1-.073-.083ZM14.5 9a5.5 5.5 0 1 1-11 0 5.5 5.5 0 0 1 11 0Z" clip-rule="evenodd"/></svg>