<svg xmlns="http://www.w3.org/2000/svg" width="20" height="20" fill="none" viewBox="0 0 20 20"><path fill="#212121" d="M10 4.25a.75.75 0 0 0 0 1.5h4a.75.75 0 1 0 0-1.5h-4Z"/><path fill="#212121" fill-rule="evenodd" d="M2.5.402c.596-.344 1.367-.394 2.75-.4V0H13c2.828 0 4.243 0 5.121.879C19 1.757 19 3.172 19 6v8c0 2.828 0 4.243-.879 5.121C17.243 20 15.828 20 13 20H5.25v-.001c-1.383-.007-2.154-.057-2.75-.4A3 3 0 0 1 1.402 18.5C1 17.804 1 16.87 1 15V5c0-1.87 0-2.804.402-3.5A3 3 0 0 1 2.5.402ZM17.5 14V6c0-1.457-.003-2.398-.096-3.092-.088-.65-.23-.854-.343-.969-.114-.114-.318-.255-.97-.343C15.399 1.503 14.458 1.5 13 1.5H6.75v17H13c1.457 0 2.398-.003 3.092-.096.65-.088.855-.23.969-.343.114-.114.255-.318.343-.97.093-.693.096-1.634.096-3.091ZM5.25 18.499V1.5c-.557.003-.969.013-1.305.043-.45.04-.613.11-.695.157a1.5 1.5 0 0 0-.549.549c-.047.082-.116.245-.157.695C2.501 3.416 2.5 4.038 2.5 5v10c0 .962.001 1.584.044 2.055.04.45.11.613.157.695a1.5 1.5 0 0 0 .549.549c.082.047.245.116.695.157.336.03.748.04 1.305.043Z" clip-rule="evenodd"/></svg>