<svg xmlns="http://www.w3.org/2000/svg" width="20" height="20" fill="none" viewBox="0 0 20 20"><path fill="#212121" fill-rule="evenodd" d="M10.03 17.47a7.5 7.5 0 1 0 0-15 7.5 7.5 0 0 0 0 15Zm0 1.5a9 9 0 1 0 0-18 9 9 0 0 0 0 18Z" clip-rule="evenodd"/><path fill="#212121" fill-rule="evenodd" d="M9.53 4.72a.75.75 0 0 1 .75.75v4.25h4.25a.75.75 0 1 1 0 1.5H8.78V5.47a.75.75 0 0 1 .75-.75ZM3.56.5a.75.75 0 0 1 0 1.06L1.622 3.5a.75.75 0 1 1-1.06-1.06L2.5.5a.75.75 0 0 1 1.06 0Zm15.94 3a.75.75 0 0 1-1.06 0L16.5 1.56A.75.75 0 1 1 17.56.5l1.94 1.94a.75.75 0 0 1 0 1.06Zm-18 14.94 3-3 1.06 1.06-3 3a.75.75 0 1 1-1.06-1.06Zm17.06 0-3-3-1.06 1.06 3 3a.75.75 0 0 0 1.06-1.06Z" clip-rule="evenodd"/></svg>