<svg xmlns="http://www.w3.org/2000/svg" width="20" height="20" fill="none" viewBox="0 0 20 20"><path fill="#212121" fill-rule="evenodd" d="M10 18.4a8.4 8.4 0 1 0 0-16.8 8.4 8.4 0 0 0 0 16.8Zm0 1.6c5.523 0 10-4.477 10-10S15.523 0 10 0 0 4.477 0 10s4.477 10 10 10Z" clip-rule="evenodd"/><path fill="#212121" fill-rule="evenodd" d="M9.97 6.47a.75.75 0 0 1 1.06 0l3 3a.75.75 0 0 1 0 1.06l-3 3a.75.75 0 1 1-1.06-1.06l1.72-1.72H6.3a.75.75 0 0 1 0-1.5h5.39L9.97 7.53a.75.75 0 0 1 0-1.06Z" clip-rule="evenodd"/></svg>