<svg xmlns="http://www.w3.org/2000/svg" width="20" height="20" fill="none" viewBox="0 0 20 20"><path fill="#212121" fill-rule="evenodd" d="M5.5 5.5a2 2 0 1 0 0-4 2 2 0 0 0 0 4Zm0 13a2 2 0 1 0 0-4 2 2 0 0 0 0 4Zm9-13a2 2 0 1 0 0-4 2 2 0 0 0 0 4ZM9 3.5a3.5 3.5 0 1 1-7 0 3.5 3.5 0 0 1 7 0Zm0 13a3.5 3.5 0 1 1-7 0 3.5 3.5 0 0 1 7 0ZM14.5 7a3.5 3.5 0 1 0 0-7 3.5 3.5 0 0 0 0 7Z" clip-rule="evenodd"/><path fill="#212121" fill-rule="evenodd" d="M5.5 5.75a.75.75 0 0 1 .75.75V10a3.733 3.733 0 0 1 2.25-.75h3A2.25 2.25 0 0 0 13.75 7v-.5a.75.75 0 0 1 1.5 0V7a3.75 3.75 0 0 1-3.75 3.75h-3A2.25 2.25 0 0 0 6.25 13v.5h-1.5v-7a.75.75 0 0 1 .75-.75Z" clip-rule="evenodd"/></svg>