<svg xmlns="http://www.w3.org/2000/svg" width="20" height="20" fill="none" viewBox="0 0 20 20"><path fill="#212121" d="M6 5a1 1 0 0 1 1-1h1a1 1 0 1 1 0 2H7a1 1 0 0 1-1-1Zm1 3a1 1 0 1 0 0 2h1a1 1 0 1 0 0-2H7Zm4-3a1 1 0 0 1 1-1h1a1 1 0 1 1 0 2h-1a1 1 0 0 1-1-1Zm1 3a1 1 0 1 0 0 2h1a1 1 0 1 0 0-2h-1Z"/><path fill="#212121" fill-rule="evenodd" d="M0 19.25a.75.75 0 0 1 .75-.75H2V8c0-3.771 0-5.657 1.172-6.828C4.343 0 6.229 0 10 0c3.771 0 5.657 0 6.828 1.172C18 2.343 18 4.229 18 8v10.5h1.25a.75.75 0 0 1 0 1.5H.75a.75.75 0 0 1-.75-.75Zm8.5-.75h3V15a1.5 1.5 0 0 0-3 0v3.5Zm4.5 0h3.5V8c0-1.928-.003-3.223-.133-4.19-.124-.922-.339-1.317-.6-1.578-.26-.26-.655-.475-1.578-.599-.966-.13-2.261-.133-4.189-.133s-3.223.003-4.19.133c-.922.124-1.317.339-1.578.6-.26.26-.475.655-.599 1.578C3.503 4.777 3.5 6.072 3.5 8v10.5H7V15a3 3 0 1 1 6 0v3.5Z" clip-rule="evenodd"/></svg>