<svg xmlns="http://www.w3.org/2000/svg" width="20" height="20" fill="none" viewBox="0 0 20 20"><path fill="#212121" d="M4.75 9.5a.75.75 0 0 0 0 1.5h1.5a.75.75 0 0 0 0-1.5h-1.5ZM9.25 9.5a.75.75 0 0 0 0 1.5h1.5a.75.75 0 0 0 0-1.5h-1.5ZM13.75 9.5a.75.75 0 0 0 0 1.5h1.5a.75.75 0 0 0 0-1.5h-1.5ZM4.75 13.5a.75.75 0 0 0 0 1.5h1.5a.75.75 0 0 0 0-1.5h-1.5ZM9.25 13.5a.75.75 0 0 0 0 1.5h1.5a.75.75 0 0 0 0-1.5h-1.5ZM13.75 13.5a.75.75 0 0 0 0 1.5h1.5a.75.75 0 0 0 0-1.5h-1.5ZM12 3.5a.75.75 0 0 1 .75-.75h2.5a.75.75 0 0 1 0 1.5h-2.5A.75.75 0 0 1 12 3.5Z"/><path fill="#212121" fill-rule="evenodd" d="M0 10c0-4.714 0-7.071 1.464-8.536C2.93 0 5.286 0 10 0c4.714 0 7.071 0 8.535 1.464C20 2.93 20 5.286 20 10c0 4.714 0 7.071-1.465 8.535C17.072 20 14.714 20 10 20s-7.071 0-8.536-1.465C0 17.072 0 14.714 0 10Zm10 8.5c-2.4 0-4.048-.003-5.286-.17-1.196-.16-1.782-.448-2.189-.855-.407-.407-.695-.993-.855-2.189C1.503 14.049 1.5 12.4 1.5 10c0-1.164 0-2.15.02-3h16.96c.02.85.02 1.836.02 3 0 2.4-.003 4.048-.17 5.287-.16 1.195-.448 1.78-.855 2.188-.407.407-.993.695-2.189.855-1.238.167-2.887.17-5.286.17Zm8.411-13H1.59c.021-.28.048-.541.08-.786.161-1.196.45-1.782.856-2.189.407-.407.993-.695 2.189-.855C5.952 1.503 7.6 1.5 10 1.5c2.4 0 4.048.003 5.287.17 1.195.16 1.78.448 2.188.855.407.407.695.993.855 2.189.033.245.06.506.081.786Z" clip-rule="evenodd"/></svg>