<svg xmlns="http://www.w3.org/2000/svg" width="20" height="20" fill="none" viewBox="0 0 20 20"><path fill="#212121" fill-rule="evenodd" d="M13.5 2.02c1.252.038 2.085.142 2.796.437a6 6 0 0 1 3.247 3.247C20 6.807 20 8.204 20 11c0 2.796 0 4.194-.457 5.296a6 6 0 0 1-3.247 3.247C15.194 20 13.796 20 11 20H9c-2.796 0-4.193 0-5.296-.457a6 6 0 0 1-3.247-3.247C0 15.194 0 13.796 0 11c0-2.796 0-4.193.457-5.296a6 6 0 0 1 3.247-3.247C4.316 2.203 5.018 2.09 6 2.04V.75a.75.75 0 0 1 1.5 0v1.254C7.951 2 8.448 2 9 2h3V.75a.75.75 0 0 1 1.5 0v1.27Zm.674 16.327c-.77.052-1.754.053-3.174.053H9c-1.42 0-2.404 0-3.174-.053-.755-.052-1.186-.148-1.51-.282a4.4 4.4 0 0 1-2.381-2.381c-.134-.324-.23-.755-.282-1.51C1.601 13.404 1.6 12.42 1.6 11s0-2.404.053-3.174c.052-.755.148-1.186.282-1.51a4.4 4.4 0 0 1 2.381-2.381c.324-.134.755-.23 1.51-.282C6.596 3.601 7.58 3.6 9 3.6h2c1.42 0 2.404 0 3.174.053.755.052 1.186.148 1.51.282a4.4 4.4 0 0 1 2.381 2.381c.134.324.23.755.282 1.51.052.77.053 1.754.053 3.174s0 2.404-.053 3.174c-.052.755-.148 1.186-.282 1.51a4.4 4.4 0 0 1-2.381 2.381c-.324.134-.755.23-1.51.282Z" clip-rule="evenodd"/><path fill="#212121" d="M10.75 10.25h2.5a.75.75 0 0 1 0 1.5h-6.5a.75.75 0 0 1 0-1.5h4Z"/></svg>