<svg xmlns="http://www.w3.org/2000/svg" width="20" height="20" fill="none" viewBox="0 0 20 20"><path fill="#212121" fill-rule="evenodd" d="M9 18.4h2c1.42 0 2.404 0 3.174-.053.755-.052 1.186-.148 1.51-.282a4.4 4.4 0 0 0 2.381-2.381c.134-.324.23-.755.282-1.51.052-.77.053-1.754.053-3.174s0-2.404-.053-3.174c-.052-.755-.148-1.186-.282-1.51a4.4 4.4 0 0 0-2.381-2.381c-.324-.134-.755-.23-1.51-.282C13.404 3.601 12.42 3.6 11 3.6H9c-1.42 0-2.404 0-3.174.053-.755.052-1.186.148-1.51.282a4.4 4.4 0 0 0-2.381 2.381c-.134.324-.23.755-.282 1.51C1.601 8.596 1.6 9.58 1.6 11s0 2.404.053 3.174c.052.755.148 1.186.282 1.51a4.4 4.4 0 0 0 2.381 2.381c.324.134.755.23 1.51.282.77.052 1.754.053 3.174.053Zm7.296-15.943C15.194 2 13.796 2 11 2H9c-2.796 0-4.193 0-5.296.457A6 6 0 0 0 .457 5.704C0 6.807 0 8.204 0 11c0 2.796 0 4.194.457 5.296a6 6 0 0 0 3.247 3.247C4.807 20 6.204 20 9 20h2c2.796 0 4.194 0 5.296-.457a6 6 0 0 0 3.247-3.247C20 15.194 20 13.796 20 11c0-2.796 0-4.193-.457-5.296a6 6 0 0 0-3.247-3.247Z" clip-rule="evenodd"/><path fill="#212121" d="M9.004 7.562A.5.5 0 0 1 9.5 7h1.367a.5.5 0 0 1 .496.562l-.375 3a.5.5 0 0 1-.496.438h-.617a.5.5 0 0 1-.496-.438l-.375-3ZM9.303 13.902a.5.5 0 0 0 .49.598h.78a.5.5 0 0 0 .491-.598l-.2-1a.5.5 0 0 0-.49-.402h-.38a.5.5 0 0 0-.49.402l-.2 1Z"/><path fill="#212121" fill-rule="evenodd" d="M6.75 0a.75.75 0 0 1 .75.75v1.5a.75.75 0 0 1-1.5 0V.75A.75.75 0 0 1 6.75 0ZM12.75 0a.75.75 0 0 1 .75.75v1.5a.75.75 0 0 1-1.5 0V.75a.75.75 0 0 1 .75-.75Z" clip-rule="evenodd"/></svg>