<svg xmlns="http://www.w3.org/2000/svg" width="20" height="20" fill="none" viewBox="0 0 20 20"><path fill="#212121" fill-rule="evenodd" d="M10 8.75a1.25 1.25 0 1 0 0 2.5 1.25 1.25 0 0 0 0-2.5ZM7.25 10a2.75 2.75 0 1 1 5.5 0 2.75 2.75 0 0 1-5.5 0Z" clip-rule="evenodd"/><path fill="#212121" fill-rule="evenodd" d="M13 4.5H7c-1.436 0-2.4.002-3.134.077-.71.072-1.038.2-1.255.344a2.5 2.5 0 0 0-.69.69c-.145.217-.272.545-.344 1.255C1.502 7.6 1.5 8.564 1.5 10s.002 2.4.077 3.134c.072.71.2 1.038.344 1.255a2.5 2.5 0 0 0 .69.69c.217.145.545.272 1.255.344.734.075 1.698.077 3.134.077h6c1.436 0 2.4-.002 3.134-.077.71-.072 1.038-.2 1.255-.344a2.5 2.5 0 0 0 .69-.69c.145-.217.272-.545.344-1.255.075-.735.077-1.698.077-3.134s-.002-2.4-.077-3.134c-.072-.71-.2-1.038-.344-1.255a2.5 2.5 0 0 0-.69-.69c-.217-.145-.545-.272-1.255-.344C15.4 4.502 14.436 4.5 13 4.5ZM.674 4.778C0 5.787 0 7.19 0 10c0 2.809 0 4.213.674 5.222.292.437.667.812 1.104 1.104C2.787 17 4.19 17 7 17h6c2.809 0 4.213 0 5.222-.674a4.003 4.003 0 0 0 1.104-1.104C20 14.213 20 12.81 20 10c0-2.809 0-4.213-.674-5.222a4.002 4.002 0 0 0-1.104-1.104C17.213 3 15.81 3 13 3H7c-2.809 0-4.213 0-5.222.674A4 4 0 0 0 .674 4.778Z" clip-rule="evenodd"/><path fill="#212121" fill-rule="evenodd" d="M14 13a.75.75 0 0 1 .75-.75h1.5a.75.75 0 0 1 0 1.5h-1.5A.75.75 0 0 1 14 13ZM3 7a.75.75 0 0 1 .75-.75h1.5a.75.75 0 0 1 0 1.5h-1.5A.75.75 0 0 1 3 7Z" clip-rule="evenodd"/></svg>