<svg xmlns="http://www.w3.org/2000/svg" width="20" height="20" fill="none" viewBox="0 0 20 20"><path fill="#212121" fill-rule="evenodd" d="M0 8c0-2.809 0-4.213.674-5.222a4 4 0 0 1 1.104-1.104C2.787 1 4.19 1 7 1h6c2.809 0 4.213 0 5.222.674a4 4 0 0 1 1.104 1.104C20 3.787 20 5.19 20 8v1c0 1.864 0 2.796-.305 3.53a4 4 0 0 1-2.164 2.165C16.796 15 15.864 15 14 15c-.66 0-.99 0-1.307.052a3.996 3.996 0 0 0-1.216.405c-.286.15-.55.347-1.077.743l-3.2 2.4c-1.396 1.047-2.094 1.57-2.647 1.294C4 19.618 4 18.745 4 17v-1.2a.8.8 0 0 0-.8-.8A3.2 3.2 0 0 1 0 11.8V8Zm7-5.5h6c1.436 0 2.4.002 3.134.077.71.072 1.038.2 1.255.344a2.5 2.5 0 0 1 .69.69c.145.217.272.545.344 1.255.075.734.077 1.698.077 3.134v1c0 .952 0 1.592-.035 2.086-.032.482-.091.716-.155.87a2.5 2.5 0 0 1-1.353 1.354c-.155.064-.389.123-.87.155-.495.034-1.135.035-2.087.035h-.097c-.565 0-1.01 0-1.45.071a5.503 5.503 0 0 0-1.672.557c-.395.207-.751.474-1.203.814L6.3 17.4c-.32.24-.579.433-.794.589A55.58 55.58 0 0 1 5.5 17v-1.2a2.3 2.3 0 0 0-2.3-2.3 1.7 1.7 0 0 1-1.7-1.7V8c0-1.436.002-2.4.077-3.134.072-.71.2-1.038.344-1.255a2.5 2.5 0 0 1 .69-.69c.217-.145.545-.272 1.255-.344C4.6 2.502 5.564 2.5 7 2.5Z" clip-rule="evenodd"/><path fill="#212121" fill-rule="evenodd" d="M12.298 5.702a.75.75 0 0 1 0 1.06L11.061 8l1.237 1.237a.75.75 0 1 1-1.06 1.061L10 9.061l-1.237 1.237a.75.75 0 1 1-1.061-1.06L8.939 8 7.702 6.763a.75.75 0 0 1 1.06-1.061L10 6.939l1.237-1.237a.75.75 0 0 1 1.061 0Z" clip-rule="evenodd"/></svg>