<svg xmlns="http://www.w3.org/2000/svg" width="20" height="20" fill="none" viewBox="0 0 20 20"><path fill="#212121" fill-rule="evenodd" d="M10 18.5a8.5 8.5 0 1 0 0-17 8.5 8.5 0 0 0 0 17Zm0 1.5c5.523 0 10-4.477 10-10S15.523 0 10 0 0 4.477 0 10s4.477 10 10 10Z" clip-rule="evenodd"/><path fill="#212121" d="M7 10c0-1.315 0-1.972.363-2.415a1.6 1.6 0 0 1 .222-.222C8.028 7 8.685 7 10 7s1.973 0 2.415.363c.081.067.155.141.222.222C13 8.028 13 8.685 13 10s0 1.973-.363 2.415c-.067.081-.141.155-.222.222C11.973 13 11.315 13 10 13s-1.972 0-2.415-.363a1.602 1.602 0 0 1-.222-.222C7 11.973 7 11.315 7 10Z"/></svg>