<svg xmlns="http://www.w3.org/2000/svg" width="20" height="20" fill="none" viewBox="0 0 20 20"><path fill="#212121" fill-rule="evenodd" d="M6.223 1.081A2 2 0 0 1 8 0h4a2 2 0 0 1 1.777 1.081c1.424.117 2.362.4 3.051 1.09C18 3.344 18 5.23 18 9v3c0 3.771 0 5.657-1.172 6.828C15.657 20 13.771 20 10 20c-3.771 0-5.657 0-6.828-1.172C2 17.657 2 15.771 2 12V9c0-3.771 0-5.657 1.172-6.828.69-.69 1.627-.974 3.051-1.09ZM8 1.5h4a.5.5 0 0 1 0 1H8a.5.5 0 0 1 0-1ZM6.091 2.6c-.096.01-.19.02-.28.033-.923.124-1.318.339-1.579.6-.26.26-.475.655-.599 1.578C3.503 5.777 3.5 7.07 3.5 9v3c0 1.928.003 3.223.133 4.19.124.922.339 1.317.6 1.578.26.26.655.475 1.578.599.966.13 2.261.133 4.189.133s3.223-.003 4.19-.133c.922-.124 1.317-.339 1.578-.6.26-.26.475-.655.599-1.578.13-.966.133-2.261.133-4.19V9c0-1.927-.003-3.222-.133-4.188-.124-.923-.339-1.318-.6-1.579-.26-.26-.655-.475-1.578-.599a9.47 9.47 0 0 0-.28-.033A2 2 0 0 1 12 4H8a2 2 0 0 1-1.909-1.4Z" clip-rule="evenodd"/></svg>