<svg xmlns="http://www.w3.org/2000/svg" width="20" height="20" fill="none" viewBox="0 0 20 20"><path fill="#212121" fill-rule="evenodd" d="m5.39 11.244-1.792.288A2.501 2.501 0 0 0 4 16.5h10a4.5 4.5 0 0 0 .505-8.972l-.941-.105-.31-.895a4.5 4.5 0 1 0-8.485 3.01l.62 1.706Zm9.282-5.207A6 6 0 1 0 3.36 10.051 3.998 3.998 0 0 0 0 14a4 4 0 0 0 4 4h10a6 6 0 0 0 .672-11.963Z" clip-rule="evenodd"/><path fill="#212121" fill-rule="evenodd" d="M9.47 6.47a.75.75 0 0 1 1.06 0l3 3a.75.75 0 1 1-1.06 1.06l-1.72-1.72v5.39a.75.75 0 0 1-1.5 0V8.81l-1.72 1.72a.75.75 0 1 1-1.06-1.06l3-3Z" clip-rule="evenodd"/></svg>