<svg xmlns="http://www.w3.org/2000/svg" width="20" height="20" fill="none" viewBox="0 0 20 20"><path fill="#212121" d="M5 13.25a.75.75 0 0 1 .75-.75h5.5a.75.75 0 0 1 0 1.5h-5.5a.75.75 0 0 1-.75-.75Z"/><path fill="#212121" fill-rule="evenodd" d="M.204 6.447C0 7.21 0 8.14 0 10c0 1.86 0 2.79.204 3.553a6 6 0 0 0 4.243 4.243C5.21 18 6.14 18 8 18h4c1.86 0 2.79 0 3.553-.204a6 6 0 0 0 4.243-4.243C20 12.79 20 11.86 20 10c0-1.86 0-2.79-.204-3.553a6 6 0 0 0-4.243-4.243C14.79 2 13.86 2 12 2H8c-1.86 0-2.79 0-3.553.204A6 6 0 0 0 .204 6.447ZM12 3.5H8c-1.957 0-2.64.013-3.165.153A4.5 4.5 0 0 0 1.615 7h16.77a4.5 4.5 0 0 0-3.22-3.347C14.64 3.513 13.956 3.5 12 3.5Zm6.493 5H1.507c-.006.398-.007.886-.007 1.5 0 1.957.013 2.64.153 3.165a4.5 4.5 0 0 0 3.182 3.182c.524.14 1.208.153 3.165.153h4c1.957 0 2.64-.013 3.165-.153a4.5 4.5 0 0 0 3.182-3.182c.14-.524.153-1.208.153-3.165 0-.614-.001-1.102-.007-1.5Z" clip-rule="evenodd"/></svg>