<svg xmlns="http://www.w3.org/2000/svg" width="20" height="20" fill="none" viewBox="0 0 20 20"><path fill="#212121" fill-rule="evenodd" d="m3.53 12.93.258.302c1.265 1.479 1.619 1.844 2.044 2.04.425.196.932.228 2.875.228h4.31c1.432 0 2.393-.002 3.126-.076.707-.073 1.033-.2 1.249-.344.272-.182.505-.417.687-.69.145-.217.273-.545.345-1.255.074-.735.076-1.7.076-3.135 0-1.436-.002-2.4-.076-3.135-.072-.71-.2-1.038-.345-1.255a2.495 2.495 0 0 0-.687-.69c-.216-.144-.542-.271-1.249-.343-.733-.075-1.694-.077-3.126-.077h-4.31c-1.943 0-2.45.032-2.875.228-.425.196-.78.561-2.044 2.04l-.258.302c-.822.961-1.345 1.578-1.68 2.085-.311.473-.35.695-.35.845 0 .15.039.372.35.845.335.507.858 1.124 1.68 2.085Zm1.674-9.564c-.793.366-1.381 1.053-2.556 2.428l-.258.301C.797 7.96 0 8.89 0 10c0 1.11.797 2.041 2.39 3.905l.258.301c1.175 1.375 1.763 2.062 2.556 2.428C5.998 17 6.901 17 8.707 17h4.31c2.802 0 4.203 0 5.21-.674.435-.292.81-.667 1.1-1.104C20 14.213 20 12.81 20 10c0-2.809 0-4.213-.672-5.222a3.995 3.995 0 0 0-1.101-1.104C17.22 3 15.819 3 13.017 3h-4.31c-1.806 0-2.709 0-3.503.366Z" clip-rule="evenodd"/><path fill="#212121" fill-rule="evenodd" d="M10.47 7.47a.75.75 0 0 1 1.06 0L13 8.94l1.47-1.47a.75.75 0 1 1 1.06 1.06L14.06 10l1.47 1.47a.75.75 0 1 1-1.06 1.06L13 11.06l-1.47 1.47a.75.75 0 0 1-1.06-1.06L11.94 10l-1.47-1.47a.75.75 0 0 1 0-1.06Z" clip-rule="evenodd"/></svg>