<svg xmlns="http://www.w3.org/2000/svg" width="20" height="20" fill="none" viewBox="0 0 20 20"><path fill="#212121" fill-rule="evenodd" d="M8.618 2.69c-.606.462-1.315 1.169-2.33 2.184L4.873 6.288C3.858 7.303 3.152 8.012 2.69 8.618c-.449.588-.596.99-.596 1.382 0 .392.147.794.596 1.383.463.605 1.17 1.314 2.184 2.33l1.415 1.414c1.015 1.015 1.724 1.721 2.33 2.184.588.449.99.596 1.382.596.391 0 .794-.147 1.382-.596.606-.463 1.315-1.17 2.33-2.184l1.415-1.415c1.014-1.015 1.721-1.724 2.184-2.33.449-.588.596-.99.596-1.382 0-.391-.147-.794-.596-1.382-.463-.606-1.17-1.315-2.184-2.33l-1.415-1.414c-1.015-1.015-1.724-1.722-2.33-2.184-.588-.45-.99-.597-1.382-.597-.391 0-.794.147-1.382.597Zm-.91-1.193C8.43.947 9.148.593 10 .593c.851 0 1.57.353 2.292.904.696.53 1.475 1.31 2.442 2.277l1.492 1.492c.967.967 1.747 1.746 2.277 2.442.551.722.904 1.44.904 2.292 0 .851-.353 1.57-.904 2.292-.53.696-1.31 1.475-2.277 2.442l-1.492 1.492c-.967.967-1.746 1.747-2.442 2.277-.722.551-1.44.904-2.292.904-.851 0-1.57-.353-2.292-.904-.696-.53-1.475-1.31-2.442-2.277l-1.492-1.492c-.967-.967-1.747-1.746-2.277-2.442C.946 11.57.593 10.852.593 10c0-.851.353-1.57.904-2.292.53-.696 1.31-1.475 2.277-2.442l1.492-1.492c.967-.967 1.746-1.746 2.442-2.277Z" clip-rule="evenodd"/><path fill="#212121" fill-rule="evenodd" d="M9.97 6.47a.75.75 0 0 1 1.06 0l3 3a.75.75 0 0 1 0 1.06l-3 3a.75.75 0 1 1-1.06-1.06l1.72-1.72H6.3a.75.75 0 0 1 0-1.5h5.39L9.97 7.53a.75.75 0 0 1 0-1.06Z" clip-rule="evenodd"/></svg>