<svg xmlns="http://www.w3.org/2000/svg" width="20" height="20" fill="none" viewBox="0 0 20 20"><path fill="#212121" fill-rule="evenodd" d="M10 18.5a8.5 8.5 0 1 0 0-17 8.5 8.5 0 0 0 0 17Zm0 1.5c5.523 0 10-4.477 10-10S15.523 0 10 0 0 4.477 0 10s4.477 10 10 10Z" clip-rule="evenodd"/><path fill="#212121" d="M6.416 7.75a4.752 4.752 0 0 1 8.146-1.892.75.75 0 1 1-1.124.992 3.251 3.251 0 0 0-5.439.9H10a.75.75 0 0 1 0 1.5H7.75v1.5H10a.75.75 0 0 1 0 1.5H8a3.25 3.25 0 0 0 5.438.9.75.75 0 0 1 1.124.992 4.752 4.752 0 0 1-8.146-1.892H5a.75.75 0 0 1 0-1.5h1.25v-1.5H5a.75.75 0 0 1 0-1.5h1.416Z"/></svg>