<svg xmlns="http://www.w3.org/2000/svg" width="20" height="20" fill="none" viewBox="0 0 20 20"><path fill="#212121" fill-rule="evenodd" d="M10.4 0H10C6.229 0 4.343 0 3.172 1.172 2 2.343 2 4.229 2 8v4c0 3.771 0 5.657 1.172 6.828C4.343 20 6.229 20 10 20c3.771 0 5.657 0 6.828-1.172C18 17.657 18 15.771 18 12V7.6h-1.6V12c0 1.93-.003 3.218-.132 4.176-.123.912-.332 1.282-.57 1.521-.24.239-.61.448-1.522.57-.958.13-2.245.133-4.176.133-1.93 0-3.218-.003-4.176-.132-.912-.123-1.282-.332-1.521-.57-.239-.24-.448-.61-.57-1.522C3.602 15.218 3.6 13.93 3.6 12V8c0-1.93.003-3.218.132-4.176.123-.912.332-1.282.57-1.521.24-.239.61-.448 1.522-.57C6.782 1.602 8.07 1.6 10 1.6h.4V0Z" clip-rule="evenodd"/><path fill="#212121" fill-rule="evenodd" d="M6 10.25a.75.75 0 0 1 .75-.75h6.5a.75.75 0 0 1 0 1.5h-6.5a.75.75 0 0 1-.75-.75ZM6 14.25a.75.75 0 0 1 .75-.75h3.5a.75.75 0 0 1 0 1.5h-3.5a.75.75 0 0 1-.75-.75Z" clip-rule="evenodd"/><path fill="#212121" d="M12 4V.724a.3.3 0 0 1 .512-.212l4.976 4.976a.3.3 0 0 1-.212.512H14a2 2 0 0 1-2-2Z"/></svg>