<svg xmlns="http://www.w3.org/2000/svg" width="20" height="20" fill="none" viewBox="0 0 20 20"><path fill="#212121" fill-rule="evenodd" d="M18.4 11.5v-1.289c0-1.22-.011-1.545-.067-1.776a2.4 2.4 0 0 0-1.768-1.767c-.232-.057-.557-.068-1.776-.068h-.986a4.968 4.968 0 0 1-4.134-2.212A1.769 1.769 0 0 0 8.197 3.6H6.514c-1.202 0-2.002.001-2.616.054-.594.05-.864.14-1.035.232a2.4 2.4 0 0 0-.977.977c-.092.171-.181.441-.232 1.035C1.6 6.512 1.6 7.312 1.6 8.514V10c0 1.93.003 3.218.132 4.176.123.912.332 1.282.57 1.521.24.239.61.448 1.522.57.958.13 2.245.133 4.176.133h5.5c1.195 0 1.99-.001 2.601-.053.591-.05.86-.14 1.03-.23a2.4 2.4 0 0 0 .986-.986c.09-.17.18-.439.23-1.03.052-.61.053-1.406.053-2.601ZM.477 4.105C0 4.992 0 6.166 0 8.514V10c0 3.771 0 5.657 1.172 6.828C2.343 18 4.229 18 8 18h5.5c2.335 0 3.502 0 4.386-.472a4 4 0 0 0 1.642-1.642C20 15.002 20 13.835 20 11.5v-1.289c0-1.126 0-1.689-.113-2.153a4 4 0 0 0-2.945-2.945C16.478 5 15.915 5 14.79 5h-.986A3.368 3.368 0 0 1 11 3.5 3.368 3.368 0 0 0 8.197 2H6.514c-2.348 0-3.522 0-4.41.477A4 4 0 0 0 .478 4.105Z" clip-rule="evenodd"/><path fill="#212121" fill-rule="evenodd" d="M9.47 7.47a.75.75 0 0 1 1.06 0l3 3a.75.75 0 1 1-1.06 1.06l-1.72-1.72v4.39a.75.75 0 0 1-1.5 0V9.81l-1.72 1.72a.75.75 0 0 1-1.06-1.06l3-3Z" clip-rule="evenodd"/></svg>