<svg xmlns="http://www.w3.org/2000/svg" width="20" height="20" fill="none" viewBox="0 0 20 20"><path fill="#212121" fill-rule="evenodd" d="M16.942 5.113a4 4 0 0 1 2.945 2.945l-1.457.353a2.5 2.5 0 0 0-1.841-1.84c-.246-.06-.587-.071-1.8-.071h-.986a4.869 4.869 0 0 1-4.051-2.168A1.868 1.868 0 0 0 8.197 3.5H6.514c-1.2 0-2.005.001-2.624.054-.6.052-.886.143-1.075.244a2.5 2.5 0 0 0-1.017 1.018c-.1.188-.192.473-.244 1.074-.053.619-.054 1.424-.054 2.624V10c0 1.928.003 3.223.133 4.19.124.922.339 1.317.6 1.578.26.26.655.475 1.578.599.966.13 2.261.133 4.189.133h2.669a5 5 0 0 1 7.831-6.07v-.219c0-1.213-.01-1.554-.07-1.8l1.457-.353C20 8.522 20 9.085 20 10.21V11.5c0 .813 0 1.484-.02 2.05-.005.158-.012.308-.021.45-.052.817-.17 1.395-.431 1.886a4 4 0 0 1-1.642 1.642c-.67.358-1.504.444-2.886.465-.44.007-.936.007-1.5.007H8c-3.771 0-5.657 0-6.828-1.172C0 15.657 0 13.771 0 10V8.514c0-2.348 0-3.522.477-4.41a4 4 0 0 1 1.628-1.627C2.992 2 4.166 2 6.514 2h1.683c1.127 0 2.178.563 2.803 1.5A3.368 3.368 0 0 0 13.803 5h.986c1.126 0 1.689 0 2.153.113Zm1.535 8.486a3.5 3.5 0 1 0-6.955.803 3.5 3.5 0 0 0 6.955-.803Z" clip-rule="evenodd"/><path fill="#212121" fill-rule="evenodd" d="M20 14a5 5 0 1 1-10 0 5 5 0 0 1 10 0Zm-2.977 2.856a3.5 3.5 0 0 1-4.88-4.88l4.88 4.88Zm1.011-1.11-4.78-4.78a3.5 3.5 0 0 1 4.78 4.78Z" clip-rule="evenodd"/></svg>