<svg xmlns="http://www.w3.org/2000/svg" width="20" height="20" fill="none" viewBox="0 0 20 20"><path stroke="#212121" stroke-width="1.5" d="m3.159 19.14-.194.724.194-.725A3.25 3.25 0 0 1 .86 16.841c-.105-.39-.111-.886-.111-2.174v-4.138c0-1.12 0-1.907.061-2.53.06-.608.17-1 .36-1.336.19-.335.47-.633.96-.996.503-.372 1.178-.778 2.139-1.354l4.058-2.435c.514-.309.853-.51 1.13-.641.263-.124.414-.155.542-.155.128 0 .28.031.542.155.277.13.616.332 1.13.64l4.058 2.436c.961.576 1.636.982 2.139 1.354.49.363.77.661.96.996l.652-.37-.653.37c.19.336.302.728.36 1.335.061.624.062 1.41.062 2.531v4.138c0 1.288-.006 1.785-.11 2.174a3.25 3.25 0 0 1-2.299 2.298c-.39.105-.886.11-2.174.11-.669 0-.856-.005-.99-.042a1.25 1.25 0 0 1-.884-.884c-.037-.134-.043-.322-.043-.99v-1.378c0-.433 0-.83-.043-1.152-.048-.356-.16-.732-.47-1.04-.309-.31-.684-.422-1.04-.47-.323-.043-.72-.043-1.152-.043h-.09c-.433 0-.83 0-1.152.043-.356.048-.731.16-1.04.47-.31.309-.422.684-.47 1.04-.043.322-.043.72-.043 1.152v1.378c0 .669-.006.856-.043.99a1.25 1.25 0 0 1-.883.884c-.135.037-.322.043-.99.043-1.289 0-1.786-.006-2.175-.11Z"/></svg>