<svg xmlns="http://www.w3.org/2000/svg" width="20" height="20" fill="none" viewBox="0 0 20 20"><path fill="#212121" fill-rule="evenodd" d="M.228 1.852C0 2.403 0 3.102 0 4.5c0 1.398 0 2.097.228 2.648a3 3 0 0 0 1.624 1.624C2.403 9 3.102 9 4.5 9c1.398 0 2.097 0 2.648-.228a3 3 0 0 0 1.624-1.624C9 6.597 9 5.898 9 4.5c0-1.398 0-2.097-.228-2.648A3 3 0 0 0 7.148.228C6.597 0 5.898 0 4.5 0 3.102 0 2.403 0 1.852.228A3 3 0 0 0 .228 1.852Zm2.733 5.623c.355.024.82.025 1.539.025.72 0 1.184 0 1.54-.025.341-.023.472-.063.534-.09a1.5 1.5 0 0 0 .812-.811c.026-.062.066-.193.089-.535.024-.355.025-.82.025-1.539 0-.72 0-1.184-.025-1.54-.023-.341-.063-.472-.09-.534a1.5 1.5 0 0 0-.811-.812c-.062-.026-.193-.066-.535-.089C5.684 1.501 5.22 1.5 4.5 1.5s-1.184 0-1.54.025c-.341.023-.472.063-.534.09a1.5 1.5 0 0 0-.812.811c-.026.062-.066.193-.089.535-.024.355-.025.82-.025 1.539 0 .72 0 1.184.025 1.54.023.341.063.472.09.534a1.5 1.5 0 0 0 .811.812c.062.026.193.066.535.089ZM11 4.5c0-1.398 0-2.097.228-2.648A3 3 0 0 1 12.852.228C13.403 0 14.102 0 15.5 0c1.398 0 2.097 0 2.648.228a3 3 0 0 1 1.624 1.624C20 2.403 20 3.102 20 4.5c0 1.398 0 2.097-.228 2.648a3 3 0 0 1-1.624 1.624C17.597 9 16.898 9 15.5 9c-1.398 0-2.097 0-2.648-.228a3 3 0 0 1-1.624-1.624C11 6.597 11 5.898 11 4.5Zm4.5 3c-.72 0-1.184 0-1.54-.025-.341-.023-.472-.063-.534-.09a1.5 1.5 0 0 1-.812-.811c-.026-.062-.066-.193-.089-.535-.024-.355-.025-.82-.025-1.539 0-.72 0-1.184.025-1.54.023-.341.063-.472.09-.534a1.5 1.5 0 0 1 .811-.812c.062-.026.193-.066.535-.089.355-.024.82-.025 1.539-.025.72 0 1.184 0 1.54.025.341.023.472.063.534.09a1.5 1.5 0 0 1 .812.811c.026.062.066.193.089.535.024.355.025.82.025 1.539 0 .72 0 1.184-.025 1.54-.023.341-.063.472-.09.534a1.5 1.5 0 0 1-.811.812c-.062.026-.193.066-.535.089-.355.024-.82.025-1.539.025ZM0 15.5c0-1.398 0-2.097.228-2.648a3 3 0 0 1 1.624-1.624C2.403 11 3.102 11 4.5 11c1.398 0 2.097 0 2.648.228a3 3 0 0 1 1.624 1.624C9 13.403 9 14.102 9 15.5c0 1.398 0 2.097-.228 2.648a3 3 0 0 1-1.624 1.624C6.597 20 5.898 20 4.5 20c-1.398 0-2.097 0-2.648-.228a3 3 0 0 1-1.624-1.624C0 17.597 0 16.898 0 15.5Zm4.5 3c-.72 0-1.184 0-1.54-.025-.341-.023-.472-.063-.534-.09a1.5 1.5 0 0 1-.812-.811c-.026-.062-.066-.193-.089-.535-.024-.355-.025-.82-.025-1.539 0-.72 0-1.184.025-1.54.023-.341.063-.472.09-.534a1.5 1.5 0 0 1 .811-.812c.062-.026.193-.066.535-.089.355-.024.82-.025 1.539-.025.72 0 1.184 0 1.54.025.341.023.472.063.534.09a1.5 1.5 0 0 1 .812.811c.026.062.066.193.089.535.024.355.025.82.025 1.539 0 .72 0 1.184-.025 1.54-.023.341-.063.472-.09.534a1.5 1.5 0 0 1-.811.812c-.062.026-.193.066-.535.089-.355.024-.82.025-1.539.025Zm11-7.45a.75.75 0 0 1 .75.75v2.95h2.95a.75.75 0 0 1 0 1.5h-2.95v2.95a.75.75 0 1 1-1.5 0v-2.95H11.8a.75.75 0 1 1 0-1.5h2.95V11.8a.75.75 0 0 1 .75-.75Z" clip-rule="evenodd"/></svg>