<svg xmlns="http://www.w3.org/2000/svg" width="20" height="20" fill="none" viewBox="0 0 20 20"><path fill="#212121" fill-rule="evenodd" d="M17 7c0 1.917-.737 2.916-1.48 3.924-.462.625-.926 1.254-1.218 2.107C13.945 14.076 13.105 15 12 15H8c-1.105 0-1.964-.914-2.274-1.975-.326-1.114-.894-1.975-1.427-2.784C3.622 9.214 3 8.271 3 7a7 7 0 0 1 14 0Zm-1.5 0c0 1.163-.335 1.821-.799 2.494-.088.129-.196.273-.314.433-.474.638-1.128 1.52-1.504 2.619-.11.324-.286.59-.467.758-.172.157-.31.196-.416.196h-1.25v-2.624c0-.357.213-.672.432-.953a1.5 1.5 0 1 0-2.365 0c.22.281.433.596.433.953V13.5H8c-.115 0-.255-.042-.418-.193a1.573 1.573 0 0 1-.416-.703c-.394-1.347-1.092-2.4-1.621-3.2-.07-.106-.139-.208-.202-.306C4.768 8.214 4.5 7.663 4.5 7a5.5 5.5 0 1 1 11 0Z" clip-rule="evenodd"/><path fill="#212121" d="M7.25 19.25A.75.75 0 0 1 8 18.5h4a.75.75 0 0 1 0 1.5H8a.75.75 0 0 1-.75-.75ZM7.5 16a.75.75 0 0 0 0 1.5h5a.75.75 0 0 0 0-1.5h-5Z"/></svg>