<svg xmlns="http://www.w3.org/2000/svg" width="20" height="20" fill="none" viewBox="0 0 20 20"><path fill="#212121" fill-rule="evenodd" d="M14.207 13.34C15.565 11.405 16.5 9.363 16.5 7.5c0-3.224-2.818-6-6.5-6-3.683 0-6.5 2.776-6.5 6 0 1.862.935 3.904 2.293 5.84 1.335 1.906 2.95 3.527 4.025 4.515a.266.266 0 0 0 .182.076c.055 0 .12-.018.182-.076 1.075-.988 2.69-2.61 4.025-4.514Zm-3.01 5.62C13.43 16.91 18 12.142 18 7.5 18 3.358 14.418 0 10 0S2 3.358 2 7.5c0 4.643 4.571 9.41 6.803 11.46a1.754 1.754 0 0 0 2.394 0Z" clip-rule="evenodd"/><path fill="#212121" d="M13 8a3 3 0 1 1-6 0 3 3 0 0 1 6 0Z"/></svg>