<svg xmlns="http://www.w3.org/2000/svg" width="20" height="20" fill="none" viewBox="0 0 20 20"><path fill="#212121" d="M11.5 15.5a1.5 1.5 0 1 1-3 0 1.5 1.5 0 0 1 3 0ZM8.5 3a.5.5 0 0 0 0 1h3a.5.5 0 0 0 0-1h-3Z"/><path fill="#212121" fill-rule="evenodd" d="M4.73 19.455C5.8 20 7.2 20 10 20c2.8 0 4.2 0 5.27-.545a5 5 0 0 0 2.185-2.185C18 16.2 18 14.8 18 12V8c0-2.8 0-4.2-.545-5.27A5 5 0 0 0 15.27.545C14.2 0 12.8 0 10 0 7.2 0 5.8 0 4.73.545A5 5 0 0 0 2.545 2.73C2 3.8 2 5.2 2 8v4c0 2.8 0 4.2.545 5.27a5 5 0 0 0 2.185 2.185ZM3.5 8v4c0 1.425.001 2.403.063 3.162.06.74.172 1.139.318 1.427a3.5 3.5 0 0 0 1.53 1.53c.288.146.686.257 1.427.318.759.062 1.737.063 3.162.063 1.425 0 2.403-.001 3.162-.063.74-.06 1.139-.172 1.427-.319a3.5 3.5 0 0 0 1.53-1.529c.146-.288.257-.686.318-1.427.062-.759.063-1.737.063-3.162V8c0-1.425-.001-2.403-.063-3.162-.06-.74-.172-1.139-.319-1.427a3.5 3.5 0 0 0-1.529-1.53c-.288-.146-.686-.257-1.427-.318C12.403 1.501 11.425 1.5 10 1.5c-1.425 0-2.403.001-3.162.063-.74.06-1.139.172-1.427.318a3.5 3.5 0 0 0-1.53 1.53c-.146.288-.257.686-.318 1.427C3.501 5.597 3.5 6.575 3.5 8Z" clip-rule="evenodd"/></svg>