<svg xmlns="http://www.w3.org/2000/svg" width="20" height="20" fill="none" viewBox="0 0 20 20"><path fill="#212121" fill-rule="evenodd" d="M.1 7.364v.073c0 1.136 0 2.04.062 2.768.063.746.196 1.38.505 1.958a4.8 4.8 0 0 0 1.97 1.97c.578.309 1.212.442 1.958.505.728.062 1.632.062 2.768.062h1.814a.75.75 0 0 0-.027.2v3.5h-4.5a.75.75 0 0 0 0 1.5h10.5a.75.75 0 0 0 0-1.5h-4.5v-3.5a.75.75 0 0 0-.027-.2h1.814c1.136 0 2.04 0 2.768-.062.745-.063 1.38-.196 1.958-.505a4.8 4.8 0 0 0 1.97-1.97c.309-.578.442-1.212.505-1.958.062-.728.062-1.632.062-2.768v-.073c0-1.137 0-2.04-.062-2.769-.063-.745-.196-1.38-.505-1.958a4.8 4.8 0 0 0-1.97-1.97C16.585.358 15.95.225 15.205.162 14.477.1 13.573.1 12.437.1H7.364c-1.137 0-2.04 0-2.769.062-.746.063-1.38.196-1.958.505a4.8 4.8 0 0 0-1.97 1.97C.358 3.215.225 3.85.162 4.595.1 5.323.1 6.227.1 7.364Zm1.978 4.045c-.164-.307-.267-.697-.322-1.34C1.701 9.417 1.7 8.581 1.7 7.4s0-2.017.056-2.669c.055-.642.158-1.033.322-1.34a3.2 3.2 0 0 1 1.314-1.313c.306-.164.696-.267 1.339-.322C5.383 1.701 6.219 1.7 7.4 1.7h5c1.181 0 2.017 0 2.67.056.641.055 1.032.158 1.338.322a3.2 3.2 0 0 1 1.314 1.314c.164.306.267.697.322 1.339.055.652.056 1.488.056 2.67 0 1.18 0 2.016-.056 2.668-.055.643-.158 1.033-.322 1.34a3.2 3.2 0 0 1-1.314 1.313c-.306.164-.697.267-1.339.322-.652.055-1.488.056-2.669.056h-5c-1.181 0-2.017 0-2.67-.056-.642-.055-1.032-.158-1.338-.322a3.2 3.2 0 0 1-1.314-1.313Z" clip-rule="evenodd"/></svg>