<svg xmlns="http://www.w3.org/2000/svg" width="20" height="20" fill="none" viewBox="0 0 20 20"><path fill="#212121" d="M10.75 5.75a.75.75 0 0 0-1.5 0v3.5a.75.75 0 0 0 1.5 0v-3.5Z"/><path fill="#212121" fill-rule="evenodd" d="M10 20c-.929 0-1.393 0-1.784-.044a7 7 0 0 1-6.172-6.172C2 13.394 2 12.929 2 12V8c0-.929 0-1.393.044-1.784A7 7 0 0 1 8.216.044C8.606 0 9.071 0 10 0s1.393 0 1.784.044a7 7 0 0 1 6.172 6.172C18 6.606 18 7.071 18 8v4c0 .929 0 1.393-.044 1.784a7 7 0 0 1-6.172 6.172C11.394 20 10.929 20 10 20Zm-6.5-8V8c0-.97.002-1.33.035-1.616a5.5 5.5 0 0 1 4.85-4.85C8.67 1.503 9.03 1.5 10 1.5s1.33.002 1.616.035a5.5 5.5 0 0 1 4.85 4.85c.032.285.034.645.034 1.615v4c0 .97-.002 1.33-.035 1.616a5.5 5.5 0 0 1-4.85 4.85c-.285.032-.645.034-1.615.034s-1.33-.002-1.616-.035a5.5 5.5 0 0 1-4.85-4.85C3.503 13.33 3.5 12.97 3.5 12Z" clip-rule="evenodd"/></svg>