<svg xmlns="http://www.w3.org/2000/svg" width="20" height="20" fill="none" viewBox="0 0 20 20"><path fill="#212121" d="M5 16.5a1.5 1.5 0 1 0 0-3 1.5 1.5 0 0 0 0 3Z"/><path fill="#212121" fill-rule="evenodd" d="M.402 1.5C0 2.196 0 3.13 0 5v10a5 5 0 0 0 5 5h10c1.87 0 2.804 0 3.5-.402a3 3 0 0 0 1.098-1.098C20 17.804 20 16.87 20 15s0-2.804-.402-3.5a3 3 0 0 0-1.098-1.098c-.39-.225-.853-.324-1.513-.367-.343.392-.798.846-1.38 1.43l-.037.036c.65.002 1.114.01 1.485.043.45.04.613.11.695.157a1.5 1.5 0 0 1 .549.549c.047.082.116.245.157.695.043.471.044 1.093.044 2.055 0 .962-.001 1.584-.044 2.055-.04.45-.11.613-.157.695a1.5 1.5 0 0 1-.549.549c-.082.047-.245.116-.695.157-.471.043-1.093.044-2.055.044H8.57l.01-.01 7.027-7.026c1.321-1.322 1.982-1.983 2.19-2.759a3 3 0 0 0 0-1.553c-.208-.776-.869-1.437-2.19-2.759-1.322-1.322-1.983-1.983-2.76-2.19a3 3 0 0 0-1.553 0c-.434.116-.831.373-1.329.809-.043-.66-.142-1.123-.367-1.512A3 3 0 0 0 8.5.402C7.804 0 6.87 0 5 0S2.196 0 1.5.402A3 3 0 0 0 .402 1.5ZM8.5 15V5c0-.962-.001-1.584-.044-2.055-.04-.45-.11-.613-.157-.695a1.5 1.5 0 0 0-.549-.549c-.082-.047-.245-.116-.695-.157C6.584 1.501 5.962 1.5 5 1.5c-.962 0-1.584.001-2.055.044-.45.04-.613.11-.695.157a1.5 1.5 0 0 0-.549.549c-.047.082-.116.245-.157.695C1.501 3.416 1.5 4.038 1.5 5v10a3.5 3.5 0 1 0 7 0Zm6.046-4.597L10 14.95V5.05c.46-.457.794-.78 1.08-1.018.347-.29.511-.356.603-.38a1.5 1.5 0 0 1 .776 0c.091.024.255.09.603.38.363.303.803.741 1.484 1.422.68.68 1.119 1.12 1.421 1.484.29.347.357.511.381.602.068.255.068.522 0 .777-.024.09-.091.255-.38.602-.303.364-.742.804-1.422 1.484Z" clip-rule="evenodd"/></svg>