<svg xmlns="http://www.w3.org/2000/svg" width="20" height="20" fill="none" viewBox="0 0 20 20"><path fill="#212121" fill-rule="evenodd" d="m16.72 3.245.035.035c.315.315.577.577.778.807.209.24.387.484.508.775.279.674.279 1.43 0 2.105-.12.29-.3.535-.508.774-.201.23-.463.493-.778.807L8.653 16.65l-.038.038c-.155.156-.322.324-.532.443-.21.119-.439.176-.652.229l-.052.013-1.945.489c-.676.17-1.264.317-1.731.364-.49.048-1.058.01-1.498-.43-.44-.44-.48-1.009-.43-1.499.046-.467.193-1.055.363-1.73l.49-1.946.012-.052c.053-.213.11-.443.23-.652.118-.21.286-.377.442-.532l.038-.038 8.102-8.102c.314-.315.577-.577.807-.778.24-.209.484-.387.774-.508a2.75 2.75 0 0 1 2.105 0c.29.12.535.3.775.508.23.201.492.463.807.778Zm-1.793.353c-.182-.159-.286-.22-.363-.253a1.25 1.25 0 0 0-.957 0c-.077.032-.18.094-.362.253-.187.163-.413.389-.75.725l-.177.177L15.5 7.682l.177-.177c.337-.337.562-.563.725-.75.159-.182.22-.285.253-.362a1.25 1.25 0 0 0 0-.957c-.032-.077-.094-.181-.253-.363a17.143 17.143 0 0 0-.725-.75 17.093 17.093 0 0 0-.75-.725Zm-.488 5.145L11.257 5.56 4.41 12.408a6.098 6.098 0 0 0-.231.242l-.004.006-.004.008a6.11 6.11 0 0 0-.09.323l-.474 1.889c-.188.748-.306 1.226-.34 1.57a.953.953 0 0 0 .001.284v.001h.002a.95.95 0 0 0 .285.002c.343-.034.821-.152 1.57-.34l1.888-.475a6.047 6.047 0 0 0 .323-.09l.007-.002.007-.005a6.15 6.15 0 0 0 .242-.232l6.847-6.846Z" clip-rule="evenodd"/></svg>