<svg xmlns="http://www.w3.org/2000/svg" width="20" height="20" fill="none" viewBox="0 0 20 20"><path fill="#212121" fill-rule="evenodd" d="M6.248 3.026a1.25 1.25 0 0 0-2.018-.36l-.718.718c-1.41 1.41-1.624 3.568-.457 5.1 1.057 1.388 2.409 3.029 3.91 4.53 1.5 1.5 3.14 2.852 4.529 3.909 1.532 1.167 3.69.953 5.1-.457l.717-.718a1.25 1.25 0 0 0-.36-2.019l-2.87-1.325a.25.25 0 0 0-.217.004l-1.45.731a2.75 2.75 0 0 1-3.183-.51L7.35 10.746a2.75 2.75 0 0 1-.51-3.184l.731-1.449a.25.25 0 0 0 .004-.217l-1.326-2.87ZM3.17 1.607a2.75 2.75 0 0 1 4.441.792l1.326 2.87a1.75 1.75 0 0 1-.027 1.522L8.179 8.24a1.25 1.25 0 0 0 .232 1.447l1.882 1.882a1.25 1.25 0 0 0 1.447.232l1.449-.731a1.75 1.75 0 0 1 1.522-.027l2.87 1.326a2.75 2.75 0 0 1 .792 4.44l-.718.718c-1.892 1.892-4.885 2.253-7.07.59-1.42-1.082-3.117-2.478-4.68-4.042-1.564-1.564-2.96-3.26-4.042-4.681C.2 7.21.561 4.216 2.453 2.324l.717-.717Z" clip-rule="evenodd"/><path fill="#212121" fill-rule="evenodd" d="M12.48 2.22a.75.75 0 0 1 1.06 0l1.591 1.59 1.591-1.59a.75.75 0 0 1 1.061 1.06l-1.591 1.591 1.591 1.591a.75.75 0 1 1-1.06 1.061L15.13 5.932l-1.59 1.591a.75.75 0 1 1-1.061-1.06l1.59-1.592-1.59-1.59a.75.75 0 0 1 0-1.061Z" clip-rule="evenodd"/></svg>