<svg xmlns="http://www.w3.org/2000/svg" width="20" height="20" fill="none" viewBox="0 0 20 20"><path fill="#212121" fill-rule="evenodd" d="M1.173 5.966c-.532-1.036-.39-2.422.669-3.191C4.102 1.132 7.07.335 10 .335c2.93 0 5.898.797 8.158 2.44 1.058.77 1.2 2.155.668 3.191l-6.38 12.416c-1.023 1.99-3.869 1.99-4.892 0L1.174 5.966Zm1.55-1.978c-.347.253-.478.782-.215 1.292l6.38 12.416a1.25 1.25 0 0 0 2.224 0l6.38-12.416c.262-.51.131-1.04-.216-1.292-1.953-1.42-4.595-2.154-7.276-2.154s-5.323.734-7.276 2.154Z" clip-rule="evenodd"/><path fill="#000" fill-rule="evenodd" d="M13.807 6.33a10.25 10.25 0 0 0-7.614 0l-.914.366a.75.75 0 1 1-.558-1.393l.915-.365a11.75 11.75 0 0 1 8.728 0l.914.365a.75.75 0 1 1-.557 1.393l-.914-.366Z" clip-rule="evenodd"/><circle cx="10.5" cy="14.5" r="1.5" fill="#212121"/><circle cx="8" cy="10.5" r="1.5" fill="#212121"/><circle cx="12.5" cy="9.5" r="1.5" fill="#212121"/></svg>