<svg xmlns="http://www.w3.org/2000/svg" width="20" height="20" fill="none" viewBox="0 0 20 20"><path fill="#212121" d="M14.277 5.773a1 1 0 1 0 1.414-1.414 1 1 0 0 0-1.414 1.414Z"/><path fill="#212121" fill-rule="evenodd" d="M10.11 13.98 6.07 9.94.465 7.539l.442-.737c1.248-2.08 3.472-2.683 5.215-2.807a12.143 12.143 0 0 1 2.854.145l2.49-2.347A4.75 4.75 0 0 1 15.088.514l2.636.203a1.75 1.75 0 0 1 1.61 1.61l.203 2.636a4.75 4.75 0 0 1-1.278 3.621l-2.347 2.491a12.145 12.145 0 0 1 .145 2.853c-.124 1.744-.727 3.968-2.807 5.216l-.737.442-2.403-5.607Zm7.728-11.538a.25.25 0 0 0-.23-.23l-2.636-.202a3.25 3.25 0 0 0-2.478.874l-2.7 2.543L7.45 9.199l3.401 3.4 3.772-2.344 2.543-2.7a3.25 3.25 0 0 0 .874-2.477l-.202-2.636Zm-3.306 9.636-2.847 1.77 1.488 3.473c.932-.912 1.296-2.222 1.387-3.5.046-.647.02-1.256-.028-1.743Zm-6.56-6.56a10.492 10.492 0 0 0-1.744-.028c-1.277.091-2.587.455-3.499 1.387l3.473 1.488 1.77-2.847Z" clip-rule="evenodd"/><path fill="#212121" d="M8.183 13.821 6.23 11.867a1 1 0 0 0-1.656.39l-1.293 3.88a.5.5 0 0 0 .632.633l3.88-1.293a1 1 0 0 0 .391-1.656Z"/></svg>