<svg xmlns="http://www.w3.org/2000/svg" width="20" height="20" fill="none" viewBox="0 0 20 20"><path fill="#212121" d="M5 5a1 1 0 0 0 0 2h1a1 1 0 1 0 0-2H5ZM10 5a1 1 0 0 0 0 2h5a1 1 0 1 0 0-2h-5ZM4 14a1 1 0 0 1 1-1h1a1 1 0 1 1 0 2H5a1 1 0 0 1-1-1ZM9 14a1 1 0 0 1 1-1h5a1 1 0 1 1 0 2h-5a1 1 0 0 1-1-1Z"/><path fill="#212121" fill-rule="evenodd" d="M11.056 1.25c1.838 0 3.294 0 4.433.153 1.172.158 2.121.49 2.87 1.238.748.749 1.08 1.698 1.238 2.87.153 1.14.153 2.595.153 4.433v.112c0 1.838 0 3.294-.153 4.433-.158 1.172-.49 2.121-1.238 2.87-.749.748-1.698 1.08-2.87 1.238-1.14.153-2.595.153-4.433.153H8.944c-1.838 0-3.294 0-4.433-.153-1.172-.158-2.121-.49-2.87-1.238-.748-.749-1.08-1.698-1.238-2.87C.25 13.349.25 11.894.25 10.056v-.112c0-1.838 0-3.294.153-4.433.158-1.172.49-2.121 1.238-2.87.749-.748 1.698-1.08 2.87-1.238 1.14-.153 2.595-.153 4.433-.153h2.112ZM4.712 2.89c-1.006.135-1.586.389-2.01.812-.422.423-.676 1.003-.811 2.009-.12.887-.137 2.019-.14 3.539h16.5c-.003-1.52-.02-2.652-.14-3.54-.135-1.005-.389-1.585-.812-2.008-.423-.423-1.003-.677-2.009-.812-1.027-.138-2.382-.14-4.289-.14H9c-1.907 0-3.261.002-4.29.14Zm13.539 7.86H1.75c.003 1.52.02 2.652.14 3.54.135 1.005.389 1.585.812 2.008.423.423 1.003.677 2.009.812 1.028.138 2.382.14 4.289.14h2c1.907 0 3.261-.002 4.29-.14 1.005-.135 1.585-.389 2.008-.812.423-.423.677-1.003.812-2.009.12-.887.137-2.019.14-3.539Z" clip-rule="evenodd"/></svg>