<svg xmlns="http://www.w3.org/2000/svg" width="20" height="20" fill="none" viewBox="0 0 20 20"><path fill="#212121" fill-rule="evenodd" d="M.75 2.25a.75.75 0 0 0 0 1.5h.345a3.001 3.001 0 0 0 5.81 0H19.25a.75.75 0 0 0 0-1.5H6.905a3.001 3.001 0 0 0-5.81 0H.75ZM5.5 3a1.5 1.5 0 1 1-3 0 1.5 1.5 0 0 1 3 0ZM.75 16.25a.75.75 0 0 0 0 1.5h12.345a3.001 3.001 0 0 0 5.81 0h.345a.75.75 0 0 0 0-1.5h-.345a3.001 3.001 0 0 0-5.81 0H.75ZM17.5 17a1.5 1.5 0 1 1-3 0 1.5 1.5 0 0 1 3 0ZM0 10a.75.75 0 0 1 .75-.75h6.345a3.001 3.001 0 0 1 5.81 0h6.345a.75.75 0 0 1 0 1.5h-6.345a3.001 3.001 0 0 1-5.81 0H.75A.75.75 0 0 1 0 10Zm10 1.5a1.5 1.5 0 1 0 0-3 1.5 1.5 0 0 0 0 3Z" clip-rule="evenodd"/></svg>