<svg xmlns="http://www.w3.org/2000/svg" width="20" height="20" fill="none" viewBox="0 0 20 20"><path fill="#212121" fill-rule="evenodd" d="M11.916 8.5H8.084c-.98 0-1.63.001-2.136.04-.486.037-.73.103-.901.18a2.5 2.5 0 0 0-.98.788c-.112.151-.229.375-.37.841-.146.486-.287 1.121-.497 2.078-.31 1.413-.52 2.374-.614 3.118-.092.73-.044 1.075.033 1.294a2.5 2.5 0 0 0 1.03 1.281c.198.123.524.243 1.258.31.746.069 1.73.07 3.177.07h3.832c1.447 0 2.43-.002 3.177-.07.734-.067 1.06-.187 1.257-.31a2.5 2.5 0 0 0 1.03-1.281c.078-.22.126-.564.034-1.294-.094-.744-.304-1.705-.614-3.118-.21-.957-.351-1.592-.498-2.078-.14-.466-.257-.69-.37-.841a2.5 2.5 0 0 0-.979-.787c-.172-.078-.415-.144-.901-.181-.506-.039-1.156-.04-2.136-.04Zm-9.052.112c-.513.69-.718 1.624-1.129 3.493-.609 2.771-.913 4.157-.529 5.237a4 4 0 0 0 1.649 2.05C3.828 20 5.246 20 8.084 20h3.832c2.838 0 4.256 0 5.229-.608a4 4 0 0 0 1.649-2.05c.384-1.08.08-2.466-.53-5.237-.41-1.869-.615-2.803-1.128-3.493a4 4 0 0 0-1.566-1.259C14.785 7 13.83 7 11.915 7H8.084c-1.913 0-2.87 0-3.653.353a4 4 0 0 0-1.567 1.26Z" clip-rule="evenodd"/><path fill="#212121" fill-rule="evenodd" d="M5.25 5a4.75 4.75 0 0 1 9.5 0v6h-1.5V5a3.25 3.25 0 0 0-6.5 0v6h-1.5V5Z" clip-rule="evenodd"/><path fill="#212121" d="M7 11a1 1 0 1 1-2 0 1 1 0 0 1 2 0Zm8 0a1 1 0 1 1-2 0 1 1 0 0 1 2 0Z"/></svg>