<svg xmlns="http://www.w3.org/2000/svg" width="20" height="20" fill="none" viewBox="0 0 20 20"><path fill="#212121" d="M4.97 13.909a.75.75 0 0 0 1.06 1.06l8.94-8.939a.75.75 0 1 0-1.061-1.06l-8.94 8.939Z"/><path fill="#212121" fill-rule="evenodd" d="M6.5 9a2.5 2.5 0 1 0 0-5 2.5 2.5 0 0 0 0 5Zm0-1.5a1 1 0 1 0 0-2 1 1 0 0 0 0 2ZM16 13.5a2.5 2.5 0 1 1-5 0 2.5 2.5 0 0 1 5 0Zm-1.5 0a1 1 0 1 1-2 0 1 1 0 0 1 2 0Z" clip-rule="evenodd"/><path fill="#212121" fill-rule="evenodd" d="M0 10c0-3.738 0-5.608.804-7A6 6 0 0 1 3 .804C4.392 0 6.262 0 10 0c3.739 0 5.608 0 7 .804A6 6 0 0 1 19.196 3C20 4.392 20 6.262 20 10c0 3.739 0 5.608-.804 7A6.002 6.002 0 0 1 17 19.196C15.608 20 13.739 20 10 20c-3.738 0-5.608 0-7-.804A6 6 0 0 1 .804 17C0 15.608 0 13.739 0 10Zm10 8.5c-1.897 0-3.22-.001-4.244-.094-1.005-.091-1.576-.26-2.006-.509a4.5 4.5 0 0 1-1.647-1.647c-.248-.43-.418-1.001-.509-2.006C1.501 13.22 1.5 11.897 1.5 10c0-1.897.001-3.22.094-4.244.091-1.005.26-1.576.509-2.006A4.5 4.5 0 0 1 3.75 2.103c.43-.248 1.001-.418 2.006-.509C6.78 1.501 8.103 1.5 10 1.5c1.897 0 3.22.001 4.244.094 1.005.091 1.576.26 2.006.509a4.5 4.5 0 0 1 1.647 1.647c.248.43.418 1.001.509 2.006.093 1.025.094 2.347.094 4.244 0 1.897-.001 3.22-.094 4.244-.091 1.005-.26 1.576-.509 2.006a4.499 4.499 0 0 1-1.647 1.647c-.43.248-1.001.418-2.006.509-1.025.093-2.347.094-4.244.094Z" clip-rule="evenodd"/></svg>