<svg xmlns="http://www.w3.org/2000/svg" width="20" height="20" fill="none" viewBox="0 0 20 20"><path fill="#212121" d="M10.75 7a.75.75 0 0 0-1.5 0v5.31l3.22 3.22a.75.75 0 1 0 1.06-1.06l-2.78-2.78V7Z"/><path fill="#212121" fill-rule="evenodd" d="M10 20a8.5 8.5 0 0 0 6.284-14.224L17.53 4.53a.75.75 0 1 0-1.06-1.06l-1.29 1.29A8.463 8.463 0 0 0 10 3a8.46 8.46 0 0 0-5.18 1.76L3.53 3.47a.75.75 0 0 0-1.06 1.06l1.246 1.246A8.5 8.5 0 0 0 10 20Zm0-1.5a7 7 0 1 0 0-14 7 7 0 0 0 0 14Z" clip-rule="evenodd"/><path fill="#212121" d="M7.25.75A.75.75 0 0 1 8 0h4a.75.75 0 0 1 0 1.5H8a.75.75 0 0 1-.75-.75Z"/></svg>