<svg xmlns="http://www.w3.org/2000/svg" width="20" height="20" fill="none" viewBox="0 0 20 20"><path fill="#212121" fill-rule="evenodd" d="M10 .5a.75.75 0 0 1 .75.75v1.5a.75.75 0 0 1-1.5 0v-1.5A.75.75 0 0 1 10 .5ZM2.929 3.429a.75.75 0 0 1 1.06 0l1.061 1.06A.75.75 0 1 1 3.99 5.55L2.929 4.49a.75.75 0 0 1 0-1.061Zm14.142 0a.75.75 0 0 1 0 1.06l-1.06 1.061a.75.75 0 0 1-1.061-1.06l1.06-1.061a.75.75 0 0 1 1.061 0ZM10 6.75a3.75 3.75 0 0 0-3.75 3.75.75.75 0 0 1-1.5 0 5.25 5.25 0 1 1 10.5 0 .75.75 0 0 1-1.5 0A3.75 3.75 0 0 0 10 6.75Zm7 3.75a.75.75 0 0 1 .75-.75h1.5a.75.75 0 0 1 0 1.5h-1.5a.75.75 0 0 1-.75-.75Zm-17 0a.75.75 0 0 1 .75-.75h1.5a.75.75 0 0 1 0 1.5H.75A.75.75 0 0 1 0 10.5Zm2.25 4a.75.75 0 0 1 .75-.75h14a.75.75 0 0 1 0 1.5H3a.75.75 0 0 1-.75-.75Zm3 4a.75.75 0 0 1 .75-.75h8a.75.75 0 0 1 0 1.5H6a.75.75 0 0 1-.75-.75Z" clip-rule="evenodd"/></svg>