<svg xmlns="http://www.w3.org/2000/svg" width="20" height="20" fill="none" viewBox="0 0 20 20"><path fill="#212121" fill-rule="evenodd" d="M0 17.25a.75.75 0 0 1 .75-.75h18.5a.75.75 0 0 1 0 1.5H.75a.75.75 0 0 1-.75-.75Z" clip-rule="evenodd"/><path fill="#212121" fill-rule="evenodd" d="M13.416 1.376a.75.75 0 0 1 .208 1.04l-10 15a.75.75 0 0 1-1.248-.832l10-15a.75.75 0 0 1 1.04-.208Z" clip-rule="evenodd"/><path fill="#212121" fill-rule="evenodd" d="M6.584 1.376a.75.75 0 0 0-.208 1.04l10 15a.75.75 0 1 0 1.248-.832l-10-15a.75.75 0 0 0-1.04-.208ZM10.36 14.5h-.72a.5.5 0 0 0-.49.402L8.83 16.5h2.34l-.32-1.598a.5.5 0 0 0-.49-.402Zm1.962.108A2 2 0 0 0 10.36 13h-.72a2 2 0 0 0-1.962 1.608L7 18h6l-.678-3.392Z" clip-rule="evenodd"/></svg>