<svg xmlns="http://www.w3.org/2000/svg" width="20" height="20" fill="none" viewBox="0 0 20 20"><path fill="#212121" fill-rule="evenodd" d="M18.306 14.235c.092-1.02.094-2.336.094-4.235 0-1.899-.002-3.216-.094-4.235-.09-.998-.258-1.553-.495-1.965A4.4 4.4 0 0 0 16.2 2.19c-.412-.238-.967-.406-1.965-.496C13.215 1.602 11.9 1.6 10 1.6c-1.899 0-3.216.002-4.235.094-.998.09-1.553.258-1.965.495A4.4 4.4 0 0 0 2.19 3.8c-.238.412-.406.967-.496 1.965C1.602 6.785 1.6 8.1 1.6 10c0 1.899.002 3.216.094 4.235.09.998.258 1.553.495 1.965A4.4 4.4 0 0 0 3.8 17.81c.412.238.967.406 1.965.496 1.02.092 2.336.094 4.235.094 1.899 0 3.216-.002 4.235-.094.998-.09 1.553-.258 1.965-.495a4.4 4.4 0 0 0 1.61-1.611c.238-.412.406-.967.496-1.965ZM3 19.196C4.392 20 6.262 20 10 20c3.739 0 5.608 0 7-.804A6.002 6.002 0 0 0 19.196 17C20 15.608 20 13.739 20 10c0-3.738 0-5.608-.804-7A6 6 0 0 0 17 .804C15.608 0 13.739 0 10 0 6.262 0 4.392 0 3 .804A6 6 0 0 0 .804 3C0 4.392 0 6.262 0 10c0 3.739 0 5.608.804 7A6 6 0 0 0 3 19.196Z" clip-rule="evenodd"/><path fill="#212121" fill-rule="evenodd" d="M9.53 9.47a.75.75 0 0 1 0 1.06l-3 3a.75.75 0 0 1-1.06-1.06L7.94 10 5.47 7.53a.75.75 0 0 1 1.06-1.06l3 3ZM11 13.25a.75.75 0 0 1 .75-.75h2.5a.75.75 0 0 1 0 1.5h-2.5a.75.75 0 0 1-.75-.75Z" clip-rule="evenodd"/></svg>