<svg xmlns="http://www.w3.org/2000/svg" width="20" height="20" fill="none" viewBox="0 0 20 20"><path fill="#212121" fill-rule="evenodd" d="M1 6.25a.75.75 0 0 1 .75.75v11a.75.75 0 0 1-1.5 0V7A.75.75 0 0 1 1 6.25ZM16.254 15.562l1.436-6.225A1.5 1.5 0 0 0 16.23 7.5h-3.952a2 2 0 0 1-1.821-2.828l.893-1.965A.5.5 0 0 0 10.894 2h-.737a2.5 2.5 0 0 0-1.768.732l-3.45 3.45a1.5 1.5 0 0 0-.439 1.06V16A1.5 1.5 0 0 0 6 17.5h7.818a2.5 2.5 0 0 0 2.436-1.938Zm2.898-5.887-1.437 6.224A4 4 0 0 1 13.818 19H6a3 3 0 0 1-3-3V7.243a3 3 0 0 1 .879-2.122l3.45-3.45A4 4 0 0 1 10.156.5h.737a2 2 0 0 1 1.82 2.828l-.893 1.965a.5.5 0 0 0 .456.707h3.952a3 3 0 0 1 2.923 3.675Z" clip-rule="evenodd"/></svg>