<svg xmlns="http://www.w3.org/2000/svg" width="20" height="20" fill="none" viewBox="0 0 20 20"><path fill="#212121" d="M4.75 12.25a.75.75 0 0 0 0 1.5h2.5a.75.75 0 0 0 0-1.5h-2.5ZM12 13a.75.75 0 0 1 .75-.75h2.5a.75.75 0 0 1 0 1.5h-2.5A.75.75 0 0 1 12 13Z"/><path fill="#212121" fill-rule="evenodd" d="m14.051 16.75.637-.001 2.782 2.781a.75.75 0 1 0 1.06-1.06l-1.864-1.865c.48-.105.915-.297 1.279-.66.455-.456.64-1.023.725-1.65.08-.595.08-1.345.08-2.243V8.966c0-1.371 0-2.447-.07-3.311-.072-.88-.221-1.607-.557-2.265A5.75 5.75 0 0 0 15.61.877C14.952.54 14.225.393 13.345.32 12.481.25 11.405.25 10.034.25h-.068c-1.371 0-2.447 0-3.311.07-.88.073-1.607.221-2.265.557A5.75 5.75 0 0 0 1.877 3.39c-.336.658-.484 1.385-.556 2.265-.071.864-.071 1.94-.071 3.311v3.086c0 .899 0 1.648.08 2.242.084.628.27 1.195.725 1.65.364.364.799.556 1.28.661L1.47 18.47a.75.75 0 1 0 1.06 1.06l2.782-2.781.47.001h8.27ZM17.25 9v.25H2.75V9c0-1.413 0-2.427.066-3.223.024-.295.056-.55.098-.777h14.172c.042.226.074.482.098.777.065.796.066 1.81.066 3.223Zm-.813-5.5H3.563a4.25 4.25 0 0 1 1.508-1.287c.411-.21.919-.333 1.706-.397.796-.065 1.81-.066 3.223-.066 1.412 0 2.427 0 3.223.066.787.064 1.295.188 1.707.397A4.25 4.25 0 0 1 16.437 3.5ZM2.75 10.75h14.5V12c0 .964-.002 1.612-.067 2.095-.062.461-.169.659-.3.789-.13.13-.327.237-.789.3-.483.064-1.13.066-2.095.066H6c-.964 0-1.612-.002-2.095-.066-.462-.063-.66-.17-.79-.3-.13-.13-.237-.328-.3-.79-.064-.482-.066-1.13-.066-2.094v-1.25Z" clip-rule="evenodd"/></svg>