<svg xmlns="http://www.w3.org/2000/svg" width="20" height="20" fill="none" viewBox="0 0 20 20"><path fill="#212121" d="M2 4a1 1 0 0 1 1-1h.743c.515 0 .773 0 .984-.106a1 1 0 0 0 .259-.186c.167-.167.249-.412.411-.9l.147-.44c.22-.66.33-.99.592-1.18C6.398 0 6.746 0 7.442 0h5.117c.695 0 1.043 0 1.305.189s.372.519.592 1.179l.147.44c.162.488.244.733.411.9a1 1 0 0 0 .259.186c.211.106.469.106.984.106H17a1 1 0 1 1 0 2H3a1 1 0 0 1-1-1ZM3.241 14.88c.362 2.442.543 3.663 1.388 4.391C5.473 20 6.708 20 9.177 20h1.646c2.47 0 3.704 0 4.548-.729.845-.728 1.026-1.95 1.388-4.392L18 6.5h-1.5L16.261 8l-.986 6.66c-.187 1.26-.309 2.065-.474 2.654-.153.55-.296.724-.41.822-.113.098-.306.213-.872.285-.607.076-1.422.079-2.696.079H9.177c-1.274 0-2.089-.003-2.696-.08-.566-.07-.759-.186-.873-.284-.113-.098-.256-.273-.41-.822-.164-.59-.286-1.395-.473-2.655L3.74 8 3.5 6.5H2l1.241 8.38Z"/></svg>