<svg xmlns="http://www.w3.org/2000/svg" width="20" height="20" fill="none" viewBox="0 0 20 20"><path fill="#212121" fill-rule="evenodd" d="M4.762 5c-1.644 0-2.466 0-3.097.314a3 3 0 0 0-1.351 1.35C0 7.297 0 8.119 0 9.763v.476c0 1.644 0 2.466.314 3.097a3 3 0 0 0 1.35 1.351C2.297 15 3.119 15 4.763 15l3.149 3.306A2.236 2.236 0 0 0 9.53 19c1.095 0 2.021-.795 2.132-1.884A71.43 71.43 0 0 0 12 10c0-3.099-.18-5.557-.338-7.116C11.55 1.794 10.625 1 9.53 1c-.612 0-1.197.25-1.62.694L4.763 5Zm4.235 12.272L5.405 13.5h-.643c-.846 0-1.393-.001-1.81-.034-.398-.032-.547-.087-.62-.123a1.5 1.5 0 0 1-.675-.675c-.036-.073-.09-.222-.123-.62-.033-.417-.034-.964-.034-1.81v-.476c0-.846.001-1.393.034-1.81.032-.398.087-.547.123-.62a1.5 1.5 0 0 1 .675-.675c.073-.036.222-.09.62-.123.417-.033.964-.034 1.81-.034h.643l3.592-3.772A.736.736 0 0 1 9.53 2.5c.367 0 .61.253.64.536.153 1.516.33 3.923.33 6.964 0 3.041-.177 5.448-.33 6.964-.03.283-.273.536-.64.536a.736.736 0 0 1-.533-.228Z" clip-rule="evenodd"/><path fill="#212121" d="M15.75 12.75a.75.75 0 0 0 1.5 0v-2h2a.75.75 0 0 0 0-1.5h-2v-2a.75.75 0 0 0-1.5 0v2h-2a.75.75 0 0 0 0 1.5h2v2Z"/></svg>