<svg xmlns="http://www.w3.org/2000/svg" width="20" height="20" fill="none" viewBox="0 0 20 20"><path fill="#212121" fill-rule="evenodd" d="M8.762 5c-1.644 0-2.466 0-3.097.314a3 3 0 0 0-1.351 1.35C4 7.297 4 8.119 4 9.763v.476c0 1.644 0 2.466.314 3.097a3 3 0 0 0 1.35 1.351C6.297 15 7.119 15 8.763 15l3.149 3.306A2.236 2.236 0 0 0 13.53 19c1.095 0 2.021-.795 2.132-1.884A71.43 71.43 0 0 0 16 10c0-3.099-.18-5.557-.338-7.116C15.55 1.794 14.625 1 13.53 1c-.612 0-1.197.25-1.62.694L8.763 5Zm4.235 12.272L9.405 13.5h-.643c-.846 0-1.393-.001-1.81-.034-.398-.032-.547-.087-.62-.123a1.5 1.5 0 0 1-.675-.675c-.036-.073-.09-.222-.123-.62-.033-.417-.034-.964-.034-1.81v-.476c0-.846.001-1.393.034-1.81.032-.398.087-.547.123-.62a1.5 1.5 0 0 1 .675-.675c.073-.036.222-.09.62-.123.417-.033.964-.034 1.81-.034h.643l3.592-3.772a.736.736 0 0 1 .533-.228c.367 0 .61.253.64.536.153 1.516.33 3.923.33 6.964 0 3.041-.177 5.448-.33 6.964-.03.283-.273.536-.64.536a.736.736 0 0 1-.533-.228Z" clip-rule="evenodd"/></svg>